<svg width="390" height="137" viewBox="0 0 390 137" fill="none" xmlns="http://www.w3.org/2000/svg">
<mask id="path-1-outside-1_514_1106" maskUnits="userSpaceOnUse" x="-3" y="12.6528" width="128" height="28" fill="black">
<rect fill="white" x="-3" y="12.6528" width="128" height="28"/>
<path d="M21.4719 37.6528H17.3937L15.3781 31.9497H6.56562L4.62812 37.6528H0.565624L8.95625 15.2466H13.1437L21.4719 37.6528ZM14.3937 28.9185L11.2844 19.981C11.1906 19.6893 11.0917 19.2205 10.9875 18.5747H10.925C10.8312 19.1685 10.7271 19.6372 10.6125 19.981L7.53437 28.9185H14.3937ZM51.275 36.1216C48.9417 37.3924 46.3427 38.0278 43.4781 38.0278C40.1656 38.0278 37.4833 36.9966 35.4312 34.9341C33.3792 32.8716 32.3531 30.1424 32.3531 26.7466C32.3531 23.2778 33.4729 20.4341 35.7125 18.2153C37.9625 15.9862 40.8167 14.8716 44.275 14.8716C46.7646 14.8716 48.8583 15.2362 50.5562 15.9653V19.7935C48.8375 18.6476 46.7906 18.0747 44.4156 18.0747C42.0302 18.0747 40.0719 18.8612 38.5406 20.4341C37.0198 22.007 36.2594 24.0435 36.2594 26.5435C36.2594 29.1164 36.9156 31.1424 38.2281 32.6216C39.5406 34.0903 41.3219 34.8247 43.5719 34.8247C45.1135 34.8247 46.4469 34.5278 47.5719 33.9341V28.606H42.8531V25.481L51.275 25.481L51.275 36.1216ZM69.5156 37.6528H65.6875V15.2466H69.5156V37.6528ZM97.0531 37.6528H84.6469V15.2466H88.3656V34.5122H97.0531V37.6528ZM122.481 37.6528H109.903V15.2466H121.981V18.4028L113.622 18.4028V24.7466L121.325 24.7466V27.8872L113.622 27.8872V34.5122H122.481V37.6528Z"/>
</mask>
<path d="M21.4719 37.6528V39.6528H24.3489L23.3466 36.956L21.4719 37.6528ZM17.3937 37.6528L15.5081 38.3193L15.9794 39.6528H17.3937V37.6528ZM15.3781 31.9497L17.2638 31.2833L16.7925 29.9497H15.3781V31.9497ZM6.56562 31.9497L6.56562 29.9497H5.13281L4.67192 31.3064L6.56562 31.9497ZM4.62812 37.6528L4.62812 39.6528H6.06094L6.52183 38.2962L4.62812 37.6528ZM0.565624 37.6528L-1.30736 36.9514L-2.31896 39.6528H0.565624L0.565624 37.6528ZM8.95625 15.2466V13.2466L7.56957 13.2466L7.08327 14.5452L8.95625 15.2466ZM13.1437 15.2466L15.0184 14.5498L14.5341 13.2466H13.1437V15.2466ZM14.3937 28.9185V30.9185L17.2071 30.9185L16.2827 28.2613L14.3937 28.9185ZM11.2844 19.981L9.38032 20.593L9.3876 20.6156L9.39542 20.6381L11.2844 19.981ZM10.9875 18.5747L12.962 18.2562L12.6908 16.5747H10.9875V18.5747ZM10.925 18.5747V16.5747H9.21601L8.94947 18.2628L10.925 18.5747ZM10.6125 19.981L12.5035 20.6322L12.5067 20.6228L12.5099 20.6134L10.6125 19.981ZM7.53437 28.9185L5.64338 28.2672L4.73027 30.9185H7.53437L7.53437 28.9185ZM21.4719 35.6528H17.3937V39.6528H21.4719V35.6528ZM19.2794 36.9864L17.2638 31.2833L13.4924 32.6162L15.5081 38.3193L19.2794 36.9864ZM15.3781 29.9497H6.56562L6.56562 33.9497H15.3781V29.9497ZM4.67192 31.3064L2.73442 37.0095L6.52183 38.2962L8.45933 32.593L4.67192 31.3064ZM4.62812 35.6528H0.565624L0.565624 39.6528H4.62812L4.62812 35.6528ZM2.4386 38.3542L10.8292 15.948L7.08327 14.5452L-1.30736 36.9514L2.4386 38.3542ZM8.95625 17.2466H13.1437V13.2466H8.95625V17.2466ZM11.2691 15.9434L19.5972 38.3496L23.3466 36.956L15.0184 14.5498L11.2691 15.9434ZM16.2827 28.2613L13.1733 19.3238L9.39542 20.6381L12.5048 29.5756L16.2827 28.2613ZM13.1884 19.3689C13.1439 19.2303 13.0639 18.888 12.962 18.2562L9.01302 18.8932C9.11945 19.5531 9.23737 20.1482 9.38032 20.593L13.1884 19.3689ZM10.9875 16.5747H10.925V20.5747H10.9875V16.5747ZM8.94947 18.2628C8.86329 18.8086 8.77968 19.1549 8.71513 19.3485L12.5099 20.6134C12.6745 20.1196 12.7992 19.5283 12.9005 18.8866L8.94947 18.2628ZM8.72151 19.3297L5.64338 28.2672L9.42537 29.5697L12.5035 20.6322L8.72151 19.3297ZM7.53437 30.9185H14.3937V26.9185H7.53437L7.53437 30.9185ZM51.275 36.1216L52.2316 37.878L53.275 37.3097V36.1216H51.275ZM35.7125 18.2153L37.1201 19.6361L37.1201 19.6361L35.7125 18.2153ZM50.5563 15.9653H52.5563V14.6476L51.3454 14.1276L50.5563 15.9653ZM50.5563 19.7935L49.4468 21.4576L52.5563 23.5305V19.7935L50.5563 19.7935ZM38.5406 20.4341L37.1075 19.039L37.1028 19.0439L38.5406 20.4341ZM38.2281 32.6216L36.7321 33.949L36.7368 33.9542L38.2281 32.6216ZM47.5719 33.9341L48.5054 35.7029L49.5719 35.14L49.5719 33.9341H47.5719ZM47.5719 28.606H49.5719V26.606H47.5719V28.606ZM42.8531 28.606H40.8531V30.606H42.8531V28.606ZM42.8531 25.481V23.481H40.8531V25.481H42.8531ZM51.275 25.481H53.275V23.481H51.275V25.481ZM50.3184 34.3652C48.3013 35.4638 46.0353 36.0278 43.4781 36.0278V40.0278C46.6501 40.0278 49.5821 39.321 52.2316 37.878L50.3184 34.3652ZM43.4781 36.0278C40.6176 36.0278 38.4727 35.1554 36.849 33.5235L34.0135 36.3447C36.494 38.8378 39.7137 40.0278 43.4781 40.0278V36.0278ZM36.849 33.5235C35.2321 31.8983 34.3531 29.7091 34.3531 26.7466H30.3531C30.3531 30.5758 31.5262 33.8449 34.0135 36.3447L36.849 33.5235ZM34.3531 26.7466C34.3531 23.7526 35.2995 21.4398 37.1201 19.6361L34.3049 16.7945C31.6463 19.4284 30.3531 22.803 30.3531 26.7466H34.3531ZM37.1201 19.6361C38.9594 17.8139 41.2906 16.8716 44.275 16.8716V12.8716C40.3427 12.8716 36.9656 14.1585 34.3049 16.7946L37.1201 19.6361ZM44.275 16.8716C46.5821 16.8716 48.3889 17.2112 49.7671 17.803L51.3454 14.1276C49.3278 13.2611 46.947 12.8716 44.275 12.8716V16.8716ZM48.5563 15.9653V19.7935L52.5563 19.7935V15.9653H48.5563ZM51.6656 18.1294C49.5712 16.733 47.1247 16.0747 44.4156 16.0747V20.0747C46.4566 20.0747 48.1038 20.5622 49.4468 21.4576L51.6656 18.1294ZM44.4156 16.0747C41.5423 16.0747 39.05 17.0437 37.1076 19.039L39.9737 21.8292C41.0938 20.6786 42.5182 20.0747 44.4156 20.0747V16.0747ZM37.1028 19.0439C35.1694 21.0435 34.2594 23.6047 34.2594 26.5435H38.2594C38.2594 24.4823 38.8702 22.9705 39.9784 21.8243L37.1028 19.0439ZM34.2594 26.5435C34.2594 29.4548 35.0071 32.005 36.7321 33.949L39.7241 31.2942C38.8241 30.2799 38.2594 28.7779 38.2594 26.5435H34.2594ZM36.7368 33.9542C38.4847 35.9102 40.8421 36.8247 43.5719 36.8247L43.5719 32.8247C41.8016 32.8247 40.5966 32.2705 39.7194 31.2889L36.7368 33.9542ZM43.5719 36.8247C45.3706 36.8247 47.0378 36.4774 48.5054 35.7029L46.6384 32.1653C45.856 32.5782 44.8565 32.8247 43.5719 32.8247L43.5719 36.8247ZM49.5719 33.9341V28.606H45.5719V33.9341H49.5719ZM47.5719 26.606H42.8531V30.606H47.5719V26.606ZM44.8531 28.606V25.481H40.8531V28.606H44.8531ZM42.8531 27.481L51.275 27.481V23.481L42.8531 23.481V27.481ZM49.275 25.481L49.275 36.1216H53.275L53.275 25.481L49.275 25.481ZM69.5156 37.6528V39.6528H71.5156V37.6528H69.5156ZM65.6875 37.6528H63.6875V39.6528H65.6875V37.6528ZM65.6875 15.2466V13.2466H63.6875V15.2466H65.6875ZM69.5156 15.2466H71.5156V13.2466H69.5156V15.2466ZM69.5156 35.6528H65.6875V39.6528H69.5156V35.6528ZM67.6875 37.6528V15.2466H63.6875L63.6875 37.6528H67.6875ZM65.6875 17.2466H69.5156V13.2466H65.6875V17.2466ZM67.5156 15.2466V37.6528H71.5156V15.2466H67.5156ZM97.0531 37.6528V39.6528H99.0531V37.6528H97.0531ZM84.6469 37.6528H82.6469V39.6528H84.6469V37.6528ZM84.6469 15.2466V13.2466H82.6469V15.2466H84.6469ZM88.3656 15.2466H90.3656V13.2466H88.3656V15.2466ZM88.3656 34.5122H86.3656V36.5122H88.3656V34.5122ZM97.0531 34.5122H99.0531V32.5122H97.0531V34.5122ZM97.0531 35.6528H84.6469V39.6528H97.0531V35.6528ZM86.6469 37.6528V15.2466H82.6469V37.6528H86.6469ZM84.6469 17.2466H88.3656V13.2466H84.6469V17.2466ZM86.3656 15.2466V34.5122H90.3656V15.2466H86.3656ZM88.3656 36.5122H97.0531V32.5122H88.3656V36.5122ZM95.0531 34.5122V37.6528H99.0531V34.5122H95.0531ZM122.481 37.6528V39.6528H124.481V37.6528H122.481ZM109.903 37.6528H107.903V39.6528H109.903V37.6528ZM109.903 15.2466V13.2466L107.903 13.2466V15.2466L109.903 15.2466ZM121.981 15.2466H123.981V13.2466H121.981V15.2466ZM121.981 18.4028V20.4028H123.981V18.4028H121.981ZM113.622 18.4028V16.4028H111.622V18.4028H113.622ZM113.622 24.7466H111.622V26.7466H113.622V24.7466ZM121.325 24.7466H123.325V22.7466H121.325V24.7466ZM121.325 27.8872V29.8872H123.325V27.8872H121.325ZM113.622 27.8872V25.8872H111.622V27.8872H113.622ZM113.622 34.5122H111.622V36.5122H113.622V34.5122ZM122.481 34.5122H124.481V32.5122H122.481V34.5122ZM122.481 35.6528H109.903V39.6528H122.481V35.6528ZM111.903 37.6528V15.2466L107.903 15.2466V37.6528H111.903ZM109.903 17.2466L121.981 17.2466V13.2466H109.903V17.2466ZM119.981 15.2466V18.4028H123.981V15.2466H119.981ZM121.981 16.4028H113.622V20.4028L121.981 20.4028V16.4028ZM111.622 18.4028V24.7466H115.622V18.4028H111.622ZM113.622 26.7466L121.325 26.7466V22.7466L113.622 22.7466V26.7466ZM119.325 24.7466V27.8872H123.325V24.7466H119.325ZM121.325 25.8872L113.622 25.8872V29.8872L121.325 29.8872V25.8872ZM111.622 27.8872V34.5122H115.622V27.8872H111.622ZM113.622 36.5122H122.481V32.5122H113.622V36.5122ZM120.481 34.5122V37.6528H124.481V34.5122H120.481Z" fill="#F9A826" mask="url(#path-1-outside-1_514_1106)"/>
<path d="M2.78125 83.6528H1.46875V72.4497H2.78125V83.6528ZM9.27344 83.5747C8.97135 83.7414 8.57292 83.8247 8.07812 83.8247C6.67708 83.8247 5.97656 83.0435 5.97656 81.481V76.7466H4.60156V75.6528H5.97656V73.6997L7.25781 73.2856V75.6528H9.27344V76.7466H7.25781V81.2544C7.25781 81.7909 7.34896 82.1737 7.53125 82.4028C7.71354 82.632 8.01562 82.7466 8.4375 82.7466C8.76042 82.7466 9.03906 82.658 9.27344 82.481V83.5747ZM17.4141 79.9731H11.7656C11.7865 80.8638 12.026 81.5513 12.4844 82.0356C12.9427 82.52 13.5729 82.7622 14.375 82.7622C15.276 82.7622 16.1042 82.4653 16.8594 81.8716V83.0747C16.1562 83.5851 15.2266 83.8403 14.0703 83.8403C12.9401 83.8403 12.0521 83.4784 11.4062 82.7544C10.7604 82.0252 10.4375 81.0018 10.4375 79.6841C10.4375 78.4393 10.7891 77.4263 11.4922 76.645C12.2005 75.8586 13.0781 75.4653 14.125 75.4653C15.1719 75.4653 15.9818 75.8039 16.5547 76.481C17.1276 77.158 17.4141 78.0981 17.4141 79.3013V79.9731ZM16.1016 78.8872C16.0964 78.1476 15.9167 77.5721 15.5625 77.1606C15.2135 76.7492 14.7266 76.5435 14.1016 76.5435C13.4974 76.5435 12.9844 76.7596 12.5625 77.1919C12.1406 77.6242 11.8802 78.1893 11.7812 78.8872H16.1016ZM23.5312 76.9497C23.3073 76.7778 22.9844 76.6919 22.5625 76.6919C22.0156 76.6919 21.5573 76.9497 21.1875 77.4653C20.8229 77.981 20.6406 78.6841 20.6406 79.5747V83.6528H19.3594V75.6528H20.6406V77.3013H20.6719C20.8542 76.7388 21.1328 76.3013 21.5078 75.9888C21.8828 75.6711 22.3021 75.5122 22.7656 75.5122C23.099 75.5122 23.3542 75.5487 23.5312 75.6216V76.9497ZM30.6484 83.6528H29.3672V82.4028H29.3359C28.7786 83.3612 27.9583 83.8403 26.875 83.8403C26.0781 83.8403 25.4531 83.6294 25 83.2075C24.5521 82.7856 24.3281 82.2257 24.3281 81.5278C24.3281 80.033 25.2083 79.1632 26.9688 78.9185L29.3672 78.5825C29.3672 77.2231 28.8177 76.5435 27.7188 76.5435C26.7552 76.5435 25.8854 76.8716 25.1094 77.5278V76.2153C25.8958 75.7153 26.8021 75.4653 27.8281 75.4653C29.7083 75.4653 30.6484 76.4601 30.6484 78.4497V83.6528ZM29.3672 79.606L27.4375 79.8716C26.8438 79.9549 26.3958 80.1034 26.0938 80.3169C25.7917 80.5252 25.6406 80.8976 25.6406 81.4341C25.6406 81.8247 25.7786 82.145 26.0547 82.395C26.3359 82.6398 26.7083 82.7622 27.1719 82.7622C27.8073 82.7622 28.3307 82.5409 28.7422 82.0981C29.1589 81.6502 29.3672 81.0851 29.3672 80.4028V79.606ZM38.5156 83.2856C37.901 83.6554 37.1719 83.8403 36.3281 83.8403C35.1875 83.8403 34.2656 83.4705 33.5625 82.731C32.8646 81.9862 32.5156 81.0226 32.5156 79.8403C32.5156 78.5226 32.8932 77.4653 33.6484 76.6685C34.4036 75.8664 35.4115 75.4653 36.6719 75.4653C37.375 75.4653 37.9948 75.5955 38.5312 75.856V77.1685C37.9375 76.7518 37.3021 76.5435 36.625 76.5435C35.8073 76.5435 35.1354 76.8377 34.6094 77.4263C34.0885 78.0096 33.8281 78.7778 33.8281 79.731C33.8281 80.6685 34.0729 81.408 34.5625 81.9497C35.0573 82.4914 35.7188 82.7622 36.5469 82.7622C37.2448 82.7622 37.901 82.5304 38.5156 82.0669V83.2856ZM41.1094 73.6216C40.8802 73.6216 40.6849 73.5435 40.5234 73.3872C40.362 73.231 40.2812 73.033 40.2812 72.7935C40.2812 72.5539 40.362 72.356 40.5234 72.1997C40.6849 72.0382 40.8802 71.9575 41.1094 71.9575C41.3438 71.9575 41.5417 72.0382 41.7031 72.1997C41.8698 72.356 41.9531 72.5539 41.9531 72.7935C41.9531 73.0226 41.8698 73.2179 41.7031 73.3794C41.5417 73.5409 41.3438 73.6216 41.1094 73.6216ZM41.7344 83.6528H40.4531V75.6528H41.7344V83.6528ZM47.6719 83.8403C46.4896 83.8403 45.5443 83.4679 44.8359 82.7231C44.1328 81.9731 43.7812 80.981 43.7812 79.7466C43.7812 78.4028 44.1484 77.3534 44.8828 76.5981C45.6172 75.8429 46.6094 75.4653 47.8594 75.4653C49.0521 75.4653 49.9818 75.8325 50.6484 76.5669C51.3203 77.3013 51.6562 78.3195 51.6562 79.6216C51.6562 80.8976 51.2943 81.9211 50.5703 82.6919C49.8516 83.4575 48.8854 83.8403 47.6719 83.8403ZM47.7656 76.5435C46.9427 76.5435 46.2917 76.8247 45.8125 77.3872C45.3333 77.9445 45.0938 78.7153 45.0938 79.6997C45.0938 80.6476 45.3359 81.395 45.8203 81.9419C46.3047 82.4888 46.9531 82.7622 47.7656 82.7622C48.5938 82.7622 49.2292 82.494 49.6719 81.9575C50.1198 81.4211 50.3438 80.658 50.3438 79.6685C50.3438 78.6685 50.1198 77.8976 49.6719 77.356C49.2292 76.8143 48.5938 76.5435 47.7656 76.5435ZM60.3438 83.6528H59.0625V79.0903C59.0625 77.3924 58.4427 76.5435 57.2031 76.5435C56.5625 76.5435 56.0312 76.7856 55.6094 77.27C55.1927 77.7492 54.9844 78.356 54.9844 79.0903V83.6528H53.7031V75.6528H54.9844V76.981H55.0156C55.6198 75.9705 56.4948 75.4653 57.6406 75.4653C58.5156 75.4653 59.1849 75.7492 59.6484 76.3169C60.112 76.8794 60.3438 77.6945 60.3438 78.7622V83.6528ZM69.1953 79.9731H63.5469C63.5677 80.8638 63.8073 81.5513 64.2656 82.0356C64.724 82.52 65.3542 82.7622 66.1562 82.7622C67.0573 82.7622 67.8854 82.4653 68.6406 81.8716V83.0747C67.9375 83.5851 67.0078 83.8403 65.8516 83.8403C64.7214 83.8403 63.8333 83.4784 63.1875 82.7544C62.5417 82.0252 62.2188 81.0018 62.2188 79.6841C62.2188 78.4393 62.5703 77.4263 63.2734 76.645C63.9818 75.8586 64.8594 75.4653 65.9062 75.4653C66.9531 75.4653 67.763 75.8039 68.3359 76.481C68.9089 77.158 69.1953 78.0981 69.1953 79.3013V79.9731ZM67.8828 78.8872C67.8776 78.1476 67.6979 77.5721 67.3438 77.1606C66.9948 76.7492 66.5078 76.5435 65.8828 76.5435C65.2786 76.5435 64.7656 76.7596 64.3438 77.1919C63.9219 77.6242 63.6615 78.1893 63.5625 78.8872H67.8828ZM70.6562 83.3638V81.9888C71.3542 82.5044 72.1224 82.7622 72.9609 82.7622C74.0859 82.7622 74.6484 82.3872 74.6484 81.6372C74.6484 81.4237 74.599 81.244 74.5 81.0981C74.4062 80.9471 74.276 80.8143 74.1094 80.6997C73.9479 80.5851 73.7552 80.4836 73.5312 80.395C73.3125 80.3013 73.0755 80.2049 72.8203 80.106C72.4661 79.9653 72.1536 79.8247 71.8828 79.6841C71.6172 79.5382 71.3932 79.3768 71.2109 79.1997C71.0339 79.0174 70.8984 78.8117 70.8047 78.5825C70.7161 78.3534 70.6719 78.0851 70.6719 77.7778C70.6719 77.4028 70.7578 77.0721 70.9297 76.7856C71.1016 76.494 71.3307 76.2518 71.6172 76.0591C71.9036 75.8612 72.2292 75.7127 72.5938 75.6138C72.9635 75.5148 73.3438 75.4653 73.7344 75.4653C74.4271 75.4653 75.0469 75.5851 75.5938 75.8247V77.1216C75.0052 76.7362 74.3281 76.5435 73.5625 76.5435C73.3229 76.5435 73.1068 76.5721 72.9141 76.6294C72.7214 76.6815 72.5547 76.757 72.4141 76.856C72.2786 76.9549 72.1719 77.0747 72.0938 77.2153C72.0208 77.3507 71.9844 77.5018 71.9844 77.6685C71.9844 77.8768 72.0208 78.0513 72.0938 78.1919C72.1719 78.3325 72.2839 78.4575 72.4297 78.5669C72.5755 78.6763 72.7526 78.7752 72.9609 78.8638C73.1693 78.9523 73.4062 79.0487 73.6719 79.1528C74.026 79.2882 74.3438 79.4289 74.625 79.5747C74.9062 79.7153 75.1458 79.8768 75.3438 80.0591C75.5417 80.2362 75.6927 80.4419 75.7969 80.6763C75.9062 80.9106 75.9609 81.1893 75.9609 81.5122C75.9609 81.908 75.8724 82.2518 75.6953 82.5435C75.5234 82.8351 75.2917 83.0773 75 83.27C74.7083 83.4627 74.3724 83.606 73.9922 83.6997C73.612 83.7935 73.2135 83.8403 72.7969 83.8403C71.974 83.8403 71.2604 83.6815 70.6562 83.3638ZM89.1562 83.6528H87.875V82.2935H87.8438C87.25 83.3247 86.3333 83.8403 85.0938 83.8403C84.0885 83.8403 83.2839 83.4836 82.6797 82.77C82.0807 82.0513 81.7812 81.0747 81.7812 79.8403C81.7812 78.5174 82.1146 77.4575 82.7812 76.6606C83.4479 75.8638 84.3359 75.4653 85.4453 75.4653C86.5443 75.4653 87.3438 75.8976 87.8438 76.7622H87.875V71.8091H89.1562V83.6528ZM87.875 80.0356V78.856C87.875 78.2101 87.6615 77.6632 87.2344 77.2153C86.8073 76.7674 86.2656 76.5435 85.6094 76.5435C84.8281 76.5435 84.2135 76.8299 83.7656 77.4028C83.3177 77.9757 83.0938 78.7674 83.0938 79.7778C83.0938 80.6997 83.3073 81.4289 83.7344 81.9653C84.1667 82.4966 84.7448 82.7622 85.4688 82.7622C86.1823 82.7622 86.7604 82.5044 87.2031 81.9888C87.651 81.4731 87.875 80.8221 87.875 80.0356ZM98.1797 79.9731H92.5312C92.5521 80.8638 92.7917 81.5513 93.25 82.0356C93.7083 82.52 94.3385 82.7622 95.1406 82.7622C96.0417 82.7622 96.8698 82.4653 97.625 81.8716V83.0747C96.9219 83.5851 95.9922 83.8403 94.8359 83.8403C93.7057 83.8403 92.8177 83.4784 92.1719 82.7544C91.526 82.0252 91.2031 81.0018 91.2031 79.6841C91.2031 78.4393 91.5547 77.4263 92.2578 76.645C92.9661 75.8586 93.8438 75.4653 94.8906 75.4653C95.9375 75.4653 96.7474 75.8039 97.3203 76.481C97.8932 77.158 98.1797 78.0981 98.1797 79.3013V79.9731ZM96.8672 78.8872C96.862 78.1476 96.6823 77.5721 96.3281 77.1606C95.9792 76.7492 95.4922 76.5435 94.8672 76.5435C94.263 76.5435 93.75 76.7596 93.3281 77.1919C92.9062 77.6242 92.6458 78.1893 92.5469 78.8872H96.8672ZM109.25 75.3872C109.25 75.0435 109.195 74.744 109.086 74.4888C108.982 74.2336 108.836 74.0226 108.648 73.856C108.466 73.6841 108.25 73.5565 108 73.4731C107.75 73.3898 107.479 73.3481 107.188 73.3481C106.938 73.3481 106.693 73.382 106.453 73.4497C106.214 73.5174 105.979 73.6112 105.75 73.731C105.526 73.8507 105.307 73.994 105.094 74.1606C104.885 74.3273 104.69 74.5122 104.508 74.7153V73.3403C104.867 72.9914 105.268 72.7257 105.711 72.5435C106.159 72.356 106.703 72.2622 107.344 72.2622C107.802 72.2622 108.227 72.3299 108.617 72.4653C109.008 72.5955 109.346 72.7882 109.633 73.0435C109.919 73.2987 110.143 73.6138 110.305 73.9888C110.471 74.3638 110.555 74.7935 110.555 75.2778C110.555 75.7205 110.503 76.1216 110.398 76.481C110.299 76.8403 110.146 77.1789 109.938 77.4966C109.734 77.8143 109.477 78.119 109.164 78.4106C108.852 78.7023 108.484 78.9992 108.062 79.3013C107.536 79.6763 107.102 79.9966 106.758 80.2622C106.419 80.5278 106.148 80.7778 105.945 81.0122C105.747 81.2414 105.607 81.4731 105.523 81.7075C105.445 81.9367 105.406 82.2023 105.406 82.5044H110.984V83.6528H104.07V83.0981C104.07 82.619 104.122 82.1971 104.227 81.8325C104.331 81.4679 104.503 81.1216 104.742 80.7935C104.982 80.4653 105.294 80.1372 105.68 79.8091C106.07 79.481 106.547 79.1112 107.109 78.6997C107.516 78.408 107.854 78.1294 108.125 77.8638C108.401 77.5981 108.622 77.3325 108.789 77.0669C108.956 76.8013 109.073 76.533 109.141 76.2622C109.214 75.9862 109.25 75.6945 109.25 75.3872ZM117.047 83.3638V81.9888C117.745 82.5044 118.513 82.7622 119.352 82.7622C120.477 82.7622 121.039 82.3872 121.039 81.6372C121.039 81.4237 120.99 81.244 120.891 81.0981C120.797 80.9471 120.667 80.8143 120.5 80.6997C120.339 80.5851 120.146 80.4836 119.922 80.395C119.703 80.3013 119.466 80.2049 119.211 80.106C118.857 79.9653 118.544 79.8247 118.273 79.6841C118.008 79.5382 117.784 79.3768 117.602 79.1997C117.424 79.0174 117.289 78.8117 117.195 78.5825C117.107 78.3534 117.062 78.0851 117.062 77.7778C117.062 77.4028 117.148 77.0721 117.32 76.7856C117.492 76.494 117.721 76.2518 118.008 76.0591C118.294 75.8612 118.62 75.7127 118.984 75.6138C119.354 75.5148 119.734 75.4653 120.125 75.4653C120.818 75.4653 121.438 75.5851 121.984 75.8247V77.1216C121.396 76.7362 120.719 76.5435 119.953 76.5435C119.714 76.5435 119.497 76.5721 119.305 76.6294C119.112 76.6815 118.945 76.757 118.805 76.856C118.669 76.9549 118.562 77.0747 118.484 77.2153C118.411 77.3507 118.375 77.5018 118.375 77.6685C118.375 77.8768 118.411 78.0513 118.484 78.1919C118.562 78.3325 118.674 78.4575 118.82 78.5669C118.966 78.6763 119.143 78.7752 119.352 78.8638C119.56 78.9523 119.797 79.0487 120.062 79.1528C120.417 79.2882 120.734 79.4289 121.016 79.5747C121.297 79.7153 121.536 79.8768 121.734 80.0591C121.932 80.2362 122.083 80.4419 122.188 80.6763C122.297 80.9106 122.352 81.1893 122.352 81.5122C122.352 81.908 122.263 82.2518 122.086 82.5435C121.914 82.8351 121.682 83.0773 121.391 83.27C121.099 83.4627 120.763 83.606 120.383 83.6997C120.003 83.7935 119.604 83.8403 119.188 83.8403C118.365 83.8403 117.651 83.6815 117.047 83.3638ZM130.758 79.9731H125.109C125.13 80.8638 125.37 81.5513 125.828 82.0356C126.286 82.52 126.917 82.7622 127.719 82.7622C128.62 82.7622 129.448 82.4653 130.203 81.8716V83.0747C129.5 83.5851 128.57 83.8403 127.414 83.8403C126.284 83.8403 125.396 83.4784 124.75 82.7544C124.104 82.0252 123.781 81.0018 123.781 79.6841C123.781 78.4393 124.133 77.4263 124.836 76.645C125.544 75.8586 126.422 75.4653 127.469 75.4653C128.516 75.4653 129.326 75.8039 129.898 76.481C130.471 77.158 130.758 78.0981 130.758 79.3013V79.9731ZM129.445 78.8872C129.44 78.1476 129.26 77.5721 128.906 77.1606C128.557 76.7492 128.07 76.5435 127.445 76.5435C126.841 76.5435 126.328 76.7596 125.906 77.1919C125.484 77.6242 125.224 78.1893 125.125 78.8872H129.445ZM144.062 83.6528H142.781V79.0591C142.781 78.1737 142.643 77.533 142.367 77.1372C142.096 76.7414 141.638 76.5435 140.992 76.5435C140.445 76.5435 139.979 76.7935 139.594 77.2935C139.214 77.7935 139.023 78.3924 139.023 79.0903V83.6528H137.742V78.9028C137.742 77.3299 137.135 76.5435 135.922 76.5435C135.359 76.5435 134.896 76.7804 134.531 77.2544C134.167 77.7231 133.984 78.3351 133.984 79.0903V83.6528H132.703V75.6528H133.984V76.9185H134.016C134.583 75.9497 135.411 75.4653 136.5 75.4653C137.047 75.4653 137.523 75.619 137.93 75.9263C138.336 76.2284 138.615 76.6268 138.766 77.1216C139.359 76.0174 140.245 75.4653 141.422 75.4653C143.182 75.4653 144.062 76.5513 144.062 78.7231V83.6528ZM152.211 83.6528H150.93V82.4028H150.898C150.341 83.3612 149.521 83.8403 148.438 83.8403C147.641 83.8403 147.016 83.6294 146.562 83.2075C146.115 82.7856 145.891 82.2257 145.891 81.5278C145.891 80.033 146.771 79.1632 148.531 78.9185L150.93 78.5825C150.93 77.2231 150.38 76.5435 149.281 76.5435C148.318 76.5435 147.448 76.8716 146.672 77.5278V76.2153C147.458 75.7153 148.365 75.4653 149.391 75.4653C151.271 75.4653 152.211 76.4601 152.211 78.4497V83.6528ZM150.93 79.606L149 79.8716C148.406 79.9549 147.958 80.1034 147.656 80.3169C147.354 80.5252 147.203 80.8976 147.203 81.4341C147.203 81.8247 147.341 82.145 147.617 82.395C147.898 82.6398 148.271 82.7622 148.734 82.7622C149.37 82.7622 149.893 82.5409 150.305 82.0981C150.721 81.6502 150.93 81.0851 150.93 80.4028V79.606ZM161.266 83.6528H159.984V79.0903C159.984 77.3924 159.365 76.5435 158.125 76.5435C157.484 76.5435 156.953 76.7856 156.531 77.27C156.115 77.7492 155.906 78.356 155.906 79.0903V83.6528H154.625V75.6528H155.906V76.981H155.938C156.542 75.9705 157.417 75.4653 158.562 75.4653C159.438 75.4653 160.107 75.7492 160.57 76.3169C161.034 76.8794 161.266 77.6945 161.266 78.7622V83.6528ZM169.414 83.6528H168.133V82.4028H168.102C167.544 83.3612 166.724 83.8403 165.641 83.8403C164.844 83.8403 164.219 83.6294 163.766 83.2075C163.318 82.7856 163.094 82.2257 163.094 81.5278C163.094 80.033 163.974 79.1632 165.734 78.9185L168.133 78.5825C168.133 77.2231 167.583 76.5435 166.484 76.5435C165.521 76.5435 164.651 76.8716 163.875 77.5278V76.2153C164.661 75.7153 165.568 75.4653 166.594 75.4653C168.474 75.4653 169.414 76.4601 169.414 78.4497V83.6528ZM168.133 79.606L166.203 79.8716C165.609 79.9549 165.161 80.1034 164.859 80.3169C164.557 80.5252 164.406 80.8976 164.406 81.4341C164.406 81.8247 164.544 82.145 164.82 82.395C165.102 82.6398 165.474 82.7622 165.938 82.7622C166.573 82.7622 167.096 82.5409 167.508 82.0981C167.924 81.6502 168.133 81.0851 168.133 80.4028V79.606ZM171.344 83.3638V81.9888C172.042 82.5044 172.81 82.7622 173.648 82.7622C174.773 82.7622 175.336 82.3872 175.336 81.6372C175.336 81.4237 175.286 81.244 175.188 81.0981C175.094 80.9471 174.964 80.8143 174.797 80.6997C174.635 80.5851 174.443 80.4836 174.219 80.395C174 80.3013 173.763 80.2049 173.508 80.106C173.154 79.9653 172.841 79.8247 172.57 79.6841C172.305 79.5382 172.081 79.3768 171.898 79.1997C171.721 79.0174 171.586 78.8117 171.492 78.5825C171.404 78.3534 171.359 78.0851 171.359 77.7778C171.359 77.4028 171.445 77.0721 171.617 76.7856C171.789 76.494 172.018 76.2518 172.305 76.0591C172.591 75.8612 172.917 75.7127 173.281 75.6138C173.651 75.5148 174.031 75.4653 174.422 75.4653C175.115 75.4653 175.734 75.5851 176.281 75.8247V77.1216C175.693 76.7362 175.016 76.5435 174.25 76.5435C174.01 76.5435 173.794 76.5721 173.602 76.6294C173.409 76.6815 173.242 76.757 173.102 76.856C172.966 76.9549 172.859 77.0747 172.781 77.2153C172.708 77.3507 172.672 77.5018 172.672 77.6685C172.672 77.8768 172.708 78.0513 172.781 78.1919C172.859 78.3325 172.971 78.4575 173.117 78.5669C173.263 78.6763 173.44 78.7752 173.648 78.8638C173.857 78.9523 174.094 79.0487 174.359 79.1528C174.714 79.2882 175.031 79.4289 175.312 79.5747C175.594 79.7153 175.833 79.8768 176.031 80.0591C176.229 80.2362 176.38 80.4419 176.484 80.6763C176.594 80.9106 176.648 81.1893 176.648 81.5122C176.648 81.908 176.56 82.2518 176.383 82.5435C176.211 82.8351 175.979 83.0773 175.688 83.27C175.396 83.4627 175.06 83.606 174.68 83.6997C174.299 83.7935 173.901 83.8403 173.484 83.8403C172.661 83.8403 171.948 83.6815 171.344 83.3638ZM186.359 83.8403C185.177 83.8403 184.232 83.4679 183.523 82.7231C182.82 81.9731 182.469 80.981 182.469 79.7466C182.469 78.4028 182.836 77.3534 183.57 76.5981C184.305 75.8429 185.297 75.4653 186.547 75.4653C187.74 75.4653 188.669 75.8325 189.336 76.5669C190.008 77.3013 190.344 78.3195 190.344 79.6216C190.344 80.8976 189.982 81.9211 189.258 82.6919C188.539 83.4575 187.573 83.8403 186.359 83.8403ZM186.453 76.5435C185.63 76.5435 184.979 76.8247 184.5 77.3872C184.021 77.9445 183.781 78.7153 183.781 79.6997C183.781 80.6476 184.023 81.395 184.508 81.9419C184.992 82.4888 185.641 82.7622 186.453 82.7622C187.281 82.7622 187.917 82.494 188.359 81.9575C188.807 81.4211 189.031 80.658 189.031 79.6685C189.031 78.6685 188.807 77.8976 188.359 77.356C187.917 76.8143 187.281 76.5435 186.453 76.5435ZM202.508 83.6528H201.227V82.4028H201.195C200.638 83.3612 199.818 83.8403 198.734 83.8403C197.938 83.8403 197.312 83.6294 196.859 83.2075C196.411 82.7856 196.188 82.2257 196.188 81.5278C196.188 80.033 197.068 79.1632 198.828 78.9185L201.227 78.5825C201.227 77.2231 200.677 76.5435 199.578 76.5435C198.615 76.5435 197.745 76.8716 196.969 77.5278V76.2153C197.755 75.7153 198.661 75.4653 199.688 75.4653C201.568 75.4653 202.508 76.4601 202.508 78.4497V83.6528ZM201.227 79.606L199.297 79.8716C198.703 79.9549 198.255 80.1034 197.953 80.3169C197.651 80.5252 197.5 80.8976 197.5 81.4341C197.5 81.8247 197.638 82.145 197.914 82.395C198.195 82.6398 198.568 82.7622 199.031 82.7622C199.667 82.7622 200.19 82.5409 200.602 82.0981C201.018 81.6502 201.227 81.0851 201.227 80.4028V79.606ZM213.484 76.9497C213.26 76.7778 212.938 76.6919 212.516 76.6919C211.969 76.6919 211.51 76.9497 211.141 77.4653C210.776 77.981 210.594 78.6841 210.594 79.5747V83.6528H209.312V75.6528H210.594V77.3013H210.625C210.807 76.7388 211.086 76.3013 211.461 75.9888C211.836 75.6711 212.255 75.5122 212.719 75.5122C213.052 75.5122 213.307 75.5487 213.484 75.6216V76.9497ZM221.305 79.9731H215.656C215.677 80.8638 215.917 81.5513 216.375 82.0356C216.833 82.52 217.464 82.7622 218.266 82.7622C219.167 82.7622 219.995 82.4653 220.75 81.8716V83.0747C220.047 83.5851 219.117 83.8403 217.961 83.8403C216.831 83.8403 215.943 83.4784 215.297 82.7544C214.651 82.0252 214.328 81.0018 214.328 79.6841C214.328 78.4393 214.68 77.4263 215.383 76.645C216.091 75.8586 216.969 75.4653 218.016 75.4653C219.062 75.4653 219.872 75.8039 220.445 76.481C221.018 77.158 221.305 78.0981 221.305 79.3013V79.9731ZM219.992 78.8872C219.987 78.1476 219.807 77.5721 219.453 77.1606C219.104 76.7492 218.617 76.5435 217.992 76.5435C217.388 76.5435 216.875 76.7596 216.453 77.1919C216.031 77.6242 215.771 78.1893 215.672 78.8872H219.992ZM230.078 87.3325H228.797V82.2778H228.766C228.208 83.3195 227.297 83.8403 226.031 83.8403C225.026 83.8403 224.219 83.4836 223.609 82.77C223.005 82.0513 222.703 81.0747 222.703 79.8403C222.703 78.5122 223.036 77.4523 223.703 76.6606C224.37 75.8638 225.266 75.4653 226.391 75.4653C227.484 75.4653 228.276 75.8976 228.766 76.7622H228.797V75.6528H230.078V87.3325ZM228.797 80.0513V78.8872C228.797 78.231 228.581 77.6763 228.148 77.2231C227.721 76.77 227.177 76.5435 226.516 76.5435C225.745 76.5435 225.135 76.8299 224.688 77.4028C224.24 77.9705 224.016 78.7726 224.016 79.8091C224.016 80.731 224.232 81.4549 224.664 81.981C225.096 82.5018 225.654 82.7622 226.336 82.7622C227.086 82.7622 227.682 82.507 228.125 81.9966C228.573 81.481 228.797 80.8325 228.797 80.0513ZM239.141 83.6528H237.859V82.3872H237.828C237.297 83.356 236.474 83.8403 235.359 83.8403C233.453 83.8403 232.5 82.7049 232.5 80.4341V75.6528H233.773V80.231C233.773 81.9185 234.419 82.7622 235.711 82.7622C236.336 82.7622 236.849 82.533 237.25 82.0747C237.656 81.6112 237.859 81.007 237.859 80.2622V75.6528H239.141V83.6528ZM248.164 79.9731H242.516C242.536 80.8638 242.776 81.5513 243.234 82.0356C243.693 82.52 244.323 82.7622 245.125 82.7622C246.026 82.7622 246.854 82.4653 247.609 81.8716V83.0747C246.906 83.5851 245.977 83.8403 244.82 83.8403C243.69 83.8403 242.802 83.4784 242.156 82.7544C241.51 82.0252 241.188 81.0018 241.188 79.6841C241.188 78.4393 241.539 77.4263 242.242 76.645C242.951 75.8586 243.828 75.4653 244.875 75.4653C245.922 75.4653 246.732 75.8039 247.305 76.481C247.878 77.158 248.164 78.0981 248.164 79.3013V79.9731ZM246.852 78.8872C246.846 78.1476 246.667 77.5721 246.312 77.1606C245.964 76.7492 245.477 76.5435 244.852 76.5435C244.247 76.5435 243.734 76.7596 243.312 77.1919C242.891 77.6242 242.63 78.1893 242.531 78.8872H246.852ZM254.281 76.9497C254.057 76.7778 253.734 76.6919 253.312 76.6919C252.766 76.6919 252.307 76.9497 251.938 77.4653C251.573 77.981 251.391 78.6841 251.391 79.5747V83.6528H250.109V75.6528H251.391V77.3013H251.422C251.604 76.7388 251.883 76.3013 252.258 75.9888C252.633 75.6711 253.052 75.5122 253.516 75.5122C253.849 75.5122 254.104 75.5487 254.281 75.6216V76.9497ZM256.328 73.6216C256.099 73.6216 255.904 73.5435 255.742 73.3872C255.581 73.231 255.5 73.033 255.5 72.7935C255.5 72.5539 255.581 72.356 255.742 72.1997C255.904 72.0382 256.099 71.9575 256.328 71.9575C256.562 71.9575 256.76 72.0382 256.922 72.1997C257.089 72.356 257.172 72.5539 257.172 72.7935C257.172 73.0226 257.089 73.2179 256.922 73.3794C256.76 73.5409 256.562 73.6216 256.328 73.6216ZM256.953 83.6528H255.672V75.6528H256.953V83.6528ZM263.719 76.9497C263.495 76.7778 263.172 76.6919 262.75 76.6919C262.203 76.6919 261.745 76.9497 261.375 77.4653C261.01 77.981 260.828 78.6841 260.828 79.5747V83.6528H259.547V75.6528H260.828V77.3013H260.859C261.042 76.7388 261.32 76.3013 261.695 75.9888C262.07 75.6711 262.49 75.5122 262.953 75.5122C263.286 75.5122 263.542 75.5487 263.719 75.6216V76.9497ZM274.953 83.2856C274.339 83.6554 273.609 83.8403 272.766 83.8403C271.625 83.8403 270.703 83.4705 270 82.731C269.302 81.9862 268.953 81.0226 268.953 79.8403C268.953 78.5226 269.331 77.4653 270.086 76.6685C270.841 75.8664 271.849 75.4653 273.109 75.4653C273.812 75.4653 274.432 75.5955 274.969 75.856V77.1685C274.375 76.7518 273.74 76.5435 273.062 76.5435C272.245 76.5435 271.573 76.8377 271.047 77.4263C270.526 78.0096 270.266 78.7778 270.266 79.731C270.266 80.6685 270.51 81.408 271 81.9497C271.495 82.4914 272.156 82.7622 272.984 82.7622C273.682 82.7622 274.339 82.5304 274.953 82.0669V83.2856ZM280.234 83.8403C279.052 83.8403 278.107 83.4679 277.398 82.7231C276.695 81.9731 276.344 80.981 276.344 79.7466C276.344 78.4028 276.711 77.3534 277.445 76.5981C278.18 75.8429 279.172 75.4653 280.422 75.4653C281.615 75.4653 282.544 75.8325 283.211 76.5669C283.883 77.3013 284.219 78.3195 284.219 79.6216C284.219 80.8976 283.857 81.9211 283.133 82.6919C282.414 83.4575 281.448 83.8403 280.234 83.8403ZM280.328 76.5435C279.505 76.5435 278.854 76.8247 278.375 77.3872C277.896 77.9445 277.656 78.7153 277.656 79.6997C277.656 80.6476 277.898 81.395 278.383 81.9419C278.867 82.4888 279.516 82.7622 280.328 82.7622C281.156 82.7622 281.792 82.494 282.234 81.9575C282.682 81.4211 282.906 80.658 282.906 79.6685C282.906 78.6685 282.682 77.8976 282.234 77.356C281.792 76.8143 281.156 76.5435 280.328 76.5435ZM292.906 83.6528H291.625V79.0903C291.625 77.3924 291.005 76.5435 289.766 76.5435C289.125 76.5435 288.594 76.7856 288.172 77.27C287.755 77.7492 287.547 78.356 287.547 79.0903V83.6528H286.266V75.6528H287.547V76.981H287.578C288.182 75.9705 289.057 75.4653 290.203 75.4653C291.078 75.4653 291.747 75.7492 292.211 76.3169C292.674 76.8794 292.906 77.6945 292.906 78.7622V83.6528ZM299.234 83.3638V81.9888C299.932 82.5044 300.701 82.7622 301.539 82.7622C302.664 82.7622 303.227 82.3872 303.227 81.6372C303.227 81.4237 303.177 81.244 303.078 81.0981C302.984 80.9471 302.854 80.8143 302.688 80.6997C302.526 80.5851 302.333 80.4836 302.109 80.395C301.891 80.3013 301.654 80.2049 301.398 80.106C301.044 79.9653 300.732 79.8247 300.461 79.6841C300.195 79.5382 299.971 79.3768 299.789 79.1997C299.612 79.0174 299.477 78.8117 299.383 78.5825C299.294 78.3534 299.25 78.0851 299.25 77.7778C299.25 77.4028 299.336 77.0721 299.508 76.7856C299.68 76.494 299.909 76.2518 300.195 76.0591C300.482 75.8612 300.807 75.7127 301.172 75.6138C301.542 75.5148 301.922 75.4653 302.312 75.4653C303.005 75.4653 303.625 75.5851 304.172 75.8247V77.1216C303.583 76.7362 302.906 76.5435 302.141 76.5435C301.901 76.5435 301.685 76.5721 301.492 76.6294C301.299 76.6815 301.133 76.757 300.992 76.856C300.857 76.9549 300.75 77.0747 300.672 77.2153C300.599 77.3507 300.562 77.5018 300.562 77.6685C300.562 77.8768 300.599 78.0513 300.672 78.1919C300.75 78.3325 300.862 78.4575 301.008 78.5669C301.154 78.6763 301.331 78.7752 301.539 78.8638C301.747 78.9523 301.984 79.0487 302.25 79.1528C302.604 79.2882 302.922 79.4289 303.203 79.5747C303.484 79.7153 303.724 79.8768 303.922 80.0591C304.12 80.2362 304.271 80.4419 304.375 80.6763C304.484 80.9106 304.539 81.1893 304.539 81.5122C304.539 81.908 304.451 82.2518 304.273 82.5435C304.102 82.8351 303.87 83.0773 303.578 83.27C303.286 83.4627 302.951 83.606 302.57 83.6997C302.19 83.7935 301.792 83.8403 301.375 83.8403C300.552 83.8403 299.839 83.6815 299.234 83.3638ZM312.945 79.9731H307.297C307.318 80.8638 307.557 81.5513 308.016 82.0356C308.474 82.52 309.104 82.7622 309.906 82.7622C310.807 82.7622 311.635 82.4653 312.391 81.8716V83.0747C311.688 83.5851 310.758 83.8403 309.602 83.8403C308.471 83.8403 307.583 83.4784 306.938 82.7544C306.292 82.0252 305.969 81.0018 305.969 79.6841C305.969 78.4393 306.32 77.4263 307.023 76.645C307.732 75.8586 308.609 75.4653 309.656 75.4653C310.703 75.4653 311.513 75.8039 312.086 76.481C312.659 77.158 312.945 78.0981 312.945 79.3013V79.9731ZM311.633 78.8872C311.628 78.1476 311.448 77.5721 311.094 77.1606C310.745 76.7492 310.258 76.5435 309.633 76.5435C309.029 76.5435 308.516 76.7596 308.094 77.1919C307.672 77.6242 307.411 78.1893 307.312 78.8872H311.633ZM321.719 83.0122C321.719 85.9497 320.312 87.4185 317.5 87.4185C316.51 87.4185 315.646 87.231 314.906 86.856V85.5747C315.807 86.0747 316.667 86.3247 317.484 86.3247C319.453 86.3247 320.438 85.2778 320.438 83.1841V82.3091H320.406C319.797 83.3299 318.88 83.8403 317.656 83.8403C316.661 83.8403 315.859 83.4862 315.25 82.7778C314.646 82.0643 314.344 81.1086 314.344 79.9106C314.344 78.5513 314.669 77.4705 315.32 76.6685C315.977 75.8664 316.872 75.4653 318.008 75.4653C319.086 75.4653 319.885 75.8976 320.406 76.7622H320.438V75.6528H321.719V83.0122ZM320.438 80.0356V78.856C320.438 78.2205 320.221 77.6763 319.789 77.2231C319.362 76.77 318.828 76.5435 318.188 76.5435C317.396 76.5435 316.776 76.8325 316.328 77.4106C315.88 77.9836 315.656 78.7882 315.656 79.8247C315.656 80.7153 315.87 81.4289 316.297 81.9653C316.729 82.4966 317.299 82.7622 318.008 82.7622C318.727 82.7622 319.31 82.507 319.758 81.9966C320.211 81.4862 320.438 80.8325 320.438 80.0356ZM330.781 83.6528H329.5V82.3872H329.469C328.938 83.356 328.115 83.8403 327 83.8403C325.094 83.8403 324.141 82.7049 324.141 80.4341V75.6528H325.414V80.231C325.414 81.9185 326.06 82.7622 327.352 82.7622C327.977 82.7622 328.49 82.533 328.891 82.0747C329.297 81.6112 329.5 81.007 329.5 80.2622V75.6528H330.781V83.6528ZM334.031 73.6216C333.802 73.6216 333.607 73.5435 333.445 73.3872C333.284 73.231 333.203 73.033 333.203 72.7935C333.203 72.5539 333.284 72.356 333.445 72.1997C333.607 72.0382 333.802 71.9575 334.031 71.9575C334.266 71.9575 334.464 72.0382 334.625 72.1997C334.792 72.356 334.875 72.5539 334.875 72.7935C334.875 73.0226 334.792 73.2179 334.625 73.3794C334.464 73.5409 334.266 73.6216 334.031 73.6216ZM334.656 83.6528H333.375V75.6528H334.656V83.6528ZM348.609 83.6528H347.328V79.0591C347.328 78.1737 347.19 77.533 346.914 77.1372C346.643 76.7414 346.185 76.5435 345.539 76.5435C344.992 76.5435 344.526 76.7935 344.141 77.2935C343.76 77.7935 343.57 78.3924 343.57 79.0903V83.6528H342.289V78.9028C342.289 77.3299 341.682 76.5435 340.469 76.5435C339.906 76.5435 339.443 76.7804 339.078 77.2544C338.714 77.7231 338.531 78.3351 338.531 79.0903V83.6528H337.25V75.6528H338.531V76.9185H338.562C339.13 75.9497 339.958 75.4653 341.047 75.4653C341.594 75.4653 342.07 75.619 342.477 75.9263C342.883 76.2284 343.161 76.6268 343.312 77.1216C343.906 76.0174 344.792 75.4653 345.969 75.4653C347.729 75.4653 348.609 76.5513 348.609 78.7231V83.6528ZM351.688 73.6216C351.458 73.6216 351.263 73.5435 351.102 73.3872C350.94 73.231 350.859 73.033 350.859 72.7935C350.859 72.5539 350.94 72.356 351.102 72.1997C351.263 72.0382 351.458 71.9575 351.688 71.9575C351.922 71.9575 352.12 72.0382 352.281 72.1997C352.448 72.356 352.531 72.5539 352.531 72.7935C352.531 73.0226 352.448 73.2179 352.281 73.3794C352.12 73.5409 351.922 73.6216 351.688 73.6216ZM352.312 83.6528H351.031V75.6528H352.312V83.6528ZM361.336 79.9731H355.688C355.708 80.8638 355.948 81.5513 356.406 82.0356C356.865 82.52 357.495 82.7622 358.297 82.7622C359.198 82.7622 360.026 82.4653 360.781 81.8716V83.0747C360.078 83.5851 359.148 83.8403 357.992 83.8403C356.862 83.8403 355.974 83.4784 355.328 82.7544C354.682 82.0252 354.359 81.0018 354.359 79.6841C354.359 78.4393 354.711 77.4263 355.414 76.645C356.122 75.8586 357 75.4653 358.047 75.4653C359.094 75.4653 359.904 75.8039 360.477 76.481C361.049 77.158 361.336 78.0981 361.336 79.3013V79.9731ZM360.023 78.8872C360.018 78.1476 359.839 77.5721 359.484 77.1606C359.135 76.7492 358.648 76.5435 358.023 76.5435C357.419 76.5435 356.906 76.7596 356.484 77.1919C356.062 77.6242 355.802 78.1893 355.703 78.8872H360.023ZM369.922 83.6528H368.641V79.0903C368.641 77.3924 368.021 76.5435 366.781 76.5435C366.141 76.5435 365.609 76.7856 365.188 77.27C364.771 77.7492 364.562 78.356 364.562 79.0903V83.6528H363.281V75.6528H364.562V76.981H364.594C365.198 75.9705 366.073 75.4653 367.219 75.4653C368.094 75.4653 368.763 75.7492 369.227 76.3169C369.69 76.8794 369.922 77.6945 369.922 78.7622V83.6528ZM376.055 83.5747C375.753 83.7414 375.354 83.8247 374.859 83.8247C373.458 83.8247 372.758 83.0435 372.758 81.481V76.7466H371.383V75.6528H372.758V73.6997L374.039 73.2856V75.6528H376.055V76.7466H374.039V81.2544C374.039 81.7909 374.13 82.1737 374.312 82.4028C374.495 82.632 374.797 82.7466 375.219 82.7466C375.542 82.7466 375.82 82.658 376.055 82.481V83.5747ZM381.109 83.8403C379.927 83.8403 378.982 83.4679 378.273 82.7231C377.57 81.9731 377.219 80.981 377.219 79.7466C377.219 78.4028 377.586 77.3534 378.32 76.5981C379.055 75.8429 380.047 75.4653 381.297 75.4653C382.49 75.4653 383.419 75.8325 384.086 76.5669C384.758 77.3013 385.094 78.3195 385.094 79.6216C385.094 80.8976 384.732 81.9211 384.008 82.6919C383.289 83.4575 382.323 83.8403 381.109 83.8403ZM381.203 76.5435C380.38 76.5435 379.729 76.8247 379.25 77.3872C378.771 77.9445 378.531 78.7153 378.531 79.6997C378.531 80.6476 378.773 81.395 379.258 81.9419C379.742 82.4888 380.391 82.7622 381.203 82.7622C382.031 82.7622 382.667 82.494 383.109 81.9575C383.557 81.4211 383.781 80.658 383.781 79.6685C383.781 78.6685 383.557 77.8976 383.109 77.356C382.667 76.8143 382.031 76.5435 381.203 76.5435ZM8.125 107.653H6.84375V106.293H6.8125C6.21875 107.325 5.30208 107.84 4.0625 107.84C3.05729 107.84 2.2526 107.484 1.64844 106.77C1.04948 106.051 0.75 105.075 0.75 103.84C0.75 102.517 1.08333 101.458 1.75 100.661C2.41667 99.8638 3.30469 99.4653 4.41406 99.4653C5.51302 99.4653 6.3125 99.8976 6.8125 100.762H6.84375V95.8091H8.125V107.653ZM6.84375 104.036V102.856C6.84375 102.21 6.63021 101.663 6.20312 101.215C5.77604 100.767 5.23438 100.543 4.57812 100.543C3.79688 100.543 3.18229 100.83 2.73438 101.403C2.28646 101.976 2.0625 102.767 2.0625 103.778C2.0625 104.7 2.27604 105.429 2.70312 105.965C3.13542 106.497 3.71354 106.762 4.4375 106.762C5.15104 106.762 5.72917 106.504 6.17188 105.989C6.61979 105.473 6.84375 104.822 6.84375 104.036ZM17.1484 103.973H11.5C11.5208 104.864 11.7604 105.551 12.2188 106.036C12.6771 106.52 13.3073 106.762 14.1094 106.762C15.0104 106.762 15.8385 106.465 16.5938 105.872V107.075C15.8906 107.585 14.9609 107.84 13.8047 107.84C12.6745 107.84 11.7865 107.478 11.1406 106.754C10.4948 106.025 10.1719 105.002 10.1719 103.684C10.1719 102.439 10.5234 101.426 11.2266 100.645C11.9349 99.8586 12.8125 99.4653 13.8594 99.4653C14.9062 99.4653 15.7161 99.8039 16.2891 100.481C16.862 101.158 17.1484 102.098 17.1484 103.301V103.973ZM15.8359 102.887C15.8307 102.148 15.651 101.572 15.2969 101.161C14.9479 100.749 14.4609 100.543 13.8359 100.543C13.2318 100.543 12.7188 100.76 12.2969 101.192C11.875 101.624 11.6146 102.189 11.5156 102.887H15.8359ZM29.2109 107.653H27.9297V106.403H27.8984C27.3411 107.361 26.5208 107.84 25.4375 107.84C24.6406 107.84 24.0156 107.629 23.5625 107.208C23.1146 106.786 22.8906 106.226 22.8906 105.528C22.8906 104.033 23.7708 103.163 25.5312 102.918L27.9297 102.583C27.9297 101.223 27.3802 100.543 26.2812 100.543C25.3177 100.543 24.4479 100.872 23.6719 101.528V100.215C24.4583 99.7153 25.3646 99.4653 26.3906 99.4653C28.2708 99.4653 29.2109 100.46 29.2109 102.45V107.653ZM27.9297 103.606L26 103.872C25.4062 103.955 24.9583 104.103 24.6562 104.317C24.3542 104.525 24.2031 104.898 24.2031 105.434C24.2031 105.825 24.3411 106.145 24.6172 106.395C24.8984 106.64 25.2708 106.762 25.7344 106.762C26.3698 106.762 26.8932 106.541 27.3047 106.098C27.7214 105.65 27.9297 105.085 27.9297 104.403V103.606ZM37.9141 99.6528L34.7266 107.653H33.4688L30.4375 99.6528H31.8438L33.875 105.465C34.026 105.892 34.1198 106.265 34.1562 106.583H34.1875C34.2396 106.181 34.3229 105.819 34.4375 105.497L36.5625 99.6528H37.9141ZM45.0234 107.653H43.7422V106.403H43.7109C43.1536 107.361 42.3333 107.84 41.25 107.84C40.4531 107.84 39.8281 107.629 39.375 107.208C38.9271 106.786 38.7031 106.226 38.7031 105.528C38.7031 104.033 39.5833 103.163 41.3438 102.918L43.7422 102.583C43.7422 101.223 43.1927 100.543 42.0938 100.543C41.1302 100.543 40.2604 100.872 39.4844 101.528V100.215C40.2708 99.7153 41.1771 99.4653 42.2031 99.4653C44.0833 99.4653 45.0234 100.46 45.0234 102.45V107.653ZM43.7422 103.606L41.8125 103.872C41.2188 103.955 40.7708 104.103 40.4688 104.317C40.1667 104.525 40.0156 104.898 40.0156 105.434C40.0156 105.825 40.1536 106.145 40.4297 106.395C40.7109 106.64 41.0833 106.762 41.5469 106.762C42.1823 106.762 42.7057 106.541 43.1172 106.098C43.5339 105.65 43.7422 105.085 43.7422 104.403V103.606ZM54.0781 107.653H52.7969V103.09C52.7969 101.392 52.1771 100.543 50.9375 100.543C50.2969 100.543 49.7656 100.786 49.3438 101.27C48.9271 101.749 48.7188 102.356 48.7188 103.09V107.653H47.4375V99.6528H48.7188V100.981H48.75C49.3542 99.9705 50.2292 99.4653 51.375 99.4653C52.25 99.4653 52.9193 99.7492 53.3828 100.317C53.8464 100.879 54.0781 101.694 54.0781 102.762V107.653ZM61.9531 107.286C61.3385 107.655 60.6094 107.84 59.7656 107.84C58.625 107.84 57.7031 107.471 57 106.731C56.3021 105.986 55.9531 105.023 55.9531 103.84C55.9531 102.523 56.3307 101.465 57.0859 100.668C57.8411 99.8664 58.849 99.4653 60.1094 99.4653C60.8125 99.4653 61.4323 99.5955 61.9688 99.856V101.168C61.375 100.752 60.7396 100.543 60.0625 100.543C59.2448 100.543 58.5729 100.838 58.0469 101.426C57.526 102.01 57.2656 102.778 57.2656 103.731C57.2656 104.668 57.5104 105.408 58 105.95C58.4948 106.491 59.1562 106.762 59.9844 106.762C60.6823 106.762 61.3385 106.53 61.9531 106.067V107.286ZM70.3203 103.973H64.6719C64.6927 104.864 64.9323 105.551 65.3906 106.036C65.849 106.52 66.4792 106.762 67.2812 106.762C68.1823 106.762 69.0104 106.465 69.7656 105.872V107.075C69.0625 107.585 68.1328 107.84 66.9766 107.84C65.8464 107.84 64.9583 107.478 64.3125 106.754C63.6667 106.025 63.3438 105.002 63.3438 103.684C63.3438 102.439 63.6953 101.426 64.3984 100.645C65.1068 99.8586 65.9844 99.4653 67.0312 99.4653C68.0781 99.4653 68.888 99.8039 69.4609 100.481C70.0339 101.158 70.3203 102.098 70.3203 103.301V103.973ZM69.0078 102.887C69.0026 102.148 68.8229 101.572 68.4688 101.161C68.1198 100.749 67.6328 100.543 67.0078 100.543C66.4036 100.543 65.8906 100.76 65.4688 101.192C65.0469 101.624 64.7865 102.189 64.6875 102.887H69.0078ZM82.1094 107.286C81.4948 107.655 80.7656 107.84 79.9219 107.84C78.7812 107.84 77.8594 107.471 77.1562 106.731C76.4583 105.986 76.1094 105.023 76.1094 103.84C76.1094 102.523 76.487 101.465 77.2422 100.668C77.9974 99.8664 79.0052 99.4653 80.2656 99.4653C80.9688 99.4653 81.5885 99.5955 82.125 99.856V101.168C81.5312 100.752 80.8958 100.543 80.2188 100.543C79.401 100.543 78.7292 100.838 78.2031 101.426C77.6823 102.01 77.4219 102.778 77.4219 103.731C77.4219 104.668 77.6667 105.408 78.1562 105.95C78.651 106.491 79.3125 106.762 80.1406 106.762C80.8385 106.762 81.4948 106.53 82.1094 106.067V107.286ZM87.3906 107.84C86.2083 107.84 85.263 107.468 84.5547 106.723C83.8516 105.973 83.5 104.981 83.5 103.747C83.5 102.403 83.8672 101.353 84.6016 100.598C85.3359 99.8429 86.3281 99.4653 87.5781 99.4653C88.7708 99.4653 89.7005 99.8325 90.3672 100.567C91.0391 101.301 91.375 102.319 91.375 103.622C91.375 104.898 91.013 105.921 90.2891 106.692C89.5703 107.458 88.6042 107.84 87.3906 107.84ZM87.4844 100.543C86.6615 100.543 86.0104 100.825 85.5312 101.387C85.0521 101.944 84.8125 102.715 84.8125 103.7C84.8125 104.648 85.0547 105.395 85.5391 105.942C86.0234 106.489 86.6719 106.762 87.4844 106.762C88.3125 106.762 88.9479 106.494 89.3906 105.958C89.8385 105.421 90.0625 104.658 90.0625 103.668C90.0625 102.668 89.8385 101.898 89.3906 101.356C88.9479 100.814 88.3125 100.543 87.4844 100.543ZM100.062 107.653H98.7812V103.09C98.7812 101.392 98.1615 100.543 96.9219 100.543C96.2812 100.543 95.75 100.786 95.3281 101.27C94.9115 101.749 94.7031 102.356 94.7031 103.09V107.653H93.4219V99.6528H94.7031V100.981H94.7344C95.3385 99.9705 96.2135 99.4653 97.3594 99.4653C98.2344 99.4653 98.9036 99.7492 99.3672 100.317C99.8307 100.879 100.062 101.694 100.062 102.762V107.653ZM113.305 103.973H107.656C107.677 104.864 107.917 105.551 108.375 106.036C108.833 106.52 109.464 106.762 110.266 106.762C111.167 106.762 111.995 106.465 112.75 105.872V107.075C112.047 107.585 111.117 107.84 109.961 107.84C108.831 107.84 107.943 107.478 107.297 106.754C106.651 106.025 106.328 105.002 106.328 103.684C106.328 102.439 106.68 101.426 107.383 100.645C108.091 99.8586 108.969 99.4653 110.016 99.4653C111.062 99.4653 111.872 99.8039 112.445 100.481C113.018 101.158 113.305 102.098 113.305 103.301V103.973ZM111.992 102.887C111.987 102.148 111.807 101.572 111.453 101.161C111.104 100.749 110.617 100.543 109.992 100.543C109.388 100.543 108.875 100.76 108.453 101.192C108.031 101.624 107.771 102.189 107.672 102.887H111.992ZM116.531 107.653H115.25V95.8091H116.531V107.653ZM129.945 103.973H124.297C124.318 104.864 124.557 105.551 125.016 106.036C125.474 106.52 126.104 106.762 126.906 106.762C127.807 106.762 128.635 106.465 129.391 105.872V107.075C128.688 107.585 127.758 107.84 126.602 107.84C125.471 107.84 124.583 107.478 123.938 106.754C123.292 106.025 122.969 105.002 122.969 103.684C122.969 102.439 123.32 101.426 124.023 100.645C124.732 99.8586 125.609 99.4653 126.656 99.4653C127.703 99.4653 128.513 99.8039 129.086 100.481C129.659 101.158 129.945 102.098 129.945 103.301V103.973ZM128.633 102.887C128.628 102.148 128.448 101.572 128.094 101.161C127.745 100.749 127.258 100.543 126.633 100.543C126.029 100.543 125.516 100.76 125.094 101.192C124.672 101.624 124.411 102.189 124.312 102.887H128.633ZM138.719 111.333H137.438V106.278H137.406C136.849 107.319 135.938 107.84 134.672 107.84C133.667 107.84 132.859 107.484 132.25 106.77C131.646 106.051 131.344 105.075 131.344 103.84C131.344 102.512 131.677 101.452 132.344 100.661C133.01 99.8638 133.906 99.4653 135.031 99.4653C136.125 99.4653 136.917 99.8976 137.406 100.762H137.438V99.6528H138.719V111.333ZM137.438 104.051V102.887C137.438 102.231 137.221 101.676 136.789 101.223C136.362 100.77 135.818 100.543 135.156 100.543C134.385 100.543 133.776 100.83 133.328 101.403C132.88 101.971 132.656 102.773 132.656 103.809C132.656 104.731 132.872 105.455 133.305 105.981C133.737 106.502 134.294 106.762 134.977 106.762C135.727 106.762 136.323 106.507 136.766 105.997C137.214 105.481 137.438 104.833 137.438 104.051ZM147.781 107.653H146.5V106.387H146.469C145.938 107.356 145.115 107.84 144 107.84C142.094 107.84 141.141 106.705 141.141 104.434V99.6528H142.414V104.231C142.414 105.918 143.06 106.762 144.352 106.762C144.977 106.762 145.49 106.533 145.891 106.075C146.297 105.611 146.5 105.007 146.5 104.262V99.6528H147.781V107.653ZM151.031 97.6216C150.802 97.6216 150.607 97.5435 150.445 97.3872C150.284 97.231 150.203 97.033 150.203 96.7935C150.203 96.5539 150.284 96.356 150.445 96.1997C150.607 96.0382 150.802 95.9575 151.031 95.9575C151.266 95.9575 151.464 96.0382 151.625 96.1997C151.792 96.356 151.875 96.5539 151.875 96.7935C151.875 97.0226 151.792 97.2179 151.625 97.3794C151.464 97.5409 151.266 97.6216 151.031 97.6216ZM151.656 107.653H150.375V99.6528H151.656V107.653ZM155.562 106.497H155.531V111.333H154.25V99.6528H155.531V101.059H155.562C156.193 99.9966 157.115 99.4653 158.328 99.4653C159.359 99.4653 160.164 99.8247 160.742 100.543C161.32 101.257 161.609 102.215 161.609 103.418C161.609 104.757 161.284 105.83 160.633 106.637C159.982 107.439 159.091 107.84 157.961 107.84C156.924 107.84 156.125 107.392 155.562 106.497ZM155.531 103.27V104.387C155.531 105.049 155.745 105.611 156.172 106.075C156.604 106.533 157.151 106.762 157.812 106.762C158.589 106.762 159.195 106.465 159.633 105.872C160.076 105.278 160.297 104.452 160.297 103.395C160.297 102.504 160.091 101.806 159.68 101.301C159.268 100.796 158.711 100.543 158.008 100.543C157.263 100.543 156.664 100.804 156.211 101.325C155.758 101.84 155.531 102.489 155.531 103.27ZM167 107.84C165.818 107.84 164.872 107.468 164.164 106.723C163.461 105.973 163.109 104.981 163.109 103.747C163.109 102.403 163.477 101.353 164.211 100.598C164.945 99.8429 165.938 99.4653 167.188 99.4653C168.38 99.4653 169.31 99.8325 169.977 100.567C170.648 101.301 170.984 102.319 170.984 103.622C170.984 104.898 170.622 105.921 169.898 106.692C169.18 107.458 168.214 107.84 167 107.84ZM167.094 100.543C166.271 100.543 165.62 100.825 165.141 101.387C164.661 101.944 164.422 102.715 164.422 103.7C164.422 104.648 164.664 105.395 165.148 105.942C165.633 106.489 166.281 106.762 167.094 106.762C167.922 106.762 168.557 106.494 169 105.958C169.448 105.421 169.672 104.658 169.672 103.668C169.672 102.668 169.448 101.898 169 101.356C168.557 100.814 167.922 100.543 167.094 100.543ZM183.789 99.6528L180.109 108.934C179.453 110.59 178.531 111.418 177.344 111.418C177.01 111.418 176.732 111.385 176.508 111.317V110.168C176.784 110.262 177.036 110.309 177.266 110.309C177.911 110.309 178.396 109.924 178.719 109.153L179.359 107.637L176.234 99.6528H177.656L179.82 105.809C179.846 105.887 179.901 106.09 179.984 106.418H180.031C180.057 106.293 180.109 106.096 180.188 105.825L182.461 99.6528H183.789ZM195.992 103.973H190.344C190.365 104.864 190.604 105.551 191.062 106.036C191.521 106.52 192.151 106.762 192.953 106.762C193.854 106.762 194.682 106.465 195.438 105.872V107.075C194.734 107.585 193.805 107.84 192.648 107.84C191.518 107.84 190.63 107.478 189.984 106.754C189.339 106.025 189.016 105.002 189.016 103.684C189.016 102.439 189.367 101.426 190.07 100.645C190.779 99.8586 191.656 99.4653 192.703 99.4653C193.75 99.4653 194.56 99.8039 195.133 100.481C195.706 101.158 195.992 102.098 195.992 103.301V103.973ZM194.68 102.887C194.674 102.148 194.495 101.572 194.141 101.161C193.792 100.749 193.305 100.543 192.68 100.543C192.076 100.543 191.562 100.76 191.141 101.192C190.719 101.624 190.458 102.189 190.359 102.887H194.68ZM204.578 107.653H203.297V103.09C203.297 101.392 202.677 100.543 201.438 100.543C200.797 100.543 200.266 100.786 199.844 101.27C199.427 101.749 199.219 102.356 199.219 103.09V107.653H197.938V99.6528H199.219V100.981H199.25C199.854 99.9705 200.729 99.4653 201.875 99.4653C202.75 99.4653 203.419 99.7492 203.883 100.317C204.346 100.879 204.578 101.694 204.578 102.762V107.653ZM210.711 107.575C210.409 107.741 210.01 107.825 209.516 107.825C208.115 107.825 207.414 107.043 207.414 105.481V100.747H206.039V99.6528H207.414V97.6997L208.695 97.2856V99.6528H210.711V100.747H208.695V105.254C208.695 105.791 208.786 106.174 208.969 106.403C209.151 106.632 209.453 106.747 209.875 106.747C210.198 106.747 210.477 106.658 210.711 106.481V107.575ZM216.594 100.95C216.37 100.778 216.047 100.692 215.625 100.692C215.078 100.692 214.62 100.95 214.25 101.465C213.885 101.981 213.703 102.684 213.703 103.575V107.653H212.422V99.6528H213.703V101.301H213.734C213.917 100.739 214.195 100.301 214.57 99.9888C214.945 99.6711 215.365 99.5122 215.828 99.5122C216.161 99.5122 216.417 99.5487 216.594 99.6216V100.95ZM224.414 103.973H218.766C218.786 104.864 219.026 105.551 219.484 106.036C219.943 106.52 220.573 106.762 221.375 106.762C222.276 106.762 223.104 106.465 223.859 105.872V107.075C223.156 107.585 222.227 107.84 221.07 107.84C219.94 107.84 219.052 107.478 218.406 106.754C217.76 106.025 217.438 105.002 217.438 103.684C217.438 102.439 217.789 101.426 218.492 100.645C219.201 99.8586 220.078 99.4653 221.125 99.4653C222.172 99.4653 222.982 99.8039 223.555 100.481C224.128 101.158 224.414 102.098 224.414 103.301V103.973ZM223.102 102.887C223.096 102.148 222.917 101.572 222.562 101.161C222.214 100.749 221.727 100.543 221.102 100.543C220.497 100.543 219.984 100.76 219.562 101.192C219.141 101.624 218.88 102.189 218.781 102.887H223.102ZM233.188 107.012C233.188 109.95 231.781 111.418 228.969 111.418C227.979 111.418 227.115 111.231 226.375 110.856V109.575C227.276 110.075 228.135 110.325 228.953 110.325C230.922 110.325 231.906 109.278 231.906 107.184V106.309H231.875C231.266 107.33 230.349 107.84 229.125 107.84C228.13 107.84 227.328 107.486 226.719 106.778C226.115 106.064 225.812 105.109 225.812 103.911C225.812 102.551 226.138 101.471 226.789 100.668C227.445 99.8664 228.341 99.4653 229.477 99.4653C230.555 99.4653 231.354 99.8976 231.875 100.762H231.906V99.6528H233.188V107.012ZM231.906 104.036V102.856C231.906 102.221 231.69 101.676 231.258 101.223C230.831 100.77 230.297 100.543 229.656 100.543C228.865 100.543 228.245 100.833 227.797 101.411C227.349 101.984 227.125 102.788 227.125 103.825C227.125 104.715 227.339 105.429 227.766 105.965C228.198 106.497 228.768 106.762 229.477 106.762C230.195 106.762 230.779 106.507 231.227 105.997C231.68 105.486 231.906 104.833 231.906 104.036ZM241.508 107.653H240.227V106.403H240.195C239.638 107.361 238.818 107.84 237.734 107.84C236.938 107.84 236.312 107.629 235.859 107.208C235.411 106.786 235.188 106.226 235.188 105.528C235.188 104.033 236.068 103.163 237.828 102.918L240.227 102.583C240.227 101.223 239.677 100.543 238.578 100.543C237.615 100.543 236.745 100.872 235.969 101.528V100.215C236.755 99.7153 237.661 99.4653 238.688 99.4653C240.568 99.4653 241.508 100.46 241.508 102.45V107.653ZM240.227 103.606L238.297 103.872C237.703 103.955 237.255 104.103 236.953 104.317C236.651 104.525 236.5 104.898 236.5 105.434C236.5 105.825 236.638 106.145 236.914 106.395C237.195 106.64 237.568 106.762 238.031 106.762C238.667 106.762 239.19 106.541 239.602 106.098C240.018 105.65 240.227 105.085 240.227 104.403V103.606ZM255.141 107.653H253.859V106.293H253.828C253.234 107.325 252.318 107.84 251.078 107.84C250.073 107.84 249.268 107.484 248.664 106.77C248.065 106.051 247.766 105.075 247.766 103.84C247.766 102.517 248.099 101.458 248.766 100.661C249.432 99.8638 250.32 99.4653 251.43 99.4653C252.529 99.4653 253.328 99.8976 253.828 100.762H253.859V95.8091H255.141V107.653ZM253.859 104.036V102.856C253.859 102.21 253.646 101.663 253.219 101.215C252.792 100.767 252.25 100.543 251.594 100.543C250.812 100.543 250.198 100.83 249.75 101.403C249.302 101.976 249.078 102.767 249.078 103.778C249.078 104.7 249.292 105.429 249.719 105.965C250.151 106.497 250.729 106.762 251.453 106.762C252.167 106.762 252.745 106.504 253.188 105.989C253.635 105.473 253.859 104.822 253.859 104.036ZM264.164 103.973H258.516C258.536 104.864 258.776 105.551 259.234 106.036C259.693 106.52 260.323 106.762 261.125 106.762C262.026 106.762 262.854 106.465 263.609 105.872V107.075C262.906 107.585 261.977 107.84 260.82 107.84C259.69 107.84 258.802 107.478 258.156 106.754C257.51 106.025 257.188 105.002 257.188 103.684C257.188 102.439 257.539 101.426 258.242 100.645C258.951 99.8586 259.828 99.4653 260.875 99.4653C261.922 99.4653 262.732 99.8039 263.305 100.481C263.878 101.158 264.164 102.098 264.164 103.301V103.973ZM262.852 102.887C262.846 102.148 262.667 101.572 262.312 101.161C261.964 100.749 261.477 100.543 260.852 100.543C260.247 100.543 259.734 100.76 259.312 101.192C258.891 101.624 258.63 102.189 258.531 102.887H262.852ZM276.969 107.653H275.688V106.387H275.656C275.125 107.356 274.302 107.84 273.188 107.84C271.281 107.84 270.328 106.705 270.328 104.434V99.6528H271.602V104.231C271.602 105.918 272.247 106.762 273.539 106.762C274.164 106.762 274.677 106.533 275.078 106.075C275.484 105.611 275.688 105.007 275.688 104.262V99.6528H276.969V107.653ZM286.203 107.653H284.922V103.09C284.922 101.392 284.302 100.543 283.062 100.543C282.422 100.543 281.891 100.786 281.469 101.27C281.052 101.749 280.844 102.356 280.844 103.09V107.653H279.562V99.6528H280.844V100.981H280.875C281.479 99.9705 282.354 99.4653 283.5 99.4653C284.375 99.4653 285.044 99.7492 285.508 100.317C285.971 100.879 286.203 101.694 286.203 102.762V107.653ZM294.328 106.497H294.297V111.333H293.016V99.6528H294.297V101.059H294.328C294.958 99.9966 295.88 99.4653 297.094 99.4653C298.125 99.4653 298.93 99.8247 299.508 100.543C300.086 101.257 300.375 102.215 300.375 103.418C300.375 104.757 300.049 105.83 299.398 106.637C298.747 107.439 297.857 107.84 296.727 107.84C295.69 107.84 294.891 107.392 294.328 106.497ZM294.297 103.27V104.387C294.297 105.049 294.51 105.611 294.938 106.075C295.37 106.533 295.917 106.762 296.578 106.762C297.354 106.762 297.961 106.465 298.398 105.872C298.841 105.278 299.062 104.452 299.062 103.395C299.062 102.504 298.857 101.806 298.445 101.301C298.034 100.796 297.477 100.543 296.773 100.543C296.029 100.543 295.43 100.804 294.977 101.325C294.523 101.84 294.297 102.489 294.297 103.27ZM306.594 100.95C306.37 100.778 306.047 100.692 305.625 100.692C305.078 100.692 304.62 100.95 304.25 101.465C303.885 101.981 303.703 102.684 303.703 103.575V107.653H302.422V99.6528H303.703V101.301H303.734C303.917 100.739 304.195 100.301 304.57 99.9888C304.945 99.6711 305.365 99.5122 305.828 99.5122C306.161 99.5122 306.417 99.5487 306.594 99.6216V100.95ZM311.328 107.84C310.146 107.84 309.201 107.468 308.492 106.723C307.789 105.973 307.438 104.981 307.438 103.747C307.438 102.403 307.805 101.353 308.539 100.598C309.273 99.8429 310.266 99.4653 311.516 99.4653C312.708 99.4653 313.638 99.8325 314.305 100.567C314.977 101.301 315.312 102.319 315.312 103.622C315.312 104.898 314.951 105.921 314.227 106.692C313.508 107.458 312.542 107.84 311.328 107.84ZM311.422 100.543C310.599 100.543 309.948 100.825 309.469 101.387C308.99 101.944 308.75 102.715 308.75 103.7C308.75 104.648 308.992 105.395 309.477 105.942C309.961 106.489 310.609 106.762 311.422 106.762C312.25 106.762 312.885 106.494 313.328 105.958C313.776 105.421 314 104.658 314 103.668C314 102.668 313.776 101.898 313.328 101.356C312.885 100.814 312.25 100.543 311.422 100.543ZM324.188 107.653H322.906V106.293H322.875C322.281 107.325 321.365 107.84 320.125 107.84C319.12 107.84 318.315 107.484 317.711 106.77C317.112 106.051 316.812 105.075 316.812 103.84C316.812 102.517 317.146 101.458 317.812 100.661C318.479 99.8638 319.367 99.4653 320.477 99.4653C321.576 99.4653 322.375 99.8976 322.875 100.762H322.906V95.8091H324.188V107.653ZM322.906 104.036V102.856C322.906 102.21 322.693 101.663 322.266 101.215C321.839 100.767 321.297 100.543 320.641 100.543C319.859 100.543 319.245 100.83 318.797 101.403C318.349 101.976 318.125 102.767 318.125 103.778C318.125 104.7 318.339 105.429 318.766 105.965C319.198 106.497 319.776 106.762 320.5 106.762C321.214 106.762 321.792 106.504 322.234 105.989C322.682 105.473 322.906 104.822 322.906 104.036ZM333.25 107.653H331.969V106.387H331.938C331.406 107.356 330.583 107.84 329.469 107.84C327.562 107.84 326.609 106.705 326.609 104.434V99.6528H327.883V104.231C327.883 105.918 328.529 106.762 329.82 106.762C330.445 106.762 330.958 106.533 331.359 106.075C331.766 105.611 331.969 105.007 331.969 104.262V99.6528H333.25V107.653ZM341.297 107.286C340.682 107.655 339.953 107.84 339.109 107.84C337.969 107.84 337.047 107.471 336.344 106.731C335.646 105.986 335.297 105.023 335.297 103.84C335.297 102.523 335.674 101.465 336.43 100.668C337.185 99.8664 338.193 99.4653 339.453 99.4653C340.156 99.4653 340.776 99.5955 341.312 99.856V101.168C340.719 100.752 340.083 100.543 339.406 100.543C338.589 100.543 337.917 100.838 337.391 101.426C336.87 102.01 336.609 102.778 336.609 103.731C336.609 104.668 336.854 105.408 337.344 105.95C337.839 106.491 338.5 106.762 339.328 106.762C340.026 106.762 340.682 106.53 341.297 106.067V107.286ZM346.945 107.575C346.643 107.741 346.245 107.825 345.75 107.825C344.349 107.825 343.648 107.043 343.648 105.481V100.747H342.273V99.6528H343.648V97.6997L344.93 97.2856V99.6528H346.945V100.747H344.93V105.254C344.93 105.791 345.021 106.174 345.203 106.403C345.385 106.632 345.688 106.747 346.109 106.747C346.432 106.747 346.711 106.658 346.945 106.481V107.575ZM352 107.84C350.818 107.84 349.872 107.468 349.164 106.723C348.461 105.973 348.109 104.981 348.109 103.747C348.109 102.403 348.477 101.353 349.211 100.598C349.945 99.8429 350.938 99.4653 352.188 99.4653C353.38 99.4653 354.31 99.8325 354.977 100.567C355.648 101.301 355.984 102.319 355.984 103.622C355.984 104.898 355.622 105.921 354.898 106.692C354.18 107.458 353.214 107.84 352 107.84ZM352.094 100.543C351.271 100.543 350.62 100.825 350.141 101.387C349.661 101.944 349.422 102.715 349.422 103.7C349.422 104.648 349.664 105.395 350.148 105.942C350.633 106.489 351.281 106.762 352.094 106.762C352.922 106.762 353.557 106.494 354 105.958C354.448 105.421 354.672 104.658 354.672 103.668C354.672 102.668 354.448 101.898 354 101.356C353.557 100.814 352.922 100.543 352.094 100.543ZM5.25 120.934C5 120.793 4.71615 120.723 4.39844 120.723C3.5026 120.723 3.05469 121.288 3.05469 122.418V123.653H4.92969V124.747H3.05469V131.653H1.78125V124.747H0.414062V123.653H1.78125V122.356C1.78125 121.517 2.02344 120.856 2.50781 120.372C2.99219 119.882 3.59635 119.637 4.32031 119.637C4.71094 119.637 5.02083 119.684 5.25 119.778V120.934ZM12.7812 131.653H11.5V130.387H11.4688C10.9375 131.356 10.1146 131.84 9 131.84C7.09375 131.84 6.14062 130.705 6.14062 128.434V123.653H7.41406V128.231C7.41406 129.918 8.0599 130.762 9.35156 130.762C9.97656 130.762 10.4896 130.533 10.8906 130.075C11.2969 129.611 11.5 129.007 11.5 128.262V123.653H12.7812V131.653ZM22.0156 131.653H20.7344V127.09C20.7344 125.392 20.1146 124.543 18.875 124.543C18.2344 124.543 17.7031 124.786 17.2812 125.27C16.8646 125.749 16.6562 126.356 16.6562 127.09V131.653H15.375V123.653H16.6562V124.981H16.6875C17.2917 123.971 18.1667 123.465 19.3125 123.465C20.1875 123.465 20.8568 123.749 21.3203 124.317C21.7839 124.879 22.0156 125.694 22.0156 126.762V131.653ZM29.8906 131.286C29.276 131.655 28.5469 131.84 27.7031 131.84C26.5625 131.84 25.6406 131.471 24.9375 130.731C24.2396 129.986 23.8906 129.023 23.8906 127.84C23.8906 126.523 24.2682 125.465 25.0234 124.668C25.7786 123.866 26.7865 123.465 28.0469 123.465C28.75 123.465 29.3698 123.596 29.9062 123.856V125.168C29.3125 124.752 28.6771 124.543 28 124.543C27.1823 124.543 26.5104 124.838 25.9844 125.426C25.4635 126.01 25.2031 126.778 25.2031 127.731C25.2031 128.668 25.4479 129.408 25.9375 129.95C26.4323 130.491 27.0938 130.762 27.9219 130.762C28.6198 130.762 29.276 130.53 29.8906 130.067V131.286ZM32.4844 121.622C32.2552 121.622 32.0599 121.543 31.8984 121.387C31.737 121.231 31.6562 121.033 31.6562 120.793C31.6562 120.554 31.737 120.356 31.8984 120.2C32.0599 120.038 32.2552 119.958 32.4844 119.958C32.7188 119.958 32.9167 120.038 33.0781 120.2C33.2448 120.356 33.3281 120.554 33.3281 120.793C33.3281 121.023 33.2448 121.218 33.0781 121.379C32.9167 121.541 32.7188 121.622 32.4844 121.622ZM33.1094 131.653H31.8281V123.653H33.1094V131.653ZM39.0469 131.84C37.8646 131.84 36.9193 131.468 36.2109 130.723C35.5078 129.973 35.1562 128.981 35.1562 127.747C35.1562 126.403 35.5234 125.353 36.2578 124.598C36.9922 123.843 37.9844 123.465 39.2344 123.465C40.4271 123.465 41.3568 123.833 42.0234 124.567C42.6953 125.301 43.0312 126.319 43.0312 127.622C43.0312 128.898 42.6693 129.921 41.9453 130.692C41.2266 131.458 40.2604 131.84 39.0469 131.84ZM39.1406 124.543C38.3177 124.543 37.6667 124.825 37.1875 125.387C36.7083 125.944 36.4688 126.715 36.4688 127.7C36.4688 128.648 36.7109 129.395 37.1953 129.942C37.6797 130.489 38.3281 130.762 39.1406 130.762C39.9688 130.762 40.6042 130.494 41.0469 129.958C41.4948 129.421 41.7188 128.658 41.7188 127.668C41.7188 126.668 41.4948 125.898 41.0469 125.356C40.6042 124.814 39.9688 124.543 39.1406 124.543ZM51.7188 131.653H50.4375V127.09C50.4375 125.392 49.8177 124.543 48.5781 124.543C47.9375 124.543 47.4062 124.786 46.9844 125.27C46.5677 125.749 46.3594 126.356 46.3594 127.09V131.653H45.0781V123.653H46.3594V124.981H46.3906C46.9948 123.971 47.8698 123.465 49.0156 123.465C49.8906 123.465 50.5599 123.749 51.0234 124.317C51.487 124.879 51.7188 125.694 51.7188 126.762V131.653ZM59.8672 131.653H58.5859V130.403H58.5547C57.9974 131.361 57.1771 131.84 56.0938 131.84C55.2969 131.84 54.6719 131.629 54.2188 131.208C53.7708 130.786 53.5469 130.226 53.5469 129.528C53.5469 128.033 54.4271 127.163 56.1875 126.918L58.5859 126.583C58.5859 125.223 58.0365 124.543 56.9375 124.543C55.974 124.543 55.1042 124.872 54.3281 125.528V124.215C55.1146 123.715 56.0208 123.465 57.0469 123.465C58.9271 123.465 59.8672 124.46 59.8672 126.45V131.653ZM58.5859 127.606L56.6562 127.872C56.0625 127.955 55.6146 128.103 55.3125 128.317C55.0104 128.525 54.8594 128.898 54.8594 129.434C54.8594 129.825 54.9974 130.145 55.2734 130.395C55.5547 130.64 55.9271 130.762 56.3906 130.762C57.026 130.762 57.5495 130.541 57.9609 130.098C58.3776 129.65 58.5859 129.085 58.5859 128.403V127.606ZM63.5625 131.653H62.2812V119.809H63.5625V131.653ZM76.2734 131.653H74.9922V130.403H74.9609C74.4036 131.361 73.5833 131.84 72.5 131.84C71.7031 131.84 71.0781 131.629 70.625 131.208C70.1771 130.786 69.9531 130.226 69.9531 129.528C69.9531 128.033 70.8333 127.163 72.5938 126.918L74.9922 126.583C74.9922 125.223 74.4427 124.543 73.3438 124.543C72.3802 124.543 71.5104 124.872 70.7344 125.528V124.215C71.5208 123.715 72.4271 123.465 73.4531 123.465C75.3333 123.465 76.2734 124.46 76.2734 126.45V131.653ZM74.9922 127.606L73.0625 127.872C72.4688 127.955 72.0208 128.103 71.7188 128.317C71.4167 128.525 71.2656 128.898 71.2656 129.434C71.2656 129.825 71.4036 130.145 71.6797 130.395C71.9609 130.64 72.3333 130.762 72.7969 130.762C73.4323 130.762 73.9557 130.541 74.3672 130.098C74.7839 129.65 74.9922 129.085 74.9922 128.403V127.606ZM79.9688 131.653H78.6875V119.809H79.9688V131.653ZM90.9062 120.934C90.6562 120.793 90.3724 120.723 90.0547 120.723C89.1589 120.723 88.7109 121.288 88.7109 122.418V123.653H90.5859V124.747H88.7109V131.653H87.4375V124.747H86.0703V123.653H87.4375V122.356C87.4375 121.517 87.6797 120.856 88.1641 120.372C88.6484 119.882 89.2526 119.637 89.9766 119.637C90.3672 119.637 90.6771 119.684 90.9062 119.778V120.934ZM92.625 121.622C92.3958 121.622 92.2005 121.543 92.0391 121.387C91.8776 121.231 91.7969 121.033 91.7969 120.793C91.7969 120.554 91.8776 120.356 92.0391 120.2C92.2005 120.038 92.3958 119.958 92.625 119.958C92.8594 119.958 93.0573 120.038 93.2188 120.2C93.3854 120.356 93.4688 120.554 93.4688 120.793C93.4688 121.023 93.3854 121.218 93.2188 121.379C93.0573 121.541 92.8594 121.622 92.625 121.622ZM93.25 131.653H91.9688V123.653H93.25V131.653ZM102.484 131.653H101.203V127.09C101.203 125.392 100.583 124.543 99.3438 124.543C98.7031 124.543 98.1719 124.786 97.75 125.27C97.3333 125.749 97.125 126.356 97.125 127.09V131.653H95.8438V123.653H97.125V124.981H97.1562C97.7604 123.971 98.6354 123.465 99.7812 123.465C100.656 123.465 101.326 123.749 101.789 124.317C102.253 124.879 102.484 125.694 102.484 126.762V131.653ZM110.633 131.653H109.352V130.403H109.32C108.763 131.361 107.943 131.84 106.859 131.84C106.062 131.84 105.438 131.629 104.984 131.208C104.536 130.786 104.312 130.226 104.312 129.528C104.312 128.033 105.193 127.163 106.953 126.918L109.352 126.583C109.352 125.223 108.802 124.543 107.703 124.543C106.74 124.543 105.87 124.872 105.094 125.528V124.215C105.88 123.715 106.786 123.465 107.812 123.465C109.693 123.465 110.633 124.46 110.633 126.45V131.653ZM109.352 127.606L107.422 127.872C106.828 127.955 106.38 128.103 106.078 128.317C105.776 128.525 105.625 128.898 105.625 129.434C105.625 129.825 105.763 130.145 106.039 130.395C106.32 130.64 106.693 130.762 107.156 130.762C107.792 130.762 108.315 130.541 108.727 130.098C109.143 129.65 109.352 129.085 109.352 128.403V127.606ZM114.328 131.653H113.047V119.809H114.328V131.653ZM117.578 121.622C117.349 121.622 117.154 121.543 116.992 121.387C116.831 121.231 116.75 121.033 116.75 120.793C116.75 120.554 116.831 120.356 116.992 120.2C117.154 120.038 117.349 119.958 117.578 119.958C117.812 119.958 118.01 120.038 118.172 120.2C118.339 120.356 118.422 120.554 118.422 120.793C118.422 121.023 118.339 121.218 118.172 121.379C118.01 121.541 117.812 121.622 117.578 121.622ZM118.203 131.653H116.922V123.653H118.203V131.653ZM126.375 124.02L121.641 130.559H126.328V131.653H119.758V131.254L124.492 124.747H120.203V123.653H126.375V124.02ZM133.758 131.653H132.477V130.403H132.445C131.888 131.361 131.068 131.84 129.984 131.84C129.188 131.84 128.562 131.629 128.109 131.208C127.661 130.786 127.438 130.226 127.438 129.528C127.438 128.033 128.318 127.163 130.078 126.918L132.477 126.583C132.477 125.223 131.927 124.543 130.828 124.543C129.865 124.543 128.995 124.872 128.219 125.528V124.215C129.005 123.715 129.911 123.465 130.938 123.465C132.818 123.465 133.758 124.46 133.758 126.45V131.653ZM132.477 127.606L130.547 127.872C129.953 127.955 129.505 128.103 129.203 128.317C128.901 128.525 128.75 128.898 128.75 129.434C128.75 129.825 128.888 130.145 129.164 130.395C129.445 130.64 129.818 130.762 130.281 130.762C130.917 130.762 131.44 130.541 131.852 130.098C132.268 129.65 132.477 129.085 132.477 128.403V127.606ZM140.344 124.95C140.12 124.778 139.797 124.692 139.375 124.692C138.828 124.692 138.37 124.95 138 125.465C137.635 125.981 137.453 126.684 137.453 127.575V131.653H136.172V123.653H137.453V125.301H137.484C137.667 124.739 137.945 124.301 138.32 123.989C138.695 123.671 139.115 123.512 139.578 123.512C139.911 123.512 140.167 123.549 140.344 123.622V124.95ZM151.578 131.286C150.964 131.655 150.234 131.84 149.391 131.84C148.25 131.84 147.328 131.471 146.625 130.731C145.927 129.986 145.578 129.023 145.578 127.84C145.578 126.523 145.956 125.465 146.711 124.668C147.466 123.866 148.474 123.465 149.734 123.465C150.438 123.465 151.057 123.596 151.594 123.856V125.168C151 124.752 150.365 124.543 149.688 124.543C148.87 124.543 148.198 124.838 147.672 125.426C147.151 126.01 146.891 126.778 146.891 127.731C146.891 128.668 147.135 129.408 147.625 129.95C148.12 130.491 148.781 130.762 149.609 130.762C150.307 130.762 150.964 130.53 151.578 130.067V131.286ZM159.242 131.653H157.961V130.403H157.93C157.372 131.361 156.552 131.84 155.469 131.84C154.672 131.84 154.047 131.629 153.594 131.208C153.146 130.786 152.922 130.226 152.922 129.528C152.922 128.033 153.802 127.163 155.562 126.918L157.961 126.583C157.961 125.223 157.411 124.543 156.312 124.543C155.349 124.543 154.479 124.872 153.703 125.528V124.215C154.49 123.715 155.396 123.465 156.422 123.465C158.302 123.465 159.242 124.46 159.242 126.45V131.653ZM157.961 127.606L156.031 127.872C155.438 127.955 154.99 128.103 154.688 128.317C154.385 128.525 154.234 128.898 154.234 129.434C154.234 129.825 154.372 130.145 154.648 130.395C154.93 130.64 155.302 130.762 155.766 130.762C156.401 130.762 156.924 130.541 157.336 130.098C157.753 129.65 157.961 129.085 157.961 128.403V127.606ZM168.484 131.653H167.203V130.293H167.172C166.578 131.325 165.661 131.84 164.422 131.84C163.417 131.84 162.612 131.484 162.008 130.77C161.409 130.051 161.109 129.075 161.109 127.84C161.109 126.517 161.443 125.458 162.109 124.661C162.776 123.864 163.664 123.465 164.773 123.465C165.872 123.465 166.672 123.898 167.172 124.762H167.203V119.809H168.484V131.653ZM167.203 128.036V126.856C167.203 126.21 166.99 125.663 166.562 125.215C166.135 124.767 165.594 124.543 164.938 124.543C164.156 124.543 163.542 124.83 163.094 125.403C162.646 125.976 162.422 126.767 162.422 127.778C162.422 128.7 162.635 129.429 163.062 129.965C163.495 130.497 164.073 130.762 164.797 130.762C165.51 130.762 166.089 130.504 166.531 129.989C166.979 129.473 167.203 128.822 167.203 128.036ZM176.805 131.653H175.523V130.403H175.492C174.935 131.361 174.115 131.84 173.031 131.84C172.234 131.84 171.609 131.629 171.156 131.208C170.708 130.786 170.484 130.226 170.484 129.528C170.484 128.033 171.365 127.163 173.125 126.918L175.523 126.583C175.523 125.223 174.974 124.543 173.875 124.543C172.911 124.543 172.042 124.872 171.266 125.528V124.215C172.052 123.715 172.958 123.465 173.984 123.465C175.865 123.465 176.805 124.46 176.805 126.45V131.653ZM175.523 127.606L173.594 127.872C173 127.955 172.552 128.103 172.25 128.317C171.948 128.525 171.797 128.898 171.797 129.434C171.797 129.825 171.935 130.145 172.211 130.395C172.492 130.64 172.865 130.762 173.328 130.762C173.964 130.762 174.487 130.541 174.898 130.098C175.315 129.65 175.523 129.085 175.523 128.403V127.606ZM184.266 121.622C184.036 121.622 183.841 121.543 183.68 121.387C183.518 121.231 183.438 121.033 183.438 120.793C183.438 120.554 183.518 120.356 183.68 120.2C183.841 120.038 184.036 119.958 184.266 119.958C184.5 119.958 184.698 120.038 184.859 120.2C185.026 120.356 185.109 120.554 185.109 120.793C185.109 121.023 185.026 121.218 184.859 121.379C184.698 121.541 184.5 121.622 184.266 121.622ZM184.891 131.653H183.609V123.653H184.891V131.653ZM191.195 131.575C190.893 131.741 190.495 131.825 190 131.825C188.599 131.825 187.898 131.043 187.898 129.481V124.747H186.523V123.653H187.898V121.7L189.18 121.286V123.653H191.195V124.747H189.18V129.254C189.18 129.791 189.271 130.174 189.453 130.403C189.635 130.632 189.938 130.747 190.359 130.747C190.682 130.747 190.961 130.658 191.195 130.481V131.575ZM199.336 127.973H193.688C193.708 128.864 193.948 129.551 194.406 130.036C194.865 130.52 195.495 130.762 196.297 130.762C197.198 130.762 198.026 130.465 198.781 129.872V131.075C198.078 131.585 197.148 131.84 195.992 131.84C194.862 131.84 193.974 131.478 193.328 130.754C192.682 130.025 192.359 129.002 192.359 127.684C192.359 126.439 192.711 125.426 193.414 124.645C194.122 123.859 195 123.465 196.047 123.465C197.094 123.465 197.904 123.804 198.477 124.481C199.049 125.158 199.336 126.098 199.336 127.301V127.973ZM198.023 126.887C198.018 126.148 197.839 125.572 197.484 125.161C197.135 124.749 196.648 124.543 196.023 124.543C195.419 124.543 194.906 124.76 194.484 125.192C194.062 125.624 193.802 126.189 193.703 126.887H198.023ZM205.453 124.95C205.229 124.778 204.906 124.692 204.484 124.692C203.938 124.692 203.479 124.95 203.109 125.465C202.745 125.981 202.562 126.684 202.562 127.575V131.653H201.281V123.653H202.562V125.301H202.594C202.776 124.739 203.055 124.301 203.43 123.989C203.805 123.671 204.224 123.512 204.688 123.512C205.021 123.512 205.276 123.549 205.453 123.622V124.95ZM212.57 131.653H211.289V130.403H211.258C210.701 131.361 209.88 131.84 208.797 131.84C208 131.84 207.375 131.629 206.922 131.208C206.474 130.786 206.25 130.226 206.25 129.528C206.25 128.033 207.13 127.163 208.891 126.918L211.289 126.583C211.289 125.223 210.74 124.543 209.641 124.543C208.677 124.543 207.807 124.872 207.031 125.528V124.215C207.818 123.715 208.724 123.465 209.75 123.465C211.63 123.465 212.57 124.46 212.57 126.45V131.653ZM211.289 127.606L209.359 127.872C208.766 127.955 208.318 128.103 208.016 128.317C207.714 128.525 207.562 128.898 207.562 129.434C207.562 129.825 207.701 130.145 207.977 130.395C208.258 130.64 208.63 130.762 209.094 130.762C209.729 130.762 210.253 130.541 210.664 130.098C211.081 129.65 211.289 129.085 211.289 128.403V127.606ZM220.438 131.286C219.823 131.655 219.094 131.84 218.25 131.84C217.109 131.84 216.188 131.471 215.484 130.731C214.786 129.986 214.438 129.023 214.438 127.84C214.438 126.523 214.815 125.465 215.57 124.668C216.326 123.866 217.333 123.465 218.594 123.465C219.297 123.465 219.917 123.596 220.453 123.856V125.168C219.859 124.752 219.224 124.543 218.547 124.543C217.729 124.543 217.057 124.838 216.531 125.426C216.01 126.01 215.75 126.778 215.75 127.731C215.75 128.668 215.995 129.408 216.484 129.95C216.979 130.491 217.641 130.762 218.469 130.762C219.167 130.762 219.823 130.53 220.438 130.067V131.286ZM223.031 121.622C222.802 121.622 222.607 121.543 222.445 121.387C222.284 121.231 222.203 121.033 222.203 120.793C222.203 120.554 222.284 120.356 222.445 120.2C222.607 120.038 222.802 119.958 223.031 119.958C223.266 119.958 223.464 120.038 223.625 120.2C223.792 120.356 223.875 120.554 223.875 120.793C223.875 121.023 223.792 121.218 223.625 121.379C223.464 121.541 223.266 121.622 223.031 121.622ZM223.656 131.653H222.375V123.653H223.656V131.653ZM229.594 131.84C228.411 131.84 227.466 131.468 226.758 130.723C226.055 129.973 225.703 128.981 225.703 127.747C225.703 126.403 226.07 125.353 226.805 124.598C227.539 123.843 228.531 123.465 229.781 123.465C230.974 123.465 231.904 123.833 232.57 124.567C233.242 125.301 233.578 126.319 233.578 127.622C233.578 128.898 233.216 129.921 232.492 130.692C231.773 131.458 230.807 131.84 229.594 131.84ZM229.688 124.543C228.865 124.543 228.214 124.825 227.734 125.387C227.255 125.944 227.016 126.715 227.016 127.7C227.016 128.648 227.258 129.395 227.742 129.942C228.227 130.489 228.875 130.762 229.688 130.762C230.516 130.762 231.151 130.494 231.594 129.958C232.042 129.421 232.266 128.658 232.266 127.668C232.266 126.668 232.042 125.898 231.594 125.356C231.151 124.814 230.516 124.543 229.688 124.543ZM231.562 119.575L229.516 122.137H228.523L230.266 119.575H231.562ZM242.266 131.653H240.984V127.09C240.984 125.392 240.365 124.543 239.125 124.543C238.484 124.543 237.953 124.786 237.531 125.27C237.115 125.749 236.906 126.356 236.906 127.09V131.653H235.625V123.653H236.906V124.981H236.938C237.542 123.971 238.417 123.465 239.562 123.465C240.438 123.465 241.107 123.749 241.57 124.317C242.034 124.879 242.266 125.694 242.266 126.762V131.653ZM245.133 131.825C244.893 131.825 244.688 131.739 244.516 131.567C244.349 131.395 244.266 131.189 244.266 130.95C244.266 130.71 244.349 130.504 244.516 130.333C244.688 130.155 244.893 130.067 245.133 130.067C245.378 130.067 245.586 130.155 245.758 130.333C245.93 130.504 246.016 130.71 246.016 130.95C246.016 131.189 245.93 131.395 245.758 131.567C245.586 131.739 245.378 131.825 245.133 131.825Z" fill="white"/>
</svg>
