<svg width="86" height="86" viewBox="0 0 86 86" fill="none" xmlns="http://www.w3.org/2000/svg">
<circle cx="43" cy="43" r="42" stroke="#5E17EB" stroke-width="2"/>
<path d="M46.2083 32.1927V62.4584C46.2083 63.2257 45.9488 63.8689 45.4297 64.388C44.9106 64.9071 44.2674 65.1667 43.5 65.1667C42.7326 65.1667 42.0894 64.9071 41.5703 64.388C41.0512 63.8689 40.7917 63.2257 40.7917 62.4584V32.1927L27.5208 45.4636C26.9792 46.0052 26.3472 46.2648 25.625 46.2422C24.9028 46.2196 24.2708 45.9375 23.7292 45.3959C23.2326 44.8542 22.9731 44.2222 22.9505 43.5C22.9279 42.7778 23.1875 42.1459 23.7292 41.6042L41.6042 23.7292C41.875 23.4584 42.1684 23.2665 42.4844 23.1537C42.8003 23.0408 43.1389 22.9844 43.5 22.9844C43.8611 22.9844 44.1997 23.0408 44.5156 23.1537C44.8316 23.2665 45.125 23.4584 45.3958 23.7292L63.2708 41.6042C63.7674 42.1007 64.0156 42.7214 64.0156 43.4662C64.0156 44.211 63.7674 44.8542 63.2708 45.3959C62.7292 45.9375 62.0859 46.2084 61.3411 46.2084C60.5964 46.2084 59.9531 45.9375 59.4115 45.3959L46.2083 32.1927Z" fill="#5E17EB"/>
</svg>
