<svg width="86" height="86" viewBox="0 0 86 86" fill="none" xmlns="http://www.w3.org/2000/svg">
<circle cx="43" cy="43" r="42" stroke="#5E17EB" stroke-width="2"/>
<path d="M40.7917 54.8073V24.5417C40.7917 23.7743 41.0512 23.1311 41.5703 22.612C42.0894 22.0929 42.7326 21.8334 43.5 21.8334C44.2674 21.8334 44.9106 22.0929 45.4297 22.612C45.9488 23.1311 46.2083 23.7743 46.2083 24.5417V54.8073L59.4792 41.5365C60.0208 40.9948 60.6528 40.7353 61.375 40.7579C62.0972 40.7804 62.7292 41.0625 63.2708 41.6042C63.7674 42.1459 64.0269 42.7778 64.0495 43.5C64.0721 44.2223 63.8125 44.8542 63.2708 45.3959L45.3958 63.2709C45.125 63.5417 44.8316 63.7336 44.5156 63.8464C44.1997 63.9592 43.8611 64.0157 43.5 64.0157C43.1389 64.0157 42.8003 63.9592 42.4844 63.8464C42.1684 63.7336 41.875 63.5417 41.6042 63.2709L23.7292 45.3959C23.2326 44.8993 22.9844 44.2787 22.9844 43.5339C22.9844 42.7891 23.2326 42.1459 23.7292 41.6042C24.2708 41.0625 24.9141 40.7917 25.6589 40.7917C26.4036 40.7917 27.0469 41.0625 27.5885 41.6042L40.7917 54.8073Z" fill="#5E17EB"/>
</svg>
