<svg width="90" height="90" viewBox="0 0 90 90" fill="none" xmlns="http://www.w3.org/2000/svg">
<g filter="url(#filter0_d_451_312)">
<circle cx="45" cy="41" r="41" fill="#5E17EB"/>
</g>
<path d="M42.7917 52.8073V22.5416C42.7917 21.7743 43.0512 21.1311 43.5703 20.612C44.0894 20.0929 44.7326 19.8333 45.5 19.8333C46.2674 19.8333 46.9106 20.0929 47.4297 20.612C47.9488 21.1311 48.2083 21.7743 48.2083 22.5416V52.8073L61.4792 39.5364C62.0208 38.9948 62.6528 38.7352 63.375 38.7578C64.0972 38.7804 64.7292 39.0625 65.2708 39.6041C65.7674 40.1458 66.0269 40.7778 66.0495 41.5C66.0721 42.2222 65.8125 42.8541 65.2708 43.3958L47.3958 61.2708C47.125 61.5416 46.8316 61.7335 46.5156 61.8463C46.1997 61.9592 45.8611 62.0156 45.5 62.0156C45.1389 62.0156 44.8003 61.9592 44.4844 61.8463C44.1684 61.7335 43.875 61.5416 43.6042 61.2708L25.7292 43.3958C25.2326 42.8993 24.9844 42.2786 24.9844 41.5338C24.9844 40.789 25.2326 40.1458 25.7292 39.6041C26.2708 39.0625 26.9141 38.7916 27.6589 38.7916C28.4036 38.7916 29.0469 39.0625 29.5885 39.6041L42.7917 52.8073Z" fill="white"/>
<defs>
<filter id="filter0_d_451_312" x="0" y="0" width="90" height="90" filterUnits="userSpaceOnUse" color-interpolation-filters="sRGB">
<feFlood flood-opacity="0" result="BackgroundImageFix"/>
<feColorMatrix in="SourceAlpha" type="matrix" values="0 0 0 0 0 0 0 0 0 0 0 0 0 0 0 0 0 0 127 0" result="hardAlpha"/>
<feOffset dy="4"/>
<feGaussianBlur stdDeviation="2"/>
<feComposite in2="hardAlpha" operator="out"/>
<feColorMatrix type="matrix" values="0 0 0 0 1 0 0 0 0 1 0 0 0 0 1 0 0 0 0.25 0"/>
<feBlend mode="normal" in2="BackgroundImageFix" result="effect1_dropShadow_451_312"/>
<feBlend mode="normal" in="SourceGraphic" in2="effect1_dropShadow_451_312" result="shape"/>
</filter>
</defs>
</svg>
