<svg width="82" height="82" viewBox="0 0 82 82" fill="none" xmlns="http://www.w3.org/2000/svg">
<circle cx="41" cy="41" r="41" fill="#5E17EB"/>
<path d="M44.2083 30.1927V60.4584C44.2083 61.2257 43.9488 61.8689 43.4297 62.388C42.9106 62.9071 42.2674 63.1667 41.5 63.1667C40.7326 63.1667 40.0894 62.9071 39.5703 62.388C39.0512 61.8689 38.7917 61.2257 38.7917 60.4584V30.1927L25.5208 43.4636C24.9792 44.0052 24.3472 44.2648 23.625 44.2422C22.9028 44.2196 22.2708 43.9375 21.7292 43.3959C21.2326 42.8542 20.9731 42.2222 20.9505 41.5C20.9279 40.7778 21.1875 40.1459 21.7292 39.6042L39.6042 21.7292C39.875 21.4584 40.1684 21.2665 40.4844 21.1537C40.8003 21.0408 41.1389 20.9844 41.5 20.9844C41.8611 20.9844 42.1997 21.0408 42.5156 21.1537C42.8316 21.2665 43.125 21.4584 43.3958 21.7292L61.2708 39.6042C61.7674 40.1007 62.0156 40.7214 62.0156 41.4662C62.0156 42.211 61.7674 42.8542 61.2708 43.3959C60.7292 43.9375 60.0859 44.2084 59.3411 44.2084C58.5964 44.2084 57.9531 43.9375 57.4115 43.3959L44.2083 30.1927Z" fill="white"/>
</svg>
