<svg width="82" height="82" viewBox="0 0 82 82" fill="none" xmlns="http://www.w3.org/2000/svg">
<circle cx="41" cy="41" r="41" fill="#5E17EB"/>
<path d="M38.7917 52.8073V22.5416C38.7917 21.7743 39.0512 21.1311 39.5703 20.612C40.0894 20.0929 40.7326 19.8333 41.5 19.8333C42.2674 19.8333 42.9106 20.0929 43.4297 20.612C43.9488 21.1311 44.2083 21.7743 44.2083 22.5416V52.8073L57.4792 39.5364C58.0208 38.9948 58.6528 38.7352 59.375 38.7578C60.0972 38.7804 60.7292 39.0625 61.2708 39.6041C61.7674 40.1458 62.0269 40.7778 62.0495 41.5C62.0721 42.2222 61.8125 42.8541 61.2708 43.3958L43.3958 61.2708C43.125 61.5416 42.8316 61.7335 42.5156 61.8463C42.1997 61.9592 41.8611 62.0156 41.5 62.0156C41.1389 62.0156 40.8003 61.9592 40.4844 61.8463C40.1684 61.7335 39.875 61.5416 39.6042 61.2708L21.7292 43.3958C21.2326 42.8993 20.9844 42.2786 20.9844 41.5338C20.9844 40.789 21.2326 40.1458 21.7292 39.6041C22.2708 39.0625 22.9141 38.7916 23.6589 38.7916C24.4036 38.7916 25.0469 39.0625 25.5885 39.6041L38.7917 52.8073Z" fill="white"/>
</svg>
