<svg width="519" height="323" viewBox="0 0 519 323" fill="none" xmlns="http://www.w3.org/2000/svg">
<mask id="mask0_528_901" style="mask-type:luminance" maskUnits="userSpaceOnUse" x="200" y="37" width="119" height="111">
<path d="M200.714 37.4683H318.286V147.71H200.714V37.4683Z" fill="white"/>
</mask>
<g mask="url(#mask0_528_901)">
<path fill-rule="evenodd" clip-rule="evenodd" d="M259.324 37.8164C291.858 37.8164 318.213 62.4078 318.213 92.763C318.213 123.118 291.858 147.71 259.324 147.71C229.001 147.71 204.026 126.316 200.791 98.8315H237.294C240.112 107.701 248.919 114.218 259.324 114.218C272.006 114.218 282.285 104.626 282.285 92.7935C282.285 80.9611 270.15 71.3734 259.324 71.3734C251.836 71.3734 245.974 73.4919 241.842 77.1373V39.613C247.381 38.3254 253.692 37.8164 259.324 37.8164Z" fill="white"/>
</g>
<mask id="mask1_528_901" style="mask-type:luminance" maskUnits="userSpaceOnUse" x="200" y="0" width="38" height="97">
<path d="M200.714 0.709473H237.731V96.4909H200.714V0.709473Z" fill="white"/>
</mask>
<g mask="url(#mask1_528_901)">
<path fill-rule="evenodd" clip-rule="evenodd" d="M200.791 0.709473H228.618C233.39 0.709473 237.266 4.35489 237.266 8.80508V95.7818H200.791V0.709473Z" fill="#5E17EB"/>
</g>
<path d="M34.4299 268.228L35.7091 268.145H35.9578L36.633 268.063H37.8234L38.4985 268.145L39.6001 268.228L41.892 268.145L42.4872 268.063L43.0824 268.145L44.3527 268.228L45.6231 267.988L46.1294 268.063L47.231 267.831L47.9949 267.749L48.5013 267.674L49.1853 267.434L50.1092 267.203L50.7932 266.88L51.3884 266.649L51.806 266.409L52.2324 266.095L52.8275 265.781L53.2451 265.384L53.7603 265.144L54.4355 264.756L54.773 264.359L55.3682 263.888L55.7946 263.491L56.301 262.623L57.065 261.68L58.4153 259.151L58.5929 258.605L58.7617 258.125L58.9305 257.58L59.0993 257.1L59.348 256.001L59.4369 255.447L59.6945 254.422L59.9432 253.24L60.112 252.057L60.2008 251.503V250.478L60.2808 249.767L60.112 248.982L60.2008 247.957L59.8633 246.923L59.6945 245.898L59.4369 245.427L59.2681 244.642L58.8417 243.774L58.5041 243.22L57.9977 242.434L57.4914 241.955L56.9761 241.409L55.9634 240.773L55.1994 240.459L54.2667 239.987L53.4227 239.673V239.194L54.1778 238.879L55.1994 238.491L56.2122 237.937L56.8073 237.623L57.2337 237.3L57.6602 236.829L58.0777 236.515L59.1792 235.49L59.8633 234.547L60.4496 233.754L61.0448 232.886L61.3823 232.175L61.6399 231.704L61.8087 231.15L61.9775 230.678L62.0664 230.125L62.1463 229.893L62.3151 229.339L62.2351 228.868L62.5727 227.843L62.6616 227.289L62.8303 226.264V225.793L62.9991 225.239L63.0791 224.759V224.214L63.1679 223.734L63.2479 222.552L63.0791 221.609L62.9103 220.981V220.427L62.8303 219.791L62.3151 218.691L61.9775 217.74L61.7288 217.352L61.3823 216.872L60.6272 216.244L59.5257 215.136L58.5929 214.433L57.8289 214.111L56.9761 213.722L55.9634 213.483L54.6931 213.169L53.8403 213.086L52.9075 212.929H50.3668L49.1853 212.854L45.7918 212.929L41.6344 212.772H39.8577L38.9249 212.854L38.4186 212.772H36.2954L35.1139 212.854L34.3499 213.483L34.0923 213.88L33.9235 214.591L33.8436 215.773L33.7547 216.327V216.955L33.4971 217.98L32.9908 219.873L32.742 220.898L32.4844 222.081L32.3156 224.602L31.978 225.71L31.8093 226.892L31.7204 227.363L31.5516 227.843V228.388L31.4628 228.868L31.3829 229.571L31.1252 230.207L31.0453 230.678L30.8765 231.232L30.7877 232.175L30.7077 232.886L30.4501 233.597L30.2813 234.151L30.1925 234.705V235.333L30.0237 236.441L29.6861 237.54L29.6062 238.169L29.2597 239.194L29.0909 239.59L29.011 240.698L28.6734 241.798L28.5046 242.591L28.4158 242.906V243.377L28.1582 244.328L28.0782 244.873L27.9094 245.898L27.6518 246.923V247.477L27.5718 247.957L27.3942 248.585L27.1454 249.213L26.8878 250.321L26.9767 251.107L26.6391 251.9L26.4703 253.157L26.2926 254.339L26.2127 254.819L25.9551 255.447L25.8751 256.075L25.7063 256.629L25.6175 257.183L25.4487 257.654L25.3687 258.762L25.1911 259.862L24.8535 260.887L24.7736 261.441L24.6048 262.391L24.436 263.491L24.2583 264.202L24.0096 264.83V266.012L23.8408 266.806L23.752 267.434L24.3471 267.906L25.1111 267.988L26.3815 268.063H27.0566L27.5718 268.145H31.0453L32.3956 268.063H33.0796L34.4299 268.228ZM44.0151 233.911L42.9935 233.837H41.892V233.357L41.9808 232.572L42.1496 231.943L42.7359 228.074L42.9047 227.603L42.9935 227.049L43.2512 226.024V225.47L43.4999 224.528L43.5887 223.974L43.6687 223.263L43.9263 222.552V222.006L44.6015 221.841H46.7246L48.2526 222.006L49.0077 222.163L49.5229 222.238L50.198 222.792L50.4557 223.188L50.962 224.131L51.042 225.082L51.1308 225.627L51.2108 226.495L50.8732 227.289L50.7932 227.917L50.6244 228.388L50.3668 229.339L49.9404 230.439L49.2653 231.232L48.8389 231.943L47.8262 232.729L46.8934 233.283L46.2182 233.679L45.1966 233.837L44.0151 233.911ZM38.5873 258.051L37.2282 257.968L37.5657 256.943L37.6546 256.315L37.8234 255.687L37.9922 254.579V254.025L38.2498 252.843L38.4186 252.289L38.5873 251.189L38.6673 250.553L38.845 250.082V249.528L39.0138 248.982L39.1825 247.792L39.3513 247.477L39.5201 246.849L39.6889 245.427L39.9465 244.716H41.128L42.0608 244.799H43.2512L43.9263 244.956L44.7702 245.113L46.387 245.667L47.3198 246.452L48.0749 248.345L47.9949 249.371L48.0749 250.71L47.9061 252.132L47.4886 253.157L47.3997 253.793L47.231 254.339L46.8046 255.207L46.7246 255.844L46.2182 256.546L45.6231 257.026L44.8591 257.58L44.2639 257.811H43.6687L43.0824 258.051H41.4656L39.3513 257.811L38.5873 258.051Z" fill="white"/>
<path d="M2.368 314.228V291.828H10.24C11.8187 291.828 13.12 292.084 14.144 292.596C15.1893 293.087 15.968 293.769 16.48 294.644C16.992 295.497 17.248 296.457 17.248 297.524C17.248 298.975 16.8533 300.116 16.064 300.948C15.296 301.78 14.368 302.356 13.28 302.676C14.112 302.825 14.8693 303.156 15.552 303.668C16.2347 304.18 16.768 304.82 17.152 305.588C17.5573 306.356 17.76 307.199 17.76 308.116C17.76 309.247 17.4827 310.281 16.928 311.22C16.3733 312.137 15.552 312.873 14.464 313.428C13.376 313.961 12.0533 314.228 10.496 314.228H2.368ZM5.056 301.62H10.048C11.4773 301.62 12.576 301.289 13.344 300.628C14.112 299.945 14.496 299.007 14.496 297.812C14.496 296.681 14.112 295.775 13.344 295.092C12.5973 294.409 11.4667 294.068 9.952 294.068H5.056V301.62ZM5.056 311.988H10.208C11.744 311.988 12.928 311.636 13.76 310.932C14.592 310.207 15.008 309.204 15.008 307.924C15.008 306.665 14.5707 305.663 13.696 304.916C12.8213 304.148 11.6373 303.764 10.144 303.764H5.056V311.988Z" fill="#5E17EB"/>
<path d="M21.458 314.228V298.356H23.89L24.114 301.396C24.6047 300.351 25.3513 299.519 26.354 298.9C27.3567 298.281 28.594 297.972 30.066 297.972V300.788H29.33C28.3913 300.788 27.5273 300.959 26.738 301.3C25.9487 301.62 25.3193 302.175 24.85 302.964C24.3807 303.753 24.146 304.841 24.146 306.228V314.228H21.458ZM34.715 294.836C34.1817 294.836 33.7337 294.665 33.371 294.324C33.0297 293.961 32.859 293.513 32.859 292.98C32.859 292.468 33.0297 292.041 33.371 291.7C33.7337 291.359 34.1817 291.188 34.715 291.188C35.227 291.188 35.6643 291.359 36.027 291.7C36.3897 292.041 36.571 292.468 36.571 292.98C36.571 293.513 36.3897 293.961 36.027 294.324C35.6643 294.665 35.227 294.836 34.715 294.836ZM33.371 314.228V298.356H36.059V314.228H33.371ZM47.0113 309.236C46.1153 309.236 45.2939 309.119 44.5473 308.884L42.9473 310.388C43.1819 310.559 43.4699 310.708 43.8113 310.836C44.1739 310.943 44.6859 311.049 45.3473 311.156C46.0086 311.241 46.9366 311.337 48.1313 311.444C50.2646 311.593 51.7899 312.084 52.7073 312.916C53.6246 313.748 54.0833 314.836 54.0833 316.18C54.0833 317.097 53.8273 317.972 53.3153 318.804C52.8246 319.636 52.0566 320.319 51.0113 320.852C49.9873 321.385 48.6646 321.652 47.0433 321.652C45.6139 321.652 44.3446 321.46 43.2352 321.076C42.1259 320.713 41.2619 320.148 40.6432 319.38C40.0246 318.633 39.7153 317.684 39.7153 316.532C39.7153 315.935 39.8753 315.284 40.1953 314.58C40.5153 313.897 41.1126 313.247 41.9873 312.628C41.5179 312.436 41.1126 312.233 40.7713 312.02C40.4513 311.785 40.1526 311.529 39.8753 311.252V310.516L42.5953 307.828C41.3366 306.761 40.7073 305.353 40.7073 303.604C40.7073 302.559 40.9526 301.609 41.4433 300.756C41.9339 299.903 42.6486 299.231 43.5873 298.74C44.5259 298.228 45.6673 297.972 47.0113 297.972C47.9286 297.972 48.7606 298.1 49.5073 298.356H55.3633V300.372L52.3873 300.5C53.0059 301.396 53.3153 302.431 53.3153 303.604C53.3153 304.649 53.0593 305.599 52.5473 306.452C52.0566 307.305 51.3419 307.988 50.4033 308.5C49.4859 308.991 48.3553 309.236 47.0113 309.236ZM47.0113 307.028C48.1419 307.028 49.0379 306.74 49.6993 306.164C50.3819 305.567 50.7233 304.713 50.7233 303.604C50.7233 302.516 50.3819 301.684 49.6993 301.108C49.0379 300.511 48.1419 300.212 47.0113 300.212C45.8593 300.212 44.9419 300.511 44.2593 301.108C43.5979 301.684 43.2673 302.516 43.2673 303.604C43.2673 304.713 43.5979 305.567 44.2593 306.164C44.9419 306.74 45.8593 307.028 47.0113 307.028ZM42.3393 316.276C42.3393 317.343 42.7873 318.132 43.6833 318.644C44.5793 319.177 45.6993 319.444 47.0433 319.444C48.3659 319.444 49.4219 319.156 50.2113 318.58C51.0219 318.004 51.4273 317.236 51.4273 316.276C51.4273 315.593 51.1499 314.996 50.5953 314.484C50.0406 313.993 49.0166 313.705 47.5233 313.62C46.3499 313.535 45.3366 313.428 44.4833 313.3C43.6086 313.769 43.0326 314.271 42.7552 314.804C42.4779 315.359 42.3393 315.849 42.3393 316.276ZM58.3955 314.228V291.188H61.0835V301.076C61.6168 300.095 62.3742 299.337 63.3555 298.804C64.3368 298.249 65.4035 297.972 66.5555 297.972C68.3902 297.972 69.8622 298.548 70.9715 299.7C72.0808 300.831 72.6355 302.58 72.6355 304.948V314.228H69.9795V305.236C69.9795 301.929 68.6462 300.276 65.9795 300.276C64.5928 300.276 63.4302 300.777 62.4915 301.78C61.5528 302.761 61.0835 304.169 61.0835 306.004V314.228H58.3955ZM82.98 314.228C81.5293 314.228 80.388 313.876 79.556 313.172C78.724 312.468 78.308 311.199 78.308 309.364V300.628H75.556V298.356H78.308L78.66 294.548H80.996V298.356H85.668V300.628H80.996V309.364C80.996 310.367 81.1987 311.049 81.604 311.412C82.0093 311.753 82.724 311.924 83.748 311.924H85.412V314.228H82.98Z" fill="white"/>
<path d="M148.849 268.15L149.951 268.067L150.546 268.15H152.918L153.762 268.067H160.718L162.405 267.984L163.596 268.15L164.866 268.067L166.394 268.15L168.26 267.91L169.361 267.753H170.969L171.644 267.199L171.982 265.934L172.16 264.752L172.239 264.28V263.727L172.497 263.173L172.915 260.42L173.172 259.783L173.092 259.229L173.261 258.684L173.341 257.501L172.835 257.262H170.632L168.766 257.336H164.36L163.596 257.262H162.752L162.326 256.865V256.079L162.494 255.286L162.574 254.418L162.752 253.872L162.832 253.393L162.921 252.847V252.053L163.09 251.342L163.169 250.317L163.507 249.292L163.596 248.193L163.765 247.556V247.01L164.102 245.745L164.191 245.192L164.271 244.563L164.529 243.455L164.609 242.273L164.955 241.008L165.035 240.463L165.293 239.281L165.461 238.727V237.619L165.63 237.065L165.888 235.411V234.783L166.057 234.229L165.968 233.601L166.305 233.047L166.563 232.022L166.812 230.914L166.989 230.36L167.069 229.815L167.238 229.178L167.069 228.55L167.407 227.996L167.576 226.896L167.922 225.788V225.16L168.171 224.052L168.846 221.291L169.024 220.506L169.192 219.638L169.441 217.976L169.61 217.505V216.951L170.125 215.058V214.512L170.205 213.958L169.948 213.007L168.26 212.933H164.955L161.819 212.85H159.785L158.426 213.007L158.168 213.487L157.751 215.058L157.582 215.537V216.091L157.493 217.034L157.155 217.976L156.898 219.241L156.818 220.506L156.471 221.06V221.531L156.391 222.085V222.63L156.054 223.11L155.885 223.978L155.796 225.003L155.627 225.631L155.796 226.185L155.627 226.814L155.29 227.921L155.032 228.55L155.121 229.178L154.863 230.84L154.695 231.782V232.336L154.268 233.361V234.469L154.188 235.097L153.762 236.122L153.593 237.065L153.424 238.09L152.918 240.306V240.694L152.58 241.802L152.234 244.166L151.816 245.274V245.82L151.479 246.928V247.399L151.39 247.953L151.301 248.424V249.532L151.132 250.003L150.964 251.111L150.884 251.582V252.053L150.626 252.607L150.377 253.632L150.457 254.104L150.2 254.657L150.031 255.129L149.613 256.237V257.179L149.445 257.89L149.276 258.915L149.187 259.386V259.94L148.849 260.965V262.148L148.512 263.173L148.423 263.652L148.343 264.198L148.085 264.991L147.748 265.777L147.659 266.256L147.748 266.728L147.828 267.281L148.165 267.753L148.849 268.15Z" fill="white"/>
<path d="M111.368 314.149V291.749H114.056V312.005H124.488V314.149H111.368Z" fill="#5E17EB"/>
<path d="M135.157 314.533C133.642 314.533 132.298 314.192 131.125 313.509C129.951 312.805 129.023 311.835 128.341 310.597C127.679 309.36 127.349 307.899 127.349 306.213C127.349 304.549 127.679 303.099 128.341 301.861C129.002 300.603 129.919 299.632 131.093 298.949C132.287 298.245 133.663 297.893 135.22 297.893C136.757 297.893 138.079 298.245 139.189 298.949C140.319 299.632 141.183 300.539 141.781 301.669C142.378 302.8 142.677 304.016 142.677 305.317C142.677 305.552 142.666 305.787 142.645 306.021C142.645 306.256 142.645 306.523 142.645 306.821H130.005C130.069 308.037 130.346 309.051 130.837 309.861C131.349 310.651 131.978 311.248 132.725 311.653C133.493 312.059 134.303 312.261 135.157 312.261C136.266 312.261 137.194 312.005 137.941 311.493C138.687 310.981 139.231 310.288 139.573 309.413H142.229C141.802 310.885 140.981 312.112 139.765 313.093C138.57 314.053 137.034 314.533 135.157 314.533ZM135.157 300.165C133.877 300.165 132.735 300.56 131.733 301.349C130.751 302.117 130.186 303.248 130.036 304.741H140.021C139.957 303.312 139.466 302.192 138.549 301.381C137.631 300.571 136.501 300.165 135.157 300.165ZM151.519 314.533C150.197 314.533 149.098 314.309 148.223 313.861C147.349 313.413 146.698 312.816 146.271 312.069C145.845 311.323 145.631 310.512 145.631 309.637C145.631 308.016 146.25 306.768 147.487 305.893C148.725 305.019 150.41 304.581 152.543 304.581H156.831V304.389C156.831 303.003 156.469 301.957 155.743 301.253C155.018 300.528 154.047 300.165 152.831 300.165C151.786 300.165 150.879 300.432 150.111 300.965C149.365 301.477 148.895 302.235 148.703 303.237H145.951C146.058 302.085 146.442 301.115 147.103 300.325C147.786 299.536 148.629 298.939 149.631 298.533C150.634 298.107 151.701 297.893 152.831 297.893C155.05 297.893 156.714 298.491 157.823 299.685C158.954 300.859 159.519 302.427 159.519 304.389V314.149H157.119L156.959 311.301C156.511 312.197 155.85 312.965 154.975 313.605C154.122 314.224 152.97 314.533 151.519 314.533ZM151.935 312.261C152.959 312.261 153.834 311.995 154.559 311.461C155.306 310.928 155.871 310.235 156.255 309.381C156.639 308.528 156.831 307.632 156.831 306.693V306.661H152.767C151.189 306.661 150.069 306.939 149.407 307.493C148.767 308.027 148.447 308.699 148.447 309.509C148.447 310.341 148.746 311.013 149.343 311.525C149.962 312.016 150.826 312.261 151.935 312.261ZM170.752 314.533C169.173 314.533 167.786 314.171 166.592 313.445C165.418 312.72 164.501 311.728 163.84 310.469C163.2 309.211 162.88 307.781 162.88 306.181C162.88 304.581 163.21 303.163 163.872 301.925C164.533 300.667 165.45 299.685 166.624 298.981C167.797 298.256 169.184 297.893 170.784 297.893C172.085 297.893 173.237 298.16 174.24 298.693C175.242 299.227 176.021 299.973 176.576 300.933V291.109H179.264V314.149H176.832L176.576 311.525C176.064 312.293 175.328 312.987 174.368 313.605C173.408 314.224 172.202 314.533 170.752 314.533ZM171.04 312.197C172.106 312.197 173.045 311.952 173.856 311.461C174.688 310.949 175.328 310.245 175.776 309.349C176.245 308.453 176.48 307.408 176.48 306.213C176.48 305.019 176.245 303.973 175.776 303.077C175.328 302.181 174.688 301.488 173.856 300.997C173.045 300.485 172.106 300.229 171.04 300.229C169.994 300.229 169.056 300.485 168.224 300.997C167.413 301.488 166.773 302.181 166.304 303.077C165.856 303.973 165.632 305.019 165.632 306.213C165.632 307.408 165.856 308.453 166.304 309.349C166.773 310.245 167.413 310.949 168.224 311.461C169.056 311.952 169.994 312.197 171.04 312.197ZM190.782 314.533C189.267 314.533 187.923 314.192 186.75 313.509C185.576 312.805 184.648 311.835 183.966 310.597C183.304 309.36 182.974 307.899 182.974 306.213C182.974 304.549 183.304 303.099 183.966 301.861C184.627 300.603 185.544 299.632 186.718 298.949C187.912 298.245 189.288 297.893 190.845 297.893C192.382 297.893 193.704 298.245 194.814 298.949C195.944 299.632 196.808 300.539 197.406 301.669C198.003 302.8 198.302 304.016 198.302 305.317C198.302 305.552 198.291 305.787 198.27 306.021C198.27 306.256 198.27 306.523 198.27 306.821H185.63C185.694 308.037 185.971 309.051 186.462 309.861C186.974 310.651 187.603 311.248 188.35 311.653C189.118 312.059 189.928 312.261 190.782 312.261C191.891 312.261 192.819 312.005 193.566 311.493C194.312 310.981 194.856 310.288 195.198 309.413H197.854C197.427 310.885 196.606 312.112 195.39 313.093C194.195 314.053 192.659 314.533 190.782 314.533ZM190.782 300.165C189.502 300.165 188.36 300.56 187.358 301.349C186.376 302.117 185.811 303.248 185.661 304.741H195.646C195.582 303.312 195.091 302.192 194.174 301.381C193.256 300.571 192.126 300.165 190.782 300.165ZM201.864 314.149V298.277H204.296L204.52 301.317C205.011 300.272 205.758 299.44 206.76 298.821C207.763 298.203 209 297.893 210.472 297.893V300.709H209.736C208.798 300.709 207.934 300.88 207.144 301.221C206.355 301.541 205.726 302.096 205.256 302.885C204.787 303.675 204.552 304.763 204.552 306.149V314.149H201.864Z" fill="white"/>
<path d="M287.702 269.29L289.567 269.051L290.5 268.811L291.095 268.737L292.277 268.497L292.952 268.34L293.547 268.265L295.501 267.554L295.839 267.315L296.852 266.686L297.873 265.975L298.3 265.504L298.806 265.107L299.819 264.156L299.987 263.685L300.414 263.214L300.751 262.743L301.515 261.718L301.942 261.164L302.617 259.742L303.212 258.642L303.292 257.849L303.718 257.295L303.976 256.427V255.881L304.225 254.93L304.651 254.062L304.74 253.194L304.989 252.723L305.415 251.781L305.326 251.301L306.179 248.54L306.428 248.069L306.606 246.969L306.774 246.415V245.704L307.023 244.282L307.281 243.811L307.53 242.786L307.618 241.835L307.876 240.81L308.045 239.785L308.382 238.76L308.293 237.817L308.72 236.949L308.64 236.156L308.809 234.899L308.978 234.345L309.057 233.08L309.146 231.898L309.315 230.798L309.395 230.319V229.534L309.315 228.98L309.395 228.508L309.564 227.954L309.653 226.929V226.375L309.564 225.35L309.653 224.879L309.741 223.854V223.3L309.653 222.672L309.484 221.175L309.226 219.993L309.057 219.439L308.889 218.968L308.64 218.489L308.125 217.463L307.876 216.91L307.45 216.438L306.517 215.653L305.584 214.942L305.158 214.471L304.482 214.074L302.955 213.123L301.684 212.578L301.178 212.42L300.503 212.338L299.819 212.098L298.468 211.941L297.536 211.867L297.02 211.784L295.501 211.709L294.48 211.784L293.298 211.867L291.77 212.098L290.917 212.181L289.647 212.495L289.141 212.578L287.87 212.892L286.858 213.363L285.836 213.917L285.241 214.314L284.566 214.545L283.464 215.256L282.274 216.438L281.856 216.91L281.261 217.306L280.577 218.257L279.902 219.282L279.564 219.753L279.476 220.307L278.72 221.332L278.374 221.886L277.868 222.829L277.441 223.937L277.104 224.879L276.855 225.433L276.34 226.458L276.171 227.483L275.753 228.037L275.407 230.005L275.238 231.113L275.158 231.584L274.901 232.138L274.732 233.08V234.188L274.563 234.742L274.057 235.527L274.137 235.998L273.968 236.552V237.024L273.799 237.577L273.55 238.049V238.603L273.293 239.553V240.578L273.035 241.521L272.786 242.943L272.617 243.497L272.449 244.522L272.617 244.919L272.271 246.018V246.572L272.102 247.672V248.308L271.765 249.408L271.596 251.144V251.698L271.685 252.326L271.427 253.12V254.616L271.258 255.17L271.516 256.749L271.596 257.22L271.685 258.32L271.853 258.799L271.933 259.345L272.102 259.824L272.271 260.213L272.36 260.693L272.617 261.238V261.718L273.293 262.743L273.719 263.297L273.968 263.768L274.394 264.156L274.652 264.553L275.833 265.818L277.361 267L278.543 267.711L279.138 268.026L280.408 268.34L281.092 268.422L283.038 268.968L283.802 269.051L284.397 269.133L285.499 269.051L287.702 269.29ZM287.026 258.56L286.511 258.485L285.836 258.32L285.161 258.088L284.735 257.692L284.228 256.981L284.059 256.666L283.802 256.113V253.905L283.544 253.351L283.891 252.566L283.971 251.615L283.713 251.07L283.971 250.516V249.962L284.228 248.78V248.151L284.397 247.597V246.969L284.566 246.258L284.477 245.944L284.646 245.39L284.566 244.753L284.992 243.654L285.241 243.1L285.161 242.472L285.241 241.918V241.364L285.41 240.264L285.578 239.71L285.925 238.446L286.174 237.817L286.342 236.635L286.511 236.081L286.6 235.527L286.858 234.262L287.106 233.163L287.444 232.055L287.533 231.584L287.782 230.484L287.87 229.848V229.691L288.377 228.037L288.546 227.401L288.714 226.855L289.23 225.83L289.567 225.276L289.905 224.325L290.5 223.457L291.344 222.746L292.703 222.275L293.378 222.118L294.986 222.043L296.345 222.589L296.94 223.3L297.278 223.78L297.616 225.35L297.447 226.458L297.367 227.483L297.189 228.905V229.93L297.02 230.641L296.772 231.741L296.603 232.369L296.514 233.403L296.603 233.948L296.434 234.502L296.265 235.13L296.088 236.081L295.75 237.263L295.839 238.603L295.581 239.074L295.412 240.578L295.164 241.207L294.906 241.918L294.737 243.728L294.48 244.919L294.231 245.621L294.311 245.861V246.49L294.053 246.969L293.973 247.597L293.716 248.622L293.467 249.176L293.378 250.276L293.129 250.912L292.952 252.012L292.783 252.566L292.534 253.748V254.376L292.365 254.93L291.85 256.038L291.264 257.138L290.073 257.931L289.31 258.245L288.128 258.56H287.026Z" fill="white"/>
<path d="M246.544 315.675C244.347 315.675 242.416 315.195 240.752 314.235C239.109 313.253 237.819 311.888 236.88 310.139C235.963 308.389 235.504 306.373 235.504 304.091C235.504 301.808 235.963 299.803 236.88 298.075C237.819 296.325 239.109 294.96 240.752 293.979C242.416 292.997 244.347 292.507 246.544 292.507C248.763 292.507 250.693 292.997 252.336 293.979C254 294.96 255.291 296.325 256.208 298.075C257.125 299.803 257.584 301.808 257.584 304.091C257.584 306.373 257.125 308.389 256.208 310.139C255.291 311.888 254 313.253 252.336 314.235C250.693 315.195 248.763 315.675 246.544 315.675ZM246.544 313.307C248.187 313.307 249.627 312.944 250.864 312.219C252.123 311.472 253.093 310.416 253.776 309.051C254.48 307.664 254.832 306.011 254.832 304.091C254.832 302.171 254.48 300.528 253.776 299.163C253.093 297.797 252.123 296.752 250.864 296.027C249.627 295.28 248.187 294.907 246.544 294.907C244.901 294.907 243.451 295.28 242.192 296.027C240.955 296.752 239.984 297.797 239.28 299.163C238.597 300.528 238.256 302.171 238.256 304.091C238.256 306.011 238.597 307.664 239.28 309.051C239.984 310.416 240.955 311.472 242.192 312.219C243.451 312.944 244.901 313.307 246.544 313.307Z" fill="#5E17EB"/>
<path d="M261.302 315.291V299.419H263.734L263.958 302.459C264.448 301.413 265.195 300.581 266.198 299.963C267.2 299.344 268.438 299.035 269.91 299.035V301.851H269.174C268.235 301.851 267.371 302.021 266.582 302.363C265.792 302.683 265.163 303.237 264.694 304.027C264.224 304.816 263.99 305.904 263.99 307.291V315.291H261.302ZM274.559 295.899C274.025 295.899 273.577 295.728 273.215 295.387C272.873 295.024 272.703 294.576 272.703 294.043C272.703 293.531 272.873 293.104 273.215 292.763C273.577 292.421 274.025 292.251 274.559 292.251C275.071 292.251 275.508 292.421 275.871 292.763C276.233 293.104 276.415 293.531 276.415 294.043C276.415 294.576 276.233 295.024 275.871 295.387C275.508 295.728 275.071 295.899 274.559 295.899ZM273.215 315.291V299.419H275.903V315.291H273.215ZM286.855 310.299C285.959 310.299 285.138 310.181 284.391 309.947L282.791 311.451C283.026 311.621 283.314 311.771 283.655 311.899C284.018 312.005 284.53 312.112 285.191 312.219C285.852 312.304 286.78 312.4 287.975 312.507C290.108 312.656 291.634 313.147 292.551 313.979C293.468 314.811 293.927 315.899 293.927 317.243C293.927 318.16 293.671 319.035 293.159 319.867C292.668 320.699 291.9 321.381 290.855 321.915C289.831 322.448 288.508 322.715 286.887 322.715C285.458 322.715 284.188 322.523 283.079 322.139C281.97 321.776 281.106 321.211 280.487 320.443C279.868 319.696 279.559 318.747 279.559 317.595C279.559 316.997 279.719 316.347 280.039 315.643C280.359 314.96 280.956 314.309 281.831 313.691C281.362 313.499 280.956 313.296 280.615 313.083C280.295 312.848 279.996 312.592 279.719 312.315V311.579L282.439 308.891C281.18 307.824 280.551 306.416 280.551 304.667C280.551 303.621 280.796 302.672 281.287 301.819C281.778 300.965 282.492 300.293 283.431 299.803C284.37 299.291 285.511 299.035 286.855 299.035C287.772 299.035 288.604 299.163 289.351 299.419H295.207V301.435L292.231 301.563C292.85 302.459 293.159 303.493 293.159 304.667C293.159 305.712 292.903 306.661 292.391 307.515C291.9 308.368 291.186 309.051 290.247 309.563C289.33 310.053 288.199 310.299 286.855 310.299ZM286.855 308.091C287.986 308.091 288.882 307.803 289.543 307.227C290.226 306.629 290.567 305.776 290.567 304.667C290.567 303.579 290.226 302.747 289.543 302.171C288.882 301.573 287.986 301.275 286.855 301.275C285.703 301.275 284.786 301.573 284.103 302.171C283.442 302.747 283.111 303.579 283.111 304.667C283.111 305.776 283.442 306.629 284.103 307.227C284.786 307.803 285.703 308.091 286.855 308.091ZM282.183 317.339C282.183 318.405 282.631 319.195 283.527 319.707C284.423 320.24 285.543 320.507 286.887 320.507C288.21 320.507 289.266 320.219 290.055 319.643C290.866 319.067 291.271 318.299 291.271 317.339C291.271 316.656 290.994 316.059 290.439 315.547C289.884 315.056 288.86 314.768 287.367 314.683C286.194 314.597 285.18 314.491 284.327 314.363C283.452 314.832 282.876 315.333 282.599 315.867C282.322 316.421 282.183 316.912 282.183 317.339ZM299.871 295.899C299.338 295.899 298.89 295.728 298.527 295.387C298.186 295.024 298.015 294.576 298.015 294.043C298.015 293.531 298.186 293.104 298.527 292.763C298.89 292.421 299.338 292.251 299.871 292.251C300.383 292.251 300.821 292.421 301.183 292.763C301.546 293.104 301.727 293.531 301.727 294.043C301.727 294.576 301.546 295.024 301.183 295.387C300.821 295.728 300.383 295.899 299.871 295.899ZM298.527 315.291V299.419H301.215V315.291H298.527ZM305.896 315.291V299.419H308.328L308.488 302.267C309 301.264 309.736 300.475 310.696 299.899C311.656 299.323 312.744 299.035 313.96 299.035C315.837 299.035 317.33 299.611 318.44 300.763C319.57 301.893 320.135 303.643 320.135 306.011V315.291H317.448V306.299C317.448 302.992 316.082 301.339 313.352 301.339C311.986 301.339 310.845 301.84 309.928 302.843C309.032 303.824 308.584 305.232 308.584 307.067V315.291H305.896ZM329.488 315.675C328.165 315.675 327.067 315.451 326.192 315.003C325.317 314.555 324.667 313.957 324.24 313.211C323.813 312.464 323.6 311.653 323.6 310.779C323.6 309.157 324.219 307.909 325.456 307.035C326.693 306.16 328.379 305.723 330.512 305.723H334.8V305.531C334.8 304.144 334.437 303.099 333.712 302.395C332.987 301.669 332.016 301.307 330.8 301.307C329.755 301.307 328.848 301.573 328.08 302.107C327.333 302.619 326.864 303.376 326.672 304.379H323.92C324.027 303.227 324.411 302.256 325.072 301.467C325.755 300.677 326.597 300.08 327.6 299.675C328.603 299.248 329.669 299.035 330.8 299.035C333.019 299.035 334.683 299.632 335.792 300.827C336.923 302 337.488 303.568 337.488 305.531V315.291H335.088L334.928 312.443C334.48 313.339 333.819 314.107 332.944 314.747C332.091 315.365 330.939 315.675 329.488 315.675ZM329.904 313.403C330.928 313.403 331.803 313.136 332.528 312.603C333.275 312.069 333.84 311.376 334.224 310.523C334.608 309.669 334.8 308.773 334.8 307.835V307.803H330.736C329.157 307.803 328.037 308.08 327.376 308.635C326.736 309.168 326.416 309.84 326.416 310.651C326.416 311.483 326.715 312.155 327.312 312.667C327.931 313.157 328.795 313.403 329.904 313.403ZM341.521 315.291V292.251H344.209V315.291H341.521Z" fill="white"/>
<path d="M430.146 268.187H431.923L432.429 268.104L433.7 268.187H434.464L434.97 268.104L435.654 268.187H438.701L439.127 266.533L439.385 265.111L439.634 264.004L439.971 262.821L440.14 262.268L440.398 261.085L440.566 259.986V259.506L440.735 258.961L440.993 258.167L441.073 257.621L441.419 256.514L441.757 255.331L442.006 254.224L442.263 253.198L442.174 252.727L442.352 252.256L442.521 251.305L442.69 250.52L442.938 249.652L443.276 248.627V248.073L443.454 247.287L443.871 246.891L444.129 246.494L444.298 245.865L444.635 245.469L444.973 244.526L445.568 243.575L445.826 243.104L446.074 242.707L446.589 242.236L447.096 241.211L447.771 240.269L448.446 238.847L448.961 238.053L449.468 237.028L449.805 236.482L450.143 236.003L450.996 234.978L451.076 234.506L451.502 234.035L451.671 233.638L452.266 232.696L452.435 232.216L452.692 231.671L453.11 230.646L453.963 229.298L454.132 228.827L454.469 228.356L454.549 227.884L455.233 226.934L455.739 225.834L456.246 225.355L457.01 223.858L457.179 223.387L457.516 222.907L457.685 222.362L458.369 221.494L458.707 220.543L459.044 220.154L459.55 219.204L459.639 218.65L459.977 218.179L460.483 217.236L460.652 216.757L461.336 215.889L461.505 215.5L461.754 214.475V213.45L460.821 212.97L459.133 213.053L458.2 212.896H455.997L454.638 212.97L453.368 212.813L450.569 212.97L449.974 213.284L449.13 214.318L448.624 215.103L448.366 215.574L447.94 216.6L447.433 217.707L446.669 219.286L446.501 219.832L446.332 220.312L445.657 221.337L445.568 221.882L445.23 222.362L444.724 223.387L443.871 225.28L443.365 226.148L442.938 227.091L442.263 228.041L442.174 228.513L441.837 229.067L441.33 230.009L441.162 230.406L440.993 230.877L440.735 231.274L440.398 231.191L440.318 230.009L439.971 227.959L439.803 227.016V226.305L439.554 225.512L439.465 224.486L439.554 223.701L439.216 222.907L439.039 222.362L438.79 221.254L438.87 220.783L438.701 218.575L438.363 217.939V217.154L438.115 216.525V214.706L437.857 213.921L436.924 212.97H435.654L433.362 212.896L432.429 213.053L431.834 212.97L430.99 213.053L429.8 212.97L427.597 213.053L426.921 213.127L426.495 213.284L426.246 213.921V214.706L426.326 215.732L426.495 216.839L426.584 217.311L426.664 218.336L427.01 220.7L427.348 221.808V222.362L427.517 223.544L427.774 224.098L427.685 225.04L427.854 225.669L428.023 227.645L428.112 228.273L428.529 229.455L428.787 230.72V231.274L428.956 232.299L429.293 233.324L429.551 234.267L429.631 234.82L429.889 236.242L430.146 237.425L430.057 237.896L430.226 239.004L430.484 239.558V240.186L430.732 241.368L430.91 242.55L431.079 243.104L430.99 243.732L431.079 244.443L431.328 245.237L431.417 246.18L430.99 247.519L430.91 248.47L430.564 249.338V249.883L430.484 250.363L430.146 251.388L429.889 252.645V253.438L429.631 254.066L429.382 255.174L429.213 256.356L428.956 256.91L428.787 257.936L428.698 258.804L428.281 260.54L428.023 261.242V262.11L427.854 262.59L427.774 263.136L427.685 263.615L427.517 264.161L427.597 264.64L427.428 265.665L427.259 266.608L427.348 267.633L428.281 268.104H429.551L430.146 268.187Z" fill="white"/>
<path d="M371.368 314.187V291.787H374.056V314.187H371.368Z" fill="#5E17EB"/>
<path d="M378.646 314.187V298.315H381.078L381.238 301.163C381.75 300.16 382.486 299.371 383.446 298.795C384.406 298.219 385.494 297.931 386.71 297.931C388.587 297.931 390.08 298.507 391.19 299.659C392.32 300.789 392.885 302.539 392.885 304.907V314.187H390.198V305.195C390.198 301.888 388.832 300.235 386.102 300.235C384.736 300.235 383.595 300.736 382.678 301.739C381.782 302.72 381.334 304.128 381.334 305.963V314.187H378.646ZM396.958 314.187V298.315H399.39L399.55 301.163C400.062 300.16 400.798 299.371 401.758 298.795C402.718 298.219 403.806 297.931 405.022 297.931C406.899 297.931 408.393 298.507 409.502 299.659C410.633 300.789 411.198 302.539 411.198 304.907V314.187H408.51V305.195C408.51 301.888 407.145 300.235 404.414 300.235C403.049 300.235 401.907 300.736 400.99 301.739C400.094 302.72 399.646 304.128 399.646 305.963V314.187H396.958ZM422.503 314.571C421.009 314.571 419.665 314.229 418.471 313.547C417.276 312.864 416.327 311.904 415.623 310.667C414.94 309.408 414.599 307.936 414.599 306.251C414.599 304.565 414.951 303.104 415.655 301.867C416.359 300.608 417.308 299.637 418.503 298.955C419.719 298.272 421.073 297.931 422.567 297.931C424.06 297.931 425.404 298.272 426.599 298.955C427.793 299.637 428.732 300.608 429.415 301.867C430.119 303.104 430.471 304.565 430.471 306.251C430.471 307.936 430.119 309.408 429.415 310.667C428.711 311.904 427.751 312.864 426.535 313.547C425.34 314.229 423.996 314.571 422.503 314.571ZM422.503 312.267C423.42 312.267 424.273 312.043 425.063 311.595C425.852 311.147 426.492 310.475 426.983 309.579C427.473 308.683 427.719 307.573 427.719 306.251C427.719 304.928 427.473 303.819 426.983 302.923C426.513 302.027 425.884 301.355 425.095 300.907C424.305 300.459 423.463 300.235 422.567 300.235C421.649 300.235 420.796 300.459 420.007 300.907C419.217 301.355 418.577 302.027 418.087 302.923C417.596 303.819 417.351 304.928 417.351 306.251C417.351 307.573 417.596 308.683 418.087 309.579C418.577 310.475 419.207 311.147 419.975 311.595C420.764 312.043 421.607 312.267 422.503 312.267ZM437.972 314.187L431.956 298.315H434.772L439.54 311.595L444.34 298.315H447.092L441.076 314.187H437.972ZM454.551 314.571C453.228 314.571 452.129 314.347 451.255 313.899C450.38 313.451 449.729 312.853 449.303 312.107C448.876 311.36 448.663 310.549 448.663 309.675C448.663 308.053 449.281 306.805 450.519 305.931C451.756 305.056 453.441 304.619 455.575 304.619H459.863V304.427C459.863 303.04 459.5 301.995 458.775 301.291C458.049 300.565 457.079 300.203 455.863 300.203C454.817 300.203 453.911 300.469 453.143 301.003C452.396 301.515 451.927 302.272 451.735 303.275H448.983C449.089 302.123 449.473 301.152 450.135 300.363C450.817 299.573 451.66 298.976 452.663 298.571C453.665 298.144 454.732 297.931 455.863 297.931C458.081 297.931 459.745 298.528 460.855 299.723C461.985 300.896 462.551 302.464 462.551 304.427V314.187H460.151L459.991 311.339C459.543 312.235 458.881 313.003 458.007 313.643C457.153 314.261 456.001 314.571 454.551 314.571ZM454.967 312.299C455.991 312.299 456.865 312.032 457.591 311.499C458.337 310.965 458.903 310.272 459.287 309.419C459.671 308.565 459.863 307.669 459.863 306.731V306.699H455.799C454.22 306.699 453.1 306.976 452.439 307.531C451.799 308.064 451.479 308.736 451.479 309.547C451.479 310.379 451.777 311.051 452.375 311.563C452.993 312.053 453.857 312.299 454.967 312.299ZM472.418 314.187C470.967 314.187 469.826 313.835 468.994 313.131C468.162 312.427 467.746 311.157 467.746 309.323V300.587H464.993V298.315H467.746L468.098 294.507H470.434V298.315H475.106V300.587H470.434V309.323C470.434 310.325 470.636 311.008 471.042 311.371C471.447 311.712 472.162 311.883 473.186 311.883H474.85V314.187H472.418ZM480.153 294.795C479.619 294.795 479.171 294.624 478.809 294.283C478.467 293.92 478.297 293.472 478.297 292.939C478.297 292.427 478.467 292 478.809 291.659C479.171 291.317 479.619 291.147 480.153 291.147C480.665 291.147 481.102 291.317 481.465 291.659C481.827 292 482.009 292.427 482.009 292.939C482.009 293.472 481.827 293.92 481.465 294.283C481.102 294.624 480.665 294.795 480.153 294.795ZM478.809 314.187V298.315H481.497V314.187H478.809ZM490.753 314.187L484.737 298.315H487.553L492.321 311.595L497.121 298.315H499.873L493.857 314.187H490.753ZM509.188 314.571C507.673 314.571 506.329 314.229 505.156 313.547C503.982 312.843 503.054 311.872 502.372 310.635C501.71 309.397 501.38 307.936 501.38 306.251C501.38 304.587 501.71 303.136 502.372 301.899C503.033 300.64 503.95 299.669 505.124 298.987C506.318 298.283 507.694 297.931 509.252 297.931C510.788 297.931 512.11 298.283 513.22 298.987C514.35 299.669 515.214 300.576 515.812 301.707C516.409 302.837 516.708 304.053 516.708 305.355C516.708 305.589 516.697 305.824 516.676 306.059C516.676 306.293 516.676 306.56 516.676 306.859H504.036C504.1 308.075 504.377 309.088 504.868 309.899C505.38 310.688 506.009 311.285 506.756 311.691C507.524 312.096 508.334 312.299 509.188 312.299C510.297 312.299 511.225 312.043 511.972 311.531C512.718 311.019 513.262 310.325 513.604 309.451H516.26C515.833 310.923 515.012 312.149 513.796 313.131C512.601 314.091 511.065 314.571 509.188 314.571ZM509.188 300.203C507.908 300.203 506.766 300.597 505.764 301.387C504.782 302.155 504.217 303.285 504.068 304.779H514.052C513.988 303.349 513.497 302.229 512.58 301.419C511.662 300.608 510.532 300.203 509.188 300.203Z" fill="white"/>
</svg>
