<svg xmlns="http://www.w3.org/2000/svg" width="129" height="159" viewBox="0 0 129 159" fill="none">
  <mask id="mask0_451_3667" style="mask-type:luminance" maskUnits="userSpaceOnUse" x="29" y="21" width="71" height="67">
    <path d="M29.6191 21.7568H99.2076V87.0068H29.6191V21.7568Z" fill="white"/>
  </mask>
  <g mask="url(#mask0_451_3667)">
    <path fill-rule="evenodd" clip-rule="evenodd" d="M64.3094 21.9629C83.5657 21.9629 99.1645 36.5181 99.1645 54.4849C99.1645 72.4517 83.5657 87.0069 64.3094 87.0069C46.3617 87.0069 31.5791 74.3441 29.6646 58.0767H51.2698C52.9382 63.3267 58.1507 67.1837 64.3094 67.1837C71.8155 67.1837 77.8995 61.5063 77.8995 54.5029C77.8995 47.4995 70.7171 41.8247 64.3094 41.8247C59.8771 41.8247 56.4076 43.0786 53.9619 45.2363V23.0263C57.2404 22.2641 60.9755 21.9629 64.3094 21.9629Z" fill="white"/>
  </g>
  <mask id="mask1_451_3667" style="mask-type:luminance" maskUnits="userSpaceOnUse" x="29" y="0" width="23" height="57">
    <path d="M29.6191 0H51.5288V56.6914H29.6191V0Z" fill="white"/>
  </mask>
  <g mask="url(#mask1_451_3667)">
    <path fill-rule="evenodd" clip-rule="evenodd" d="M29.6646 0H46.1348C48.9596 0 51.2532 2.15766 51.2532 4.79166V56.2717H29.6646V0Z" fill="#5E17EB"/>
  </g>
  <path d="M8.9134 158.013L9.98123 157.944H10.1889L10.7524 157.875H11.7461L12.3097 157.944L13.2292 158.013L15.1424 157.944L15.6392 157.875L16.1361 157.944L17.1965 158.013L18.2569 157.813L18.6796 157.875L19.5991 157.682L20.2368 157.613L20.6595 157.55L21.2305 157.35L22.0017 157.157L22.5727 156.888L23.0696 156.695L23.4181 156.495L23.774 156.232L24.2709 155.97L24.6194 155.639L25.0495 155.439L25.6131 155.114L25.8948 154.783L26.3917 154.39L26.7476 154.059L27.1703 153.334L27.808 152.547L28.9352 150.436L29.0835 149.98L29.2244 149.58L29.3653 149.124L29.5062 148.724L29.7138 147.806L29.788 147.344L30.003 146.488L30.2107 145.501L30.3516 144.514L30.4257 144.052V143.196L30.4925 142.603L30.3516 141.947L30.4257 141.092L30.1439 140.229L30.003 139.373L29.788 138.98L29.6471 138.324L29.2911 137.6L29.0094 137.137L28.5867 136.482L28.164 136.081L27.7339 135.626L26.8885 135.095L26.2508 134.832L25.4722 134.439L24.7677 134.177V133.776L25.398 133.514L26.2508 133.19L27.0962 132.727L27.593 132.465L27.9489 132.196L28.3049 131.803L28.6534 131.54L29.5729 130.685L30.1439 129.898L30.6333 129.236L31.1302 128.511L31.412 127.917L31.627 127.524L31.7679 127.062L31.9088 126.668L31.983 126.206L32.0497 126.013L32.1906 125.55L32.1239 125.157L32.4056 124.301L32.4798 123.839L32.6207 122.983V122.59L32.7616 122.127L32.8283 121.727V121.272L32.9025 120.871L32.9692 119.885L32.8283 119.098L32.6874 118.573V118.111L32.6207 117.58L32.1906 116.662L31.9088 115.868L31.7012 115.544L31.412 115.144L30.7817 114.619L29.8621 113.694L29.0835 113.108L28.4458 112.839L27.7339 112.514L26.8885 112.314L25.8281 112.052L25.1162 111.983L24.3376 111.852H22.2168L21.2305 111.79L18.3978 111.852L14.9274 111.721H13.4443L12.6656 111.79L12.243 111.721H10.4707L9.4844 111.79L8.84667 112.314L8.63162 112.645L8.49072 113.239L8.42398 114.226L8.34983 114.688V115.213L8.13478 116.068L7.7121 117.649L7.50446 118.504L7.28941 119.491L7.14852 121.596L6.86673 122.521L6.72584 123.508L6.65168 123.901L6.51079 124.301V124.757L6.43663 125.157L6.36989 125.744L6.15485 126.275L6.08811 126.668L5.94721 127.131L5.87306 127.917L5.80632 128.511L5.59127 129.104L5.45038 129.567L5.37622 130.029V130.554L5.23533 131.478L4.95354 132.396L4.8868 132.921L4.5976 133.776L4.4567 134.108L4.38996 135.032L4.10817 135.95L3.96728 136.613L3.89313 136.875V137.268L3.67808 138.062L3.61134 138.517L3.47044 139.373L3.25539 140.229V140.691L3.18866 141.092L3.04035 141.616L2.83271 142.14L2.61766 143.065L2.69182 143.721L2.41003 144.383L2.26914 145.432L2.12083 146.419L2.05409 146.819L1.83904 147.344L1.7723 147.868L1.6314 148.331L1.55725 148.793L1.41636 149.186L1.34962 150.111L1.20131 151.029L0.919518 151.885L0.852779 152.347L0.711886 153.141L0.570991 154.059L0.422682 154.652L0.215048 155.177V156.163L0.0741539 156.826L0 157.35L0.496836 157.744L1.13457 157.813L2.19498 157.875H2.75856L3.18866 157.944H6.08811L7.21526 157.875H7.78625L8.9134 158.013ZM16.9147 129.367L16.0619 129.305H15.1424V128.904L15.2166 128.249L15.3575 127.724L15.8469 124.495L15.9878 124.101L16.0619 123.639L16.277 122.783V122.321L16.4846 121.534L16.5588 121.072L16.6255 120.478L16.8406 119.885V119.429L17.4041 119.291H19.1764L20.4519 119.429L21.0822 119.56L21.5123 119.622L22.0759 120.085L22.2909 120.416L22.7136 121.203L22.7804 121.996L22.8545 122.452L22.9212 123.176L22.6395 123.839L22.5727 124.363L22.4318 124.757L22.2168 125.55L21.8608 126.468L21.2973 127.131L20.9413 127.724L20.0959 128.38L19.3173 128.842L18.7537 129.173L17.901 129.305L16.9147 129.367ZM12.3838 149.518L11.2493 149.449L11.5311 148.593L11.6052 148.068L11.7461 147.544L11.887 146.619V146.157L12.1021 145.17L12.243 144.708L12.3838 143.79L12.4506 143.258L12.5989 142.865V142.403L12.7398 141.947L12.8807 140.953L13.0216 140.691L13.1625 140.167L13.3034 138.98L13.5184 138.386H14.5047L15.2833 138.455H16.277L16.8406 138.586L17.545 138.718L18.8946 139.18L19.6733 139.836L20.3036 141.416L20.2368 142.272L20.3036 143.39L20.1627 144.577L19.8142 145.432L19.74 145.964L19.5991 146.419L19.2432 147.144L19.1764 147.675L18.7537 148.262L18.2569 148.662L17.6192 149.124L17.1223 149.318H16.6255L16.1361 149.518H14.7865L13.0216 149.318L12.3838 149.518Z" fill="white"/>
  <path d="M35.4502 158.013L36.3697 157.944L36.8666 158.013H38.8465L39.551 157.944H45.3573L46.7662 157.875L47.7599 158.013L48.8203 157.944L50.0958 158.013L51.653 157.812L52.5726 157.681H53.9148L54.4783 157.219L54.7601 156.163L54.9084 155.176L54.9752 154.783V154.321L55.1902 153.858L55.5387 151.56L55.7538 151.029L55.6871 150.566L55.828 150.111L55.8947 149.124L55.472 148.924H53.633L52.0757 148.986H48.3976L47.7599 148.924H47.0554L46.6995 148.593V147.937L46.8404 147.275L46.9071 146.55L47.0554 146.094L47.1222 145.694L47.1963 145.239V144.576L47.3372 143.983L47.404 143.127L47.6858 142.271L47.7599 141.353L47.9008 140.822V140.367L48.1826 139.311L48.2567 138.848L48.3235 138.324L48.5385 137.399L48.6053 136.412L48.8945 135.356L48.9612 134.901L49.1763 133.914L49.3172 133.452V132.527L49.4581 132.065L49.6731 130.684V130.16L49.814 129.698L49.7398 129.173L50.0216 128.711L50.2367 127.855L50.4443 126.93L50.5926 126.468L50.6594 126.012L50.8003 125.481L50.6594 124.957L50.9412 124.494L51.082 123.576L51.3713 122.652V122.127L51.5789 121.202L52.1425 118.898L52.2908 118.242L52.4317 117.517L52.6393 116.13L52.7802 115.737V115.274L53.2103 113.694V113.239L53.277 112.776L53.062 111.983L51.653 111.921H48.8945L46.2768 111.852H44.5787L43.4441 111.983L43.2291 112.383L42.8805 113.694L42.7396 114.094V114.557L42.6655 115.343L42.3837 116.13L42.1686 117.186L42.1019 118.242L41.8127 118.704V119.098L41.746 119.56V120.015L41.4642 120.416L41.3233 121.14L41.2491 121.996L41.1082 122.521L41.2491 122.983L41.1082 123.507L40.8264 124.432L40.6114 124.957L40.6855 125.481L40.4705 126.868L40.3296 127.655V128.117L39.9737 128.973V129.898L39.9069 130.422L39.551 131.278L39.4101 132.065L39.2692 132.92L38.8465 134.77V135.094L38.5647 136.019L38.2755 137.993L37.927 138.917V139.373L37.6452 140.298V140.691L37.571 141.153L37.4969 141.547V142.471L37.356 142.865L37.2151 143.79L37.1484 144.183V144.576L36.9333 145.039L36.7257 145.894L36.7924 146.288L36.5774 146.75L36.4365 147.143L36.0879 148.068V148.855L35.9471 149.448L35.8062 150.304L35.732 150.697V151.16L35.4502 152.016V153.002L35.1684 153.858L35.0943 154.258L35.0275 154.714L34.8125 155.376L34.5307 156.032L34.4565 156.432L34.5307 156.826L34.5974 157.288L34.8792 157.681L35.4502 158.013Z" fill="white"/>
  <path d="M74.7864 159L76.3436 158.8L77.1222 158.6L77.6191 158.537L78.6053 158.337L79.1689 158.206L79.6657 158.144L81.2971 157.551L81.5789 157.35L82.4243 156.826L83.2771 156.232L83.633 155.839L84.0557 155.508L84.9011 154.714L85.042 154.321L85.3979 153.928L85.6797 153.534L86.3174 152.678L86.6734 152.216L87.2369 151.029L87.7338 150.111L87.8005 149.449L88.1565 148.986L88.3715 148.262V147.806L88.5791 147.013L88.9351 146.288L89.0092 145.563L89.2169 145.17L89.5728 144.383L89.4987 143.983L90.2105 141.678L90.4182 141.285L90.5665 140.367L90.7074 139.905V139.311L90.915 138.124L91.1301 137.731L91.3377 136.875L91.4119 136.081L91.6269 135.226L91.7678 134.37L92.0496 133.514L91.9754 132.728L92.3314 132.003L92.2646 131.34L92.4055 130.291L92.5464 129.829L92.6132 128.773L92.6873 127.786L92.8282 126.869L92.895 126.468V125.813L92.8282 125.35L92.895 124.957L93.0358 124.495L93.11 123.639V123.177L93.0358 122.321L93.11 121.927L93.1842 121.072V120.609L93.11 120.085L92.9691 118.836L92.7541 117.849L92.6132 117.387L92.4723 116.993L92.2646 116.593L91.8345 115.737L91.6269 115.275L91.271 114.881L90.4923 114.226L89.7137 113.632L89.3578 113.239L88.7942 112.908L87.5187 112.114L86.4583 111.659L86.0356 111.528L85.4721 111.459L84.9011 111.258L83.7739 111.127L82.9953 111.065L82.5652 110.996L81.2971 110.934L80.4444 110.996L79.4581 111.065L78.1826 111.258L77.4708 111.327L76.4103 111.59L75.9877 111.659L74.9272 111.921L74.0819 112.314L73.2291 112.777L72.7323 113.108L72.1687 113.301L71.2492 113.895L70.2555 114.881L69.907 115.275L69.4101 115.606L68.8391 116.4L68.2756 117.255L67.9938 117.649L67.9196 118.111L67.2893 118.967L67.0001 119.429L66.5774 120.216L66.2215 121.141L65.9397 121.927L65.7321 122.39L65.302 123.246L65.1611 124.101L64.8125 124.564L64.5233 126.206L64.3824 127.131L64.3157 127.524L64.1006 127.987L63.9598 128.773V129.698L63.8189 130.16L63.3962 130.816L63.4629 131.209L63.322 131.672V132.065L63.1811 132.527L62.9735 132.921V133.383L62.7584 134.177V135.032L62.5434 135.819L62.3358 137.006L62.1949 137.469L62.054 138.324L62.1949 138.656L61.9057 139.573V140.036L61.7648 140.954V141.485L61.483 142.403L61.3421 143.852V144.314L61.4162 144.839L61.2012 145.501V146.75L61.0603 147.213L61.2754 148.531L61.3421 148.924L61.4162 149.842L61.5571 150.242L61.6239 150.698L61.7648 151.098L61.9057 151.422L61.9798 151.823L62.1949 152.278V152.678L62.7584 153.534L63.1144 153.997L63.322 154.39L63.678 154.714L63.893 155.045L64.8793 156.101L66.1547 157.088L67.141 157.682L67.6378 157.944L68.6982 158.206L69.2692 158.275L70.8932 158.731L71.531 158.8L72.0278 158.869L72.9473 158.8L74.7864 159ZM74.2228 150.042L73.7927 149.98L73.2291 149.842L72.6655 149.649L72.3096 149.318L71.8869 148.724L71.746 148.462L71.531 148V146.157L71.3159 145.695L71.6051 145.039L71.6719 144.245L71.4568 143.79L71.6719 143.328V142.865L71.8869 141.878V141.354L72.0278 140.891V140.367L72.1687 139.774L72.0945 139.511L72.2354 139.049L72.1687 138.518L72.5246 137.6L72.7323 137.137L72.6655 136.613L72.7323 136.15V135.688L72.8732 134.77L73.0141 134.308L73.3033 133.252L73.5109 132.728L73.6518 131.741L73.7927 131.278L73.8668 130.816L74.0819 129.76L74.2895 128.842L74.5713 127.918L74.6455 127.524L74.8531 126.606L74.9272 126.075V125.944L75.3499 124.564L75.4908 124.032L75.6317 123.577L76.0618 122.721L76.3436 122.259L76.6254 121.465L77.1222 120.74L77.8267 120.147L78.9613 119.754L79.5248 119.622L80.867 119.56L82.0016 120.016L82.4984 120.609L82.7802 121.01L83.062 122.321L82.9211 123.246L82.8544 124.101L82.7061 125.288V126.144L82.5652 126.737L82.3576 127.655L82.2167 128.18L82.1425 129.042L82.2167 129.498L82.0758 129.96L81.9349 130.485L81.7866 131.278L81.5048 132.265L81.5789 133.383L81.3639 133.777L81.223 135.032L81.0154 135.557L80.8003 136.15L80.6594 137.662L80.4444 138.656L80.2367 139.242L80.3035 139.442V139.967L80.0884 140.367L80.0217 140.891L79.8066 141.747L79.599 142.21L79.5248 143.127L79.3172 143.659L79.1689 144.577L79.028 145.039L78.8204 146.026V146.55L78.6795 147.013L78.2494 147.937L77.76 148.855L76.7663 149.518L76.1286 149.78L75.1423 150.042H74.2228Z" fill="white"/>
  <path d="M102.167 157.944H103.65L104.073 157.875L105.133 157.944H105.771L106.194 157.875L106.765 157.944H109.308L109.664 156.564L109.879 155.377L110.087 154.452L110.369 153.465L110.51 153.003L110.725 152.016L110.866 151.098V150.698L111.007 150.242L111.222 149.58L111.288 149.124L111.578 148.2L111.859 147.213L112.067 146.288L112.282 145.432L112.208 145.039L112.356 144.646L112.497 143.852L112.638 143.196L112.846 142.472L113.127 141.616V141.154L113.276 140.498L113.624 140.167L113.839 139.836L113.98 139.311L114.262 138.98L114.544 138.193L115.041 137.399L115.256 137.006L115.463 136.675L115.893 136.281L116.316 135.426L116.88 134.639L117.443 133.452L117.873 132.79L118.296 131.934L118.578 131.478L118.86 131.078L119.571 130.222L119.638 129.829L119.994 129.436L120.135 129.104L120.632 128.318L120.773 127.917L120.988 127.462L121.336 126.606L122.048 125.481L122.189 125.088L122.471 124.695L122.538 124.301L123.109 123.508L123.531 122.59L123.954 122.19L124.592 120.94L124.733 120.547L125.014 120.147L125.155 119.691L125.726 118.967L126.008 118.173L126.29 117.849L126.712 117.055L126.787 116.593L127.068 116.199L127.491 115.413L127.632 115.012L128.203 114.288L128.344 113.964L128.552 113.108V112.252L127.773 111.852L126.364 111.921L125.585 111.79H123.746L122.612 111.852L121.551 111.721L119.215 111.852L118.719 112.114L118.014 112.977L117.591 113.632L117.376 114.026L117.02 114.881L116.598 115.806L115.96 117.124L115.819 117.58L115.678 117.98L115.115 118.836L115.041 119.291L114.759 119.691L114.336 120.547L113.624 122.127L113.201 122.852L112.846 123.639L112.282 124.432L112.208 124.826L111.926 125.288L111.503 126.075L111.362 126.406L111.222 126.799L111.007 127.131L110.725 127.062L110.658 126.075L110.369 124.363L110.228 123.577V122.983L110.02 122.321L109.946 121.465L110.02 120.809L109.738 120.147L109.59 119.691L109.383 118.767L109.449 118.373L109.308 116.531L109.027 115.999V115.344L108.819 114.819V113.301L108.604 112.645L107.825 111.852H106.765L104.852 111.79L104.073 111.921L103.576 111.852L102.872 111.921L101.878 111.852L100.039 111.921L99.4754 111.983L99.1195 112.114L98.9119 112.645V113.301L98.9786 114.157L99.1195 115.082L99.1937 115.475L99.2604 116.331L99.5496 118.304L99.8314 119.229V119.691L99.9723 120.678L100.187 121.141L100.113 121.927L100.254 122.452L100.395 124.101L100.469 124.626L100.818 125.612L101.033 126.668V127.131L101.174 127.986L101.455 128.842L101.67 129.629L101.737 130.091L101.952 131.278L102.167 132.265L102.093 132.658L102.234 133.583L102.449 134.046V134.57L102.657 135.557L102.805 136.544L102.946 137.006L102.872 137.531L102.946 138.124L103.154 138.787L103.228 139.573L102.872 140.691L102.805 141.485L102.516 142.209V142.665L102.449 143.065L102.167 143.921L101.952 144.97V145.632L101.737 146.157L101.53 147.082L101.389 148.068L101.174 148.531L101.033 149.387L100.959 150.111L100.61 151.56L100.395 152.147V152.872L100.254 153.272L100.187 153.727L100.113 154.128L99.9723 154.583L100.039 154.983L99.8981 155.839L99.7572 156.626L99.8314 157.481L100.61 157.875H101.67L102.167 157.944Z" fill="white"/>
</svg>