<svg width="542" height="325" viewBox="0 0 542 325" fill="none" xmlns="http://www.w3.org/2000/svg">
<mask id="mask0_836_1155" style="mask-type:luminance" maskUnits="userSpaceOnUse" x="212" y="37" width="118" height="111">
<path d="M212.214 37.4683H329.786V147.71H212.214V37.4683Z" fill="white"/>
</mask>
<g mask="url(#mask0_836_1155)">
<path fill-rule="evenodd" clip-rule="evenodd" d="M270.824 37.8164C303.358 37.8164 329.713 62.4078 329.713 92.763C329.713 123.118 303.358 147.71 270.824 147.71C240.501 147.71 215.526 126.316 212.291 98.8315H248.794C251.612 107.701 260.419 114.218 270.824 114.218C283.506 114.218 293.785 104.626 293.785 92.7935C293.785 80.9611 281.65 71.3734 270.824 71.3734C263.336 71.3734 257.474 73.4919 253.342 77.1373V39.613C258.881 38.3254 265.192 37.8164 270.824 37.8164Z" fill="white"/>
</g>
<mask id="mask1_836_1155" style="mask-type:luminance" maskUnits="userSpaceOnUse" x="212" y="0" width="38" height="97">
<path d="M212.214 0.709473H249.231V96.4909H212.214V0.709473Z" fill="white"/>
</mask>
<g mask="url(#mask1_836_1155)">
<path fill-rule="evenodd" clip-rule="evenodd" d="M212.291 0.709473H240.118C244.89 0.709473 248.766 4.35489 248.766 8.80508V95.7818H212.291V0.709473Z" fill="#5E17EB"/>
</g>
<path d="M51.4299 268.228L52.7091 268.145H52.9578L53.633 268.063H54.8234L55.4985 268.145L56.6001 268.228L58.892 268.145L59.4872 268.063L60.0824 268.145L61.3527 268.228L62.6231 267.988L63.1294 268.063L64.231 267.831L64.9949 267.749L65.5013 267.674L66.1853 267.434L67.1092 267.203L67.7932 266.88L68.3884 266.649L68.806 266.409L69.2324 266.095L69.8275 265.781L70.2451 265.384L70.7603 265.144L71.4355 264.756L71.773 264.359L72.3682 263.888L72.7946 263.491L73.301 262.623L74.065 261.68L75.4153 259.151L75.5929 258.605L75.7617 258.125L75.9305 257.58L76.0993 257.1L76.348 256.001L76.4369 255.447L76.6945 254.422L76.9432 253.24L77.112 252.057L77.2008 251.503V250.478L77.2808 249.767L77.112 248.982L77.2008 247.957L76.8633 246.923L76.6945 245.898L76.4369 245.427L76.2681 244.642L75.8417 243.774L75.5041 243.22L74.9977 242.434L74.4914 241.955L73.9761 241.409L72.9634 240.773L72.1994 240.459L71.2667 239.987L70.4227 239.673V239.194L71.1778 238.879L72.1994 238.491L73.2122 237.937L73.8073 237.623L74.2337 237.3L74.6602 236.829L75.0777 236.515L76.1792 235.49L76.8633 234.547L77.4496 233.754L78.0448 232.886L78.3823 232.175L78.6399 231.704L78.8087 231.15L78.9775 230.678L79.0664 230.125L79.1463 229.893L79.3151 229.339L79.2351 228.868L79.5727 227.843L79.6616 227.289L79.8303 226.264V225.793L79.9991 225.239L80.0791 224.759V224.214L80.1679 223.734L80.2479 222.552L80.0791 221.609L79.9103 220.981V220.427L79.8303 219.791L79.3151 218.691L78.9775 217.74L78.7288 217.352L78.3823 216.872L77.6272 216.244L76.5257 215.136L75.5929 214.433L74.8289 214.111L73.9761 213.722L72.9634 213.483L71.6931 213.169L70.8403 213.086L69.9075 212.929H67.3668L66.1853 212.854L62.7918 212.929L58.6344 212.772H56.8577L55.9249 212.854L55.4186 212.772H53.2954L52.1139 212.854L51.3499 213.483L51.0923 213.88L50.9235 214.591L50.8436 215.773L50.7547 216.327V216.955L50.4971 217.98L49.9908 219.873L49.742 220.898L49.4844 222.081L49.3156 224.602L48.978 225.71L48.8093 226.892L48.7204 227.363L48.5516 227.843V228.388L48.4628 228.868L48.3829 229.571L48.1252 230.207L48.0453 230.678L47.8765 231.232L47.7877 232.175L47.7077 232.886L47.4501 233.597L47.2813 234.151L47.1925 234.705V235.333L47.0237 236.441L46.6861 237.54L46.6062 238.169L46.2597 239.194L46.0909 239.59L46.011 240.698L45.6734 241.798L45.5046 242.591L45.4158 242.906V243.377L45.1582 244.328L45.0782 244.873L44.9094 245.898L44.6518 246.923V247.477L44.5718 247.957L44.3942 248.585L44.1454 249.213L43.8878 250.321L43.9767 251.107L43.6391 251.9L43.4703 253.157L43.2926 254.339L43.2127 254.819L42.9551 255.447L42.8751 256.075L42.7063 256.629L42.6175 257.183L42.4487 257.654L42.3687 258.762L42.1911 259.862L41.8535 260.887L41.7736 261.441L41.6048 262.391L41.436 263.491L41.2583 264.202L41.0096 264.83V266.012L40.8408 266.806L40.752 267.434L41.3471 267.906L42.1111 267.988L43.3815 268.063H44.0566L44.5718 268.145H48.0453L49.3956 268.063H50.0796L51.4299 268.228ZM61.0151 233.911L59.9935 233.837H58.892V233.357L58.9808 232.572L59.1496 231.943L59.7359 228.074L59.9047 227.603L59.9935 227.049L60.2512 226.024V225.47L60.4999 224.528L60.5887 223.974L60.6687 223.263L60.9263 222.552V222.006L61.6015 221.841H63.7246L65.2526 222.006L66.0077 222.163L66.5229 222.238L67.198 222.792L67.4557 223.188L67.962 224.131L68.042 225.082L68.1308 225.627L68.2108 226.495L67.8732 227.289L67.7932 227.917L67.6244 228.388L67.3668 229.339L66.9404 230.439L66.2653 231.232L65.8389 231.943L64.8262 232.729L63.8934 233.283L63.2182 233.679L62.1966 233.837L61.0151 233.911ZM55.5873 258.051L54.2282 257.968L54.5657 256.943L54.6546 256.315L54.8234 255.687L54.9922 254.579V254.025L55.2498 252.843L55.4186 252.289L55.5873 251.189L55.6673 250.553L55.845 250.082V249.528L56.0138 248.982L56.1825 247.792L56.3513 247.477L56.5201 246.849L56.6889 245.427L56.9465 244.716H58.128L59.0608 244.799H60.2512L60.9263 244.956L61.7702 245.113L63.387 245.667L64.3198 246.452L65.0749 248.345L64.9949 249.371L65.0749 250.71L64.9061 252.132L64.4886 253.157L64.3997 253.793L64.231 254.339L63.8046 255.207L63.7246 255.844L63.2182 256.546L62.6231 257.026L61.8591 257.58L61.2639 257.811H60.6687L60.0824 258.051H58.4656L56.3513 257.811L55.5873 258.051Z" fill="white"/>
<path d="M2.76562 316.228V293.822H9.875C12.0417 293.822 13.7552 294.296 15.0156 295.244C16.2865 296.192 16.9219 297.426 16.9219 298.947C16.9219 300.218 16.5625 301.322 15.8438 302.259C15.125 303.197 14.1302 303.863 12.8594 304.259V304.322C14.401 304.499 15.6302 305.072 16.5469 306.041C17.474 306.999 17.9375 308.249 17.9375 309.791C17.9375 311.707 17.1823 313.259 15.6719 314.447C14.1615 315.634 12.2552 316.228 9.95312 316.228H2.76562ZM6.46875 296.806V303.181H8.875C10.1667 303.181 11.1771 302.879 11.9062 302.275C12.6458 301.66 13.0156 300.796 13.0156 299.681C13.0156 297.764 11.7344 296.806 9.17188 296.806H6.46875ZM6.46875 306.166V313.259H9.64062C11.026 313.259 12.0938 312.942 12.8438 312.306C13.6042 311.66 13.9844 310.775 13.9844 309.65C13.9844 307.327 12.375 306.166 9.15625 306.166H6.46875Z" fill="#5E17EB"/>
<path d="M30.9844 303.681C30.5469 303.337 29.9167 303.166 29.0938 303.166C28.0208 303.166 27.125 303.65 26.4062 304.619C25.6875 305.587 25.3281 306.905 25.3281 308.572V316.228H21.7031V300.228H25.3281V303.525H25.3906C25.7448 302.4 26.2865 301.525 27.0156 300.9C27.7552 300.264 28.5781 299.947 29.4844 299.947C30.1406 299.947 30.6406 300.046 30.9844 300.244V303.681ZM35.375 296.869C34.7812 296.869 34.2708 296.676 33.8438 296.291C33.4271 295.905 33.2188 295.416 33.2188 294.822C33.2188 294.228 33.4271 293.733 33.8438 293.337C34.2708 292.942 34.7812 292.744 35.375 292.744C35.9896 292.744 36.5104 292.942 36.9375 293.337C37.3646 293.733 37.5781 294.228 37.5781 294.822C37.5781 295.384 37.3646 295.869 36.9375 296.275C36.5104 296.671 35.9896 296.869 35.375 296.869ZM37.1719 316.228H33.5469V300.228H37.1719V316.228ZM45.5625 316.228H41.9219V292.541H45.5625V316.228ZM53.9375 316.228H50.2969V292.541H53.9375V316.228ZM70.9531 316.228H67.4375V313.728H67.375C66.2708 315.645 64.651 316.603 62.5156 316.603C60.9427 316.603 59.7083 316.176 58.8125 315.322C57.9271 314.468 57.4844 313.337 57.4844 311.931C57.4844 308.91 59.224 307.15 62.7031 306.65L67.4531 305.978C67.4531 303.697 66.3698 302.556 64.2031 302.556C62.2969 302.556 60.5781 303.212 59.0469 304.525V301.353C60.7344 300.353 62.6823 299.853 64.8906 299.853C68.9323 299.853 70.9531 301.843 70.9531 305.822V316.228ZM67.4531 308.369L64.0938 308.837C63.0521 308.973 62.2656 309.228 61.7344 309.603C61.2135 309.968 60.9531 310.613 60.9531 311.541C60.9531 312.218 61.1927 312.775 61.6719 313.212C62.1615 313.639 62.8125 313.853 63.625 313.853C64.7292 313.853 65.6406 313.468 66.3594 312.697C67.0885 311.916 67.4531 310.936 67.4531 309.759V308.369ZM89.6406 316.228H86.0156V307.212C86.0156 304.223 84.9583 302.728 82.8438 302.728C81.7396 302.728 80.8281 303.145 80.1094 303.978C79.3906 304.801 79.0312 305.843 79.0312 307.103V316.228H75.3906V300.228H79.0312V302.884H79.0938C80.2917 300.863 82.0208 299.853 84.2812 299.853C86.0208 299.853 87.349 300.421 88.2656 301.556C89.1823 302.681 89.6406 304.311 89.6406 306.447V316.228ZM102.516 316.056C101.807 316.41 100.875 316.587 99.7188 316.587C96.6146 316.587 95.0625 315.098 95.0625 312.119V303.072H92.3906V300.228H95.0625V296.525L98.6875 295.494V300.228H102.516V303.072H98.6875V311.072C98.6875 312.02 98.8594 312.697 99.2031 313.103C99.5469 313.509 100.12 313.712 100.922 313.712C101.536 313.712 102.068 313.535 102.516 313.181V316.056ZM119 309.212H108.094C108.135 310.692 108.589 311.832 109.453 312.634C110.328 313.436 111.526 313.837 113.047 313.837C114.755 313.837 116.323 313.327 117.75 312.306V315.228C116.292 316.145 114.365 316.603 111.969 316.603C109.615 316.603 107.766 315.879 106.422 314.431C105.089 312.973 104.422 310.926 104.422 308.291C104.422 305.801 105.156 303.775 106.625 302.212C108.104 300.639 109.938 299.853 112.125 299.853C114.312 299.853 116.005 300.556 117.203 301.962C118.401 303.369 119 305.322 119 307.822V309.212ZM115.5 306.65C115.49 305.348 115.182 304.337 114.578 303.619C113.974 302.889 113.141 302.525 112.078 302.525C111.036 302.525 110.151 302.905 109.422 303.666C108.703 304.426 108.26 305.421 108.094 306.65H115.5Z" fill="white"/>
<path d="M167.849 268.15L168.951 268.067L169.546 268.15H171.918L172.762 268.067H179.718L181.405 267.984L182.596 268.15L183.866 268.067L185.394 268.15L187.26 267.91L188.361 267.753H189.969L190.644 267.199L190.982 265.934L191.16 264.752L191.239 264.28V263.727L191.497 263.173L191.915 260.42L192.172 259.783L192.092 259.229L192.261 258.684L192.341 257.501L191.835 257.262H189.632L187.766 257.336H183.36L182.596 257.262H181.752L181.326 256.865V256.079L181.494 255.286L181.574 254.418L181.752 253.872L181.832 253.393L181.921 252.847V252.053L182.09 251.342L182.169 250.317L182.507 249.292L182.596 248.193L182.765 247.556V247.01L183.102 245.745L183.191 245.192L183.271 244.563L183.529 243.455L183.609 242.273L183.955 241.008L184.035 240.463L184.293 239.281L184.461 238.727V237.619L184.63 237.065L184.888 235.411V234.783L185.057 234.229L184.968 233.601L185.305 233.047L185.563 232.022L185.812 230.914L185.989 230.36L186.069 229.815L186.238 229.178L186.069 228.55L186.407 227.996L186.576 226.896L186.922 225.788V225.16L187.171 224.052L187.846 221.291L188.024 220.506L188.192 219.638L188.441 217.976L188.61 217.505V216.951L189.125 215.058V214.512L189.205 213.958L188.948 213.007L187.26 212.933H183.955L180.819 212.85H178.785L177.426 213.007L177.168 213.487L176.751 215.058L176.582 215.537V216.091L176.493 217.034L176.155 217.976L175.898 219.241L175.818 220.506L175.471 221.06V221.531L175.391 222.085V222.63L175.054 223.11L174.885 223.978L174.796 225.003L174.627 225.631L174.796 226.185L174.627 226.814L174.29 227.921L174.032 228.55L174.121 229.178L173.863 230.84L173.695 231.782V232.336L173.268 233.361V234.469L173.188 235.097L172.762 236.122L172.593 237.065L172.424 238.09L171.918 240.306V240.694L171.58 241.802L171.234 244.166L170.816 245.274V245.82L170.479 246.928V247.399L170.39 247.953L170.301 248.424V249.532L170.132 250.003L169.964 251.111L169.884 251.582V252.053L169.626 252.607L169.377 253.632L169.457 254.104L169.2 254.657L169.031 255.129L168.613 256.237V257.179L168.445 257.89L168.276 258.915L168.187 259.386V259.94L167.849 260.965V262.148L167.512 263.173L167.423 263.652L167.343 264.198L167.085 264.991L166.748 265.777L166.659 266.256L166.748 266.728L166.828 267.281L167.165 267.753L167.849 268.15Z" fill="white"/>
<path d="M158.172 316.149H145.766V293.743H149.484V313.009H158.172V316.149Z" fill="#5E17EB"/>
<path d="M164.656 316.149H161.016V300.149H164.656V316.149ZM167.266 291.993L162.797 297.118H160.109L163.891 291.993H167.266ZM183.938 316.149H180.312V313.431H180.25C179.083 315.493 177.286 316.524 174.859 316.524C172.891 316.524 171.312 315.811 170.125 314.384C168.948 312.946 168.359 310.993 168.359 308.524C168.359 305.879 169.01 303.759 170.312 302.165C171.625 300.571 173.37 299.774 175.547 299.774C177.703 299.774 179.271 300.639 180.25 302.368H180.312V292.462H183.938V316.149ZM180.359 308.837V306.743C180.359 305.608 179.99 304.644 179.25 303.853C178.51 303.061 177.568 302.665 176.422 302.665C175.068 302.665 174 303.17 173.219 304.181C172.448 305.191 172.062 306.592 172.062 308.384C172.062 310.009 172.432 311.295 173.172 312.243C173.922 313.181 174.927 313.649 176.188 313.649C177.427 313.649 178.432 313.196 179.203 312.29C179.974 311.373 180.359 310.222 180.359 308.837ZM202.219 309.134H191.312C191.354 310.613 191.807 311.754 192.672 312.556C193.547 313.358 194.745 313.759 196.266 313.759C197.974 313.759 199.542 313.248 200.969 312.228V315.149C199.51 316.066 197.583 316.524 195.188 316.524C192.833 316.524 190.984 315.8 189.641 314.353C188.307 312.894 187.641 310.847 187.641 308.212C187.641 305.722 188.375 303.696 189.844 302.134C191.323 300.561 193.156 299.774 195.344 299.774C197.531 299.774 199.224 300.478 200.422 301.884C201.62 303.29 202.219 305.243 202.219 307.743V309.134ZM198.719 306.571C198.708 305.269 198.401 304.259 197.797 303.54C197.193 302.811 196.359 302.446 195.297 302.446C194.255 302.446 193.37 302.826 192.641 303.587C191.922 304.347 191.479 305.342 191.312 306.571H198.719ZM214.953 303.603C214.516 303.259 213.885 303.087 213.062 303.087C211.99 303.087 211.094 303.571 210.375 304.54C209.656 305.509 209.297 306.826 209.297 308.493V316.149H205.672V300.149H209.297V303.446H209.359C209.714 302.321 210.255 301.446 210.984 300.821C211.724 300.186 212.547 299.868 213.453 299.868C214.109 299.868 214.609 299.967 214.953 300.165V303.603Z" fill="white"/>
<path d="M293.202 269.29L295.067 269.051L296 268.811L296.595 268.737L297.777 268.497L298.452 268.34L299.047 268.265L301.001 267.554L301.339 267.315L302.352 266.686L303.373 265.975L303.8 265.504L304.306 265.107L305.319 264.156L305.487 263.685L305.914 263.214L306.251 262.743L307.015 261.718L307.442 261.164L308.117 259.742L308.712 258.642L308.792 257.849L309.218 257.295L309.476 256.427V255.881L309.725 254.93L310.151 254.062L310.24 253.194L310.489 252.723L310.915 251.781L310.826 251.301L311.679 248.54L311.928 248.069L312.106 246.969L312.274 246.415V245.704L312.523 244.282L312.781 243.811L313.03 242.786L313.118 241.835L313.376 240.81L313.545 239.785L313.882 238.76L313.793 237.817L314.22 236.949L314.14 236.156L314.309 234.899L314.478 234.345L314.557 233.08L314.646 231.898L314.815 230.798L314.895 230.319V229.534L314.815 228.98L314.895 228.508L315.064 227.954L315.153 226.929V226.375L315.064 225.35L315.153 224.879L315.241 223.854V223.3L315.153 222.672L314.984 221.175L314.726 219.993L314.557 219.439L314.389 218.968L314.14 218.489L313.625 217.463L313.376 216.91L312.95 216.438L312.017 215.653L311.084 214.942L310.658 214.471L309.982 214.074L308.455 213.123L307.184 212.578L306.678 212.42L306.003 212.338L305.319 212.098L303.968 211.941L303.036 211.867L302.52 211.784L301.001 211.709L299.98 211.784L298.798 211.867L297.27 212.098L296.417 212.181L295.147 212.495L294.641 212.578L293.37 212.892L292.358 213.363L291.336 213.917L290.741 214.314L290.066 214.545L288.964 215.256L287.774 216.438L287.356 216.91L286.761 217.306L286.077 218.257L285.402 219.282L285.064 219.753L284.976 220.307L284.22 221.332L283.874 221.886L283.368 222.829L282.941 223.937L282.604 224.879L282.355 225.433L281.84 226.458L281.671 227.483L281.253 228.037L280.907 230.005L280.738 231.113L280.658 231.584L280.401 232.138L280.232 233.08V234.188L280.063 234.742L279.557 235.527L279.637 235.998L279.468 236.552V237.024L279.299 237.577L279.05 238.049V238.603L278.793 239.553V240.578L278.535 241.521L278.286 242.943L278.117 243.497L277.949 244.522L278.117 244.919L277.771 246.018V246.572L277.602 247.672V248.308L277.265 249.408L277.096 251.144V251.698L277.185 252.326L276.927 253.12V254.616L276.758 255.17L277.016 256.749L277.096 257.22L277.185 258.32L277.353 258.799L277.433 259.345L277.602 259.824L277.771 260.213L277.86 260.693L278.117 261.238V261.718L278.793 262.743L279.219 263.297L279.468 263.768L279.894 264.156L280.152 264.553L281.333 265.818L282.861 267L284.043 267.711L284.638 268.026L285.908 268.34L286.592 268.422L288.538 268.968L289.302 269.051L289.897 269.133L290.999 269.051L293.202 269.29ZM292.526 258.56L292.011 258.485L291.336 258.32L290.661 258.088L290.235 257.692L289.728 256.981L289.559 256.666L289.302 256.113V253.905L289.044 253.351L289.391 252.566L289.471 251.615L289.213 251.07L289.471 250.516V249.962L289.728 248.78V248.151L289.897 247.597V246.969L290.066 246.258L289.977 245.944L290.146 245.39L290.066 244.753L290.492 243.654L290.741 243.1L290.661 242.472L290.741 241.918V241.364L290.91 240.264L291.078 239.71L291.425 238.446L291.674 237.817L291.842 236.635L292.011 236.081L292.1 235.527L292.358 234.262L292.606 233.163L292.944 232.055L293.033 231.584L293.282 230.484L293.37 229.848V229.691L293.877 228.037L294.046 227.401L294.214 226.855L294.73 225.83L295.067 225.276L295.405 224.325L296 223.457L296.844 222.746L298.203 222.275L298.878 222.118L300.486 222.043L301.845 222.589L302.44 223.3L302.778 223.78L303.116 225.35L302.947 226.458L302.867 227.483L302.689 228.905V229.93L302.52 230.641L302.272 231.741L302.103 232.369L302.014 233.403L302.103 233.948L301.934 234.502L301.765 235.13L301.588 236.081L301.25 237.263L301.339 238.603L301.081 239.074L300.912 240.578L300.664 241.207L300.406 241.918L300.237 243.728L299.98 244.919L299.731 245.621L299.811 245.861V246.49L299.553 246.969L299.473 247.597L299.216 248.622L298.967 249.176L298.878 250.276L298.629 250.912L298.452 252.012L298.283 252.566L298.034 253.748V254.376L297.865 254.93L297.35 256.038L296.764 257.138L295.573 257.931L294.81 258.245L293.628 258.56H292.526Z" fill="white"/>
<path d="M250 317.666C246.771 317.666 244.182 316.619 242.234 314.525C240.297 312.431 239.328 309.707 239.328 306.353C239.328 302.749 240.318 299.874 242.297 297.728C244.276 295.582 246.964 294.509 250.359 294.509C253.505 294.509 256.036 295.551 257.953 297.634C259.88 299.718 260.844 302.442 260.844 305.806C260.844 309.462 259.859 312.353 257.891 314.478C255.922 316.603 253.292 317.666 250 317.666ZM250.172 297.775C248.12 297.775 246.448 298.541 245.156 300.072C243.875 301.603 243.234 303.619 243.234 306.119C243.234 308.608 243.859 310.613 245.109 312.134C246.359 313.655 247.995 314.416 250.016 314.416C252.161 314.416 253.854 313.692 255.094 312.244C256.333 310.796 256.953 308.77 256.953 306.166C256.953 303.488 256.349 301.421 255.141 299.962C253.943 298.504 252.286 297.775 250.172 297.775Z" fill="#5E17EB"/>
<path d="M273.828 304.744C273.391 304.4 272.76 304.228 271.938 304.228C270.865 304.228 269.969 304.712 269.25 305.681C268.531 306.65 268.172 307.968 268.172 309.634V317.291H264.547V301.291H268.172V304.587H268.234C268.589 303.462 269.13 302.587 269.859 301.962C270.599 301.327 271.422 301.009 272.328 301.009C272.984 301.009 273.484 301.108 273.828 301.306V304.744ZM278.219 297.931C277.625 297.931 277.115 297.738 276.688 297.353C276.271 296.968 276.062 296.478 276.062 295.884C276.062 295.291 276.271 294.796 276.688 294.4C277.115 294.004 277.625 293.806 278.219 293.806C278.833 293.806 279.354 294.004 279.781 294.4C280.208 294.796 280.422 295.291 280.422 295.884C280.422 296.447 280.208 296.931 279.781 297.337C279.354 297.733 278.833 297.931 278.219 297.931ZM280.016 317.291H276.391V301.291H280.016V317.291ZM299.328 316.009C299.328 321.884 296.375 324.822 290.469 324.822C288.385 324.822 286.568 324.473 285.016 323.775V320.462C286.766 321.462 288.427 321.962 290 321.962C293.802 321.962 295.703 320.093 295.703 316.353V314.603H295.641C294.443 316.645 292.641 317.666 290.234 317.666C288.286 317.666 286.714 316.957 285.516 315.541C284.328 314.113 283.734 312.202 283.734 309.806C283.734 307.087 284.375 304.926 285.656 303.322C286.938 301.718 288.698 300.916 290.938 300.916C293.052 300.916 294.62 301.78 295.641 303.509H295.703V301.291H299.328V316.009ZM295.734 309.962V307.884C295.734 306.759 295.359 305.801 294.609 305.009C293.87 304.207 292.943 303.806 291.828 303.806C290.453 303.806 289.375 304.317 288.594 305.337C287.823 306.348 287.438 307.764 287.438 309.587C287.438 311.16 287.807 312.421 288.547 313.369C289.297 314.306 290.286 314.775 291.516 314.775C292.766 314.775 293.781 314.327 294.562 313.431C295.344 312.525 295.734 311.369 295.734 309.962ZM305.875 297.931C305.281 297.931 304.771 297.738 304.344 297.353C303.927 296.968 303.719 296.478 303.719 295.884C303.719 295.291 303.927 294.796 304.344 294.4C304.771 294.004 305.281 293.806 305.875 293.806C306.49 293.806 307.01 294.004 307.438 294.4C307.865 294.796 308.078 295.291 308.078 295.884C308.078 296.447 307.865 296.931 307.438 297.337C307.01 297.733 306.49 297.931 305.875 297.931ZM307.672 317.291H304.047V301.291H307.672V317.291ZM326.672 317.291H323.047V308.275C323.047 305.285 321.99 303.791 319.875 303.791C318.771 303.791 317.859 304.207 317.141 305.041C316.422 305.863 316.062 306.905 316.062 308.166V317.291H312.422V301.291H316.062V303.947H316.125C317.323 301.926 319.052 300.916 321.312 300.916C323.052 300.916 324.38 301.483 325.297 302.619C326.214 303.744 326.672 305.374 326.672 307.509V317.291ZM343.391 317.291H339.875V314.791H339.812C338.708 316.707 337.089 317.666 334.953 317.666C333.38 317.666 332.146 317.238 331.25 316.384C330.365 315.53 329.922 314.4 329.922 312.994C329.922 309.973 331.661 308.212 335.141 307.712L339.891 307.041C339.891 304.759 338.807 303.619 336.641 303.619C334.734 303.619 333.016 304.275 331.484 305.587V302.416C333.172 301.416 335.12 300.916 337.328 300.916C341.37 300.916 343.391 302.905 343.391 306.884V317.291ZM339.891 309.431L336.531 309.9C335.49 310.035 334.703 310.291 334.172 310.666C333.651 311.03 333.391 311.676 333.391 312.603C333.391 313.28 333.63 313.837 334.109 314.275C334.599 314.702 335.25 314.916 336.062 314.916C337.167 314.916 338.078 314.53 338.797 313.759C339.526 312.978 339.891 311.999 339.891 310.822V309.431ZM351.469 317.291H347.828V293.603H351.469V317.291Z" fill="white"/>
<path d="M445.146 268.187H446.923L447.429 268.104L448.7 268.187H449.464L449.97 268.104L450.654 268.187H453.701L454.127 266.533L454.385 265.111L454.634 264.004L454.971 262.821L455.14 262.268L455.398 261.085L455.566 259.986V259.506L455.735 258.961L455.993 258.167L456.073 257.621L456.419 256.514L456.757 255.331L457.006 254.224L457.263 253.198L457.174 252.727L457.352 252.256L457.521 251.305L457.69 250.52L457.938 249.652L458.276 248.627V248.073L458.454 247.287L458.871 246.891L459.129 246.494L459.298 245.865L459.635 245.469L459.973 244.526L460.568 243.575L460.826 243.104L461.074 242.707L461.589 242.236L462.096 241.211L462.771 240.269L463.446 238.847L463.961 238.053L464.468 237.028L464.805 236.482L465.143 236.003L465.996 234.978L466.076 234.506L466.502 234.035L466.671 233.638L467.266 232.696L467.435 232.216L467.692 231.671L468.11 230.646L468.963 229.298L469.132 228.827L469.469 228.356L469.549 227.884L470.233 226.934L470.739 225.834L471.246 225.355L472.01 223.858L472.179 223.387L472.516 222.907L472.685 222.362L473.369 221.494L473.707 220.543L474.044 220.154L474.55 219.204L474.639 218.65L474.977 218.179L475.483 217.236L475.652 216.757L476.336 215.889L476.505 215.5L476.754 214.475V213.45L475.821 212.97L474.133 213.053L473.2 212.896H470.997L469.638 212.97L468.368 212.813L465.569 212.97L464.974 213.284L464.13 214.318L463.624 215.103L463.366 215.574L462.94 216.6L462.433 217.707L461.669 219.286L461.501 219.832L461.332 220.312L460.657 221.337L460.568 221.882L460.23 222.362L459.724 223.387L458.871 225.28L458.365 226.148L457.938 227.091L457.263 228.041L457.174 228.513L456.837 229.067L456.33 230.009L456.162 230.406L455.993 230.877L455.735 231.274L455.398 231.191L455.318 230.009L454.971 227.959L454.803 227.016V226.305L454.554 225.512L454.465 224.486L454.554 223.701L454.216 222.907L454.039 222.362L453.79 221.254L453.87 220.783L453.701 218.575L453.363 217.939V217.154L453.115 216.525V214.706L452.857 213.921L451.924 212.97H450.654L448.362 212.896L447.429 213.053L446.834 212.97L445.99 213.053L444.8 212.97L442.597 213.053L441.921 213.127L441.495 213.284L441.246 213.921V214.706L441.326 215.732L441.495 216.839L441.584 217.311L441.664 218.336L442.01 220.7L442.348 221.808V222.362L442.517 223.544L442.774 224.098L442.685 225.04L442.854 225.669L443.023 227.645L443.112 228.273L443.529 229.455L443.787 230.72V231.274L443.956 232.299L444.293 233.324L444.551 234.267L444.631 234.82L444.889 236.242L445.146 237.425L445.057 237.896L445.226 239.004L445.484 239.558V240.186L445.732 241.368L445.91 242.55L446.079 243.104L445.99 243.732L446.079 244.443L446.328 245.237L446.417 246.18L445.99 247.519L445.91 248.47L445.564 249.338V249.883L445.484 250.363L445.146 251.388L444.889 252.645V253.438L444.631 254.066L444.382 255.174L444.213 256.356L443.956 256.91L443.787 257.936L443.698 258.804L443.281 260.54L443.023 261.242V262.11L442.854 262.59L442.774 263.136L442.685 263.615L442.517 264.161L442.597 264.64L442.428 265.665L442.259 266.608L442.348 267.633L443.281 268.104H444.551L445.146 268.187Z" fill="white"/>
<path d="M382.578 316.187H378.75V293.781H382.578V316.187Z" fill="#5E17EB"/>
<path d="M401.953 316.187H398.328V307.171C398.328 304.182 397.271 302.687 395.156 302.687C394.052 302.687 393.141 303.103 392.422 303.937C391.703 304.76 391.344 305.801 391.344 307.062V316.187H387.703V300.187H391.344V302.843H391.406C392.604 300.822 394.333 299.812 396.594 299.812C398.333 299.812 399.661 300.379 400.578 301.515C401.495 302.64 401.953 304.27 401.953 306.406V316.187ZM420.641 316.187H417.016V307.171C417.016 304.182 415.958 302.687 413.844 302.687C412.74 302.687 411.828 303.103 411.109 303.937C410.391 304.76 410.031 305.801 410.031 307.062V316.187H406.391V300.187H410.031V302.843H410.094C411.292 300.822 413.021 299.812 415.281 299.812C417.021 299.812 418.349 300.379 419.266 301.515C420.182 302.64 420.641 304.27 420.641 306.406V316.187ZM432.172 316.562C429.703 316.562 427.729 315.817 426.25 314.327C424.781 312.827 424.047 310.843 424.047 308.374C424.047 305.687 424.812 303.588 426.344 302.077C427.885 300.567 429.958 299.812 432.562 299.812C435.062 299.812 437.01 300.546 438.406 302.015C439.802 303.484 440.5 305.52 440.5 308.124C440.5 310.676 439.745 312.723 438.234 314.265C436.734 315.796 434.714 316.562 432.172 316.562ZM432.344 302.702C430.927 302.702 429.807 303.197 428.984 304.187C428.161 305.176 427.75 306.541 427.75 308.281C427.75 309.958 428.167 311.281 429 312.249C429.833 313.208 430.948 313.687 432.344 313.687C433.771 313.687 434.865 313.213 435.625 312.265C436.396 311.317 436.781 309.968 436.781 308.218C436.781 306.458 436.396 305.098 435.625 304.14C434.865 303.182 433.771 302.702 432.344 302.702ZM457.984 300.187L451.797 316.187H447.875L441.984 300.187H445.922L449.469 311.374C449.74 312.197 449.906 312.916 449.969 313.531H450.016C450.109 312.76 450.255 312.062 450.453 311.437L454.172 300.187H457.984ZM472.203 316.187H468.688V313.687H468.625C467.521 315.603 465.901 316.562 463.766 316.562C462.193 316.562 460.958 316.135 460.062 315.281C459.177 314.426 458.734 313.296 458.734 311.89C458.734 308.869 460.474 307.109 463.953 306.609L468.703 305.937C468.703 303.656 467.62 302.515 465.453 302.515C463.547 302.515 461.828 303.171 460.297 304.484V301.312C461.984 300.312 463.932 299.812 466.141 299.812C470.182 299.812 472.203 301.801 472.203 305.781V316.187ZM468.703 308.327L465.344 308.796C464.302 308.932 463.516 309.187 462.984 309.562C462.464 309.926 462.203 310.572 462.203 311.499C462.203 312.176 462.443 312.734 462.922 313.171C463.411 313.598 464.062 313.812 464.875 313.812C465.979 313.812 466.891 313.426 467.609 312.656C468.339 311.874 468.703 310.895 468.703 309.718V308.327ZM491.188 316.187H487.562V313.468H487.5C486.333 315.531 484.536 316.562 482.109 316.562C480.141 316.562 478.562 315.848 477.375 314.421C476.198 312.984 475.609 311.031 475.609 308.562C475.609 305.916 476.26 303.796 477.562 302.202C478.875 300.609 480.62 299.812 482.797 299.812C484.953 299.812 486.521 300.676 487.5 302.406H487.562V292.499H491.188V316.187ZM487.609 308.874V306.781C487.609 305.645 487.24 304.682 486.5 303.89C485.76 303.098 484.818 302.702 483.672 302.702C482.318 302.702 481.25 303.208 480.469 304.218C479.698 305.228 479.312 306.629 479.312 308.421C479.312 310.046 479.682 311.333 480.422 312.281C481.172 313.218 482.177 313.687 483.438 313.687C484.677 313.687 485.682 313.234 486.453 312.327C487.224 311.411 487.609 310.26 487.609 308.874ZM503.016 316.562C500.547 316.562 498.573 315.817 497.094 314.327C495.625 312.827 494.891 310.843 494.891 308.374C494.891 305.687 495.656 303.588 497.188 302.077C498.729 300.567 500.802 299.812 503.406 299.812C505.906 299.812 507.854 300.546 509.25 302.015C510.646 303.484 511.344 305.52 511.344 308.124C511.344 310.676 510.589 312.723 509.078 314.265C507.578 315.796 505.557 316.562 503.016 316.562ZM503.188 302.702C501.771 302.702 500.651 303.197 499.828 304.187C499.005 305.176 498.594 306.541 498.594 308.281C498.594 309.958 499.01 311.281 499.844 312.249C500.677 313.208 501.792 313.687 503.188 313.687C504.615 313.687 505.708 313.213 506.469 312.265C507.24 311.317 507.625 309.968 507.625 308.218C507.625 306.458 507.24 305.098 506.469 304.14C505.708 303.182 504.615 302.702 503.188 302.702ZM524.328 303.64C523.891 303.296 523.26 303.124 522.438 303.124C521.365 303.124 520.469 303.609 519.75 304.577C519.031 305.546 518.672 306.864 518.672 308.531V316.187H515.047V300.187H518.672V303.484H518.734C519.089 302.359 519.63 301.484 520.359 300.859C521.099 300.223 521.922 299.906 522.828 299.906C523.484 299.906 523.984 300.004 524.328 300.202V303.64ZM539.172 316.187H535.656V313.687H535.594C534.49 315.603 532.87 316.562 530.734 316.562C529.161 316.562 527.927 316.135 527.031 315.281C526.146 314.426 525.703 313.296 525.703 311.89C525.703 308.869 527.443 307.109 530.922 306.609L535.672 305.937C535.672 303.656 534.589 302.515 532.422 302.515C530.516 302.515 528.797 303.171 527.266 304.484V301.312C528.953 300.312 530.901 299.812 533.109 299.812C537.151 299.812 539.172 301.801 539.172 305.781V316.187ZM535.672 308.327L532.312 308.796C531.271 308.932 530.484 309.187 529.953 309.562C529.432 309.926 529.172 310.572 529.172 311.499C529.172 312.176 529.411 312.734 529.891 313.171C530.38 313.598 531.031 313.812 531.844 313.812C532.948 313.812 533.859 313.426 534.578 312.656C535.307 311.874 535.672 310.895 535.672 309.718V308.327Z" fill="white"/>
</svg>
