<svg width="522" height="325" viewBox="0 0 522 325" fill="none" xmlns="http://www.w3.org/2000/svg">
<mask id="mask0_836_1718" style="mask-type:luminance" maskUnits="userSpaceOnUse" x="202" y="37" width="118" height="111">
<path d="M202.214 37.4683H319.786V147.71H202.214V37.4683Z" fill="white"/>
</mask>
<g mask="url(#mask0_836_1718)">
<path fill-rule="evenodd" clip-rule="evenodd" d="M260.824 37.8164C293.358 37.8164 319.713 62.4078 319.713 92.763C319.713 123.118 293.358 147.71 260.824 147.71C230.501 147.71 205.526 126.316 202.291 98.8315H238.794C241.612 107.701 250.419 114.218 260.824 114.218C273.506 114.218 283.785 104.626 283.785 92.7935C283.785 80.9611 271.65 71.3734 260.824 71.3734C253.336 71.3734 247.474 73.4919 243.342 77.1373V39.613C248.881 38.3254 255.192 37.8164 260.824 37.8164Z" fill="white"/>
</g>
<mask id="mask1_836_1718" style="mask-type:luminance" maskUnits="userSpaceOnUse" x="202" y="0" width="38" height="97">
<path d="M202.214 0.709473H239.231V96.4909H202.214V0.709473Z" fill="white"/>
</mask>
<g mask="url(#mask1_836_1718)">
<path fill-rule="evenodd" clip-rule="evenodd" d="M202.291 0.709473H230.118C234.89 0.709473 238.766 4.35489 238.766 8.80508V95.7818H202.291V0.709473Z" fill="#5E17EB"/>
</g>
<path d="M35.9299 268.228L37.2091 268.145H37.4578L38.133 268.063H39.3234L39.9985 268.145L41.1001 268.228L43.392 268.145L43.9872 268.063L44.5824 268.145L45.8527 268.228L47.1231 267.988L47.6294 268.063L48.731 267.831L49.4949 267.749L50.0013 267.674L50.6853 267.434L51.6092 267.203L52.2932 266.88L52.8884 266.649L53.306 266.409L53.7324 266.095L54.3275 265.781L54.7451 265.384L55.2603 265.144L55.9355 264.756L56.273 264.359L56.8682 263.888L57.2946 263.491L57.801 262.623L58.565 261.68L59.9153 259.151L60.0929 258.605L60.2617 258.125L60.4305 257.58L60.5993 257.1L60.848 256.001L60.9369 255.447L61.1945 254.422L61.4432 253.24L61.612 252.057L61.7008 251.503V250.478L61.7808 249.767L61.612 248.982L61.7008 247.957L61.3633 246.923L61.1945 245.898L60.9369 245.427L60.7681 244.642L60.3417 243.774L60.0041 243.22L59.4977 242.434L58.9914 241.955L58.4761 241.409L57.4634 240.773L56.6994 240.459L55.7667 239.987L54.9227 239.673V239.194L55.6778 238.879L56.6994 238.491L57.7122 237.937L58.3073 237.623L58.7337 237.3L59.1602 236.829L59.5777 236.515L60.6792 235.49L61.3633 234.547L61.9496 233.754L62.5448 232.886L62.8823 232.175L63.1399 231.704L63.3087 231.15L63.4775 230.678L63.5664 230.125L63.6463 229.893L63.8151 229.339L63.7351 228.868L64.0727 227.843L64.1616 227.289L64.3303 226.264V225.793L64.4991 225.239L64.5791 224.759V224.214L64.6679 223.734L64.7479 222.552L64.5791 221.609L64.4103 220.981V220.427L64.3303 219.791L63.8151 218.691L63.4775 217.74L63.2288 217.352L62.8823 216.872L62.1272 216.244L61.0257 215.136L60.0929 214.433L59.3289 214.111L58.4761 213.722L57.4634 213.483L56.1931 213.169L55.3403 213.086L54.4075 212.929H51.8668L50.6853 212.854L47.2918 212.929L43.1344 212.772H41.3577L40.4249 212.854L39.9186 212.772H37.7954L36.6139 212.854L35.8499 213.483L35.5923 213.88L35.4235 214.591L35.3436 215.773L35.2547 216.327V216.955L34.9971 217.98L34.4908 219.873L34.242 220.898L33.9844 222.081L33.8156 224.602L33.478 225.71L33.3093 226.892L33.2204 227.363L33.0516 227.843V228.388L32.9628 228.868L32.8829 229.571L32.6252 230.207L32.5453 230.678L32.3765 231.232L32.2877 232.175L32.2077 232.886L31.9501 233.597L31.7813 234.151L31.6925 234.705V235.333L31.5237 236.441L31.1861 237.54L31.1062 238.169L30.7597 239.194L30.5909 239.59L30.511 240.698L30.1734 241.798L30.0046 242.591L29.9158 242.906V243.377L29.6582 244.328L29.5782 244.873L29.4094 245.898L29.1518 246.923V247.477L29.0718 247.957L28.8942 248.585L28.6454 249.213L28.3878 250.321L28.4767 251.107L28.1391 251.9L27.9703 253.157L27.7926 254.339L27.7127 254.819L27.4551 255.447L27.3751 256.075L27.2063 256.629L27.1175 257.183L26.9487 257.654L26.8687 258.762L26.6911 259.862L26.3535 260.887L26.2736 261.441L26.1048 262.391L25.936 263.491L25.7583 264.202L25.5096 264.83V266.012L25.3408 266.806L25.252 267.434L25.8471 267.906L26.6111 267.988L27.8815 268.063H28.5566L29.0718 268.145H32.5453L33.8956 268.063H34.5796L35.9299 268.228ZM45.5151 233.911L44.4935 233.837H43.392V233.357L43.4808 232.572L43.6496 231.943L44.2359 228.074L44.4047 227.603L44.4935 227.049L44.7512 226.024V225.47L44.9999 224.528L45.0887 223.974L45.1687 223.263L45.4263 222.552V222.006L46.1015 221.841H48.2246L49.7526 222.006L50.5077 222.163L51.0229 222.238L51.698 222.792L51.9557 223.188L52.462 224.131L52.542 225.082L52.6308 225.627L52.7108 226.495L52.3732 227.289L52.2932 227.917L52.1244 228.388L51.8668 229.339L51.4404 230.439L50.7653 231.232L50.3389 231.943L49.3262 232.729L48.3934 233.283L47.7182 233.679L46.6966 233.837L45.5151 233.911ZM40.0873 258.051L38.7282 257.968L39.0657 256.943L39.1546 256.315L39.3234 255.687L39.4922 254.579V254.025L39.7498 252.843L39.9186 252.289L40.0873 251.189L40.1673 250.553L40.345 250.082V249.528L40.5138 248.982L40.6825 247.792L40.8513 247.477L41.0201 246.849L41.1889 245.427L41.4465 244.716H42.628L43.5608 244.799H44.7512L45.4263 244.956L46.2702 245.113L47.887 245.667L48.8198 246.452L49.5749 248.345L49.4949 249.371L49.5749 250.71L49.4061 252.132L48.9886 253.157L48.8997 253.793L48.731 254.339L48.3046 255.207L48.2246 255.844L47.7182 256.546L47.1231 257.026L46.3591 257.58L45.7639 257.811H45.1687L44.5824 258.051H42.9656L40.8513 257.811L40.0873 258.051Z" fill="white"/>
<path d="M2.76562 316.228V293.822H9.875C12.0417 293.822 13.7552 294.296 15.0156 295.244C16.2865 296.192 16.9219 297.426 16.9219 298.947C16.9219 300.218 16.5625 301.322 15.8438 302.259C15.125 303.197 14.1302 303.863 12.8594 304.259V304.322C14.401 304.499 15.6302 305.072 16.5469 306.041C17.474 306.999 17.9375 308.249 17.9375 309.791C17.9375 311.707 17.1823 313.259 15.6719 314.447C14.1615 315.634 12.2552 316.228 9.95312 316.228H2.76562ZM6.46875 296.806V303.181H8.875C10.1667 303.181 11.1771 302.879 11.9062 302.275C12.6458 301.66 13.0156 300.796 13.0156 299.681C13.0156 297.764 11.7344 296.806 9.17188 296.806H6.46875ZM6.46875 306.166V313.259H9.64062C11.026 313.259 12.0938 312.942 12.8438 312.306C13.6042 311.66 13.9844 310.775 13.9844 309.65C13.9844 307.327 12.375 306.166 9.15625 306.166H6.46875Z" fill="#5E17EB"/>
<path d="M30.9844 303.681C30.5469 303.337 29.9167 303.166 29.0938 303.166C28.0208 303.166 27.125 303.65 26.4062 304.619C25.6875 305.587 25.3281 306.905 25.3281 308.572V316.228H21.7031V300.228H25.3281V303.525H25.3906C25.7448 302.4 26.2865 301.525 27.0156 300.9C27.7552 300.264 28.5781 299.947 29.4844 299.947C30.1406 299.947 30.6406 300.046 30.9844 300.244V303.681ZM35.375 296.869C34.7812 296.869 34.2708 296.676 33.8438 296.291C33.4271 295.905 33.2188 295.416 33.2188 294.822C33.2188 294.228 33.4271 293.733 33.8438 293.337C34.2708 292.942 34.7812 292.744 35.375 292.744C35.9896 292.744 36.5104 292.942 36.9375 293.337C37.3646 293.733 37.5781 294.228 37.5781 294.822C37.5781 295.384 37.3646 295.869 36.9375 296.275C36.5104 296.671 35.9896 296.869 35.375 296.869ZM37.1719 316.228H33.5469V300.228H37.1719V316.228ZM56.4844 314.947C56.4844 320.822 53.5312 323.759 47.625 323.759C45.5417 323.759 43.724 323.41 42.1719 322.712V319.4C43.9219 320.4 45.5833 320.9 47.1562 320.9C50.9583 320.9 52.8594 319.03 52.8594 315.291V313.541H52.7969C51.599 315.582 49.7969 316.603 47.3906 316.603C45.4427 316.603 43.8698 315.895 42.6719 314.478C41.4844 313.051 40.8906 311.139 40.8906 308.744C40.8906 306.025 41.5312 303.863 42.8125 302.259C44.0938 300.655 45.8542 299.853 48.0938 299.853C50.2083 299.853 51.776 300.718 52.7969 302.447H52.8594V300.228H56.4844V314.947ZM52.8906 308.9V306.822C52.8906 305.697 52.5156 304.738 51.7656 303.947C51.026 303.145 50.099 302.744 48.9844 302.744C47.6094 302.744 46.5312 303.254 45.75 304.275C44.9792 305.285 44.5938 306.702 44.5938 308.525C44.5938 310.098 44.9635 311.358 45.7031 312.306C46.4531 313.244 47.4427 313.712 48.6719 313.712C49.9219 313.712 50.9375 313.264 51.7188 312.369C52.5 311.462 52.8906 310.306 52.8906 308.9ZM75.4219 316.228H71.7969V307.478C71.7969 304.311 70.7396 302.728 68.625 302.728C67.5625 302.728 66.6667 303.186 65.9375 304.103C65.2083 305.02 64.8438 306.192 64.8438 307.619V316.228H61.2031V292.541H64.8438V302.884H64.9062C66.1146 300.863 67.8438 299.853 70.0938 299.853C73.6458 299.853 75.4219 302.025 75.4219 306.369V316.228ZM88.2656 316.056C87.5573 316.41 86.625 316.587 85.4688 316.587C82.3646 316.587 80.8125 315.098 80.8125 312.119V303.072H78.1406V300.228H80.8125V296.525L84.4375 295.494V300.228H88.2656V303.072H84.4375V311.072C84.4375 312.02 84.6094 312.697 84.9531 313.103C85.2969 313.509 85.8698 313.712 86.6719 313.712C87.2865 313.712 87.8177 313.535 88.2656 313.181V316.056Z" fill="white"/>
<path d="M149.35 268.15L150.451 268.067L151.046 268.15H153.418L154.262 268.067H161.218L162.906 267.984L164.096 268.15L165.366 268.067L166.894 268.15L168.76 267.91L169.861 267.753H171.469L172.145 267.199L172.482 265.934L172.66 264.752L172.74 264.28V263.727L172.997 263.173L173.415 260.42L173.673 259.783L173.593 259.229L173.761 258.684L173.841 257.501L173.335 257.262H171.132L169.266 257.336H164.86L164.096 257.262H163.252L162.826 256.865V256.079L162.995 255.286L163.075 254.418L163.252 253.872L163.332 253.393L163.421 252.847V252.053L163.59 251.342L163.67 250.317L164.007 249.292L164.096 248.193L164.265 247.556V247.01L164.602 245.745L164.691 245.192L164.771 244.563L165.029 243.455L165.109 242.273L165.455 241.008L165.535 240.463L165.793 239.281L165.962 238.727V237.619L166.13 237.065L166.388 235.411V234.783L166.557 234.229L166.468 233.601L166.806 233.047L167.063 232.022L167.312 230.914L167.49 230.36L167.57 229.815L167.738 229.178L167.57 228.55L167.907 227.996L168.076 226.896L168.422 225.788V225.16L168.671 224.052L169.346 221.291L169.524 220.506L169.693 219.638L169.941 217.976L170.11 217.505V216.951L170.625 215.058V214.512L170.705 213.958L170.448 213.007L168.76 212.933H165.455L162.319 212.85H160.285L158.926 213.007L158.668 213.487L158.251 215.058L158.082 215.537V216.091L157.993 217.034L157.656 217.976L157.398 219.241L157.318 220.506L156.972 221.06V221.531L156.892 222.085V222.63L156.554 223.11L156.385 223.978L156.296 225.003L156.128 225.631L156.296 226.185L156.128 226.814L155.79 227.921L155.532 228.55L155.621 229.178L155.364 230.84L155.195 231.782V232.336L154.768 233.361V234.469L154.689 235.097L154.262 236.122L154.093 237.065L153.925 238.09L153.418 240.306V240.694L153.081 241.802L152.734 244.166L152.317 245.274V245.82L151.979 246.928V247.399L151.89 247.953L151.801 248.424V249.532L151.633 250.003L151.464 251.111L151.384 251.582V252.053L151.126 252.607L150.878 253.632L150.957 254.104L150.7 254.657L150.531 255.129L150.114 256.237V257.179L149.945 257.89L149.776 258.915L149.687 259.386V259.94L149.35 260.965V262.148L149.012 263.173L148.923 263.652L148.843 264.198L148.586 264.991L148.248 265.777L148.159 266.256L148.248 266.728L148.328 267.281L148.666 267.753L149.35 268.15Z" fill="white"/>
<path d="M127.172 316.149H114.766V293.743H118.484V313.009H127.172V316.149Z" fill="#5E17EB"/>
<path d="M143.562 309.134H132.656C132.698 310.613 133.151 311.754 134.016 312.556C134.891 313.358 136.089 313.759 137.609 313.759C139.318 313.759 140.885 313.248 142.312 312.228V315.149C140.854 316.066 138.927 316.524 136.531 316.524C134.177 316.524 132.328 315.8 130.984 314.353C129.651 312.894 128.984 310.847 128.984 308.212C128.984 305.722 129.719 303.696 131.188 302.134C132.667 300.561 134.5 299.774 136.688 299.774C138.875 299.774 140.568 300.478 141.766 301.884C142.964 303.29 143.562 305.243 143.562 307.743V309.134ZM140.062 306.571C140.052 305.269 139.745 304.259 139.141 303.54C138.536 302.811 137.703 302.446 136.641 302.446C135.599 302.446 134.714 302.826 133.984 303.587C133.266 304.347 132.823 305.342 132.656 306.571H140.062ZM159.297 316.149H155.781V313.649H155.719C154.615 315.566 152.995 316.524 150.859 316.524C149.286 316.524 148.052 316.097 147.156 315.243C146.271 314.389 145.828 313.259 145.828 311.853C145.828 308.832 147.568 307.071 151.047 306.571L155.797 305.899C155.797 303.618 154.714 302.478 152.547 302.478C150.641 302.478 148.922 303.134 147.391 304.446V301.274C149.078 300.274 151.026 299.774 153.234 299.774C157.276 299.774 159.297 301.764 159.297 305.743V316.149ZM155.797 308.29L152.438 308.759C151.396 308.894 150.609 309.149 150.078 309.524C149.557 309.889 149.297 310.535 149.297 311.462C149.297 312.139 149.536 312.696 150.016 313.134C150.505 313.561 151.156 313.774 151.969 313.774C153.073 313.774 153.984 313.389 154.703 312.618C155.432 311.837 155.797 310.858 155.797 309.681V308.29ZM178.281 316.149H174.656V313.431H174.594C173.427 315.493 171.63 316.524 169.203 316.524C167.234 316.524 165.656 315.811 164.469 314.384C163.292 312.946 162.703 310.993 162.703 308.524C162.703 305.879 163.354 303.759 164.656 302.165C165.969 300.571 167.714 299.774 169.891 299.774C172.047 299.774 173.615 300.639 174.594 302.368H174.656V292.462H178.281V316.149ZM174.703 308.837V306.743C174.703 305.608 174.333 304.644 173.594 303.853C172.854 303.061 171.911 302.665 170.766 302.665C169.411 302.665 168.344 303.17 167.562 304.181C166.792 305.191 166.406 306.592 166.406 308.384C166.406 310.009 166.776 311.295 167.516 312.243C168.266 313.181 169.271 313.649 170.531 313.649C171.771 313.649 172.776 313.196 173.547 312.29C174.318 311.373 174.703 310.222 174.703 308.837ZM196.562 309.134H185.656C185.698 310.613 186.151 311.754 187.016 312.556C187.891 313.358 189.089 313.759 190.609 313.759C192.318 313.759 193.885 313.248 195.312 312.228V315.149C193.854 316.066 191.927 316.524 189.531 316.524C187.177 316.524 185.328 315.8 183.984 314.353C182.651 312.894 181.984 310.847 181.984 308.212C181.984 305.722 182.719 303.696 184.188 302.134C185.667 300.561 187.5 299.774 189.688 299.774C191.875 299.774 193.568 300.478 194.766 301.884C195.964 303.29 196.562 305.243 196.562 307.743V309.134ZM193.062 306.571C193.052 305.269 192.745 304.259 192.141 303.54C191.536 302.811 190.703 302.446 189.641 302.446C188.599 302.446 187.714 302.826 186.984 303.587C186.266 304.347 185.823 305.342 185.656 306.571H193.062ZM209.297 303.603C208.859 303.259 208.229 303.087 207.406 303.087C206.333 303.087 205.438 303.571 204.719 304.54C204 305.509 203.641 306.826 203.641 308.493V316.149H200.016V300.149H203.641V303.446H203.703C204.057 302.321 204.599 301.446 205.328 300.821C206.068 300.186 206.891 299.868 207.797 299.868C208.453 299.868 208.953 299.967 209.297 300.165V303.603Z" fill="white"/>
<path d="M287.202 269.29L289.067 269.051L290 268.811L290.595 268.737L291.777 268.497L292.452 268.34L293.047 268.265L295.001 267.554L295.339 267.315L296.352 266.686L297.373 265.975L297.8 265.504L298.306 265.107L299.319 264.156L299.487 263.685L299.914 263.214L300.251 262.743L301.015 261.718L301.442 261.164L302.117 259.742L302.712 258.642L302.792 257.849L303.218 257.295L303.476 256.427V255.881L303.725 254.93L304.151 254.062L304.24 253.194L304.489 252.723L304.915 251.781L304.826 251.301L305.679 248.54L305.928 248.069L306.106 246.969L306.274 246.415V245.704L306.523 244.282L306.781 243.811L307.03 242.786L307.118 241.835L307.376 240.81L307.545 239.785L307.882 238.76L307.793 237.817L308.22 236.949L308.14 236.156L308.309 234.899L308.478 234.345L308.557 233.08L308.646 231.898L308.815 230.798L308.895 230.319V229.534L308.815 228.98L308.895 228.508L309.064 227.954L309.153 226.929V226.375L309.064 225.35L309.153 224.879L309.241 223.854V223.3L309.153 222.672L308.984 221.175L308.726 219.993L308.557 219.439L308.389 218.968L308.14 218.489L307.625 217.463L307.376 216.91L306.95 216.438L306.017 215.653L305.084 214.942L304.658 214.471L303.982 214.074L302.455 213.123L301.184 212.578L300.678 212.42L300.003 212.338L299.319 212.098L297.968 211.941L297.036 211.867L296.52 211.784L295.001 211.709L293.98 211.784L292.798 211.867L291.27 212.098L290.417 212.181L289.147 212.495L288.641 212.578L287.37 212.892L286.358 213.363L285.336 213.917L284.741 214.314L284.066 214.545L282.964 215.256L281.774 216.438L281.356 216.91L280.761 217.306L280.077 218.257L279.402 219.282L279.064 219.753L278.976 220.307L278.22 221.332L277.874 221.886L277.368 222.829L276.941 223.937L276.604 224.879L276.355 225.433L275.84 226.458L275.671 227.483L275.253 228.037L274.907 230.005L274.738 231.113L274.658 231.584L274.401 232.138L274.232 233.08V234.188L274.063 234.742L273.557 235.527L273.637 235.998L273.468 236.552V237.024L273.299 237.577L273.05 238.049V238.603L272.793 239.553V240.578L272.535 241.521L272.286 242.943L272.117 243.497L271.949 244.522L272.117 244.919L271.771 246.018V246.572L271.602 247.672V248.308L271.265 249.408L271.096 251.144V251.698L271.185 252.326L270.927 253.12V254.616L270.758 255.17L271.016 256.749L271.096 257.22L271.185 258.32L271.353 258.799L271.433 259.345L271.602 259.824L271.771 260.213L271.86 260.693L272.117 261.238V261.718L272.793 262.743L273.219 263.297L273.468 263.768L273.894 264.156L274.152 264.553L275.333 265.818L276.861 267L278.043 267.711L278.638 268.026L279.908 268.34L280.592 268.422L282.538 268.968L283.302 269.051L283.897 269.133L284.999 269.051L287.202 269.29ZM286.526 258.56L286.011 258.485L285.336 258.32L284.661 258.088L284.235 257.692L283.728 256.981L283.559 256.666L283.302 256.113V253.905L283.044 253.351L283.391 252.566L283.471 251.615L283.213 251.07L283.471 250.516V249.962L283.728 248.78V248.151L283.897 247.597V246.969L284.066 246.258L283.977 245.944L284.146 245.39L284.066 244.753L284.492 243.654L284.741 243.1L284.661 242.472L284.741 241.918V241.364L284.91 240.264L285.078 239.71L285.425 238.446L285.674 237.817L285.842 236.635L286.011 236.081L286.1 235.527L286.358 234.262L286.606 233.163L286.944 232.055L287.033 231.584L287.282 230.484L287.37 229.848V229.691L287.877 228.037L288.046 227.401L288.214 226.855L288.73 225.83L289.067 225.276L289.405 224.325L290 223.457L290.844 222.746L292.203 222.275L292.878 222.118L294.486 222.043L295.845 222.589L296.44 223.3L296.778 223.78L297.116 225.35L296.947 226.458L296.867 227.483L296.689 228.905V229.93L296.52 230.641L296.272 231.741L296.103 232.369L296.014 233.403L296.103 233.948L295.934 234.502L295.765 235.13L295.588 236.081L295.25 237.263L295.339 238.603L295.081 239.074L294.912 240.578L294.664 241.207L294.406 241.918L294.237 243.728L293.98 244.919L293.731 245.621L293.811 245.861V246.49L293.553 246.969L293.473 247.597L293.216 248.622L292.967 249.176L292.878 250.276L292.629 250.912L292.452 252.012L292.283 252.566L292.034 253.748V254.376L291.865 254.93L291.35 256.038L290.764 257.138L289.573 257.931L288.81 258.245L287.628 258.56H286.526Z" fill="white"/>
<path d="M244 317.666C240.771 317.666 238.182 316.619 236.234 314.525C234.297 312.431 233.328 309.707 233.328 306.353C233.328 302.749 234.318 299.874 236.297 297.728C238.276 295.582 240.964 294.509 244.359 294.509C247.505 294.509 250.036 295.551 251.953 297.634C253.88 299.718 254.844 302.442 254.844 305.806C254.844 309.462 253.859 312.353 251.891 314.478C249.922 316.603 247.292 317.666 244 317.666ZM244.172 297.775C242.12 297.775 240.448 298.541 239.156 300.072C237.875 301.603 237.234 303.619 237.234 306.119C237.234 308.608 237.859 310.613 239.109 312.134C240.359 313.655 241.995 314.416 244.016 314.416C246.161 314.416 247.854 313.692 249.094 312.244C250.333 310.796 250.953 308.77 250.953 306.166C250.953 303.488 250.349 301.421 249.141 299.962C247.943 298.504 246.286 297.775 244.172 297.775Z" fill="#5E17EB"/>
<path d="M267.828 304.744C267.391 304.4 266.76 304.228 265.938 304.228C264.865 304.228 263.969 304.712 263.25 305.681C262.531 306.65 262.172 307.968 262.172 309.634V317.291H258.547V301.291H262.172V304.587H262.234C262.589 303.462 263.13 302.587 263.859 301.962C264.599 301.327 265.422 301.009 266.328 301.009C266.984 301.009 267.484 301.108 267.828 301.306V304.744ZM272.219 297.931C271.625 297.931 271.115 297.738 270.688 297.353C270.271 296.968 270.062 296.478 270.062 295.884C270.062 295.291 270.271 294.796 270.688 294.4C271.115 294.004 271.625 293.806 272.219 293.806C272.833 293.806 273.354 294.004 273.781 294.4C274.208 294.796 274.422 295.291 274.422 295.884C274.422 296.447 274.208 296.931 273.781 297.337C273.354 297.733 272.833 297.931 272.219 297.931ZM274.016 317.291H270.391V301.291H274.016V317.291ZM293.328 316.009C293.328 321.884 290.375 324.822 284.469 324.822C282.385 324.822 280.568 324.473 279.016 323.775V320.462C280.766 321.462 282.427 321.962 284 321.962C287.802 321.962 289.703 320.093 289.703 316.353V314.603H289.641C288.443 316.645 286.641 317.666 284.234 317.666C282.286 317.666 280.714 316.957 279.516 315.541C278.328 314.113 277.734 312.202 277.734 309.806C277.734 307.087 278.375 304.926 279.656 303.322C280.938 301.718 282.698 300.916 284.938 300.916C287.052 300.916 288.62 301.78 289.641 303.509H289.703V301.291H293.328V316.009ZM289.734 309.962V307.884C289.734 306.759 289.359 305.801 288.609 305.009C287.87 304.207 286.943 303.806 285.828 303.806C284.453 303.806 283.375 304.317 282.594 305.337C281.823 306.348 281.438 307.764 281.438 309.587C281.438 311.16 281.807 312.421 282.547 313.369C283.297 314.306 284.286 314.775 285.516 314.775C286.766 314.775 287.781 314.327 288.562 313.431C289.344 312.525 289.734 311.369 289.734 309.962ZM299.875 297.931C299.281 297.931 298.771 297.738 298.344 297.353C297.927 296.968 297.719 296.478 297.719 295.884C297.719 295.291 297.927 294.796 298.344 294.4C298.771 294.004 299.281 293.806 299.875 293.806C300.49 293.806 301.01 294.004 301.438 294.4C301.865 294.796 302.078 295.291 302.078 295.884C302.078 296.447 301.865 296.931 301.438 297.337C301.01 297.733 300.49 297.931 299.875 297.931ZM301.672 317.291H298.047V301.291H301.672V317.291ZM320.672 317.291H317.047V308.275C317.047 305.285 315.99 303.791 313.875 303.791C312.771 303.791 311.859 304.207 311.141 305.041C310.422 305.863 310.062 306.905 310.062 308.166V317.291H306.422V301.291H310.062V303.947H310.125C311.323 301.926 313.052 300.916 315.312 300.916C317.052 300.916 318.38 301.483 319.297 302.619C320.214 303.744 320.672 305.374 320.672 307.509V317.291ZM337.391 317.291H333.875V314.791H333.812C332.708 316.707 331.089 317.666 328.953 317.666C327.38 317.666 326.146 317.238 325.25 316.384C324.365 315.53 323.922 314.4 323.922 312.994C323.922 309.973 325.661 308.212 329.141 307.712L333.891 307.041C333.891 304.759 332.807 303.619 330.641 303.619C328.734 303.619 327.016 304.275 325.484 305.587V302.416C327.172 301.416 329.12 300.916 331.328 300.916C335.37 300.916 337.391 302.905 337.391 306.884V317.291ZM333.891 309.431L330.531 309.9C329.49 310.035 328.703 310.291 328.172 310.666C327.651 311.03 327.391 311.676 327.391 312.603C327.391 313.28 327.63 313.837 328.109 314.275C328.599 314.702 329.25 314.916 330.062 314.916C331.167 314.916 332.078 314.53 332.797 313.759C333.526 312.978 333.891 311.999 333.891 310.822V309.431ZM345.469 317.291H341.828V293.603H345.469V317.291Z" fill="white"/>
<path d="M432.146 268.187H433.923L434.429 268.104L435.7 268.187H436.464L436.97 268.104L437.654 268.187H440.701L441.128 266.533L441.385 265.111L441.634 264.004L441.972 262.821L442.14 262.268L442.398 261.085L442.567 259.986V259.506L442.736 258.961L442.993 258.167L443.073 257.621L443.42 256.514L443.757 255.331L444.006 254.224L444.263 253.198L444.175 252.727L444.352 252.256L444.521 251.305L444.69 250.52L444.939 249.652L445.276 248.627V248.073L445.454 247.287L445.871 246.891L446.129 246.494L446.298 245.865L446.635 245.469L446.973 244.526L447.568 243.575L447.826 243.104L448.074 242.707L448.59 242.236L449.096 241.211L449.771 240.269L450.446 238.847L450.962 238.053L451.468 237.028L451.806 236.482L452.143 236.003L452.996 234.978L453.076 234.506L453.502 234.035L453.671 233.638L454.266 232.696L454.435 232.216L454.693 231.671L455.11 230.646L455.963 229.298L456.132 228.827L456.469 228.356L456.549 227.884L457.233 226.934L457.74 225.834L458.246 225.355L459.01 223.858L459.179 223.387L459.516 222.907L459.685 222.362L460.369 221.494L460.707 220.543L461.044 220.154L461.551 219.204L461.64 218.65L461.977 218.179L462.483 217.236L462.652 216.757L463.336 215.889L463.505 215.5L463.754 214.475V213.45L462.821 212.97L461.133 213.053L460.2 212.896H457.997L456.638 212.97L455.368 212.813L452.57 212.97L451.974 213.284L451.13 214.318L450.624 215.103L450.366 215.574L449.94 216.6L449.434 217.707L448.67 219.286L448.501 219.832L448.332 220.312L447.657 221.337L447.568 221.882L447.231 222.362L446.724 223.387L445.871 225.28L445.365 226.148L444.939 227.091L444.263 228.041L444.175 228.513L443.837 229.067L443.331 230.009L443.162 230.406L442.993 230.877L442.736 231.274L442.398 231.191L442.318 230.009L441.972 227.959L441.803 227.016V226.305L441.554 225.512L441.465 224.486L441.554 223.701L441.216 222.907L441.039 222.362L440.79 221.254L440.87 220.783L440.701 218.575L440.364 217.939V217.154L440.115 216.525V214.706L439.857 213.921L438.925 212.97H437.654L435.362 212.896L434.429 213.053L433.834 212.97L432.99 213.053L431.8 212.97L429.597 213.053L428.922 213.127L428.495 213.284L428.247 213.921V214.706L428.327 215.732L428.495 216.839L428.584 217.311L428.664 218.336L429.011 220.7L429.348 221.808V222.362L429.517 223.544L429.775 224.098L429.686 225.04L429.854 225.669L430.023 227.645L430.112 228.273L430.53 229.455L430.787 230.72V231.274L430.956 232.299L431.294 233.324L431.551 234.267L431.631 234.82L431.889 236.242L432.146 237.425L432.058 237.896L432.226 239.004L432.484 239.558V240.186L432.733 241.368L432.91 242.55L433.079 243.104L432.99 243.732L433.079 244.443L433.328 245.237L433.417 246.18L432.99 247.519L432.91 248.47L432.564 249.338V249.883L432.484 250.363L432.146 251.388L431.889 252.645V253.438L431.631 254.066L431.382 255.174L431.214 256.356L430.956 256.91L430.787 257.936L430.698 258.804L430.281 260.54L430.023 261.242V262.11L429.854 262.59L429.775 263.136L429.686 263.615L429.517 264.161L429.597 264.64L429.428 265.665L429.259 266.608L429.348 267.633L430.281 268.104H431.551L432.146 268.187Z" fill="white"/>
<path d="M376.578 316.187H372.75V293.781H376.578V316.187Z" fill="#5E17EB"/>
<path d="M395.953 316.187H392.328V307.171C392.328 304.182 391.271 302.687 389.156 302.687C388.052 302.687 387.141 303.103 386.422 303.937C385.703 304.76 385.344 305.801 385.344 307.062V316.187H381.703V300.187H385.344V302.843H385.406C386.604 300.822 388.333 299.812 390.594 299.812C392.333 299.812 393.661 300.379 394.578 301.515C395.495 302.64 395.953 304.27 395.953 306.406V316.187ZM414.641 316.187H411.016V307.171C411.016 304.182 409.958 302.687 407.844 302.687C406.74 302.687 405.828 303.103 405.109 303.937C404.391 304.76 404.031 305.801 404.031 307.062V316.187H400.391V300.187H404.031V302.843H404.094C405.292 300.822 407.021 299.812 409.281 299.812C411.021 299.812 412.349 300.379 413.266 301.515C414.182 302.64 414.641 304.27 414.641 306.406V316.187ZM426.172 316.562C423.703 316.562 421.729 315.817 420.25 314.327C418.781 312.827 418.047 310.843 418.047 308.374C418.047 305.687 418.812 303.588 420.344 302.077C421.885 300.567 423.958 299.812 426.562 299.812C429.062 299.812 431.01 300.546 432.406 302.015C433.802 303.484 434.5 305.52 434.5 308.124C434.5 310.676 433.745 312.723 432.234 314.265C430.734 315.796 428.714 316.562 426.172 316.562ZM426.344 302.702C424.927 302.702 423.807 303.197 422.984 304.187C422.161 305.176 421.75 306.541 421.75 308.281C421.75 309.958 422.167 311.281 423 312.249C423.833 313.208 424.948 313.687 426.344 313.687C427.771 313.687 428.865 313.213 429.625 312.265C430.396 311.317 430.781 309.968 430.781 308.218C430.781 306.458 430.396 305.098 429.625 304.14C428.865 303.182 427.771 302.702 426.344 302.702ZM451.984 300.187L445.797 316.187H441.875L435.984 300.187H439.922L443.469 311.374C443.74 312.197 443.906 312.916 443.969 313.531H444.016C444.109 312.76 444.255 312.062 444.453 311.437L448.172 300.187H451.984ZM466.203 316.187H462.688V313.687H462.625C461.521 315.603 459.901 316.562 457.766 316.562C456.193 316.562 454.958 316.135 454.062 315.281C453.177 314.426 452.734 313.296 452.734 311.89C452.734 308.869 454.474 307.109 457.953 306.609L462.703 305.937C462.703 303.656 461.62 302.515 459.453 302.515C457.547 302.515 455.828 303.171 454.297 304.484V301.312C455.984 300.312 457.932 299.812 460.141 299.812C464.182 299.812 466.203 301.801 466.203 305.781V316.187ZM462.703 308.327L459.344 308.796C458.302 308.932 457.516 309.187 456.984 309.562C456.464 309.926 456.203 310.572 456.203 311.499C456.203 312.176 456.443 312.734 456.922 313.171C457.411 313.598 458.062 313.812 458.875 313.812C459.979 313.812 460.891 313.426 461.609 312.656C462.339 311.874 462.703 310.895 462.703 309.718V308.327ZM479.078 316.015C478.37 316.369 477.438 316.546 476.281 316.546C473.177 316.546 471.625 315.057 471.625 312.077V303.031H468.953V300.187H471.625V296.484L475.25 295.452V300.187H479.078V303.031H475.25V311.031C475.25 311.978 475.422 312.656 475.766 313.062C476.109 313.468 476.682 313.671 477.484 313.671C478.099 313.671 478.63 313.494 479.078 313.14V316.015ZM484.031 296.827C483.438 296.827 482.927 296.635 482.5 296.249C482.083 295.864 481.875 295.374 481.875 294.781C481.875 294.187 482.083 293.692 482.5 293.296C482.927 292.9 483.438 292.702 484.031 292.702C484.646 292.702 485.167 292.9 485.594 293.296C486.021 293.692 486.234 294.187 486.234 294.781C486.234 295.343 486.021 295.827 485.594 296.234C485.167 296.629 484.646 296.827 484.031 296.827ZM485.828 316.187H482.203V300.187H485.828V316.187ZM504.359 300.187L498.172 316.187H494.25L488.359 300.187H492.297L495.844 311.374C496.115 312.197 496.281 312.916 496.344 313.531H496.391C496.484 312.76 496.63 312.062 496.828 311.437L500.547 300.187H504.359ZM520.125 309.171H509.219C509.26 310.65 509.714 311.791 510.578 312.593C511.453 313.395 512.651 313.796 514.172 313.796C515.88 313.796 517.448 313.286 518.875 312.265V315.187C517.417 316.103 515.49 316.562 513.094 316.562C510.74 316.562 508.891 315.838 507.547 314.39C506.214 312.932 505.547 310.885 505.547 308.249C505.547 305.76 506.281 303.734 507.75 302.171C509.229 300.598 511.062 299.812 513.25 299.812C515.438 299.812 517.13 300.515 518.328 301.921C519.526 303.327 520.125 305.281 520.125 307.781V309.171ZM516.625 306.609C516.615 305.307 516.307 304.296 515.703 303.577C515.099 302.848 514.266 302.484 513.203 302.484C512.161 302.484 511.276 302.864 510.547 303.624C509.828 304.385 509.385 305.379 509.219 306.609H516.625Z" fill="white"/>
</svg>
