<svg width="391" height="161" viewBox="0 0 391 161" fill="none" xmlns="http://www.w3.org/2000/svg">
<mask id="path-1-outside-1_514_1109" maskUnits="userSpaceOnUse" x="-2" y="12.6528" width="221" height="76" fill="black">
<rect fill="white" x="-2" y="12.6528" width="221" height="76"/>
<path d="M2.76562 37.6528L2.76562 15.2466L9.23437 15.2466C17.4948 15.2466 21.625 18.8872 21.625 26.1685C21.625 29.6268 20.4792 32.408 18.1875 34.5122C15.8958 36.606 12.8229 37.6528 8.96875 37.6528H2.76562ZM6.46875 18.4028L6.46875 34.5122H9.4375C12.0521 34.5122 14.0833 33.7935 15.5312 32.356C16.9896 30.9185 17.7187 28.8872 17.7187 26.2622C17.7187 21.0226 15.0052 18.4028 9.57812 18.4028H6.46875ZM47.9125 37.6528H35.3344L35.3344 15.2466L47.4125 15.2466V18.4028H39.0531V24.7466H46.7562V27.8872H39.0531L39.0531 34.5122H47.9125V37.6528ZM60.4656 36.7622L60.4656 32.9341C60.8094 33.2466 61.2156 33.5278 61.6844 33.7778C62.1635 34.0278 62.6688 34.2414 63.2 34.4185C63.7313 34.5851 64.2625 34.7153 64.7938 34.8091C65.325 34.9028 65.8146 34.9497 66.2625 34.9497C67.825 34.9497 68.9865 34.6893 69.7469 34.1685C70.5177 33.6476 70.9031 32.8924 70.9031 31.9028C70.9031 31.3716 70.7729 30.9132 70.5125 30.5278C70.2625 30.132 69.9083 29.7726 69.45 29.4497C68.9917 29.1268 68.45 28.8195 67.825 28.5278C67.2104 28.2257 66.549 27.9132 65.8406 27.5903C65.0802 27.1841 64.3719 26.7726 63.7156 26.356C63.0594 25.9393 62.4865 25.481 61.9969 24.981C61.5177 24.4705 61.1375 23.8976 60.8563 23.2622C60.5854 22.6268 60.45 21.882 60.45 21.0278C60.45 19.9757 60.6844 19.0643 61.1531 18.2935C61.6323 17.5122 62.2573 16.8716 63.0281 16.3716C63.8094 15.8612 64.6948 15.4862 65.6844 15.2466C66.674 14.9966 67.6844 14.8716 68.7156 14.8716C71.0594 14.8716 72.7677 15.1372 73.8406 15.6685V19.3403C72.5698 18.4237 70.9344 17.9653 68.9344 17.9653C68.3823 17.9653 67.8302 18.0174 67.2781 18.1216C66.7365 18.2257 66.2469 18.3976 65.8094 18.6372C65.3823 18.8768 65.0333 19.1841 64.7625 19.5591C64.4917 19.9341 64.3563 20.3872 64.3563 20.9185C64.3563 21.4185 64.4604 21.8507 64.6688 22.2153C64.8771 22.5799 65.1792 22.9132 65.575 23.2153C65.9813 23.5174 66.4708 23.8143 67.0438 24.106C67.6271 24.3872 68.299 24.6945 69.0594 25.0278C69.8406 25.4341 70.575 25.8612 71.2625 26.3091C71.9604 26.757 72.5698 27.2518 73.0906 27.7935C73.6219 28.3351 74.0385 28.9393 74.3406 29.606C74.6531 30.2622 74.8094 31.0122 74.8094 31.856C74.8094 32.9914 74.5802 33.9497 74.1219 34.731C73.6635 35.5122 73.0438 36.1476 72.2625 36.6372C71.4917 37.1268 70.601 37.481 69.5906 37.6997C68.5802 37.9185 67.5125 38.0278 66.3875 38.0278C66.0125 38.0278 65.549 37.9966 64.9969 37.9341C64.4552 37.882 63.8979 37.7987 63.325 37.6841C62.7521 37.5799 62.2104 37.4497 61.7 37.2935C61.1896 37.1372 60.7781 36.9601 60.4656 36.7622ZM92.3469 37.6528H88.5188V15.2466H92.3469V37.6528ZM124.963 36.1216C122.629 37.3924 120.03 38.0278 117.166 38.0278C113.853 38.0278 111.171 36.9966 109.119 34.9341C107.067 32.8716 106.041 30.1424 106.041 26.7466C106.041 23.2778 107.16 20.4341 109.4 18.2153C111.65 15.9862 114.504 14.8716 117.963 14.8716C120.452 14.8716 122.546 15.2362 124.244 15.9653V19.7935C122.525 18.6476 120.478 18.0747 118.103 18.0747C115.718 18.0747 113.759 18.8612 112.228 20.4341C110.707 22.007 109.947 24.0435 109.947 26.5435C109.947 29.1164 110.603 31.1424 111.916 32.6216C113.228 34.0903 115.009 34.8247 117.259 34.8247C118.801 34.8247 120.134 34.5278 121.259 33.9341V28.606L116.541 28.606V25.481L124.963 25.481V36.1216ZM158.391 37.6528H154.328L143.625 21.1841C143.354 20.7674 143.13 20.3351 142.953 19.8872H142.859C142.943 20.3664 142.984 21.3924 142.984 22.9653V37.6528H139.391V15.2466L143.719 15.2466L154.062 31.3247C154.5 31.9914 154.781 32.4497 154.906 32.6997H154.969C154.865 32.106 154.812 31.1007 154.812 29.6841V15.2466H158.391V37.6528ZM17.1406 66.4028H10.7031L10.7031 85.6528H6.98437L6.98437 66.4028H0.5625L0.5625 63.2466H17.1406V66.4028ZM48.0219 85.6528H44.2875V75.9341H33.7406V85.6528H30.0219L30.0219 63.2466L33.7406 63.2466V72.6685H44.2875V63.2466H48.0219V85.6528ZM66.9656 85.6528H63.1375V63.2466H66.9656L66.9656 85.6528ZM101.097 85.6528H97.0344L86.3313 69.1841C86.0604 68.7674 85.8365 68.3351 85.6594 67.8872H85.5656C85.649 68.3664 85.6906 69.3924 85.6906 70.9653V85.6528H82.0969L82.0969 63.2466H86.425L96.7688 79.3247C97.2063 79.9914 97.4875 80.4497 97.6125 80.6997H97.675C97.5708 80.106 97.5188 79.1007 97.5188 77.6841L97.5188 63.2466H101.097L101.097 85.6528ZM133.213 85.6528H128.369L120.572 75.4028C120.28 75.0174 120.103 74.757 120.041 74.6216H119.978V85.6528H116.259L116.259 63.2466H119.978L119.978 73.7778H120.041C120.166 73.5487 120.343 73.2935 120.572 73.0122L128.088 63.2466H132.541L123.744 73.9966L133.213 85.6528ZM149.234 85.6528H145.406V63.2466H149.234V85.6528ZM183.366 85.6528H179.303L168.6 69.1841C168.329 68.7674 168.105 68.3351 167.928 67.8872H167.834C167.918 68.3664 167.959 69.3924 167.959 70.9653V85.6528H164.366V63.2466L168.694 63.2466L179.038 79.3247C179.475 79.9914 179.756 80.4497 179.881 80.6997H179.944C179.84 80.106 179.788 79.1007 179.788 77.6841V63.2466H183.366V85.6528ZM216.012 84.1216C213.679 85.3924 211.08 86.0278 208.216 86.0278C204.903 86.0278 202.221 84.9966 200.169 82.9341C198.117 80.8716 197.091 78.1424 197.091 74.7466C197.091 71.2778 198.21 68.4341 200.45 66.2153C202.7 63.9862 205.554 62.8716 209.012 62.8716C211.502 62.8716 213.596 63.2362 215.294 63.9653V67.7935C213.575 66.6476 211.528 66.0747 209.153 66.0747C206.768 66.0747 204.809 66.8612 203.278 68.4341C201.757 70.007 200.997 72.0435 200.997 74.5435C200.997 77.1164 201.653 79.1424 202.966 80.6216C204.278 82.0903 206.059 82.8247 208.309 82.8247C209.851 82.8247 211.184 82.5278 212.309 81.9341V76.606H207.591V73.481H216.012V84.1216Z"/>
</mask>
<path d="M2.76562 37.6528H0.765625L0.765625 39.6528H2.76562V37.6528ZM2.76562 15.2466V13.2466H0.765625L0.765625 15.2466H2.76562ZM18.1875 34.5122L19.5365 35.9887L19.5402 35.9854L18.1875 34.5122ZM6.46875 18.4028V16.4028H4.46875V18.4028H6.46875ZM6.46875 34.5122H4.46875V36.5122H6.46875V34.5122ZM15.5312 32.356L14.1272 30.9316L14.1222 30.9366L15.5312 32.356ZM4.76562 37.6528L4.76562 15.2466H0.765625L0.765625 37.6528H4.76562ZM2.76562 17.2466H9.23437V13.2466L2.76562 13.2466L2.76562 17.2466ZM9.23437 17.2466C13.114 17.2466 15.6502 18.107 17.2049 19.4774C18.7114 20.8053 19.625 22.9062 19.625 26.1685H23.625C23.625 22.1495 22.4735 18.7894 19.8498 16.4767C17.2743 14.2065 13.6152 13.2466 9.23437 13.2466V17.2466ZM19.625 26.1685C19.625 29.1362 18.6655 31.3581 16.8348 33.039L19.5402 35.9854C22.2928 33.4579 23.625 30.1174 23.625 26.1685H19.625ZM16.8385 33.0357C14.9989 34.7164 12.4496 35.6528 8.96875 35.6528V39.6528C13.1962 39.6528 16.7928 38.4955 19.5365 35.9887L16.8385 33.0357ZM8.96875 35.6528H2.76562L2.76562 39.6528H8.96875V35.6528ZM4.46875 18.4028L4.46875 34.5122H8.46875L8.46875 18.4028H4.46875ZM6.46875 36.5122H9.4375V32.5122H6.46875V36.5122ZM9.4375 36.5122C12.4245 36.5122 15.0203 35.6815 16.9403 33.7753L14.1222 30.9366C13.1464 31.9054 11.6796 32.5122 9.4375 32.5122V36.5122ZM16.9353 33.7803C18.8746 31.8686 19.7187 29.2642 19.7187 26.2622L15.7187 26.2622C15.7187 28.5102 15.1045 29.9683 14.1272 30.9316L16.9353 33.7803ZM19.7187 26.2622C19.7187 23.3159 18.952 20.7431 17.0727 18.9288C15.2066 17.1272 12.5827 16.4028 9.57812 16.4028V20.4028C12.0006 20.4028 13.4471 20.9884 14.2945 21.8065C15.1288 22.612 15.7187 23.9689 15.7187 26.2622L19.7187 26.2622ZM9.57812 16.4028H6.46875V20.4028H9.57812V16.4028ZM47.9125 37.6528V39.6528H49.9125V37.6528H47.9125ZM35.3344 37.6528L33.3344 37.6528V39.6528L35.3344 39.6528V37.6528ZM35.3344 15.2466V13.2466H33.3344V15.2466H35.3344ZM47.4125 15.2466H49.4125V13.2466H47.4125V15.2466ZM47.4125 18.4028V20.4028H49.4125V18.4028H47.4125ZM39.0531 18.4028V16.4028H37.0531V18.4028H39.0531ZM39.0531 24.7466H37.0531V26.7466H39.0531V24.7466ZM46.7562 24.7466H48.7562V22.7466H46.7562V24.7466ZM46.7562 27.8872V29.8872H48.7562V27.8872H46.7562ZM39.0531 27.8872V25.8872H37.0531V27.8872H39.0531ZM39.0531 34.5122H37.0531V36.5122H39.0531V34.5122ZM47.9125 34.5122H49.9125L49.9125 32.5122H47.9125L47.9125 34.5122ZM47.9125 35.6528H35.3344V39.6528H47.9125V35.6528ZM37.3344 37.6528L37.3344 15.2466H33.3344L33.3344 37.6528L37.3344 37.6528ZM35.3344 17.2466H47.4125V13.2466L35.3344 13.2466V17.2466ZM45.4125 15.2466V18.4028H49.4125V15.2466H45.4125ZM47.4125 16.4028L39.0531 16.4028V20.4028H47.4125V16.4028ZM37.0531 18.4028V24.7466H41.0531V18.4028H37.0531ZM39.0531 26.7466H46.7562V22.7466H39.0531V26.7466ZM44.7562 24.7466V27.8872H48.7562V24.7466H44.7562ZM46.7562 25.8872H39.0531V29.8872H46.7562V25.8872ZM37.0531 27.8872L37.0531 34.5122H41.0531L41.0531 27.8872H37.0531ZM39.0531 36.5122H47.9125L47.9125 32.5122H39.0531L39.0531 36.5122ZM45.9125 34.5122V37.6528H49.9125V34.5122H45.9125ZM60.4656 36.7622H58.4656V37.8629L59.3955 38.4518L60.4656 36.7622ZM60.4656 32.9341L61.811 31.4542L58.4656 28.413V32.9341H60.4656ZM61.6844 33.7778L60.7432 35.5425L60.7512 35.5468L60.7592 35.551L61.6844 33.7778ZM63.2 34.4185L62.5675 36.3158L62.5844 36.3214L62.6013 36.3268L63.2 34.4185ZM69.7469 34.1685L68.6271 32.5112L68.6167 32.5184L69.7469 34.1685ZM70.5125 30.5278L68.8215 31.5958L68.838 31.6219L68.8553 31.6475L70.5125 30.5278ZM69.45 29.4497L70.6019 27.8147L69.45 29.4497ZM67.825 28.5278L66.9428 30.3227L66.9609 30.3316L66.9792 30.3402L67.825 28.5278ZM65.8406 27.5903L64.8982 29.3544L64.9537 29.384L65.011 29.4101L65.8406 27.5903ZM61.9969 24.981L60.5387 26.3498L60.5531 26.3652L60.5679 26.3802L61.9969 24.981ZM60.8563 23.2622L59.0164 24.0464L59.0218 24.0591L59.0274 24.0717L60.8563 23.2622ZM61.1531 18.2935L59.4482 17.2478L59.4443 17.2543L61.1531 18.2935ZM63.0281 16.3716L64.1165 18.0495L64.122 18.0459L63.0281 16.3716ZM65.6844 15.2466L66.155 17.1904L66.1646 17.1881L66.1742 17.1857L65.6844 15.2466ZM73.8406 15.6685H75.8406V14.427L74.7281 13.8761L73.8406 15.6685ZM73.8406 19.3403L72.6706 20.9624L75.8406 23.249V19.3403H73.8406ZM67.2781 18.1216L66.9073 16.1562L66.9004 16.1576L67.2781 18.1216ZM65.8094 18.6372L64.8487 16.883L64.8398 16.8879L64.8309 16.8929L65.8094 18.6372ZM65.575 23.2153L64.3617 24.8052L64.3716 24.8128L64.3816 24.8203L65.575 23.2153ZM67.0437 24.106L66.1364 25.8883L66.1557 25.8981L66.1752 25.9075L67.0437 24.106ZM69.0594 25.0278L69.9821 23.2534L69.9232 23.2228L69.8623 23.1961L69.0594 25.0278ZM71.2625 26.3091L70.1707 27.9848L70.1823 27.9923L71.2625 26.3091ZM73.0906 27.7935L71.649 29.1797L71.6558 29.1868L71.6628 29.1939L73.0906 27.7935ZM74.3406 29.606L72.5189 30.4314L72.5267 30.4487L72.5349 30.4658L74.3406 29.606ZM72.2625 36.6372L71.2005 34.9425L71.1902 34.9489L72.2625 36.6372ZM64.9969 37.9341L65.2219 35.9468L65.2051 35.9449L65.1883 35.9433L64.9969 37.9341ZM63.325 37.6841L63.7172 35.7229L63.7 35.7195L63.6828 35.7163L63.325 37.6841ZM62.4656 36.7622L62.4656 32.9341H58.4656L58.4656 36.7622H62.4656ZM59.1203 34.414C59.6025 34.8523 60.1489 35.2256 60.7432 35.5425L62.6256 32.0131C62.2823 31.8301 62.0163 31.6408 61.811 31.4542L59.1203 34.414ZM60.7592 35.551C61.3358 35.8518 61.9392 36.1064 62.5675 36.3158L63.8325 32.5211C63.3983 32.3764 62.9912 32.2038 62.6095 32.0047L60.7592 35.551ZM62.6013 36.3268C63.2122 36.5184 63.8273 36.6694 64.4462 36.7786L65.1413 32.8395C64.6977 32.7612 64.2503 32.6518 63.7987 32.5102L62.6013 36.3268ZM64.4462 36.7786C65.0698 36.8887 65.6773 36.9497 66.2625 36.9497V32.9497C65.9518 32.9497 65.5802 32.917 65.1413 32.8395L64.4462 36.7786ZM66.2625 36.9497C67.9775 36.9497 69.6241 36.6767 70.8771 35.8185L68.6167 32.5184C68.3489 32.7019 67.6725 32.9497 66.2625 32.9497V36.9497ZM70.8666 35.8256C72.2283 34.9056 72.9031 33.5064 72.9031 31.9028H68.9031C68.9031 32.2784 68.8072 32.3897 68.6272 32.5113L70.8666 35.8256ZM72.9031 31.9028C72.9031 31.031 72.6842 30.1696 72.1697 29.4081L68.8553 31.6475C68.8617 31.6569 68.9031 31.7122 68.9031 31.9028H72.9031ZM72.2035 29.4598C71.788 28.802 71.2339 28.26 70.6019 27.8147L68.2981 31.0847C68.5828 31.2853 68.737 31.462 68.8215 31.5958L72.2035 29.4598ZM70.6019 27.8147C70.0279 27.4104 69.3795 27.0462 68.6708 26.7155L66.9792 30.3402C67.5205 30.5928 67.9554 30.8432 68.2981 31.0847L70.6019 27.8147ZM68.7072 26.7329C68.0731 26.4212 67.3939 26.1004 66.6702 25.7705L65.011 29.4101C65.704 29.7261 66.3478 30.0303 66.9428 30.3227L68.7072 26.7329ZM66.7831 25.8263C66.0621 25.4411 65.3974 25.0547 64.7876 24.6675L62.6436 28.0444C63.3464 28.4906 64.0983 28.927 64.8982 29.3544L66.7831 25.8263ZM64.7876 24.6675C64.247 24.3243 63.7969 23.9606 63.4259 23.5817L60.5679 26.3802C61.176 27.0013 61.8718 27.5543 62.6436 28.0444L64.7876 24.6675ZM63.455 23.6121C63.1289 23.2647 62.8745 22.8806 62.6851 22.4527L59.0274 24.0717C59.4005 24.9147 59.9065 25.6764 60.5387 26.3498L63.455 23.6121ZM62.6961 22.478C62.5528 22.1418 62.45 21.6744 62.45 21.0278H58.45C58.45 22.0896 58.6181 23.1118 59.0164 24.0464L62.6961 22.478ZM62.45 21.0278C62.45 20.2805 62.6134 19.7414 62.862 19.3326L59.4443 17.2543C58.7554 18.3872 58.45 19.671 58.45 21.0278H62.45ZM62.858 19.3391C63.1809 18.8126 63.5951 18.3877 64.1165 18.0495L61.9397 14.6937C60.9195 15.3554 60.0836 16.2118 59.4482 17.2478L62.858 19.3391ZM64.122 18.0459C64.6958 17.6711 65.3669 17.3812 66.155 17.1904L65.2138 13.3027C64.0227 13.5911 62.923 14.0513 61.9342 14.6972L64.122 18.0459ZM66.1742 17.1857C67.002 16.9765 67.8478 16.8716 68.7156 16.8716V12.8716C67.5209 12.8716 66.3459 13.0166 65.1945 13.3075L66.1742 17.1857ZM68.7156 16.8716C70.9919 16.8716 72.3116 17.1431 72.9532 17.4608L74.7281 13.8761C73.2238 13.1313 71.1269 12.8716 68.7156 12.8716V16.8716ZM71.8406 15.6685V19.3403H75.8406V15.6685H71.8406ZM75.0106 17.7183C73.3155 16.4956 71.2379 15.9653 68.9344 15.9653V19.9653C70.6308 19.9653 71.8241 20.3518 72.6706 20.9624L75.0106 17.7183ZM68.9344 15.9653C68.2557 15.9653 67.5795 16.0294 66.9073 16.1563L67.6489 20.0869C68.0809 20.0054 68.5089 19.9653 68.9344 19.9653V15.9653ZM66.9004 16.1576C66.1761 16.2969 65.4867 16.5337 64.8487 16.883L66.77 20.3914C67.0071 20.2616 67.2968 20.1546 67.6558 20.0856L66.9004 16.1576ZM64.8309 16.8929C64.1656 17.2661 63.592 17.7639 63.1411 18.3881L66.3839 20.7301C66.4747 20.6043 66.599 20.4874 66.7879 20.3815L64.8309 16.8929ZM63.1411 18.3881C62.5888 19.1529 62.3563 20.0316 62.3563 20.9185H66.3562C66.3562 20.8232 66.3683 20.7723 66.3741 20.7528C66.3791 20.7359 66.3825 20.732 66.3839 20.7301L63.1411 18.3881ZM62.3563 20.9185C62.3563 21.7 62.521 22.4879 62.9323 23.2076L66.4052 21.2231C66.3998 21.2136 66.3562 21.137 66.3562 20.9185H62.3563ZM62.9323 23.2076C63.2955 23.8433 63.7921 24.3706 64.3617 24.8052L66.7883 21.6254C66.5663 21.4559 66.4586 21.3165 66.4052 21.2231L62.9323 23.2076ZM64.3816 24.8203C64.8983 25.2045 65.4887 25.5585 66.1364 25.8883L67.9511 22.3236C67.453 22.07 67.0642 21.8303 66.7684 21.6104L64.3816 24.8203ZM66.1752 25.9075C66.7852 26.2016 67.4797 26.5191 68.2564 26.8596L69.8623 23.1961C69.1182 22.8699 68.4689 22.5728 67.9123 22.3044L66.1752 25.9075ZM68.1367 26.8023C68.8642 27.1806 69.5417 27.575 70.1707 27.9848L72.3543 24.6334C71.6083 24.1473 70.8171 23.6876 69.9821 23.2534L68.1367 26.8023ZM70.1823 27.9923C70.7619 28.3643 71.2471 28.7617 71.649 29.1797L74.5323 26.4072C73.8925 25.7418 73.1589 25.1497 72.3427 24.6259L70.1823 27.9923ZM71.6628 29.1939C72.0362 29.5746 72.317 29.9857 72.5189 30.4314L76.1623 28.7805C75.7601 27.8928 75.2076 27.0956 74.5185 26.393L71.6628 29.1939ZM72.5349 30.4658C72.7005 30.8135 72.8094 31.262 72.8094 31.856H76.8094C76.8094 30.7624 76.6058 29.7109 76.1463 28.7461L72.5349 30.4658ZM72.8094 31.856C72.8094 32.7248 72.6348 33.3133 72.3968 33.7189L75.8469 35.743C76.5256 34.5861 76.8094 33.258 76.8094 31.856H72.8094ZM72.3968 33.7189C72.1044 34.2175 71.7141 34.6206 71.2005 34.9425L73.3245 38.3319C74.3734 37.6746 75.2227 36.807 75.8469 35.743L72.3968 33.7189ZM71.1902 34.9489C70.6428 35.2966 69.9776 35.5696 69.1674 35.745L70.0138 39.6544C71.2245 39.3923 72.3405 38.957 73.3348 38.3255L71.1902 34.9489ZM69.1674 35.745C68.3077 35.9311 67.3826 36.0278 66.3875 36.0278V40.0278C67.6424 40.0278 68.8528 39.9058 70.0138 39.6544L69.1674 35.745ZM66.3875 36.0278C66.1141 36.0278 65.7311 36.0044 65.2219 35.9468L64.7719 39.9214C65.3668 39.9887 65.9109 40.0278 66.3875 40.0278V36.0278ZM65.1883 35.9433C64.7187 35.8981 64.2286 35.8252 63.7172 35.7229L62.9328 39.6452C63.5673 39.7721 64.1917 39.8659 64.8055 39.9249L65.1883 35.9433ZM63.6828 35.7163C63.1799 35.6249 62.7147 35.5125 62.2854 35.3811L61.1146 39.2059C61.7061 39.3869 62.3243 39.5349 62.9672 39.6518L63.6828 35.7163ZM62.2854 35.3811C61.8773 35.2561 61.6469 35.143 61.5357 35.0726L59.3955 38.4518C59.9093 38.7773 60.5018 39.0183 61.1146 39.2059L62.2854 35.3811ZM92.3469 37.6528V39.6528H94.3469V37.6528H92.3469ZM88.5188 37.6528H86.5188V39.6528H88.5188V37.6528ZM88.5188 15.2466V13.2466H86.5188V15.2466H88.5188ZM92.3469 15.2466L94.3469 15.2466V13.2466L92.3469 13.2466V15.2466ZM92.3469 35.6528H88.5188V39.6528H92.3469V35.6528ZM90.5188 37.6528V15.2466H86.5188V37.6528H90.5188ZM88.5188 17.2466H92.3469V13.2466H88.5188V17.2466ZM90.3469 15.2466V37.6528H94.3469V15.2466L90.3469 15.2466ZM124.963 36.1216L125.919 37.878L126.963 37.3097V36.1216H124.963ZM109.4 18.2153L110.808 19.6361L110.808 19.6361L109.4 18.2153ZM124.244 15.9653H126.244V14.6476L125.033 14.1276L124.244 15.9653ZM124.244 19.7935L123.134 21.4576L126.244 23.5305V19.7935H124.244ZM112.228 20.4341L110.795 19.039L110.79 19.0439L112.228 20.4341ZM111.916 32.6216L110.42 33.949L110.424 33.9542L111.916 32.6216ZM121.259 33.9341L122.193 35.7029L123.259 35.14V33.9341H121.259ZM121.259 28.606H123.259V26.606H121.259V28.606ZM116.541 28.606H114.541V30.606H116.541V28.606ZM116.541 25.481V23.481H114.541V25.481H116.541ZM124.963 25.481H126.963V23.481H124.963V25.481ZM124.006 34.3652C121.989 35.4638 119.723 36.0278 117.166 36.0278V40.0278C120.338 40.0278 123.27 39.321 125.919 37.878L124.006 34.3652ZM117.166 36.0278C114.305 36.0278 112.16 35.1554 110.537 33.5235L107.701 36.3447C110.181 38.8378 113.401 40.0278 117.166 40.0278V36.0278ZM110.537 33.5235C108.92 31.8983 108.041 29.7091 108.041 26.7466H104.041C104.041 30.5758 105.214 33.8449 107.701 36.3447L110.537 33.5235ZM108.041 26.7466C108.041 23.7526 108.987 21.4398 110.808 19.6361L107.992 16.7945C105.334 19.4284 104.041 22.803 104.041 26.7466H108.041ZM110.808 19.6361C112.647 17.8139 114.978 16.8716 117.963 16.8716V12.8716C114.03 12.8716 110.653 14.1585 107.992 16.7946L110.808 19.6361ZM117.963 16.8716C120.27 16.8716 122.076 17.2112 123.455 17.803L125.033 14.1276C123.015 13.2611 120.635 12.8716 117.963 12.8716V16.8716ZM122.244 15.9653V19.7935H126.244V15.9653H122.244ZM125.353 18.1294C123.259 16.733 120.812 16.0747 118.103 16.0747V20.0747C120.144 20.0747 121.791 20.5622 123.134 21.4576L125.353 18.1294ZM118.103 16.0747C115.23 16.0747 112.737 17.0437 110.795 19.039L113.661 21.8292C114.781 20.6786 116.206 20.0747 118.103 20.0747V16.0747ZM110.79 19.0439C108.857 21.0435 107.947 23.6047 107.947 26.5435H111.947C111.947 24.4823 112.558 22.9705 113.666 21.8243L110.79 19.0439ZM107.947 26.5435C107.947 29.4548 108.695 32.005 110.42 33.949L113.412 31.2942C112.512 30.2799 111.947 28.7779 111.947 26.5435H107.947ZM110.424 33.9542C112.172 35.9102 114.53 36.8247 117.259 36.8247V32.8247C115.489 32.8247 114.284 32.2705 113.407 31.2889L110.424 33.9542ZM117.259 36.8247C119.058 36.8247 120.725 36.4774 122.193 35.7029L120.326 32.1653C119.543 32.5782 118.544 32.8247 117.259 32.8247V36.8247ZM123.259 33.9341V28.606H119.259V33.9341H123.259ZM121.259 26.606L116.541 26.606V30.606L121.259 30.606V26.606ZM118.541 28.606V25.481L114.541 25.481V28.606L118.541 28.606ZM116.541 27.481L124.963 27.481V23.481L116.541 23.481V27.481ZM122.963 25.481V36.1216H126.963V25.481H122.963ZM158.391 37.6528V39.6528H160.391V37.6528H158.391ZM154.328 37.6528L152.651 38.7427L153.243 39.6528H154.328V37.6528ZM143.625 21.1841L145.302 20.0942L145.302 20.0941L143.625 21.1841ZM142.953 19.8872L144.813 19.1519L144.313 17.8872H142.953V19.8872ZM142.859 19.8872V17.8872H140.482L140.889 20.2299L142.859 19.8872ZM142.984 37.6528V39.6528H144.984V37.6528H142.984ZM139.391 37.6528H137.391V39.6528H139.391V37.6528ZM139.391 15.2466V13.2466H137.391V15.2466H139.391ZM143.719 15.2466L145.401 14.1645L144.81 13.2466H143.719V15.2466ZM154.062 31.3247L152.381 32.4068L152.385 32.4144L152.39 32.422L154.062 31.3247ZM154.906 32.6997L153.117 33.5941L153.67 34.6997H154.906V32.6997ZM154.969 32.6997V34.6997H157.35L156.939 32.3541L154.969 32.6997ZM154.812 15.2466V13.2466H152.812V15.2466H154.812ZM158.391 15.2466L160.391 15.2466V13.2466L158.391 13.2466V15.2466ZM158.391 35.6528H154.328V39.6528H158.391V35.6528ZM156.005 36.563L145.302 20.0942L141.948 22.2739L152.651 38.7427L156.005 36.563ZM145.302 20.0941C145.101 19.7857 144.94 19.4719 144.813 19.1519L141.093 20.6225C141.321 21.1983 141.607 21.7491 141.948 22.2741L145.302 20.0941ZM142.953 17.8872H142.859V21.8872H142.953V17.8872ZM140.889 20.2299C140.937 20.5076 140.984 21.3534 140.984 22.9653H144.984C144.984 21.4314 144.948 20.2252 144.83 19.5445L140.889 20.2299ZM140.984 22.9653V37.6528H144.984V22.9653H140.984ZM142.984 35.6528H139.391V39.6528H142.984V35.6528ZM141.391 37.6528V15.2466H137.391V37.6528H141.391ZM139.391 17.2466H143.719V13.2466L139.391 13.2466V17.2466ZM142.037 16.3287L152.381 32.4068L155.744 30.2426L145.401 14.1645L142.037 16.3287ZM152.39 32.422C152.836 33.1015 153.053 33.4651 153.117 33.5941L156.695 31.8053C156.51 31.4343 156.164 30.8813 155.735 30.2274L152.39 32.422ZM154.906 34.6997H154.969V30.6997H154.906V34.6997ZM156.939 32.3541C156.867 31.9483 156.812 31.0977 156.812 29.6841H152.812C152.812 31.1038 152.862 32.2636 152.999 33.0453L156.939 32.3541ZM156.812 29.6841V15.2466H152.812V29.6841H156.812ZM154.812 17.2466H158.391V13.2466H154.812V17.2466ZM156.391 15.2466V37.6528H160.391V15.2466L156.391 15.2466ZM17.1406 66.4028V68.4028H19.1406V66.4028H17.1406ZM10.7031 66.4028V64.4028H8.70312V66.4028H10.7031ZM10.7031 85.6528V87.6528H12.7031V85.6528H10.7031ZM6.98437 85.6528H4.98437V87.6528H6.98437V85.6528ZM6.98437 66.4028H8.98437V64.4028H6.98437V66.4028ZM0.5625 66.4028H-1.4375L-1.4375 68.4028H0.5625L0.5625 66.4028ZM0.5625 63.2466L0.5625 61.2466H-1.4375L-1.4375 63.2466H0.5625ZM17.1406 63.2466H19.1406V61.2466H17.1406V63.2466ZM17.1406 64.4028H10.7031V68.4028H17.1406V64.4028ZM8.70312 66.4028L8.70312 85.6528H12.7031L12.7031 66.4028H8.70312ZM10.7031 83.6528H6.98437V87.6528H10.7031V83.6528ZM8.98437 85.6528L8.98437 66.4028H4.98437L4.98437 85.6528H8.98437ZM6.98437 64.4028H0.5625L0.5625 68.4028H6.98437V64.4028ZM2.5625 66.4028L2.5625 63.2466H-1.4375L-1.4375 66.4028H2.5625ZM0.5625 65.2466H17.1406V61.2466H0.5625L0.5625 65.2466ZM15.1406 63.2466V66.4028H19.1406V63.2466H15.1406ZM48.0219 85.6528V87.6528H50.0219V85.6528H48.0219ZM44.2875 85.6528H42.2875V87.6528H44.2875V85.6528ZM44.2875 75.9341H46.2875V73.9341H44.2875V75.9341ZM33.7406 75.9341V73.9341H31.7406V75.9341H33.7406ZM33.7406 85.6528V87.6528H35.7406V85.6528H33.7406ZM30.0219 85.6528H28.0219V87.6528H30.0219V85.6528ZM30.0219 63.2466V61.2466H28.0219V63.2466H30.0219ZM33.7406 63.2466H35.7406V61.2466H33.7406V63.2466ZM33.7406 72.6685H31.7406V74.6685H33.7406V72.6685ZM44.2875 72.6685V74.6685H46.2875V72.6685H44.2875ZM44.2875 63.2466V61.2466H42.2875V63.2466H44.2875ZM48.0219 63.2466H50.0219V61.2466H48.0219V63.2466ZM48.0219 83.6528H44.2875V87.6528H48.0219V83.6528ZM46.2875 85.6528V75.9341H42.2875V85.6528H46.2875ZM44.2875 73.9341H33.7406V77.9341H44.2875V73.9341ZM31.7406 75.9341L31.7406 85.6528H35.7406V75.9341H31.7406ZM33.7406 83.6528H30.0219L30.0219 87.6528H33.7406V83.6528ZM32.0219 85.6528V63.2466H28.0219L28.0219 85.6528H32.0219ZM30.0219 65.2466H33.7406V61.2466L30.0219 61.2466V65.2466ZM31.7406 63.2466V72.6685H35.7406V63.2466L31.7406 63.2466ZM33.7406 74.6685H44.2875V70.6685H33.7406V74.6685ZM46.2875 72.6685V63.2466H42.2875V72.6685H46.2875ZM44.2875 65.2466H48.0219V61.2466H44.2875V65.2466ZM46.0219 63.2466V85.6528H50.0219V63.2466H46.0219ZM66.9656 85.6528V87.6528L68.9656 87.6528V85.6528L66.9656 85.6528ZM63.1375 85.6528H61.1375V87.6528H63.1375V85.6528ZM63.1375 63.2466V61.2466H61.1375V63.2466H63.1375ZM66.9656 63.2466H68.9656V61.2466H66.9656V63.2466ZM66.9656 83.6528H63.1375V87.6528H66.9656V83.6528ZM65.1375 85.6528L65.1375 63.2466H61.1375V85.6528H65.1375ZM63.1375 65.2466H66.9656V61.2466H63.1375V65.2466ZM64.9656 63.2466L64.9656 85.6528L68.9656 85.6528L68.9656 63.2466H64.9656ZM101.097 85.6528V87.6528H103.097V85.6528H101.097ZM97.0344 85.6528L95.3574 86.7427L95.9489 87.6528H97.0344V85.6528ZM86.3313 69.1841L88.0082 68.0942L88.0081 68.0941L86.3313 69.1841ZM85.6594 67.8872L87.5193 67.1519L87.0193 65.8872H85.6594V67.8872ZM85.5656 67.8872V65.8872H83.1878L83.5952 68.2299L85.5656 67.8872ZM85.6906 85.6528V87.6528H87.6906V85.6528H85.6906ZM82.0969 85.6528H80.0969V87.6528H82.0969V85.6528ZM82.0969 63.2466V61.2466H80.0969V63.2466H82.0969ZM86.425 63.2466L88.107 62.1645L87.5165 61.2466H86.425V63.2466ZM96.7688 79.3247L95.0868 80.4068L95.0917 80.4144L95.0967 80.422L96.7688 79.3247ZM97.6125 80.6997L95.8236 81.5941L96.3764 82.6997H97.6125V80.6997ZM97.675 80.6997V82.6997H100.056L99.6449 80.3541L97.675 80.6997ZM97.5188 63.2466V61.2466H95.5188V63.2466H97.5188ZM101.097 63.2466L103.097 63.2466V61.2466L101.097 61.2466V63.2466ZM101.097 83.6528H97.0344V87.6528H101.097V83.6528ZM98.7113 84.563L88.0082 68.0942L84.6543 70.2739L95.3574 86.7427L98.7113 84.563ZM88.0081 68.0941C87.8077 67.7857 87.6458 67.4719 87.5193 67.1519L83.7995 68.6225C84.0271 69.1983 84.3132 69.7491 84.6544 70.2741L88.0081 68.0941ZM85.6594 65.8872H85.5656L85.5656 69.8872H85.6594L85.6594 65.8872ZM83.5952 68.2299C83.6435 68.5076 83.6906 69.3534 83.6906 70.9653H87.6906C87.6906 69.4314 87.6544 68.2252 87.536 67.5445L83.5952 68.2299ZM83.6906 70.9653V85.6528H87.6906V70.9653H83.6906ZM85.6906 83.6528H82.0969V87.6528H85.6906V83.6528ZM84.0969 85.6528L84.0969 63.2466H80.0969L80.0969 85.6528H84.0969ZM82.0969 65.2466H86.425V61.2466H82.0969V65.2466ZM84.743 64.3287L95.0868 80.4068L98.4507 78.2426L88.107 62.1645L84.743 64.3287ZM95.0967 80.422C95.5425 81.1015 95.7591 81.4651 95.8236 81.5941L99.4014 79.8053C99.2159 79.4343 98.87 78.8813 98.4408 78.2274L95.0967 80.422ZM97.6125 82.6997H97.675V78.6997H97.6125V82.6997ZM99.6449 80.3541C99.5737 79.9483 99.5188 79.0976 99.5188 77.6841H95.5188C95.5188 79.1038 95.568 80.2636 95.7051 81.0453L99.6449 80.3541ZM99.5188 77.6841L99.5188 63.2466H95.5188L95.5188 77.6841H99.5188ZM97.5188 65.2466H101.097V61.2466H97.5188V65.2466ZM99.0969 63.2466L99.0969 85.6528H103.097L103.097 63.2466L99.0969 63.2466ZM133.212 85.6528V87.6528H137.414L134.765 84.3918L133.212 85.6528ZM128.369 85.6528L126.777 86.8637L127.377 87.6528H128.369V85.6528ZM120.572 75.4028L118.977 76.6097L118.98 76.6137L120.572 75.4028ZM120.041 74.6216L121.857 73.7835L121.32 72.6216H120.041V74.6216ZM119.978 74.6216V72.6216H117.978V74.6216H119.978ZM119.978 85.6528V87.6528H121.978V85.6528H119.978ZM116.259 85.6528H114.259V87.6528H116.259V85.6528ZM116.259 63.2466V61.2466H114.259V63.2466H116.259ZM119.978 63.2466H121.978V61.2466H119.978V63.2466ZM119.978 73.7778H117.978V75.7778H119.978V73.7778ZM120.041 73.7778V75.7778H121.228L121.796 74.7355L120.041 73.7778ZM120.572 73.0122L122.122 74.2756L122.14 74.254L122.157 74.232L120.572 73.0122ZM128.087 63.2466V61.2466H127.103L126.503 62.0268L128.087 63.2466ZM132.541 63.2466L134.088 64.5132L136.762 61.2466H132.541V63.2466ZM123.744 73.9966L122.196 72.73L121.163 73.9919L122.191 75.2576L123.744 73.9966ZM133.212 83.6528H128.369V87.6528H133.212V83.6528ZM129.961 84.442L122.164 74.192L118.98 76.6137L126.777 86.8637L129.961 84.442ZM122.167 74.1959C122.032 74.0176 121.937 73.8856 121.874 73.7938C121.843 73.7483 121.827 73.7218 121.82 73.711C121.81 73.6947 121.829 73.7234 121.857 73.7835L118.225 75.4597C118.395 75.8279 118.715 76.2639 118.977 76.6097L122.167 74.1959ZM120.041 72.6216H119.978V76.6216H120.041V72.6216ZM117.978 74.6216V85.6528H121.978V74.6216H117.978ZM119.978 83.6528H116.259V87.6528H119.978V83.6528ZM118.259 85.6528L118.259 63.2466H114.259L114.259 85.6528H118.259ZM116.259 65.2466H119.978V61.2466H116.259V65.2466ZM117.978 63.2466L117.978 73.7778H121.978L121.978 63.2466H117.978ZM119.978 75.7778H120.041V71.7778H119.978V75.7778ZM121.796 74.7355C121.845 74.6469 121.943 74.4953 122.122 74.2756L119.021 71.7489C118.742 72.0916 118.486 72.4504 118.285 72.8201L121.796 74.7355ZM122.157 74.232L129.672 64.4664L126.503 62.0268L118.987 71.7924L122.157 74.232ZM128.087 65.2466H132.541V61.2466H128.087V65.2466ZM130.993 61.98L122.196 72.73L125.292 75.2632L134.088 64.5132L130.993 61.98ZM122.191 75.2576L131.66 86.9139L134.765 84.3918L125.296 72.7355L122.191 75.2576ZM149.234 85.6528V87.6528H151.234V85.6528H149.234ZM145.406 85.6528H143.406V87.6528H145.406V85.6528ZM145.406 63.2466V61.2466H143.406V63.2466H145.406ZM149.234 63.2466H151.234V61.2466H149.234V63.2466ZM149.234 83.6528H145.406V87.6528H149.234V83.6528ZM147.406 85.6528V63.2466H143.406V85.6528H147.406ZM145.406 65.2466H149.234V61.2466H145.406V65.2466ZM147.234 63.2466V85.6528H151.234V63.2466H147.234ZM183.366 85.6528V87.6528H185.366V85.6528H183.366ZM179.303 85.6528L177.626 86.7427L178.218 87.6528H179.303V85.6528ZM168.6 69.1841L170.277 68.0942L170.277 68.0941L168.6 69.1841ZM167.928 67.8872L169.788 67.1519L169.288 65.8872H167.928V67.8872ZM167.834 67.8872V65.8872H165.457L165.864 68.2299L167.834 67.8872ZM167.959 85.6528V87.6528H169.959V85.6528H167.959ZM164.366 85.6528H162.366V87.6528H164.366V85.6528ZM164.366 63.2466V61.2466H162.366V63.2466H164.366ZM168.694 63.2466L170.376 62.1645L169.785 61.2466H168.694V63.2466ZM179.038 79.3247L177.356 80.4068L177.36 80.4144L177.365 80.422L179.038 79.3247ZM179.881 80.6997L178.092 81.5941L178.645 82.6997H179.881V80.6997ZM179.944 80.6997V82.6997H182.325L181.914 80.3541L179.944 80.6997ZM179.788 63.2466V61.2466H177.788V63.2466H179.788ZM183.366 63.2466H185.366V61.2466H183.366V63.2466ZM183.366 83.6528H179.303V87.6528H183.366V83.6528ZM180.98 84.563L170.277 68.0942L166.923 70.2739L177.626 86.7427L180.98 84.563ZM170.277 68.0941C170.076 67.7857 169.915 67.4719 169.788 67.1519L166.068 68.6225C166.296 69.1983 166.582 69.7491 166.923 70.2741L170.277 68.0941ZM167.928 65.8872H167.834V69.8872H167.928V65.8872ZM165.864 68.2299C165.912 68.5076 165.959 69.3534 165.959 70.9653H169.959C169.959 69.4314 169.923 68.2252 169.805 67.5445L165.864 68.2299ZM165.959 70.9653V85.6528H169.959V70.9653H165.959ZM167.959 83.6528H164.366V87.6528H167.959V83.6528ZM166.366 85.6528V63.2466H162.366V85.6528H166.366ZM164.366 65.2466H168.694V61.2466L164.366 61.2466V65.2466ZM167.012 64.3287L177.356 80.4068L180.719 78.2426L170.376 62.1645L167.012 64.3287ZM177.365 80.422C177.811 81.1015 178.028 81.4651 178.092 81.5941L181.67 79.8053C181.485 79.4343 181.139 78.8813 180.71 78.2274L177.365 80.422ZM179.881 82.6997H179.944V78.6997H179.881V82.6997ZM181.914 80.3541C181.842 79.9483 181.788 79.0976 181.788 77.6841H177.788C177.788 79.1038 177.837 80.2636 177.974 81.0453L181.914 80.3541ZM181.788 77.6841V63.2466H177.788V77.6841H181.788ZM179.788 65.2466H183.366V61.2466H179.788V65.2466ZM181.366 63.2466V85.6528H185.366V63.2466H181.366ZM216.012 84.1216L216.969 85.878L218.012 85.3097V84.1216H216.012ZM200.45 66.2153L201.858 67.6361L201.858 67.6361L200.45 66.2153ZM215.294 63.9653H217.294V62.6476L216.083 62.1276L215.294 63.9653ZM215.294 67.7935L214.184 69.4576L217.294 71.5305V67.7935H215.294ZM203.278 68.4341L201.845 67.039L201.84 67.0439L203.278 68.4341ZM202.966 80.6216L201.47 81.949L201.474 81.9542L202.966 80.6216ZM212.309 81.9341L213.243 83.7029L214.309 83.14V81.9341H212.309ZM212.309 76.606H214.309V74.606H212.309V76.606ZM207.591 76.606H205.591V78.606H207.591V76.606ZM207.591 73.481V71.481H205.591V73.481H207.591ZM216.012 73.481H218.012V71.481H216.012V73.481ZM215.056 82.3652C213.039 83.4638 210.773 84.0278 208.216 84.0278V88.0278C211.388 88.0278 214.32 87.321 216.969 85.878L215.056 82.3652ZM208.216 84.0278C205.355 84.0278 203.21 83.1554 201.587 81.5235L198.751 84.3447C201.231 86.8378 204.451 88.0278 208.216 88.0278V84.0278ZM201.587 81.5235C199.97 79.8983 199.091 77.7091 199.091 74.7466H195.091C195.091 78.5758 196.264 81.8449 198.751 84.3447L201.587 81.5235ZM199.091 74.7466C199.091 71.7526 200.037 69.4398 201.858 67.6361L199.042 64.7945C196.384 67.4284 195.091 70.803 195.091 74.7466H199.091ZM201.858 67.6361C203.697 65.8139 206.028 64.8716 209.012 64.8716V60.8716C205.08 60.8716 201.703 62.1585 199.042 64.7946L201.858 67.6361ZM209.012 64.8716C211.32 64.8716 213.126 65.2112 214.505 65.803L216.083 62.1276C214.065 61.2611 211.685 60.8716 209.012 60.8716V64.8716ZM213.294 63.9653V67.7935H217.294V63.9653H213.294ZM216.403 66.1294C214.309 64.733 211.862 64.0747 209.153 64.0747V68.0747C211.194 68.0747 212.841 68.5622 214.184 69.4576L216.403 66.1294ZM209.153 64.0747C206.28 64.0747 203.787 65.0437 201.845 67.039L204.711 69.8292C205.831 68.6786 207.256 68.0747 209.153 68.0747V64.0747ZM201.84 67.0439C199.907 69.0435 198.997 71.6047 198.997 74.5435L202.997 74.5435C202.997 72.4823 203.608 70.9705 204.716 69.8243L201.84 67.0439ZM198.997 74.5435C198.997 77.4548 199.745 80.005 201.47 81.949L204.462 79.2942C203.562 78.2799 202.997 76.7779 202.997 74.5435L198.997 74.5435ZM201.474 81.9542C203.222 83.9102 205.58 84.8247 208.309 84.8247V80.8247C206.539 80.8247 205.334 80.2705 204.457 79.2889L201.474 81.9542ZM208.309 84.8247C210.108 84.8247 211.775 84.4774 213.243 83.7029L211.376 80.1653C210.593 80.5782 209.594 80.8247 208.309 80.8247V84.8247ZM214.309 81.9341V76.606H210.309V81.9341H214.309ZM212.309 74.606H207.591V78.606H212.309V74.606ZM209.591 76.606V73.481H205.591V76.606H209.591ZM207.591 75.481H216.012V71.481H207.591V75.481ZM214.012 73.481V84.1216H218.012V73.481H214.012Z" fill="#42E9C1" mask="url(#path-1-outside-1_514_1109)"/>
<path d="M1.46875 131.653V120.45H4.5625C8.51042 120.45 10.4844 122.27 10.4844 125.911C10.4844 127.64 9.9349 129.03 8.83594 130.083C7.74219 131.129 6.27604 131.653 4.4375 131.653H1.46875ZM2.78125 121.637V130.465H4.45312C5.92188 130.465 7.0651 130.072 7.88281 129.286C8.70052 128.499 9.10938 127.385 9.10938 125.942C9.10938 123.072 7.58333 121.637 4.53125 121.637H2.78125ZM13.1719 121.622C12.9427 121.622 12.7474 121.543 12.5859 121.387C12.4245 121.231 12.3438 121.033 12.3438 120.793C12.3438 120.554 12.4245 120.356 12.5859 120.2C12.7474 120.038 12.9427 119.958 13.1719 119.958C13.4062 119.958 13.6042 120.038 13.7656 120.2C13.9323 120.356 14.0156 120.554 14.0156 120.793C14.0156 121.023 13.9323 121.218 13.7656 121.379C13.6042 121.541 13.4062 121.622 13.1719 121.622ZM13.7969 131.653H12.5156V123.653H13.7969V131.653ZM15.9062 131.364V129.989C16.6042 130.504 17.3724 130.762 18.2109 130.762C19.3359 130.762 19.8984 130.387 19.8984 129.637C19.8984 129.424 19.849 129.244 19.75 129.098C19.6562 128.947 19.526 128.814 19.3594 128.7C19.1979 128.585 19.0052 128.484 18.7812 128.395C18.5625 128.301 18.3255 128.205 18.0703 128.106C17.7161 127.965 17.4036 127.825 17.1328 127.684C16.8672 127.538 16.6432 127.377 16.4609 127.2C16.2839 127.017 16.1484 126.812 16.0547 126.583C15.9661 126.353 15.9219 126.085 15.9219 125.778C15.9219 125.403 16.0078 125.072 16.1797 124.786C16.3516 124.494 16.5807 124.252 16.8672 124.059C17.1536 123.861 17.4792 123.713 17.8438 123.614C18.2135 123.515 18.5938 123.465 18.9844 123.465C19.6771 123.465 20.2969 123.585 20.8438 123.825V125.122C20.2552 124.736 19.5781 124.543 18.8125 124.543C18.5729 124.543 18.3568 124.572 18.1641 124.629C17.9714 124.681 17.8047 124.757 17.6641 124.856C17.5286 124.955 17.4219 125.075 17.3438 125.215C17.2708 125.351 17.2344 125.502 17.2344 125.668C17.2344 125.877 17.2708 126.051 17.3438 126.192C17.4219 126.333 17.5339 126.458 17.6797 126.567C17.8255 126.676 18.0026 126.775 18.2109 126.864C18.4193 126.952 18.6562 127.049 18.9219 127.153C19.276 127.288 19.5938 127.429 19.875 127.575C20.1562 127.715 20.3958 127.877 20.5938 128.059C20.7917 128.236 20.9427 128.442 21.0469 128.676C21.1562 128.911 21.2109 129.189 21.2109 129.512C21.2109 129.908 21.1224 130.252 20.9453 130.543C20.7734 130.835 20.5417 131.077 20.25 131.27C19.9583 131.463 19.6224 131.606 19.2422 131.7C18.862 131.793 18.4635 131.84 18.0469 131.84C17.224 131.84 16.5104 131.681 15.9062 131.364ZM29.6172 127.973H23.9688C23.9896 128.864 24.2292 129.551 24.6875 130.036C25.1458 130.52 25.776 130.762 26.5781 130.762C27.4792 130.762 28.3073 130.465 29.0625 129.872V131.075C28.3594 131.585 27.4297 131.84 26.2734 131.84C25.1432 131.84 24.2552 131.478 23.6094 130.754C22.9635 130.025 22.6406 129.002 22.6406 127.684C22.6406 126.439 22.9922 125.426 23.6953 124.645C24.4036 123.859 25.2812 123.465 26.3281 123.465C27.375 123.465 28.1849 123.804 28.7578 124.481C29.3307 125.158 29.6172 126.098 29.6172 127.301V127.973ZM28.3047 126.887C28.2995 126.148 28.1198 125.572 27.7656 125.161C27.4167 124.749 26.9297 124.543 26.3047 124.543C25.7005 124.543 25.1875 124.76 24.7656 125.192C24.3438 125.624 24.0833 126.189 23.9844 126.887H28.3047ZM38.2031 131.653H36.9219V127.09C36.9219 125.392 36.3021 124.543 35.0625 124.543C34.4219 124.543 33.8906 124.786 33.4688 125.27C33.0521 125.749 32.8438 126.356 32.8438 127.09V131.653H31.5625V123.653H32.8438V124.981H32.875C33.4792 123.971 34.3542 123.465 35.5 123.465C36.375 123.465 37.0443 123.749 37.5078 124.317C37.9714 124.879 38.2031 125.694 38.2031 126.762V131.653ZM37.3594 120.262C37.3594 120.809 37.2344 121.257 36.9844 121.606C36.7344 121.95 36.3958 122.122 35.9688 122.122C35.599 122.122 35.1771 121.986 34.7031 121.715C34.3021 121.491 33.9922 121.379 33.7734 121.379C33.3151 121.379 33.0859 121.674 33.0859 122.262H32.3516C32.3516 121.705 32.4766 121.26 32.7266 120.926C32.9766 120.588 33.3255 120.418 33.7734 120.418C34.112 120.418 34.5 120.554 34.9375 120.825C35.3229 121.054 35.6562 121.168 35.9375 121.168C36.375 121.168 36.5938 120.866 36.5938 120.262H37.3594ZM46.3516 131.653H45.0703V130.403H45.0391C44.4818 131.361 43.6615 131.84 42.5781 131.84C41.7812 131.84 41.1562 131.629 40.7031 131.208C40.2552 130.786 40.0312 130.226 40.0312 129.528C40.0312 128.033 40.9115 127.163 42.6719 126.918L45.0703 126.583C45.0703 125.223 44.5208 124.543 43.4219 124.543C42.4583 124.543 41.5885 124.872 40.8125 125.528V124.215C41.599 123.715 42.5052 123.465 43.5312 123.465C45.4115 123.465 46.3516 124.46 46.3516 126.45V131.653ZM45.0703 127.606L43.1406 127.872C42.5469 127.955 42.099 128.103 41.7969 128.317C41.4948 128.525 41.3438 128.898 41.3438 129.434C41.3438 129.825 41.4818 130.145 41.7578 130.395C42.0391 130.64 42.4115 130.762 42.875 130.762C43.5104 130.762 44.0339 130.541 44.4453 130.098C44.862 129.65 45.0703 129.085 45.0703 128.403V127.606ZM60.125 131.653H58.8438V127.059C58.8438 126.174 58.7057 125.533 58.4297 125.137C58.1589 124.741 57.7005 124.543 57.0547 124.543C56.5078 124.543 56.0417 124.793 55.6562 125.293C55.276 125.793 55.0859 126.392 55.0859 127.09V131.653H53.8047V126.903C53.8047 125.33 53.1979 124.543 51.9844 124.543C51.4219 124.543 50.9583 124.78 50.5938 125.254C50.2292 125.723 50.0469 126.335 50.0469 127.09V131.653H48.7656V123.653H50.0469V124.918H50.0781C50.6458 123.95 51.474 123.465 52.5625 123.465C53.1094 123.465 53.5859 123.619 53.9922 123.926C54.3984 124.228 54.6771 124.627 54.8281 125.122C55.4219 124.017 56.3073 123.465 57.4844 123.465C59.2448 123.465 60.125 124.551 60.125 126.723V131.653ZM65.8906 131.84C64.7083 131.84 63.763 131.468 63.0547 130.723C62.3516 129.973 62 128.981 62 127.747C62 126.403 62.3672 125.353 63.1016 124.598C63.8359 123.843 64.8281 123.465 66.0781 123.465C67.2708 123.465 68.2005 123.833 68.8672 124.567C69.5391 125.301 69.875 126.319 69.875 127.622C69.875 128.898 69.513 129.921 68.7891 130.692C68.0703 131.458 67.1042 131.84 65.8906 131.84ZM65.9844 124.543C65.1615 124.543 64.5104 124.825 64.0312 125.387C63.5521 125.944 63.3125 126.715 63.3125 127.7C63.3125 128.648 63.5547 129.395 64.0391 129.942C64.5234 130.489 65.1719 130.762 65.9844 130.762C66.8125 130.762 67.4479 130.494 67.8906 129.958C68.3385 129.421 68.5625 128.658 68.5625 127.668C68.5625 126.668 68.3385 125.898 67.8906 125.356C67.4479 124.814 66.8125 124.543 65.9844 124.543ZM71.4375 131.364V129.989C72.1354 130.504 72.9036 130.762 73.7422 130.762C74.8672 130.762 75.4297 130.387 75.4297 129.637C75.4297 129.424 75.3802 129.244 75.2812 129.098C75.1875 128.947 75.0573 128.814 74.8906 128.7C74.7292 128.585 74.5365 128.484 74.3125 128.395C74.0938 128.301 73.8568 128.205 73.6016 128.106C73.2474 127.965 72.9349 127.825 72.6641 127.684C72.3984 127.538 72.1745 127.377 71.9922 127.2C71.8151 127.017 71.6797 126.812 71.5859 126.583C71.4974 126.353 71.4531 126.085 71.4531 125.778C71.4531 125.403 71.5391 125.072 71.7109 124.786C71.8828 124.494 72.112 124.252 72.3984 124.059C72.6849 123.861 73.0104 123.713 73.375 123.614C73.7448 123.515 74.125 123.465 74.5156 123.465C75.2083 123.465 75.8281 123.585 76.375 123.825V125.122C75.7865 124.736 75.1094 124.543 74.3438 124.543C74.1042 124.543 73.888 124.572 73.6953 124.629C73.5026 124.681 73.3359 124.757 73.1953 124.856C73.0599 124.955 72.9531 125.075 72.875 125.215C72.8021 125.351 72.7656 125.502 72.7656 125.668C72.7656 125.877 72.8021 126.051 72.875 126.192C72.9531 126.333 73.0651 126.458 73.2109 126.567C73.3568 126.676 73.5339 126.775 73.7422 126.864C73.9505 126.952 74.1875 127.049 74.4531 127.153C74.8073 127.288 75.125 127.429 75.4062 127.575C75.6875 127.715 75.9271 127.877 76.125 128.059C76.3229 128.236 76.474 128.442 76.5781 128.676C76.6875 128.911 76.7422 129.189 76.7422 129.512C76.7422 129.908 76.6536 130.252 76.4766 130.543C76.3047 130.835 76.0729 131.077 75.7812 131.27C75.4896 131.463 75.1536 131.606 74.7734 131.7C74.3932 131.793 73.9948 131.84 73.5781 131.84C72.7552 131.84 72.0417 131.681 71.4375 131.364ZM94.4688 131.653H93.1875V127.059C93.1875 126.174 93.0495 125.533 92.7734 125.137C92.5026 124.741 92.0443 124.543 91.3984 124.543C90.8516 124.543 90.3854 124.793 90 125.293C89.6198 125.793 89.4297 126.392 89.4297 127.09V131.653H88.1484V126.903C88.1484 125.33 87.5417 124.543 86.3281 124.543C85.7656 124.543 85.3021 124.78 84.9375 125.254C84.5729 125.723 84.3906 126.335 84.3906 127.09V131.653H83.1094V123.653H84.3906V124.918H84.4219C84.9896 123.95 85.8177 123.465 86.9062 123.465C87.4531 123.465 87.9297 123.619 88.3359 123.926C88.7422 124.228 89.0208 124.627 89.1719 125.122C89.7656 124.017 90.651 123.465 91.8281 123.465C93.5885 123.465 94.4688 124.551 94.4688 126.723V131.653ZM100.234 131.84C99.0521 131.84 98.1068 131.468 97.3984 130.723C96.6953 129.973 96.3438 128.981 96.3438 127.747C96.3438 126.403 96.7109 125.353 97.4453 124.598C98.1797 123.843 99.1719 123.465 100.422 123.465C101.615 123.465 102.544 123.833 103.211 124.567C103.883 125.301 104.219 126.319 104.219 127.622C104.219 128.898 103.857 129.921 103.133 130.692C102.414 131.458 101.448 131.84 100.234 131.84ZM100.328 124.543C99.5052 124.543 98.8542 124.825 98.375 125.387C97.8958 125.944 97.6562 126.715 97.6562 127.7C97.6562 128.648 97.8984 129.395 98.3828 129.942C98.8672 130.489 99.5156 130.762 100.328 130.762C101.156 130.762 101.792 130.494 102.234 129.958C102.682 129.421 102.906 128.658 102.906 127.668C102.906 126.668 102.682 125.898 102.234 125.356C101.792 124.814 101.156 124.543 100.328 124.543ZM113.094 131.653H111.812V130.293H111.781C111.188 131.325 110.271 131.84 109.031 131.84C108.026 131.84 107.221 131.484 106.617 130.77C106.018 130.051 105.719 129.075 105.719 127.84C105.719 126.517 106.052 125.458 106.719 124.661C107.385 123.864 108.273 123.465 109.383 123.465C110.482 123.465 111.281 123.898 111.781 124.762H111.812V119.809H113.094V131.653ZM111.812 128.036V126.856C111.812 126.21 111.599 125.663 111.172 125.215C110.745 124.767 110.203 124.543 109.547 124.543C108.766 124.543 108.151 124.83 107.703 125.403C107.255 125.976 107.031 126.767 107.031 127.778C107.031 128.7 107.245 129.429 107.672 129.965C108.104 130.497 108.682 130.762 109.406 130.762C110.12 130.762 110.698 130.504 111.141 129.989C111.589 129.473 111.812 128.822 111.812 128.036ZM122.117 127.973H116.469C116.49 128.864 116.729 129.551 117.188 130.036C117.646 130.52 118.276 130.762 119.078 130.762C119.979 130.762 120.807 130.465 121.562 129.872V131.075C120.859 131.585 119.93 131.84 118.773 131.84C117.643 131.84 116.755 131.478 116.109 130.754C115.464 130.025 115.141 129.002 115.141 127.684C115.141 126.439 115.492 125.426 116.195 124.645C116.904 123.859 117.781 123.465 118.828 123.465C119.875 123.465 120.685 123.804 121.258 124.481C121.831 125.158 122.117 126.098 122.117 127.301V127.973ZM120.805 126.887C120.799 126.148 120.62 125.572 120.266 125.161C119.917 124.749 119.43 124.543 118.805 124.543C118.201 124.543 117.688 124.76 117.266 125.192C116.844 125.624 116.583 126.189 116.484 126.887H120.805ZM125.344 131.653H124.062V119.809H125.344V131.653ZM131.281 131.84C130.099 131.84 129.154 131.468 128.445 130.723C127.742 129.973 127.391 128.981 127.391 127.747C127.391 126.403 127.758 125.353 128.492 124.598C129.227 123.843 130.219 123.465 131.469 123.465C132.661 123.465 133.591 123.833 134.258 124.567C134.93 125.301 135.266 126.319 135.266 127.622C135.266 128.898 134.904 129.921 134.18 130.692C133.461 131.458 132.495 131.84 131.281 131.84ZM131.375 124.543C130.552 124.543 129.901 124.825 129.422 125.387C128.943 125.944 128.703 126.715 128.703 127.7C128.703 128.648 128.945 129.395 129.43 129.942C129.914 130.489 130.562 130.762 131.375 130.762C132.203 130.762 132.839 130.494 133.281 129.958C133.729 129.421 133.953 128.658 133.953 127.668C133.953 126.668 133.729 125.898 133.281 125.356C132.839 124.814 132.203 124.543 131.375 124.543ZM136.828 131.364V129.989C137.526 130.504 138.294 130.762 139.133 130.762C140.258 130.762 140.82 130.387 140.82 129.637C140.82 129.424 140.771 129.244 140.672 129.098C140.578 128.947 140.448 128.814 140.281 128.7C140.12 128.585 139.927 128.484 139.703 128.395C139.484 128.301 139.247 128.205 138.992 128.106C138.638 127.965 138.326 127.825 138.055 127.684C137.789 127.538 137.565 127.377 137.383 127.2C137.206 127.017 137.07 126.812 136.977 126.583C136.888 126.353 136.844 126.085 136.844 125.778C136.844 125.403 136.93 125.072 137.102 124.786C137.273 124.494 137.503 124.252 137.789 124.059C138.076 123.861 138.401 123.713 138.766 123.614C139.135 123.515 139.516 123.465 139.906 123.465C140.599 123.465 141.219 123.585 141.766 123.825V125.122C141.177 124.736 140.5 124.543 139.734 124.543C139.495 124.543 139.279 124.572 139.086 124.629C138.893 124.681 138.727 124.757 138.586 124.856C138.451 124.955 138.344 125.075 138.266 125.215C138.193 125.351 138.156 125.502 138.156 125.668C138.156 125.877 138.193 126.051 138.266 126.192C138.344 126.333 138.456 126.458 138.602 126.567C138.747 126.676 138.924 126.775 139.133 126.864C139.341 126.952 139.578 127.049 139.844 127.153C140.198 127.288 140.516 127.429 140.797 127.575C141.078 127.715 141.318 127.877 141.516 128.059C141.714 128.236 141.865 128.442 141.969 128.676C142.078 128.911 142.133 129.189 142.133 129.512C142.133 129.908 142.044 130.252 141.867 130.543C141.695 130.835 141.464 131.077 141.172 131.27C140.88 131.463 140.544 131.606 140.164 131.7C139.784 131.793 139.385 131.84 138.969 131.84C138.146 131.84 137.432 131.681 136.828 131.364ZM154.93 127.973H149.281C149.302 128.864 149.542 129.551 150 130.036C150.458 130.52 151.089 130.762 151.891 130.762C152.792 130.762 153.62 130.465 154.375 129.872V131.075C153.672 131.585 152.742 131.84 151.586 131.84C150.456 131.84 149.568 131.478 148.922 130.754C148.276 130.025 147.953 129.002 147.953 127.684C147.953 126.439 148.305 125.426 149.008 124.645C149.716 123.859 150.594 123.465 151.641 123.465C152.688 123.465 153.497 123.804 154.07 124.481C154.643 125.158 154.93 126.098 154.93 127.301V127.973ZM153.617 126.887C153.612 126.148 153.432 125.572 153.078 125.161C152.729 124.749 152.242 124.543 151.617 124.543C151.013 124.543 150.5 124.76 150.078 125.192C149.656 125.624 149.396 126.189 149.297 126.887H153.617ZM156.391 131.364V129.989C157.089 130.504 157.857 130.762 158.695 130.762C159.82 130.762 160.383 130.387 160.383 129.637C160.383 129.424 160.333 129.244 160.234 129.098C160.141 128.947 160.01 128.814 159.844 128.7C159.682 128.585 159.49 128.484 159.266 128.395C159.047 128.301 158.81 128.205 158.555 128.106C158.201 127.965 157.888 127.825 157.617 127.684C157.352 127.538 157.128 127.377 156.945 127.2C156.768 127.017 156.633 126.812 156.539 126.583C156.451 126.353 156.406 126.085 156.406 125.778C156.406 125.403 156.492 125.072 156.664 124.786C156.836 124.494 157.065 124.252 157.352 124.059C157.638 123.861 157.964 123.713 158.328 123.614C158.698 123.515 159.078 123.465 159.469 123.465C160.161 123.465 160.781 123.585 161.328 123.825V125.122C160.74 124.736 160.062 124.543 159.297 124.543C159.057 124.543 158.841 124.572 158.648 124.629C158.456 124.681 158.289 124.757 158.148 124.856C158.013 124.955 157.906 125.075 157.828 125.215C157.755 125.351 157.719 125.502 157.719 125.668C157.719 125.877 157.755 126.051 157.828 126.192C157.906 126.333 158.018 126.458 158.164 126.567C158.31 126.676 158.487 126.775 158.695 126.864C158.904 126.952 159.141 127.049 159.406 127.153C159.76 127.288 160.078 127.429 160.359 127.575C160.641 127.715 160.88 127.877 161.078 128.059C161.276 128.236 161.427 128.442 161.531 128.676C161.641 128.911 161.695 129.189 161.695 129.512C161.695 129.908 161.607 130.252 161.43 130.543C161.258 130.835 161.026 131.077 160.734 131.27C160.443 131.463 160.107 131.606 159.727 131.7C159.346 131.793 158.948 131.84 158.531 131.84C157.708 131.84 156.995 131.681 156.391 131.364ZM169.125 131.286C168.51 131.655 167.781 131.84 166.938 131.84C165.797 131.84 164.875 131.471 164.172 130.731C163.474 129.986 163.125 129.023 163.125 127.84C163.125 126.523 163.503 125.465 164.258 124.668C165.013 123.866 166.021 123.465 167.281 123.465C167.984 123.465 168.604 123.596 169.141 123.856V125.168C168.547 124.752 167.911 124.543 167.234 124.543C166.417 124.543 165.745 124.838 165.219 125.426C164.698 126.01 164.438 126.778 164.438 127.731C164.438 128.668 164.682 129.408 165.172 129.95C165.667 130.491 166.328 130.762 167.156 130.762C167.854 130.762 168.51 130.53 169.125 130.067V131.286ZM176.789 131.653H175.508V130.403H175.477C174.919 131.361 174.099 131.84 173.016 131.84C172.219 131.84 171.594 131.629 171.141 131.208C170.693 130.786 170.469 130.226 170.469 129.528C170.469 128.033 171.349 127.163 173.109 126.918L175.508 126.583C175.508 125.223 174.958 124.543 173.859 124.543C172.896 124.543 172.026 124.872 171.25 125.528V124.215C172.036 123.715 172.943 123.465 173.969 123.465C175.849 123.465 176.789 124.46 176.789 126.45V131.653ZM175.508 127.606L173.578 127.872C172.984 127.955 172.536 128.103 172.234 128.317C171.932 128.525 171.781 128.898 171.781 129.434C171.781 129.825 171.919 130.145 172.195 130.395C172.477 130.64 172.849 130.762 173.312 130.762C173.948 130.762 174.471 130.541 174.883 130.098C175.299 129.65 175.508 129.085 175.508 128.403V127.606ZM180.484 131.653H179.203V119.809H180.484V131.653ZM188.805 131.653H187.523V130.403H187.492C186.935 131.361 186.115 131.84 185.031 131.84C184.234 131.84 183.609 131.629 183.156 131.208C182.708 130.786 182.484 130.226 182.484 129.528C182.484 128.033 183.365 127.163 185.125 126.918L187.523 126.583C187.523 125.223 186.974 124.543 185.875 124.543C184.911 124.543 184.042 124.872 183.266 125.528V124.215C184.052 123.715 184.958 123.465 185.984 123.465C187.865 123.465 188.805 124.46 188.805 126.45V131.653ZM187.523 127.606L185.594 127.872C185 127.955 184.552 128.103 184.25 128.317C183.948 128.525 183.797 128.898 183.797 129.434C183.797 129.825 183.935 130.145 184.211 130.395C184.492 130.64 184.865 130.762 185.328 130.762C185.964 130.762 186.487 130.541 186.898 130.098C187.315 129.65 187.523 129.085 187.523 128.403V127.606ZM192.531 130.497H192.5V131.653H191.219V119.809H192.5V125.059H192.531C193.161 123.997 194.083 123.465 195.297 123.465C196.323 123.465 197.125 123.825 197.703 124.543C198.286 125.257 198.578 126.215 198.578 127.418C198.578 128.757 198.253 129.83 197.602 130.637C196.951 131.439 196.06 131.84 194.93 131.84C193.872 131.84 193.073 131.392 192.531 130.497ZM192.5 127.27V128.387C192.5 129.049 192.714 129.611 193.141 130.075C193.573 130.533 194.12 130.762 194.781 130.762C195.557 130.762 196.164 130.465 196.602 129.872C197.044 129.278 197.266 128.452 197.266 127.395C197.266 126.504 197.06 125.806 196.648 125.301C196.237 124.796 195.68 124.543 194.977 124.543C194.232 124.543 193.633 124.804 193.18 125.325C192.727 125.84 192.5 126.489 192.5 127.27ZM201.906 131.653H200.625V119.809H201.906V131.653ZM210.93 127.973H205.281C205.302 128.864 205.542 129.551 206 130.036C206.458 130.52 207.089 130.762 207.891 130.762C208.792 130.762 209.62 130.465 210.375 129.872V131.075C209.672 131.585 208.742 131.84 207.586 131.84C206.456 131.84 205.568 131.478 204.922 130.754C204.276 130.025 203.953 129.002 203.953 127.684C203.953 126.439 204.305 125.426 205.008 124.645C205.716 123.859 206.594 123.465 207.641 123.465C208.688 123.465 209.497 123.804 210.07 124.481C210.643 125.158 210.93 126.098 210.93 127.301V127.973ZM209.617 126.887C209.612 126.148 209.432 125.572 209.078 125.161C208.729 124.749 208.242 124.543 207.617 124.543C207.013 124.543 206.5 124.76 206.078 125.192C205.656 125.624 205.396 126.189 205.297 126.887H209.617ZM212.391 131.364V129.989C213.089 130.504 213.857 130.762 214.695 130.762C215.82 130.762 216.383 130.387 216.383 129.637C216.383 129.424 216.333 129.244 216.234 129.098C216.141 128.947 216.01 128.814 215.844 128.7C215.682 128.585 215.49 128.484 215.266 128.395C215.047 128.301 214.81 128.205 214.555 128.106C214.201 127.965 213.888 127.825 213.617 127.684C213.352 127.538 213.128 127.377 212.945 127.2C212.768 127.017 212.633 126.812 212.539 126.583C212.451 126.353 212.406 126.085 212.406 125.778C212.406 125.403 212.492 125.072 212.664 124.786C212.836 124.494 213.065 124.252 213.352 124.059C213.638 123.861 213.964 123.713 214.328 123.614C214.698 123.515 215.078 123.465 215.469 123.465C216.161 123.465 216.781 123.585 217.328 123.825V125.122C216.74 124.736 216.062 124.543 215.297 124.543C215.057 124.543 214.841 124.572 214.648 124.629C214.456 124.681 214.289 124.757 214.148 124.856C214.013 124.955 213.906 125.075 213.828 125.215C213.755 125.351 213.719 125.502 213.719 125.668C213.719 125.877 213.755 126.051 213.828 126.192C213.906 126.333 214.018 126.458 214.164 126.567C214.31 126.676 214.487 126.775 214.695 126.864C214.904 126.952 215.141 127.049 215.406 127.153C215.76 127.288 216.078 127.429 216.359 127.575C216.641 127.715 216.88 127.877 217.078 128.059C217.276 128.236 217.427 128.442 217.531 128.676C217.641 128.911 217.695 129.189 217.695 129.512C217.695 129.908 217.607 130.252 217.43 130.543C217.258 130.835 217.026 131.077 216.734 131.27C216.443 131.463 216.107 131.606 215.727 131.7C215.346 131.793 214.948 131.84 214.531 131.84C213.708 131.84 212.995 131.681 212.391 131.364ZM230.43 123.653L226.75 132.934C226.094 134.59 225.172 135.418 223.984 135.418C223.651 135.418 223.372 135.385 223.148 135.317V134.168C223.424 134.262 223.677 134.309 223.906 134.309C224.552 134.309 225.036 133.924 225.359 133.153L226 131.637L222.875 123.653H224.297L226.461 129.809C226.487 129.887 226.542 130.09 226.625 130.418H226.672C226.698 130.293 226.75 130.096 226.828 129.825L229.102 123.653H230.43ZM240.375 124.95C240.151 124.778 239.828 124.692 239.406 124.692C238.859 124.692 238.401 124.95 238.031 125.465C237.667 125.981 237.484 126.684 237.484 127.575V131.653H236.203V123.653H237.484V125.301H237.516C237.698 124.739 237.977 124.301 238.352 123.989C238.727 123.671 239.146 123.512 239.609 123.512C239.943 123.512 240.198 123.549 240.375 123.622V124.95ZM248.195 127.973H242.547C242.568 128.864 242.807 129.551 243.266 130.036C243.724 130.52 244.354 130.762 245.156 130.762C246.057 130.762 246.885 130.465 247.641 129.872V131.075C246.938 131.585 246.008 131.84 244.852 131.84C243.721 131.84 242.833 131.478 242.188 130.754C241.542 130.025 241.219 129.002 241.219 127.684C241.219 126.439 241.57 125.426 242.273 124.645C242.982 123.859 243.859 123.465 244.906 123.465C245.953 123.465 246.763 123.804 247.336 124.481C247.909 125.158 248.195 126.098 248.195 127.301V127.973ZM246.883 126.887C246.878 126.148 246.698 125.572 246.344 125.161C245.995 124.749 245.508 124.543 244.883 124.543C244.279 124.543 243.766 124.76 243.344 125.192C242.922 125.624 242.661 126.189 242.562 126.887H246.883ZM256.609 131.653H255.328V130.387H255.297C254.766 131.356 253.943 131.84 252.828 131.84C250.922 131.84 249.969 130.705 249.969 128.434V123.653H251.242V128.231C251.242 129.918 251.888 130.762 253.18 130.762C253.805 130.762 254.318 130.533 254.719 130.075C255.125 129.611 255.328 129.007 255.328 128.262V123.653H256.609V131.653ZM262.914 131.575C262.612 131.741 262.214 131.825 261.719 131.825C260.318 131.825 259.617 131.043 259.617 129.481V124.747H258.242V123.653H259.617V121.7L260.898 121.286V123.653H262.914V124.747H260.898V129.254C260.898 129.791 260.99 130.174 261.172 130.403C261.354 130.632 261.656 130.747 262.078 130.747C262.401 130.747 262.68 130.658 262.914 130.481V131.575ZM265.281 121.622C265.052 121.622 264.857 121.543 264.695 121.387C264.534 121.231 264.453 121.033 264.453 120.793C264.453 120.554 264.534 120.356 264.695 120.2C264.857 120.038 265.052 119.958 265.281 119.958C265.516 119.958 265.714 120.038 265.875 120.2C266.042 120.356 266.125 120.554 266.125 120.793C266.125 121.023 266.042 121.218 265.875 121.379C265.714 121.541 265.516 121.622 265.281 121.622ZM265.906 131.653H264.625V123.653H265.906V131.653ZM269.781 131.653H268.5V119.809H269.781V131.653ZM273.031 121.622C272.802 121.622 272.607 121.543 272.445 121.387C272.284 121.231 272.203 121.033 272.203 120.793C272.203 120.554 272.284 120.356 272.445 120.2C272.607 120.038 272.802 119.958 273.031 119.958C273.266 119.958 273.464 120.038 273.625 120.2C273.792 120.356 273.875 120.554 273.875 120.793C273.875 121.023 273.792 121.218 273.625 121.379C273.464 121.541 273.266 121.622 273.031 121.622ZM273.656 131.653H272.375V123.653H273.656V131.653ZM281.828 124.02L277.094 130.559H281.781V131.653H275.211V131.254L279.945 124.747H275.656V123.653H281.828V124.02ZM289.211 131.653H287.93V130.403H287.898C287.341 131.361 286.521 131.84 285.438 131.84C284.641 131.84 284.016 131.629 283.562 131.208C283.115 130.786 282.891 130.226 282.891 129.528C282.891 128.033 283.771 127.163 285.531 126.918L287.93 126.583C287.93 125.223 287.38 124.543 286.281 124.543C285.318 124.543 284.448 124.872 283.672 125.528V124.215C284.458 123.715 285.365 123.465 286.391 123.465C288.271 123.465 289.211 124.46 289.211 126.45V131.653ZM287.93 127.606L286 127.872C285.406 127.955 284.958 128.103 284.656 128.317C284.354 128.525 284.203 128.898 284.203 129.434C284.203 129.825 284.341 130.145 284.617 130.395C284.898 130.64 285.271 130.762 285.734 130.762C286.37 130.762 286.893 130.541 287.305 130.098C287.721 129.65 287.93 129.085 287.93 128.403V127.606ZM292.938 130.497H292.906V131.653H291.625V119.809H292.906V125.059H292.938C293.568 123.997 294.49 123.465 295.703 123.465C296.729 123.465 297.531 123.825 298.109 124.543C298.693 125.257 298.984 126.215 298.984 127.418C298.984 128.757 298.659 129.83 298.008 130.637C297.357 131.439 296.466 131.84 295.336 131.84C294.279 131.84 293.479 131.392 292.938 130.497ZM292.906 127.27V128.387C292.906 129.049 293.12 129.611 293.547 130.075C293.979 130.533 294.526 130.762 295.188 130.762C295.964 130.762 296.57 130.465 297.008 129.872C297.451 129.278 297.672 128.452 297.672 127.395C297.672 126.504 297.466 125.806 297.055 125.301C296.643 124.796 296.086 124.543 295.383 124.543C294.638 124.543 294.039 124.804 293.586 125.325C293.133 125.84 292.906 126.489 292.906 127.27ZM302.312 131.653H301.031V119.809H302.312V131.653ZM311.336 127.973H305.688C305.708 128.864 305.948 129.551 306.406 130.036C306.865 130.52 307.495 130.762 308.297 130.762C309.198 130.762 310.026 130.465 310.781 129.872V131.075C310.078 131.585 309.148 131.84 307.992 131.84C306.862 131.84 305.974 131.478 305.328 130.754C304.682 130.025 304.359 129.002 304.359 127.684C304.359 126.439 304.711 125.426 305.414 124.645C306.122 123.859 307 123.465 308.047 123.465C309.094 123.465 309.904 123.804 310.477 124.481C311.049 125.158 311.336 126.098 311.336 127.301V127.973ZM310.023 126.887C310.018 126.148 309.839 125.572 309.484 125.161C309.135 124.749 308.648 124.543 308.023 124.543C307.419 124.543 306.906 124.76 306.484 125.192C306.062 125.624 305.802 126.189 305.703 126.887H310.023ZM312.797 131.364V129.989C313.495 130.504 314.263 130.762 315.102 130.762C316.227 130.762 316.789 130.387 316.789 129.637C316.789 129.424 316.74 129.244 316.641 129.098C316.547 128.947 316.417 128.814 316.25 128.7C316.089 128.585 315.896 128.484 315.672 128.395C315.453 128.301 315.216 128.205 314.961 128.106C314.607 127.965 314.294 127.825 314.023 127.684C313.758 127.538 313.534 127.377 313.352 127.2C313.174 127.017 313.039 126.812 312.945 126.583C312.857 126.353 312.812 126.085 312.812 125.778C312.812 125.403 312.898 125.072 313.07 124.786C313.242 124.494 313.471 124.252 313.758 124.059C314.044 123.861 314.37 123.713 314.734 123.614C315.104 123.515 315.484 123.465 315.875 123.465C316.568 123.465 317.188 123.585 317.734 123.825V125.122C317.146 124.736 316.469 124.543 315.703 124.543C315.464 124.543 315.247 124.572 315.055 124.629C314.862 124.681 314.695 124.757 314.555 124.856C314.419 124.955 314.312 125.075 314.234 125.215C314.161 125.351 314.125 125.502 314.125 125.668C314.125 125.877 314.161 126.051 314.234 126.192C314.312 126.333 314.424 126.458 314.57 126.567C314.716 126.676 314.893 126.775 315.102 126.864C315.31 126.952 315.547 127.049 315.812 127.153C316.167 127.288 316.484 127.429 316.766 127.575C317.047 127.715 317.286 127.877 317.484 128.059C317.682 128.236 317.833 128.442 317.938 128.676C318.047 128.911 318.102 129.189 318.102 129.512C318.102 129.908 318.013 130.252 317.836 130.543C317.664 130.835 317.432 131.077 317.141 131.27C316.849 131.463 316.513 131.606 316.133 131.7C315.753 131.793 315.354 131.84 314.938 131.84C314.115 131.84 313.401 131.681 312.797 131.364ZM325.781 130.497H325.75V135.333H324.469V123.653H325.75V125.059H325.781C326.411 123.997 327.333 123.465 328.547 123.465C329.578 123.465 330.383 123.825 330.961 124.543C331.539 125.257 331.828 126.215 331.828 127.418C331.828 128.757 331.503 129.83 330.852 130.637C330.201 131.439 329.31 131.84 328.18 131.84C327.143 131.84 326.344 131.392 325.781 130.497ZM325.75 127.27V128.387C325.75 129.049 325.964 129.611 326.391 130.075C326.823 130.533 327.37 130.762 328.031 130.762C328.807 130.762 329.414 130.465 329.852 129.872C330.294 129.278 330.516 128.452 330.516 127.395C330.516 126.504 330.31 125.806 329.898 125.301C329.487 124.796 328.93 124.543 328.227 124.543C327.482 124.543 326.883 124.804 326.43 125.325C325.977 125.84 325.75 126.489 325.75 127.27ZM339.602 131.653H338.32V130.403H338.289C337.732 131.361 336.911 131.84 335.828 131.84C335.031 131.84 334.406 131.629 333.953 131.208C333.505 130.786 333.281 130.226 333.281 129.528C333.281 128.033 334.161 127.163 335.922 126.918L338.32 126.583C338.32 125.223 337.771 124.543 336.672 124.543C335.708 124.543 334.839 124.872 334.062 125.528V124.215C334.849 123.715 335.755 123.465 336.781 123.465C338.661 123.465 339.602 124.46 339.602 126.45V131.653ZM338.32 127.606L336.391 127.872C335.797 127.955 335.349 128.103 335.047 128.317C334.745 128.525 334.594 128.898 334.594 129.434C334.594 129.825 334.732 130.145 335.008 130.395C335.289 130.64 335.661 130.762 336.125 130.762C336.76 130.762 337.284 130.541 337.695 130.098C338.112 129.65 338.32 129.085 338.32 128.403V127.606ZM346.188 124.95C345.964 124.778 345.641 124.692 345.219 124.692C344.672 124.692 344.214 124.95 343.844 125.465C343.479 125.981 343.297 126.684 343.297 127.575V131.653H342.016V123.653H343.297V125.301H343.328C343.51 124.739 343.789 124.301 344.164 123.989C344.539 123.671 344.958 123.512 345.422 123.512C345.755 123.512 346.01 123.549 346.188 123.622V124.95ZM353.305 131.653H352.023V130.403H351.992C351.435 131.361 350.615 131.84 349.531 131.84C348.734 131.84 348.109 131.629 347.656 131.208C347.208 130.786 346.984 130.226 346.984 129.528C346.984 128.033 347.865 127.163 349.625 126.918L352.023 126.583C352.023 125.223 351.474 124.543 350.375 124.543C349.411 124.543 348.542 124.872 347.766 125.528V124.215C348.552 123.715 349.458 123.465 350.484 123.465C352.365 123.465 353.305 124.46 353.305 126.45V131.653ZM352.023 127.606L350.094 127.872C349.5 127.955 349.052 128.103 348.75 128.317C348.448 128.525 348.297 128.898 348.297 129.434C348.297 129.825 348.435 130.145 348.711 130.395C348.992 130.64 349.365 130.762 349.828 130.762C350.464 130.762 350.987 130.541 351.398 130.098C351.815 129.65 352.023 129.085 352.023 128.403V127.606ZM8.125 155.653H6.84375V154.293H6.8125C6.21875 155.325 5.30208 155.84 4.0625 155.84C3.05729 155.84 2.2526 155.484 1.64844 154.77C1.04948 154.051 0.75 153.075 0.75 151.84C0.75 150.517 1.08333 149.458 1.75 148.661C2.41667 147.864 3.30469 147.465 4.41406 147.465C5.51302 147.465 6.3125 147.898 6.8125 148.762H6.84375V143.809H8.125V155.653ZM6.84375 152.036V150.856C6.84375 150.21 6.63021 149.663 6.20312 149.215C5.77604 148.767 5.23438 148.543 4.57812 148.543C3.79688 148.543 3.18229 148.83 2.73438 149.403C2.28646 149.976 2.0625 150.767 2.0625 151.778C2.0625 152.7 2.27604 153.429 2.70312 153.965C3.13542 154.497 3.71354 154.762 4.4375 154.762C5.15104 154.762 5.72917 154.504 6.17188 153.989C6.61979 153.473 6.84375 152.822 6.84375 152.036ZM11.375 145.622C11.1458 145.622 10.9505 145.543 10.7891 145.387C10.6276 145.231 10.5469 145.033 10.5469 144.793C10.5469 144.554 10.6276 144.356 10.7891 144.2C10.9505 144.038 11.1458 143.958 11.375 143.958C11.6094 143.958 11.8073 144.038 11.9688 144.2C12.1354 144.356 12.2188 144.554 12.2188 144.793C12.2188 145.023 12.1354 145.218 11.9688 145.379C11.8073 145.541 11.6094 145.622 11.375 145.622ZM12 155.653H10.7188V147.653H12V155.653ZM14.1094 155.364V153.989C14.8073 154.504 15.5755 154.762 16.4141 154.762C17.5391 154.762 18.1016 154.387 18.1016 153.637C18.1016 153.424 18.0521 153.244 17.9531 153.098C17.8594 152.947 17.7292 152.814 17.5625 152.7C17.401 152.585 17.2083 152.484 16.9844 152.395C16.7656 152.301 16.5286 152.205 16.2734 152.106C15.9193 151.965 15.6068 151.825 15.3359 151.684C15.0703 151.538 14.8464 151.377 14.6641 151.2C14.487 151.017 14.3516 150.812 14.2578 150.583C14.1693 150.353 14.125 150.085 14.125 149.778C14.125 149.403 14.2109 149.072 14.3828 148.786C14.5547 148.494 14.7839 148.252 15.0703 148.059C15.3568 147.861 15.6823 147.713 16.0469 147.614C16.4167 147.515 16.7969 147.465 17.1875 147.465C17.8802 147.465 18.5 147.585 19.0469 147.825V149.122C18.4583 148.736 17.7812 148.543 17.0156 148.543C16.776 148.543 16.5599 148.572 16.3672 148.629C16.1745 148.681 16.0078 148.757 15.8672 148.856C15.7318 148.955 15.625 149.075 15.5469 149.215C15.474 149.351 15.4375 149.502 15.4375 149.668C15.4375 149.877 15.474 150.051 15.5469 150.192C15.625 150.333 15.737 150.458 15.8828 150.567C16.0286 150.676 16.2057 150.775 16.4141 150.864C16.6224 150.952 16.8594 151.049 17.125 151.153C17.4792 151.288 17.7969 151.429 18.0781 151.575C18.3594 151.715 18.599 151.877 18.7969 152.059C18.9948 152.236 19.1458 152.442 19.25 152.676C19.3594 152.911 19.4141 153.189 19.4141 153.512C19.4141 153.908 19.3255 154.252 19.1484 154.543C18.9766 154.835 18.7448 155.077 18.4531 155.27C18.1615 155.463 17.8255 155.606 17.4453 155.7C17.0651 155.793 16.6667 155.84 16.25 155.84C15.4271 155.84 14.7135 155.681 14.1094 155.364ZM25.1016 155.575C24.7995 155.741 24.401 155.825 23.9062 155.825C22.5052 155.825 21.8047 155.043 21.8047 153.481V148.747H20.4297V147.653H21.8047V145.7L23.0859 145.286V147.653H25.1016V148.747H23.0859V153.254C23.0859 153.791 23.1771 154.174 23.3594 154.403C23.5417 154.632 23.8438 154.747 24.2656 154.747C24.5885 154.747 24.8672 154.658 25.1016 154.481V155.575ZM27.4688 145.622C27.2396 145.622 27.0443 145.543 26.8828 145.387C26.7214 145.231 26.6406 145.033 26.6406 144.793C26.6406 144.554 26.7214 144.356 26.8828 144.2C27.0443 144.038 27.2396 143.958 27.4688 143.958C27.7031 143.958 27.901 144.038 28.0625 144.2C28.2292 144.356 28.3125 144.554 28.3125 144.793C28.3125 145.023 28.2292 145.218 28.0625 145.379C27.901 145.541 27.7031 145.622 27.4688 145.622ZM28.0938 155.653H26.8125V147.653H28.0938V155.653ZM37.3281 155.653H36.0469V151.09C36.0469 149.392 35.4271 148.543 34.1875 148.543C33.5469 148.543 33.0156 148.786 32.5938 149.27C32.1771 149.749 31.9688 150.356 31.9688 151.09V155.653H30.6875V147.653H31.9688V148.981H32C32.6042 147.971 33.4792 147.465 34.625 147.465C35.5 147.465 36.1693 147.749 36.6328 148.317C37.0964 148.879 37.3281 149.694 37.3281 150.762V155.653ZM43.4609 155.575C43.1589 155.741 42.7604 155.825 42.2656 155.825C40.8646 155.825 40.1641 155.043 40.1641 153.481V148.747H38.7891V147.653H40.1641V145.7L41.4453 145.286V147.653H43.4609V148.747H41.4453V153.254C41.4453 153.791 41.5365 154.174 41.7188 154.403C41.901 154.632 42.2031 154.747 42.625 154.747C42.9479 154.747 43.2266 154.658 43.4609 154.481V155.575ZM48.5156 155.84C47.3333 155.84 46.388 155.468 45.6797 154.723C44.9766 153.973 44.625 152.981 44.625 151.747C44.625 150.403 44.9922 149.353 45.7266 148.598C46.4609 147.843 47.4531 147.465 48.7031 147.465C49.8958 147.465 50.8255 147.833 51.4922 148.567C52.1641 149.301 52.5 150.319 52.5 151.622C52.5 152.898 52.138 153.921 51.4141 154.692C50.6953 155.458 49.7292 155.84 48.5156 155.84ZM48.6094 148.543C47.7865 148.543 47.1354 148.825 46.6562 149.387C46.1771 149.944 45.9375 150.715 45.9375 151.7C45.9375 152.648 46.1797 153.395 46.6641 153.942C47.1484 154.489 47.7969 154.762 48.6094 154.762C49.4375 154.762 50.0729 154.494 50.5156 153.958C50.9635 153.421 51.1875 152.658 51.1875 151.668C51.1875 150.668 50.9635 149.898 50.5156 149.356C50.0729 148.814 49.4375 148.543 48.6094 148.543ZM54.0625 155.364V153.989C54.7604 154.504 55.5286 154.762 56.3672 154.762C57.4922 154.762 58.0547 154.387 58.0547 153.637C58.0547 153.424 58.0052 153.244 57.9062 153.098C57.8125 152.947 57.6823 152.814 57.5156 152.7C57.3542 152.585 57.1615 152.484 56.9375 152.395C56.7188 152.301 56.4818 152.205 56.2266 152.106C55.8724 151.965 55.5599 151.825 55.2891 151.684C55.0234 151.538 54.7995 151.377 54.6172 151.2C54.4401 151.017 54.3047 150.812 54.2109 150.583C54.1224 150.353 54.0781 150.085 54.0781 149.778C54.0781 149.403 54.1641 149.072 54.3359 148.786C54.5078 148.494 54.737 148.252 55.0234 148.059C55.3099 147.861 55.6354 147.713 56 147.614C56.3698 147.515 56.75 147.465 57.1406 147.465C57.8333 147.465 58.4531 147.585 59 147.825V149.122C58.4115 148.736 57.7344 148.543 56.9688 148.543C56.7292 148.543 56.513 148.572 56.3203 148.629C56.1276 148.681 55.9609 148.757 55.8203 148.856C55.6849 148.955 55.5781 149.075 55.5 149.215C55.4271 149.351 55.3906 149.502 55.3906 149.668C55.3906 149.877 55.4271 150.051 55.5 150.192C55.5781 150.333 55.6901 150.458 55.8359 150.567C55.9818 150.676 56.1589 150.775 56.3672 150.864C56.5755 150.952 56.8125 151.049 57.0781 151.153C57.4323 151.288 57.75 151.429 58.0312 151.575C58.3125 151.715 58.5521 151.877 58.75 152.059C58.9479 152.236 59.099 152.442 59.2031 152.676C59.3125 152.911 59.3672 153.189 59.3672 153.512C59.3672 153.908 59.2786 154.252 59.1016 154.543C58.9297 154.835 58.6979 155.077 58.4062 155.27C58.1146 155.463 57.7786 155.606 57.3984 155.7C57.0182 155.793 56.6198 155.84 56.2031 155.84C55.3802 155.84 54.6667 155.681 54.0625 155.364ZM71.1875 155.286C70.5729 155.655 69.8438 155.84 69 155.84C67.8594 155.84 66.9375 155.471 66.2344 154.731C65.5365 153.986 65.1875 153.023 65.1875 151.84C65.1875 150.523 65.5651 149.465 66.3203 148.668C67.0755 147.866 68.0833 147.465 69.3438 147.465C70.0469 147.465 70.6667 147.596 71.2031 147.856V149.168C70.6094 148.752 69.974 148.543 69.2969 148.543C68.4792 148.543 67.8073 148.838 67.2812 149.426C66.7604 150.01 66.5 150.778 66.5 151.731C66.5 152.668 66.7448 153.408 67.2344 153.95C67.7292 154.491 68.3906 154.762 69.2188 154.762C69.9167 154.762 70.5729 154.53 71.1875 154.067V155.286ZM78.8516 155.653H77.5703V154.403H77.5391C76.9818 155.361 76.1615 155.84 75.0781 155.84C74.2812 155.84 73.6562 155.629 73.2031 155.208C72.7552 154.786 72.5312 154.226 72.5312 153.528C72.5312 152.033 73.4115 151.163 75.1719 150.918L77.5703 150.583C77.5703 149.223 77.0208 148.543 75.9219 148.543C74.9583 148.543 74.0885 148.872 73.3125 149.528V148.215C74.099 147.715 75.0052 147.465 76.0312 147.465C77.9115 147.465 78.8516 148.46 78.8516 150.45V155.653ZM77.5703 151.606L75.6406 151.872C75.0469 151.955 74.599 152.103 74.2969 152.317C73.9948 152.525 73.8438 152.898 73.8438 153.434C73.8438 153.825 73.9818 154.145 74.2578 154.395C74.5391 154.64 74.9115 154.762 75.375 154.762C76.0104 154.762 76.5339 154.541 76.9453 154.098C77.362 153.65 77.5703 153.085 77.5703 152.403V151.606ZM80.7812 155.364V153.989C81.4792 154.504 82.2474 154.762 83.0859 154.762C84.2109 154.762 84.7734 154.387 84.7734 153.637C84.7734 153.424 84.724 153.244 84.625 153.098C84.5312 152.947 84.401 152.814 84.2344 152.7C84.0729 152.585 83.8802 152.484 83.6562 152.395C83.4375 152.301 83.2005 152.205 82.9453 152.106C82.5911 151.965 82.2786 151.825 82.0078 151.684C81.7422 151.538 81.5182 151.377 81.3359 151.2C81.1589 151.017 81.0234 150.812 80.9297 150.583C80.8411 150.353 80.7969 150.085 80.7969 149.778C80.7969 149.403 80.8828 149.072 81.0547 148.786C81.2266 148.494 81.4557 148.252 81.7422 148.059C82.0286 147.861 82.3542 147.713 82.7188 147.614C83.0885 147.515 83.4688 147.465 83.8594 147.465C84.5521 147.465 85.1719 147.585 85.7188 147.825V149.122C85.1302 148.736 84.4531 148.543 83.6875 148.543C83.4479 148.543 83.2318 148.572 83.0391 148.629C82.8464 148.681 82.6797 148.757 82.5391 148.856C82.4036 148.955 82.2969 149.075 82.2188 149.215C82.1458 149.351 82.1094 149.502 82.1094 149.668C82.1094 149.877 82.1458 150.051 82.2188 150.192C82.2969 150.333 82.4089 150.458 82.5547 150.567C82.7005 150.676 82.8776 150.775 83.0859 150.864C83.2943 150.952 83.5312 151.049 83.7969 151.153C84.151 151.288 84.4688 151.429 84.75 151.575C85.0312 151.715 85.2708 151.877 85.4688 152.059C85.6667 152.236 85.8177 152.442 85.9219 152.676C86.0312 152.911 86.0859 153.189 86.0859 153.512C86.0859 153.908 85.9974 154.252 85.8203 154.543C85.6484 154.835 85.4167 155.077 85.125 155.27C84.8333 155.463 84.4974 155.606 84.1172 155.7C83.737 155.793 83.3385 155.84 82.9219 155.84C82.099 155.84 81.3854 155.681 80.7812 155.364ZM91.4062 155.84C90.224 155.84 89.2786 155.468 88.5703 154.723C87.8672 153.973 87.5156 152.981 87.5156 151.747C87.5156 150.403 87.8828 149.353 88.6172 148.598C89.3516 147.843 90.3438 147.465 91.5938 147.465C92.7865 147.465 93.7161 147.833 94.3828 148.567C95.0547 149.301 95.3906 150.319 95.3906 151.622C95.3906 152.898 95.0286 153.921 94.3047 154.692C93.5859 155.458 92.6198 155.84 91.4062 155.84ZM91.5 148.543C90.6771 148.543 90.026 148.825 89.5469 149.387C89.0677 149.944 88.8281 150.715 88.8281 151.7C88.8281 152.648 89.0703 153.395 89.5547 153.942C90.0391 154.489 90.6875 154.762 91.5 154.762C92.3281 154.762 92.9635 154.494 93.4062 153.958C93.8542 153.421 94.0781 152.658 94.0781 151.668C94.0781 150.668 93.8542 149.898 93.4062 149.356C92.9635 148.814 92.3281 148.543 91.5 148.543ZM96.9531 155.364V153.989C97.651 154.504 98.4193 154.762 99.2578 154.762C100.383 154.762 100.945 154.387 100.945 153.637C100.945 153.424 100.896 153.244 100.797 153.098C100.703 152.947 100.573 152.814 100.406 152.7C100.245 152.585 100.052 152.484 99.8281 152.395C99.6094 152.301 99.3724 152.205 99.1172 152.106C98.763 151.965 98.4505 151.825 98.1797 151.684C97.9141 151.538 97.6901 151.377 97.5078 151.2C97.3307 151.017 97.1953 150.812 97.1016 150.583C97.013 150.353 96.9688 150.085 96.9688 149.778C96.9688 149.403 97.0547 149.072 97.2266 148.786C97.3984 148.494 97.6276 148.252 97.9141 148.059C98.2005 147.861 98.526 147.713 98.8906 147.614C99.2604 147.515 99.6406 147.465 100.031 147.465C100.724 147.465 101.344 147.585 101.891 147.825V149.122C101.302 148.736 100.625 148.543 99.8594 148.543C99.6198 148.543 99.4036 148.572 99.2109 148.629C99.0182 148.681 98.8516 148.757 98.7109 148.856C98.5755 148.955 98.4688 149.075 98.3906 149.215C98.3177 149.351 98.2812 149.502 98.2812 149.668C98.2812 149.877 98.3177 150.051 98.3906 150.192C98.4688 150.333 98.5807 150.458 98.7266 150.567C98.8724 150.676 99.0495 150.775 99.2578 150.864C99.4661 150.952 99.7031 151.049 99.9688 151.153C100.323 151.288 100.641 151.429 100.922 151.575C101.203 151.715 101.443 151.877 101.641 152.059C101.839 152.236 101.99 152.442 102.094 152.676C102.203 152.911 102.258 153.189 102.258 153.512C102.258 153.908 102.169 154.252 101.992 154.543C101.82 154.835 101.589 155.077 101.297 155.27C101.005 155.463 100.669 155.606 100.289 155.7C99.9089 155.793 99.5104 155.84 99.0938 155.84C98.2708 155.84 97.5573 155.681 96.9531 155.364ZM115.453 155.653H114.172V154.293H114.141C113.547 155.325 112.63 155.84 111.391 155.84C110.385 155.84 109.581 155.484 108.977 154.77C108.378 154.051 108.078 153.075 108.078 151.84C108.078 150.517 108.411 149.458 109.078 148.661C109.745 147.864 110.633 147.465 111.742 147.465C112.841 147.465 113.641 147.898 114.141 148.762H114.172V143.809H115.453V155.653ZM114.172 152.036V150.856C114.172 150.21 113.958 149.663 113.531 149.215C113.104 148.767 112.562 148.543 111.906 148.543C111.125 148.543 110.51 148.83 110.062 149.403C109.615 149.976 109.391 150.767 109.391 151.778C109.391 152.7 109.604 153.429 110.031 153.965C110.464 154.497 111.042 154.762 111.766 154.762C112.479 154.762 113.057 154.504 113.5 153.989C113.948 153.473 114.172 152.822 114.172 152.036ZM124.477 151.973H118.828C118.849 152.864 119.089 153.551 119.547 154.036C120.005 154.52 120.635 154.762 121.438 154.762C122.339 154.762 123.167 154.465 123.922 153.872V155.075C123.219 155.585 122.289 155.84 121.133 155.84C120.003 155.84 119.115 155.478 118.469 154.754C117.823 154.025 117.5 153.002 117.5 151.684C117.5 150.439 117.852 149.426 118.555 148.645C119.263 147.859 120.141 147.465 121.188 147.465C122.234 147.465 123.044 147.804 123.617 148.481C124.19 149.158 124.477 150.098 124.477 151.301V151.973ZM123.164 150.887C123.159 150.148 122.979 149.572 122.625 149.161C122.276 148.749 121.789 148.543 121.164 148.543C120.56 148.543 120.047 148.76 119.625 149.192C119.203 149.624 118.943 150.189 118.844 150.887H123.164ZM137.281 155.653H136V154.387H135.969C135.438 155.356 134.615 155.84 133.5 155.84C131.594 155.84 130.641 154.705 130.641 152.434V147.653H131.914V152.231C131.914 153.918 132.56 154.762 133.852 154.762C134.477 154.762 134.99 154.533 135.391 154.075C135.797 153.611 136 153.007 136 152.262V147.653H137.281V155.653ZM139.391 155.364V153.989C140.089 154.504 140.857 154.762 141.695 154.762C142.82 154.762 143.383 154.387 143.383 153.637C143.383 153.424 143.333 153.244 143.234 153.098C143.141 152.947 143.01 152.814 142.844 152.7C142.682 152.585 142.49 152.484 142.266 152.395C142.047 152.301 141.81 152.205 141.555 152.106C141.201 151.965 140.888 151.825 140.617 151.684C140.352 151.538 140.128 151.377 139.945 151.2C139.768 151.017 139.633 150.812 139.539 150.583C139.451 150.353 139.406 150.085 139.406 149.778C139.406 149.403 139.492 149.072 139.664 148.786C139.836 148.494 140.065 148.252 140.352 148.059C140.638 147.861 140.964 147.713 141.328 147.614C141.698 147.515 142.078 147.465 142.469 147.465C143.161 147.465 143.781 147.585 144.328 147.825V149.122C143.74 148.736 143.062 148.543 142.297 148.543C142.057 148.543 141.841 148.572 141.648 148.629C141.456 148.681 141.289 148.757 141.148 148.856C141.013 148.955 140.906 149.075 140.828 149.215C140.755 149.351 140.719 149.502 140.719 149.668C140.719 149.877 140.755 150.051 140.828 150.192C140.906 150.333 141.018 150.458 141.164 150.567C141.31 150.676 141.487 150.775 141.695 150.864C141.904 150.952 142.141 151.049 142.406 151.153C142.76 151.288 143.078 151.429 143.359 151.575C143.641 151.715 143.88 151.877 144.078 152.059C144.276 152.236 144.427 152.442 144.531 152.676C144.641 152.911 144.695 153.189 144.695 153.512C144.695 153.908 144.607 154.252 144.43 154.543C144.258 154.835 144.026 155.077 143.734 155.27C143.443 155.463 143.107 155.606 142.727 155.7C142.346 155.793 141.948 155.84 141.531 155.84C140.708 155.84 139.995 155.681 139.391 155.364ZM150.016 155.84C148.833 155.84 147.888 155.468 147.18 154.723C146.477 153.973 146.125 152.981 146.125 151.747C146.125 150.403 146.492 149.353 147.227 148.598C147.961 147.843 148.953 147.465 150.203 147.465C151.396 147.465 152.326 147.833 152.992 148.567C153.664 149.301 154 150.319 154 151.622C154 152.898 153.638 153.921 152.914 154.692C152.195 155.458 151.229 155.84 150.016 155.84ZM150.109 148.543C149.286 148.543 148.635 148.825 148.156 149.387C147.677 149.944 147.438 150.715 147.438 151.7C147.438 152.648 147.68 153.395 148.164 153.942C148.648 154.489 149.297 154.762 150.109 154.762C150.938 154.762 151.573 154.494 152.016 153.958C152.464 153.421 152.688 152.658 152.688 151.668C152.688 150.668 152.464 149.898 152.016 149.356C151.573 148.814 150.938 148.543 150.109 148.543ZM156.492 155.825C156.253 155.825 156.047 155.739 155.875 155.567C155.708 155.395 155.625 155.189 155.625 154.95C155.625 154.71 155.708 154.504 155.875 154.333C156.047 154.155 156.253 154.067 156.492 154.067C156.737 154.067 156.945 154.155 157.117 154.333C157.289 154.504 157.375 154.71 157.375 154.95C157.375 155.189 157.289 155.395 157.117 155.567C156.945 155.739 156.737 155.825 156.492 155.825Z" fill="white"/>
</svg>
