<svg xmlns="http://www.w3.org/2000/svg" width="47" height="59" viewBox="0 0 47 59" fill="none">
  <mask id="mask0_528_1057" style="mask-type:luminance" maskUnits="userSpaceOnUse" x="10" y="7" width="27" height="25">
    <path d="M10.8291 7.95451H36.2713V31.8105H10.8291V7.95451Z" fill="white"/>
  </mask>
  <g mask="url(#mask0_528_1057)">
    <path fill-rule="evenodd" clip-rule="evenodd" d="M23.5122 8.02982C30.5525 8.02982 36.2555 13.3513 36.2555 19.9202C36.2555 26.489 30.5525 31.8105 23.5122 31.8105C16.9503 31.8105 11.5457 27.1809 10.8457 21.2334H18.7448C19.3548 23.1528 21.2605 24.563 23.5122 24.563C26.2565 24.563 28.4808 22.4873 28.4808 19.9268C28.4808 17.3663 25.8549 15.2915 23.5122 15.2915C21.8917 15.2915 20.6232 15.7499 19.729 16.5388V8.41861C20.9277 8.13996 22.2933 8.02982 23.5122 8.02982Z" fill="white"/>
  </g>
  <mask id="mask1_528_1057" style="mask-type:luminance" maskUnits="userSpaceOnUse" x="10" y="0" width="9" height="21">
    <path d="M10.8291 0H18.8395V20.7269H10.8291V0Z" fill="white"/>
  </mask>
  <g mask="url(#mask1_528_1057)">
    <path fill-rule="evenodd" clip-rule="evenodd" d="M10.8457 0H16.8674C17.9002 0 18.7387 0.788861 18.7387 1.75187V20.5735H10.8457V0Z" fill="#5E17EB"/>
  </g>
  <path d="M3.25882 57.7709L3.64923 57.7456H3.72514L3.93119 57.7204H4.29449L4.50054 57.7456L4.83672 57.7709L5.5362 57.7456L5.71785 57.7204L5.8995 57.7456L6.2872 57.7709L6.67489 57.6977L6.82943 57.7204L7.16561 57.6497L7.39877 57.6245L7.55331 57.6018L7.76207 57.5286L8.04403 57.458L8.25279 57.3596L8.43444 57.2889L8.56186 57.2158L8.692 57.1199L8.87365 57.024L9.00107 56.9029L9.15832 56.8297L9.36437 56.7112L9.46739 56.5901L9.64904 56.4462L9.77918 56.3251L9.93372 56.0602L10.1669 55.7726L10.579 55.0005L10.6332 54.834L10.6847 54.6877L10.7362 54.5211L10.7877 54.3748L10.8636 54.0392L10.8908 53.8702L10.9694 53.5573L11.0453 53.1965L11.0968 52.8357L11.1239 52.6667V52.3538L11.1483 52.1368L11.0968 51.8971L11.1239 51.5843L11.0209 51.2689L10.9694 50.956L10.8908 50.8122L10.8392 50.5725L10.7091 50.3076L10.6061 50.1385L10.4515 49.8988L10.297 49.7525L10.1398 49.586L9.83069 49.3917L9.59753 49.2958L9.31286 49.152L9.0553 49.0561V48.9098L9.28575 48.8139L9.59753 48.6953L9.9066 48.5263L10.0883 48.4304L10.2184 48.332L10.3485 48.1882L10.4759 48.0923L10.8121 47.7795L11.0209 47.4918L11.1998 47.2496L11.3815 46.9847L11.4845 46.7677L11.5631 46.6239L11.6146 46.4548L11.6662 46.311L11.6933 46.142L11.7177 46.0713L11.7692 45.9023L11.7448 45.7585L11.8478 45.4456L11.8749 45.2766L11.9264 44.9637V44.8199L11.9779 44.6508L12.0023 44.5045V44.338L12.0294 44.1916L12.0538 43.8308L12.0023 43.5432L11.9508 43.3514V43.1824L11.9264 42.9881L11.7692 42.6526L11.6662 42.3624L11.5902 42.2438L11.4845 42.0975L11.2541 41.9057L10.9179 41.5676L10.6332 41.3532L10.4 41.2548L10.1398 41.1362L9.83069 41.063L9.44299 40.9671L9.18272 40.9419L8.89805 40.894H8.12265L7.76207 40.8713L6.72641 40.894L5.45758 40.846H4.91535L4.63067 40.8713L4.47614 40.846H3.82817L3.46758 40.8713L3.23442 41.063L3.1558 41.1841L3.10429 41.4011L3.07989 41.7619L3.05277 41.931V42.1227L2.97415 42.4356L2.81961 43.0134L2.7437 43.3262L2.66508 43.687L2.61356 44.4566L2.51054 44.7946L2.45903 45.1554L2.43192 45.2993L2.3804 45.4456V45.6121L2.35329 45.7585L2.32889 45.9729L2.25027 46.1672L2.22587 46.311L2.17436 46.4801L2.14724 46.7677L2.12284 46.9847L2.04422 47.2017L1.99271 47.3707L1.9656 47.5398V47.7315L1.91408 48.0696L1.81106 48.4052L1.78666 48.5969L1.68092 48.9098L1.62941 49.0309L1.60501 49.369L1.50199 49.7046L1.45047 49.9468L1.42336 50.0427V50.1865L1.34474 50.4766L1.32034 50.6432L1.26883 50.956L1.1902 51.2689V51.4379L1.1658 51.5843L1.11158 51.776L1.03567 51.9678L0.957042 52.3059L0.984153 52.5456L0.881129 52.7878L0.829617 53.1713L0.775393 53.5321L0.750993 53.6784L0.672369 53.8702L0.647968 54.0619L0.596456 54.231L0.569345 54.4L0.517832 54.5438L0.493432 54.8819L0.439209 55.2175L0.336184 55.5304L0.311784 55.6994L0.260272 55.9896L0.20876 56.3251L0.154536 56.5421L0.0786237 56.7339V57.0947L0.0271113 57.3369L0 57.5286L0.181648 57.6725L0.414808 57.6977L0.802505 57.7204H1.00855L1.1658 57.7456H2.22587L2.63797 57.7204H2.84672L3.25882 57.7709ZM6.18417 47.2975L5.87239 47.2748H5.5362V47.1285L5.56331 46.8888L5.61483 46.6971L5.79376 45.5163L5.84527 45.3724L5.87239 45.2034L5.95101 44.8905V44.7215L6.02692 44.4338L6.05404 44.2648L6.07844 44.0478L6.15706 43.8308V43.6643L6.36311 43.6138H7.01108L7.4774 43.6643L7.70785 43.7122L7.8651 43.735L8.07114 43.904L8.14977 44.0251L8.3043 44.3127L8.3287 44.6029L8.35582 44.7694L8.38022 45.0343L8.27719 45.2766L8.25279 45.4683L8.20128 45.6121L8.12265 45.9023L7.99252 46.2379L7.78647 46.4801L7.65634 46.6971L7.34726 46.9367L7.06259 47.1058L6.85654 47.2269L6.54476 47.2748L6.18417 47.2975ZM4.52765 54.6649L4.11284 54.6397L4.21586 54.3268L4.24298 54.1351L4.29449 53.9433L4.346 53.6052V53.4362L4.42462 53.0754L4.47614 52.9064L4.52765 52.5708L4.55205 52.3765L4.60627 52.2327V52.0636L4.65778 51.8971L4.7093 51.5338L4.76081 51.4379L4.81232 51.2462L4.86383 50.8122L4.94246 50.5952H5.30304L5.58771 50.6204H5.95101L6.15706 50.6684L6.41462 50.7163L6.90805 50.8854L7.19273 51.1251L7.42317 51.7028L7.39877 52.0157L7.42317 52.4244L7.37166 52.8584L7.24424 53.1713L7.21713 53.3656L7.16561 53.5321L7.03548 53.797L7.01108 53.9913L6.85654 54.2057L6.67489 54.3521L6.44173 54.5211L6.26008 54.5918H6.07844L5.8995 54.6649H5.40607L4.76081 54.5918L4.52765 54.6649Z" fill="white"/>
  <path d="M12.961 57.7708L13.2971 57.7456L13.4788 57.7708H14.2027L14.4602 57.7456H16.5831L17.0982 57.7203L17.4615 57.7708L17.8492 57.7456L18.3155 57.7708L18.8849 57.6976L19.221 57.6497H19.7118L19.9178 57.4807L20.0208 57.0946L20.0751 56.7338L20.0995 56.59V56.421L20.1781 56.2519L20.3055 55.4117L20.3841 55.2175L20.3597 55.0484L20.4112 54.8819L20.4356 54.5211L20.2811 54.4479H19.6087L19.0394 54.4706H17.6947L17.4615 54.4479H17.2039L17.0738 54.3268V54.0871L17.1253 53.8449L17.1497 53.58L17.2039 53.4134L17.2283 53.2671L17.2554 53.1006V52.8584L17.307 52.6414L17.3314 52.3285L17.4344 52.0157L17.4615 51.6801L17.513 51.4858V51.3193L17.616 50.9333L17.6431 50.7642L17.6675 50.5725L17.7462 50.2344L17.7706 49.8736L17.8763 49.4875L17.9007 49.321L17.9793 48.9602L18.0308 48.7912V48.4531L18.0823 48.284L18.161 47.7794V47.5877L18.2125 47.4186L18.1854 47.2269L18.2884 47.0578L18.367 46.7449L18.4429 46.4069L18.4972 46.2378L18.5216 46.0713L18.5731 45.877L18.5216 45.6853L18.6246 45.5162L18.6761 45.1806L18.7818 44.8425V44.6508L18.8577 44.3127L19.0638 43.47L19.118 43.2303L19.1695 42.9654L19.2454 42.4582L19.297 42.3144V42.1454L19.4542 41.5676V41.4011L19.4786 41.232L19.4 40.9419L18.8849 40.9192H17.8763L16.9193 40.8939H16.2984L15.8836 40.9419L15.805 41.0882L15.6775 41.5676L15.626 41.7139V41.883L15.5989 42.1706L15.4959 42.4582L15.4173 42.8443L15.3929 43.2303L15.2871 43.3993V43.5432L15.2627 43.7122V43.8787L15.1597 44.0251L15.1082 44.29L15.0811 44.6028L15.0296 44.7946L15.0811 44.9637L15.0296 45.1554L14.9265 45.4935L14.8479 45.6853L14.875 45.877L14.7964 46.3841L14.7449 46.6718V46.8408L14.6148 47.1537V47.4918L14.5904 47.6835L14.4602 47.9964L14.4087 48.284L14.3572 48.5969L14.2027 49.2731V49.3917L14.0996 49.7298L13.9939 50.4514L13.8665 50.7894V50.956L13.7635 51.2941V51.4379L13.7363 51.6069L13.7092 51.7507V52.0888L13.6577 52.2326L13.6062 52.5707L13.5818 52.7146V52.8584L13.5032 53.0274L13.4273 53.3403L13.4517 53.4841L13.373 53.6531L13.3215 53.797L13.1941 54.135V54.4227L13.1426 54.6397L13.0911 54.9525L13.064 55.0963V55.2654L12.961 55.5783V55.9391L12.8579 56.2519L12.8308 56.3983L12.8064 56.5648L12.7278 56.807L12.6248 57.0467L12.5977 57.193L12.6248 57.3368L12.6492 57.5059L12.7522 57.6497L12.961 57.7708Z" fill="white"/>
  <path d="M27.3426 58.1316L27.9119 58.0585L28.1966 57.9853L28.3783 57.9626L28.7388 57.8894L28.9449 57.8415L29.1265 57.8188L29.723 57.6018L29.826 57.5286L30.1351 57.3369L30.4469 57.1199L30.577 56.9761L30.7315 56.855L31.0406 56.5648L31.0921 56.421L31.2223 56.2772L31.3253 56.1334L31.5585 55.8205L31.6886 55.6515L31.8946 55.2175L32.0763 54.8819L32.1007 54.6397L32.2308 54.4706L32.3094 54.2057V54.0392L32.3854 53.749L32.5155 53.4841L32.5426 53.2192L32.6185 53.0754L32.7487 52.7878L32.7215 52.6414L32.9818 51.7987L33.0577 51.6549L33.112 51.3193L33.1635 51.1503V50.9333L33.2394 50.4993L33.318 50.3555L33.3939 50.0426L33.421 49.7525L33.4996 49.4396L33.5512 49.1268L33.6542 48.8139L33.6271 48.5263L33.7572 48.2613L33.7328 48.0191L33.7843 47.6356L33.8358 47.4666L33.8602 47.0805L33.8873 46.7197L33.9389 46.3842L33.9633 46.2378V45.9981L33.9389 45.8291L33.9633 45.6853L34.0148 45.5162L34.0419 45.2034V45.0343L34.0148 44.7215L34.0419 44.5776L34.069 44.2648V44.0957L34.0419 43.904L33.9904 43.4473L33.9117 43.0865L33.8602 42.9175L33.8087 42.7736L33.7328 42.6273L33.5756 42.3144L33.4996 42.1454L33.3695 42.0016L33.0848 41.7619L32.8002 41.5449L32.67 41.4011L32.464 41.28L31.9977 40.9898L31.61 40.8233L31.4554 40.7754L31.2494 40.7501L31.0406 40.677L30.6285 40.629L30.3439 40.6063L30.1866 40.5811L29.723 40.5584L29.4112 40.5811L29.0506 40.6063L28.5843 40.677L28.324 40.7022L27.9363 40.7981L27.7818 40.8233L27.3941 40.9192L27.085 41.063L26.7732 41.232L26.5916 41.3532L26.3855 41.4238L26.0494 41.6408L25.6861 42.0016L25.5586 42.1454L25.377 42.2665L25.1682 42.5567L24.9622 42.8695L24.8592 43.0133L24.832 43.1824L24.6016 43.4952L24.4959 43.6643L24.3413 43.9519L24.2112 44.29L24.1082 44.5776L24.0323 44.7467L23.875 45.0596L23.8235 45.3724L23.6961 45.5415L23.5903 46.142L23.5388 46.4801L23.5144 46.6239L23.4358 46.7929L23.3843 47.0805V47.4186L23.3328 47.5877L23.1782 47.8274L23.2026 47.9712L23.1511 48.1402V48.2841L23.0996 48.4531L23.0237 48.5969V48.766L22.9451 49.0561V49.369L22.8665 49.6566L22.7905 50.0906L22.739 50.2596L22.6875 50.5725L22.739 50.6936L22.6333 51.0292V51.1982L22.5818 51.5338V51.7281L22.4788 52.0636L22.4272 52.5935V52.7625L22.4544 52.9543L22.3757 53.1965V53.6532L22.3242 53.8222L22.4028 54.3041L22.4272 54.4479L22.4544 54.7835L22.5059 54.9298L22.5303 55.0964L22.5818 55.2427L22.6333 55.3613L22.6604 55.5076L22.739 55.6742V55.8205L22.9451 56.1334L23.0752 56.3024L23.1511 56.4462L23.2813 56.5648L23.3599 56.6859L23.7205 57.0719L24.1868 57.4327L24.5474 57.6497L24.729 57.7456L25.1167 57.8415L25.3255 57.8667L25.9192 58.0332L26.1524 58.0585L26.334 58.0837L26.6702 58.0585L27.3426 58.1316ZM27.1365 54.8567L26.9793 54.834L26.7732 54.7835L26.5672 54.7129L26.4371 54.5918L26.2825 54.3748L26.231 54.2789L26.1524 54.1098V53.4362L26.0738 53.2671L26.1795 53.0274L26.2039 52.7373L26.1253 52.5708L26.2039 52.4017V52.2327L26.2825 51.8719V51.6801L26.334 51.5111V51.3193L26.3855 51.1023L26.3584 51.0065L26.4099 50.8374L26.3855 50.6431L26.5157 50.3076L26.5916 50.1385L26.5672 49.9468L26.5916 49.7777V49.6087L26.6431 49.2731L26.6946 49.1041L26.8004 48.718L26.8763 48.5263L26.9278 48.1655L26.9793 47.9964L27.0064 47.8274L27.085 47.4413L27.1609 47.1058L27.264 46.7677L27.2911 46.6239L27.367 46.2883L27.3941 46.094V46.0461L27.5486 45.5415L27.6001 45.3472L27.6517 45.1807L27.8089 44.8678L27.9119 44.6988L28.015 44.4086L28.1966 44.1437L28.4542 43.9267L28.869 43.7829L29.075 43.7349L29.5657 43.7122L29.9806 43.8788L30.1622 44.0957L30.2652 44.2421L30.3683 44.7215L30.3167 45.0596L30.2923 45.3724L30.2381 45.8064V46.1193L30.1866 46.3362L30.1107 46.6718L30.0592 46.8636L30.0321 47.1789L30.0592 47.3455L30.0077 47.5145L29.9562 47.7063L29.9019 47.9964L29.7989 48.3572L29.826 48.766L29.7474 48.9098L29.6959 49.369L29.62 49.5607L29.5413 49.7777L29.4898 50.3303L29.4112 50.6936L29.3353 50.9081L29.3597 50.9812V51.173L29.2811 51.3193L29.2567 51.5111L29.178 51.8239L29.1021 51.993L29.075 52.3286L28.9991 52.5228L28.9449 52.8584L28.8934 53.0274L28.8175 53.3882V53.58L28.766 53.749L28.6087 54.0871L28.4298 54.4227L28.0665 54.6649L27.8333 54.7608L27.4727 54.8567H27.1365Z" fill="white"/>
  <path d="M37.3533 57.7456H37.8955L38.0501 57.7204L38.4378 57.7456H38.6709L38.8255 57.7204L39.0342 57.7456H39.9641L40.0943 57.241L40.1729 56.807L40.2488 56.4689L40.3518 56.1081L40.4034 55.9391L40.482 55.5783L40.5335 55.2427V55.0964L40.585 54.9298L40.6636 54.6876L40.688 54.5211L40.7938 54.183L40.8968 53.8222L40.9727 53.4841L41.0513 53.1713L41.0242 53.0274L41.0784 52.8836L41.1299 52.5935L41.1815 52.3538L41.2574 52.0889L41.3604 51.776V51.6069L41.4146 51.3673L41.542 51.2461L41.6207 51.125L41.6722 50.9333L41.7752 50.8122L41.8782 50.5245L42.0599 50.2344L42.1385 50.0906L42.2144 49.9695L42.3717 49.8257L42.5262 49.5128L42.7322 49.2252L42.9383 48.7912L43.0955 48.549L43.2501 48.2361L43.3531 48.0696L43.4561 47.9233L43.7164 47.6104L43.7408 47.4666L43.8709 47.3228L43.9224 47.2016L44.1041 46.914L44.1556 46.7677L44.2342 46.6012L44.3617 46.2883L44.6219 45.877L44.6734 45.7332L44.7765 45.5894L44.8009 45.4456L45.0096 45.1554L45.1642 44.8199L45.3187 44.6735L45.5519 44.2168L45.6034 44.073L45.7064 43.9267L45.7579 43.7602L45.9667 43.4952L46.0697 43.2051L46.1727 43.0865L46.3273 42.7963L46.3544 42.6273L46.4574 42.4835L46.6119 42.1959L46.6634 42.0495L46.8722 41.7846L46.9237 41.666L46.9996 41.3531V41.0403L46.7149 40.8939L46.1998 40.9192L45.9152 40.8712H45.2428L44.828 40.8939L44.4403 40.846L43.5863 40.8939L43.4046 40.9898L43.1471 41.3052L42.9925 41.5449L42.9139 41.6887L42.7838 42.0016L42.6292 42.3397L42.3961 42.8216L42.3445 42.9881L42.293 43.1344L42.087 43.4473L42.0599 43.6138L41.9569 43.7602L41.8023 44.073L41.542 44.6508L41.3875 44.9157L41.2574 45.2034L41.0513 45.4935L41.0242 45.6373L40.9212 45.8064L40.7666 46.094L40.7151 46.2151L40.6636 46.3589L40.585 46.48L40.482 46.4548L40.4576 46.094L40.3518 45.4683L40.3003 45.1807V44.9637L40.2244 44.7215L40.1973 44.4086L40.2244 44.1689L40.1214 43.9267L40.0672 43.7602L39.9913 43.4221L40.0157 43.2783L39.9641 42.6046L39.8611 42.4103V42.1706L39.7852 41.9789V41.4238L39.7066 41.1841L39.4219 40.8939H39.0342L38.3347 40.8712L38.0501 40.9192L37.8684 40.8939L37.6108 40.9192L37.2476 40.8939L36.5752 40.9192L36.3691 40.9419L36.239 40.9898L36.1631 41.1841V41.4238L36.1875 41.7367L36.239 42.0747L36.2661 42.2186L36.2905 42.5314L36.3962 43.253L36.4993 43.5911V43.7602L36.5508 44.121L36.6294 44.29L36.6023 44.5776L36.6538 44.7694L36.7053 45.3724L36.7324 45.5642L36.8599 45.925L36.9385 46.311V46.48L36.99 46.7929L37.093 47.1058L37.1716 47.3934L37.196 47.5624L37.2747 47.9964L37.3533 48.3572L37.3262 48.501L37.3777 48.8391L37.4563 49.0082V49.1999L37.5322 49.5607L37.5864 49.9215L37.638 50.0906L37.6108 50.2823L37.638 50.4993L37.7139 50.7415L37.741 51.0292L37.6108 51.4379L37.5864 51.7281L37.4807 51.993V52.1595L37.4563 52.3058L37.3533 52.6187L37.2747 53.0022V53.2444L37.196 53.4362L37.1201 53.7743L37.0686 54.1351L36.99 54.3041L36.9385 54.617L36.9114 54.8819L36.7839 55.4118L36.7053 55.6262V55.8911L36.6538 56.0375L36.6294 56.204L36.6023 56.3503L36.5508 56.5169L36.5752 56.6632L36.5237 56.9761L36.4722 57.2637L36.4993 57.5766L36.7839 57.7204H37.1716L37.3533 57.7456Z" fill="white"/>
</svg>