<svg width="32" height="40" viewBox="0 0 32 40" fill="none" xmlns="http://www.w3.org/2000/svg">
<mask id="mask0_786_261" style="mask-type:luminance" maskUnits="userSpaceOnUse" x="7" y="5" width="18" height="17">
<path d="M7.37305 5.41586H24.6955V21.6584H7.37305V5.41586Z" fill="white"/>
</mask>
<g mask="url(#mask0_786_261)">
<path fill-rule="evenodd" clip-rule="evenodd" d="M16.0083 5.46716C20.8018 5.46716 24.6847 9.09035 24.6847 13.5628C24.6847 18.0352 20.8018 21.6584 16.0083 21.6584C11.5407 21.6584 7.86087 18.5063 7.38428 14.4569H12.7624C13.1777 15.7637 14.4753 16.7239 16.0083 16.7239C17.8768 16.7239 19.3913 15.3106 19.3913 13.5673C19.3913 11.8239 17.6034 10.4113 16.0083 10.4113C14.905 10.4113 14.0414 10.7235 13.4325 11.2606V5.73187C14.2487 5.54215 15.1784 5.46716 16.0083 5.46716Z" fill="black"/>
</g>
<mask id="mask1_786_261" style="mask-type:luminance" maskUnits="userSpaceOnUse" x="7" y="0" width="6" height="15">
<path d="M7.37305 0H12.827V14.1121H7.37305V0Z" fill="white"/>
</mask>
<g mask="url(#mask1_786_261)">
<path fill-rule="evenodd" clip-rule="evenodd" d="M7.38428 0H11.4842C12.1874 0 12.7583 0.537101 12.7583 1.19278V14.0076H7.38428V0Z" fill="#5E17EB"/>
</g>
<path d="M2.21879 39.3337L2.4846 39.3165H2.53629L2.67658 39.2993H2.92393L3.06422 39.3165L3.29311 39.3337L3.76936 39.3165L3.89304 39.2993L4.01671 39.3165L4.28068 39.3337L4.54464 39.2839L4.64986 39.2993L4.87876 39.2512L5.0375 39.234L5.14272 39.2186L5.28486 39.1688L5.47683 39.1207L5.61897 39.0537L5.74264 39.0056L5.8294 38.9558L5.91801 38.8905L6.04168 38.8252L6.12844 38.7427L6.2355 38.6929L6.37579 38.6122L6.44594 38.5297L6.56961 38.4318L6.65822 38.3494L6.76344 38.169L6.92218 37.9731L7.20276 37.4475L7.23968 37.3341L7.27475 37.2345L7.30983 37.1211L7.3449 37.0214L7.39658 36.793L7.41504 36.6779L7.46858 36.4649L7.52026 36.2192L7.55533 35.9736L7.57379 35.8585V35.6454L7.59041 35.4977L7.55533 35.3345L7.57379 35.1215L7.50365 34.9068L7.46858 34.6938L7.41504 34.5958L7.37997 34.4326L7.29137 34.2523L7.22122 34.1372L7.11601 33.974L7.01079 33.8743L6.90372 33.761L6.69329 33.6287L6.53454 33.5634L6.34072 33.4655L6.16536 33.4002V33.3006L6.32226 33.2353L6.53454 33.1546L6.74498 33.0395L6.86865 32.9742L6.95726 32.9072L7.04586 32.8093L7.13262 32.744L7.36151 32.531L7.50365 32.3351L7.62548 32.1702L7.74915 31.9898L7.8193 31.8421L7.87283 31.7442L7.9079 31.6291L7.94298 31.5312L7.96143 31.4161L7.97805 31.368L8.01312 31.2529L7.99651 31.155L8.06665 30.942L8.08511 30.8269L8.12018 30.6138V30.5159L8.15526 30.4008L8.17187 30.3012V30.1878L8.19033 30.0882L8.20694 29.8425L8.17187 29.6467L8.1368 29.5161V29.401L8.12018 29.2688L8.01312 29.0403L7.94298 28.8427L7.89129 28.762L7.8193 28.6624L7.6624 28.5318L7.4335 28.3016L7.23968 28.1556L7.08093 28.0886L6.90372 28.0079L6.69329 27.958L6.42932 27.8928L6.25212 27.8756L6.0583 27.8429H5.53036L5.28486 27.8275L4.57972 27.8429L3.71583 27.8103H3.34665L3.15282 27.8275L3.04761 27.8103H2.60643L2.36093 27.8275L2.20218 27.958L2.14865 28.0405L2.11357 28.1882L2.09696 28.4339L2.0785 28.549V28.6795L2.02497 28.8926L1.91975 29.2859L1.86807 29.499L1.81453 29.7446L1.77946 30.2686L1.70932 30.4987L1.67425 30.7444L1.65579 30.8423L1.62071 30.942V31.0553L1.60225 31.155L1.58564 31.301L1.53211 31.4333L1.5155 31.5312L1.48042 31.6463L1.46197 31.8421L1.44535 31.9898L1.39182 32.1376L1.35675 32.2527L1.33829 32.3678V32.4983L1.30322 32.7285L1.23307 32.957L1.21646 33.0876L1.14447 33.3006L1.1094 33.383L1.09278 33.6132L1.02264 33.8417L0.987565 34.0066L0.969106 34.0719V34.1698L0.915574 34.3674L0.898961 34.4807L0.863888 34.6938L0.810357 34.9068V35.0219L0.793744 35.1215L0.756825 35.2521L0.70514 35.3826L0.651608 35.6128L0.670067 35.776L0.599923 35.9409L0.56485 36.202L0.527932 36.4477L0.511319 36.5473L0.457787 36.6779L0.441174 36.8084L0.406101 36.9235L0.387642 37.0386L0.35257 37.1365L0.335956 37.3667L0.299038 37.5952L0.228893 37.8082L0.21228 37.9233L0.177208 38.1209L0.142135 38.3494L0.105217 38.4971L0.0535314 38.6276V38.8733L0.0184589 39.0382L0 39.1688L0.123676 39.2667L0.282425 39.2839L0.546391 39.2993H0.68668L0.793744 39.3165H1.5155L1.79608 39.2993H1.93821L2.21879 39.3337ZM4.21053 32.2029L3.99825 32.1874H3.76936V32.0878L3.78782 31.9246L3.82289 31.794L3.94472 30.9901L3.97979 30.8921L3.99825 30.777L4.05179 30.564V30.4489L4.10347 30.2531L4.12193 30.138L4.13854 29.9903L4.19207 29.8425V29.7291L4.33236 29.6948H4.77354L5.09104 29.7291L5.24794 29.7618L5.355 29.7772L5.49529 29.8923L5.54882 29.9748L5.65404 30.1706L5.67065 30.3682L5.68911 30.4816L5.70573 30.6619L5.63558 30.8269L5.61897 30.9574L5.5839 31.0553L5.53036 31.2529L5.44176 31.4814L5.30147 31.6463L5.21287 31.794L5.00243 31.9572L4.80861 32.0723L4.66832 32.1548L4.45604 32.1874L4.21053 32.2029ZM3.08268 37.219L2.80025 37.2018L2.8704 36.9888L2.88886 36.8583L2.92393 36.7277L2.959 36.4975V36.3824L3.01253 36.1368L3.04761 36.0217L3.08268 35.7932L3.09929 35.6609L3.13621 35.563V35.4479L3.17128 35.3345L3.20636 35.0871L3.24143 35.0219L3.2765 34.8913L3.31157 34.5958L3.3651 34.4481H3.61061L3.80443 34.4653H4.05179L4.19207 34.4979L4.36744 34.5306L4.70339 34.6457L4.89721 34.8088L5.05412 35.2022L5.0375 35.4153L5.05412 35.6935L5.01905 35.989L4.93229 36.202L4.91383 36.3343L4.87876 36.4477L4.79015 36.6281L4.77354 36.7603L4.66832 36.9064L4.54464 37.006L4.3859 37.1211L4.26222 37.1692H4.13854L4.01671 37.219H3.68076L3.24143 37.1692L3.08268 37.219Z" fill="black"/>
<path d="M8.8245 39.3336L9.05339 39.3165L9.17707 39.3336H9.66993L9.84529 39.3165H11.2906L11.6414 39.2993L11.8887 39.3336L12.1527 39.3165L12.4702 39.3336L12.8578 39.2838L13.0867 39.2512H13.4208L13.5611 39.1361L13.6313 38.8733L13.6682 38.6276L13.6848 38.5297V38.4146L13.7383 38.2995L13.8251 37.7274L13.8786 37.5952L13.862 37.4801L13.8971 37.3667L13.9137 37.121L13.8085 37.0712H13.3507L12.963 37.0867H12.0475L11.8887 37.0712H11.7134L11.6248 36.9888V36.8256L11.6598 36.6607L11.6764 36.4803L11.7134 36.3669L11.73 36.2673L11.7484 36.1539V35.989L11.7835 35.8412L11.8001 35.6282L11.8703 35.4152L11.8887 35.1867L11.9238 35.0545V34.9411L11.9939 34.6782L12.0124 34.5631L12.029 34.4326L12.0825 34.2024L12.0992 33.9567L12.1711 33.6939L12.1878 33.5805L12.2413 33.3349L12.2764 33.2198V32.9896L12.3114 32.8745L12.365 32.5309V32.4004L12.4 32.2853L12.3816 32.1547L12.4517 32.0396L12.5053 31.8266L12.5569 31.5964L12.5939 31.4813L12.6105 31.3679L12.6455 31.2357L12.6105 31.1051L12.6806 30.99L12.7157 30.7615L12.7877 30.5313V30.4008L12.8394 30.1706L12.9797 29.5968L13.0166 29.4336L13.0516 29.2533L13.1033 28.908L13.1384 28.81V28.695L13.2455 28.3016V28.1882L13.2621 28.0731L13.2086 27.8755L12.8578 27.8601H12.1711L11.5195 27.8429H11.0968L10.8144 27.8755L10.7609 27.9752L10.6741 28.3016L10.639 28.4012V28.5163L10.6206 28.7121L10.5504 28.908L10.4969 29.1708L10.4803 29.4336L10.4083 29.5487V29.6466L10.3917 29.7617V29.8751L10.3215 29.9748L10.2865 30.1551L10.268 30.3681L10.2329 30.4987L10.268 30.6138L10.2329 30.7444L10.1628 30.9745L10.1093 31.1051L10.1277 31.2357L10.0742 31.581L10.0391 31.7768V31.8919L9.95051 32.1049V32.3351L9.9339 32.4656L9.84529 32.6787L9.81022 32.8745L9.77515 33.0875L9.66993 33.5479V33.6286L9.59979 33.8588L9.52779 34.3501L9.44104 34.5803V34.6937L9.37089 34.9239V35.0218L9.35243 35.1369L9.33397 35.2348V35.465L9.2989 35.5629L9.26383 35.7931L9.24722 35.8911V35.989L9.19368 36.1041L9.142 36.3171L9.15861 36.415L9.10508 36.5301L9.07001 36.628L8.98325 36.8582V37.054L8.94818 37.2018L8.9131 37.4148L8.89465 37.5127V37.6278L8.8245 37.8408V38.0865L8.75436 38.2995L8.7359 38.3991L8.71928 38.5125L8.66575 38.6774L8.59561 38.8406L8.57715 38.9402L8.59561 39.0382L8.61222 39.1533L8.68237 39.2512L8.8245 39.3336Z" fill="black"/>
<path d="M18.6165 39.5793L19.0041 39.5295L19.198 39.4797L19.3216 39.4642L19.5671 39.4144L19.7074 39.3818L19.8311 39.3663L20.2372 39.2186L20.3074 39.1687L20.5178 39.0382L20.7301 38.8905L20.8187 38.7925L20.9239 38.7101L21.1343 38.5125L21.1694 38.4146L21.258 38.3167L21.3281 38.2188L21.4869 38.0058L21.5755 37.8907L21.7158 37.5952L21.8395 37.3667L21.8561 37.2018L21.9447 37.0867L21.9982 36.9063V36.7929L22.0499 36.5954L22.1385 36.415L22.157 36.2346L22.2086 36.1367L22.2973 35.9409L22.2788 35.8413L22.456 35.2675L22.5077 35.1696L22.5446 34.9411L22.5797 34.826V34.6783L22.6314 34.3828L22.6849 34.2849L22.7366 34.0719L22.755 33.8743L22.8086 33.6613L22.8436 33.4483L22.9138 33.2353L22.8953 33.0394L22.9839 32.8591L22.9673 32.6941L23.0024 32.433L23.0375 32.3179L23.0541 32.0551L23.0725 31.8094L23.1076 31.581L23.1242 31.4813V31.3181L23.1076 31.203L23.1242 31.1051L23.1593 30.99L23.1778 30.777V30.6619L23.1593 30.4489L23.1778 30.351L23.1962 30.138V30.0229L23.1778 29.8923L23.1427 29.5814L23.0892 29.3357L23.0541 29.2206L23.019 29.1227L22.9673 29.0231L22.8603 28.8101L22.8086 28.695L22.72 28.5971L22.5261 28.4339L22.3323 28.2861L22.2437 28.1882L22.1034 28.1057L21.7859 27.9082L21.522 27.7948L21.4168 27.7622L21.2765 27.745L21.1343 27.6952L20.8537 27.6625L20.6599 27.6471L20.5529 27.6299L20.2372 27.6144L20.0249 27.6299L19.7794 27.6471L19.4619 27.6952L19.2847 27.7124L19.0208 27.7776L18.9155 27.7948L18.6516 27.8601L18.4411 27.958L18.2289 28.0731L18.1052 28.1556L17.9649 28.2037L17.736 28.3514L17.4886 28.5971L17.4019 28.695L17.2782 28.7774L17.1361 28.975L16.9958 29.188L16.9256 29.2859L16.9072 29.401L16.7503 29.614L16.6783 29.7291L16.5731 29.925L16.4845 30.1552L16.4143 30.351L16.3626 30.4661L16.2556 30.6791L16.2205 30.8921L16.1337 31.0072L16.0617 31.4161L16.0267 31.6462L16.0101 31.7442L15.9565 31.8593L15.9215 32.0551V32.2853L15.8864 32.4004L15.7812 32.5636L15.7978 32.6615L15.7627 32.7766V32.8745L15.7276 32.9896L15.676 33.0875V33.2026L15.6224 33.4002V33.6132L15.5689 33.809L15.5172 34.1045L15.4821 34.2196L15.4471 34.4326L15.4821 34.5151L15.4101 34.7435V34.8586L15.3751 35.0871V35.2194L15.3049 35.4479L15.2699 35.8086V35.9237L15.2883 36.0543L15.2348 36.2192V36.5301L15.1997 36.6452L15.2532 36.9733L15.2699 37.0712L15.2883 37.2997L15.3234 37.3994L15.34 37.5127L15.3751 37.6124L15.4101 37.6931L15.4286 37.7927L15.4821 37.9061V38.0058L15.6224 38.2188L15.711 38.3339L15.7627 38.4318L15.8513 38.5125L15.9048 38.595L16.1504 38.8578L16.4679 39.1035L16.7134 39.2512L16.837 39.3165L17.101 39.3818L17.2431 39.3989L17.6474 39.5123L17.8061 39.5295L17.9298 39.5467L18.1587 39.5295L18.6165 39.5793ZM18.4762 37.3495L18.3691 37.3341L18.2289 37.2997L18.0886 37.2516L18 37.1692L17.8947 37.0214L17.8597 36.9561L17.8061 36.841V36.3824L17.7526 36.2673L17.8246 36.1041L17.8412 35.9065L17.7877 35.7932L17.8412 35.6781V35.563L17.8947 35.3173V35.1868L17.9298 35.0717V34.9411L17.9649 34.7934L17.9464 34.7281L17.9815 34.613L17.9649 34.4807L18.0535 34.2522L18.1052 34.1371L18.0886 34.0066L18.1052 33.8915V33.7764L18.1403 33.5479L18.1753 33.4328L18.2473 33.17L18.299 33.0394L18.3341 32.7938L18.3691 32.6787L18.3876 32.5636L18.4411 32.3008L18.4928 32.0723L18.563 31.8421L18.5814 31.7442L18.6331 31.5157L18.6516 31.3834V31.3508L18.7568 31.0072L18.7919 30.8749L18.8269 30.7616L18.934 30.5485L19.0041 30.4334L19.0743 30.2359L19.198 30.0555L19.3733 29.9078L19.6557 29.8099L19.796 29.7772L20.1301 29.7618L20.4126 29.8751L20.5362 30.0229L20.6064 30.1225L20.6765 30.4489L20.6415 30.6791L20.6249 30.8921L20.5879 31.1876V31.4006L20.5529 31.5483L20.5012 31.7768L20.4661 31.9074L20.4476 32.1221L20.4661 32.2355L20.431 32.3506L20.396 32.4811L20.359 32.6787L20.2889 32.9243L20.3074 33.2026L20.2538 33.3005L20.2188 33.6132L20.1671 33.7438L20.1135 33.8915L20.0785 34.2677L20.0249 34.5151L19.9732 34.6611L19.9899 34.7109V34.8415L19.9363 34.9411L19.9197 35.0717L19.8662 35.2847L19.8145 35.3998L19.796 35.6282L19.7444 35.7605L19.7074 35.989L19.6724 36.1041L19.6207 36.3497V36.4803L19.5856 36.5954L19.4785 36.8256L19.3567 37.0541L19.1094 37.219L18.9506 37.2843L18.7051 37.3495H18.4762Z" fill="black"/>
<path d="M25.4322 39.3165H25.8014L25.9066 39.2993L26.1705 39.3165H26.3293L26.4345 39.2993L26.5767 39.3165H27.2098L27.2984 38.9729L27.3519 38.6774L27.4036 38.4472L27.4738 38.2016L27.5088 38.0865L27.5624 37.8408L27.5974 37.6124V37.5127L27.6325 37.3993L27.686 37.2344L27.7027 37.1211L27.7746 36.8909L27.8448 36.6452L27.8965 36.415L27.95 36.202L27.9316 36.1041L27.9685 36.0062L28.0035 35.8086L28.0386 35.6454L28.0903 35.465L28.1604 35.252V35.1369L28.1974 34.9737L28.2841 34.8913L28.3377 34.8088L28.3727 34.6783L28.4429 34.5958L28.513 34.4L28.6367 34.2024L28.6902 34.1045L28.7419 34.022L28.849 33.9241L28.9542 33.7111L29.0945 33.5153L29.2348 33.2198L29.3418 33.0549L29.4471 32.8419L29.5172 32.7285L29.5873 32.6289L29.7645 32.4158L29.7812 32.3179L29.8698 32.22L29.9048 32.1376L30.0285 31.9417L30.0636 31.8421L30.1171 31.7287L30.2039 31.5157L30.3811 31.2357L30.4162 31.1378L30.4863 31.0398L30.5029 30.9419L30.645 30.7444L30.7503 30.5159L30.8555 30.4163L31.0142 30.1053L31.0493 30.0074L31.1195 29.9078L31.1545 29.7944L31.2967 29.614L31.3668 29.4165L31.4369 29.3357L31.5422 29.1382L31.5606 29.0231L31.6308 28.9252L31.736 28.7293L31.7711 28.6297L31.9132 28.4493L31.9483 28.3686L32 28.1556V27.9425L31.8061 27.8429L31.4554 27.8601L31.2616 27.8275H30.8038L30.5214 27.8429L30.2574 27.8103L29.6759 27.8429L29.5523 27.9082L29.3769 28.1229L29.2717 28.2861L29.2182 28.384L29.1296 28.5971L29.0243 28.8272L28.8656 29.1554L28.8305 29.2687L28.7954 29.3684L28.6552 29.5814L28.6367 29.6948L28.5665 29.7944L28.4613 30.0074L28.2841 30.4008L28.1789 30.5812L28.0903 30.777L27.95 30.9746L27.9316 31.0725L27.8614 31.1876L27.7562 31.3834L27.7211 31.4659L27.686 31.5638L27.6325 31.6462L27.5624 31.6291L27.5458 31.3834L27.4738 30.9574L27.4387 30.7615V30.6138L27.387 30.4489L27.3685 30.2359L27.387 30.0727L27.3169 29.9078L27.2799 29.7944L27.2283 29.5642L27.2449 29.4663L27.2098 29.0076L27.1397 28.8753V28.7121L27.088 28.5816V28.2037L27.0344 28.0405L26.8406 27.8429H26.5767L26.1004 27.8275L25.9066 27.8601L25.7829 27.8429L25.6075 27.8601L25.3602 27.8429L24.9024 27.8601L24.7621 27.8756L24.6735 27.9082L24.6218 28.0405V28.2037L24.6384 28.4167L24.6735 28.6469L24.692 28.7448L24.7086 28.9578L24.7806 29.4491L24.8507 29.6793V29.7944L24.8858 30.04L24.9393 30.1551L24.9209 30.351L24.9559 30.4815L24.991 30.8921L25.0095 31.0227L25.0962 31.2683L25.1498 31.5311V31.6462L25.1848 31.8593L25.255 32.0723L25.3085 32.2681L25.3251 32.3832L25.3787 32.6787L25.4322 32.9243L25.4137 33.0222L25.4488 33.2524L25.5023 33.3675V33.4981L25.554 33.7437L25.5909 33.9894L25.626 34.1045L25.6075 34.2351L25.626 34.3828L25.6777 34.5477L25.6961 34.7435L25.6075 35.0218L25.5909 35.2194L25.5189 35.3998V35.5131L25.5023 35.6128L25.4322 35.8258L25.3787 36.0869V36.2518L25.3251 36.3824L25.2734 36.6126L25.2384 36.8582L25.1848 36.9733L25.1498 37.1863L25.1313 37.3667L25.0445 37.7275L24.991 37.8735V38.0538L24.9559 38.1535L24.9393 38.2669L24.9209 38.3665L24.8858 38.4799L24.9024 38.5795L24.8673 38.7925L24.8323 38.9884L24.8507 39.2014L25.0445 39.2993H25.3085L25.4322 39.3165Z" fill="black"/>
</svg>
