<svg xmlns="http://www.w3.org/2000/svg" width="24" height="25" viewBox="0 0 24 25" fill="none">
  <path d="M18.4401 3.56006H5.56006C4.89759 3.56191 4.26277 3.82589 3.79433 4.29433C3.32589 4.76277 3.06191 5.39759 3.06006 6.06006V18.9401C3.06191 19.6025 3.32589 20.2373 3.79433 20.7058C4.26277 21.1742 4.89759 21.4382 5.56006 21.4401H18.4401C19.1031 21.4401 19.739 21.1767 20.2078 20.7078C20.6767 20.239 20.9401 19.6031 20.9401 18.9401V6.06006C20.9401 5.39702 20.6767 4.76113 20.2078 4.29229C19.739 3.82345 19.1031 3.56006 18.4401 3.56006ZM19.9401 18.9401C19.9372 19.337 19.7782 19.7169 19.4975 19.9975C19.2169 20.2782 18.837 20.4372 18.4401 20.4401H5.56006C5.16312 20.4372 4.78326 20.2782 4.50258 19.9975C4.2219 19.7169 4.06294 19.337 4.06006 18.9401V6.06006C4.06294 5.66312 4.2219 5.28326 4.50258 5.00258C4.78326 4.7219 5.16312 4.56294 5.56006 4.56006H18.4401C18.837 4.56294 19.2169 4.7219 19.4975 5.00258C19.7782 5.28326 19.9372 5.66312 19.9401 6.06006V18.9401Z" fill="#EAEDF6" stroke="#EAEDF6"/>
  <path d="M6.37598 11.248C6.37598 10.9828 6.48133 10.7285 6.66887 10.5409C6.85641 10.3534 7.11076 10.248 7.37598 10.248C7.64119 10.248 7.89555 10.3534 8.08308 10.5409C8.27062 10.7285 8.37598 10.9828 8.37598 11.248V17.748C8.37598 18.0133 8.27062 18.2676 8.08308 18.4552C7.89555 18.6427 7.64119 18.748 7.37598 18.748C7.11076 18.748 6.85641 18.6427 6.66887 18.4552C6.48133 18.2676 6.37598 18.0133 6.37598 17.748V11.248Z" fill="#EAEDF6"/>
  <path d="M7.37598 8.24414C7.92826 8.24414 8.37598 7.79643 8.37598 7.24414C8.37598 6.69186 7.92826 6.24414 7.37598 6.24414C6.82369 6.24414 6.37598 6.69186 6.37598 7.24414C6.37598 7.79643 6.82369 8.24414 7.37598 8.24414Z" fill="#EAEDF6"/>
  <path d="M17.6199 13.8699V17.7499C17.6199 18.0151 17.5145 18.2694 17.327 18.457C17.1395 18.6445 16.8851 18.7499 16.6199 18.7499C16.3547 18.7499 16.1003 18.6445 15.9128 18.457C15.7252 18.2694 15.6199 18.0151 15.6199 17.7499V13.8699C15.6199 13.4415 15.4497 13.0308 15.1469 12.7279C14.844 12.425 14.4332 12.2549 14.0049 12.2549C13.5766 12.2549 13.1658 12.425 12.8629 12.7279C12.56 13.0308 12.3899 13.4415 12.3899 13.8699V17.7499C12.3899 18.0151 12.2845 18.2694 12.097 18.457C11.9095 18.6445 11.6551 18.7499 11.3899 18.7499C11.1247 18.7499 10.8703 18.6445 10.6828 18.457C10.4952 18.2694 10.3899 18.0151 10.3899 17.7499V11.2499C10.394 10.9859 10.5007 10.734 10.6873 10.5473C10.874 10.3607 11.126 10.254 11.3899 10.2499C11.5593 10.2452 11.7267 10.2865 11.8746 10.3692C12.0225 10.4519 12.1452 10.5731 12.2299 10.7199C12.7797 10.4079 13.4018 10.2458 14.034 10.2499C14.6661 10.2539 15.2861 10.4239 15.8319 10.7429C16.3777 11.0618 16.8301 11.5186 17.1439 12.0674C17.4577 12.6161 17.6218 13.2377 17.6199 13.8699Z" fill="#EAEDF6"/>
</svg>