<svg width="394" height="341" viewBox="0 0 394 341" fill="none" xmlns="http://www.w3.org/2000/svg">
<circle cx="294.326" cy="99.3265" r="98.3265" fill="#F0FF47" stroke="white" stroke-width="2"/>
<path d="M278.379 108H269.074V91.1953H271.863V105.645H278.379V108ZM290.672 102.738H282.492C282.523 103.848 282.863 104.703 283.512 105.305C284.168 105.906 285.066 106.207 286.207 106.207C287.488 106.207 288.664 105.824 289.734 105.059V107.25C288.641 107.938 287.195 108.281 285.398 108.281C283.633 108.281 282.246 107.738 281.238 106.652C280.238 105.559 279.738 104.023 279.738 102.047C279.738 100.18 280.289 98.6602 281.391 97.4883C282.5 96.3086 283.875 95.7188 285.516 95.7188C287.156 95.7188 288.426 96.2461 289.324 97.3008C290.223 98.3555 290.672 99.8203 290.672 101.695V102.738ZM288.047 100.816C288.039 99.8398 287.809 99.082 287.355 98.543C286.902 97.9961 286.277 97.7227 285.48 97.7227C284.699 97.7227 284.035 98.0078 283.488 98.5781C282.949 99.1484 282.617 99.8945 282.492 100.816H288.047ZM302.473 108H299.836V106.125H299.789C298.961 107.562 297.746 108.281 296.145 108.281C294.965 108.281 294.039 107.961 293.367 107.32C292.703 106.68 292.371 105.832 292.371 104.777C292.371 102.512 293.676 101.191 296.285 100.816L299.848 100.312C299.848 98.6016 299.035 97.7461 297.41 97.7461C295.98 97.7461 294.691 98.2383 293.543 99.2227V96.8438C294.809 96.0938 296.27 95.7188 297.926 95.7188C300.957 95.7188 302.473 97.2109 302.473 100.195V108ZM299.848 102.105L297.328 102.457C296.547 102.559 295.957 102.75 295.559 103.031C295.168 103.305 294.973 103.789 294.973 104.484C294.973 104.992 295.152 105.41 295.512 105.738C295.879 106.059 296.367 106.219 296.977 106.219C297.805 106.219 298.488 105.93 299.027 105.352C299.574 104.766 299.848 104.031 299.848 103.148V102.105ZM316.488 108H313.77V101.238C313.77 98.9961 312.977 97.875 311.391 97.875C310.562 97.875 309.879 98.1875 309.34 98.8125C308.801 99.4297 308.531 100.211 308.531 101.156V108H305.801V96H308.531V97.9922H308.578C309.477 96.4766 310.773 95.7188 312.469 95.7188C313.773 95.7188 314.77 96.1445 315.457 96.9961C316.145 97.8398 316.488 99.0625 316.488 100.664V108Z" fill="black"/>
<circle cx="197.326" cy="241.326" r="98.3265" fill="#42E9C1" stroke="white" stroke-width="2"/>
<path d="M161.506 232V215.195H166.357C172.553 215.195 175.65 217.926 175.65 223.387C175.65 225.98 174.791 228.066 173.072 229.645C171.353 231.215 169.049 232 166.158 232H161.506ZM164.283 217.562V229.645H166.51C168.471 229.645 169.994 229.105 171.08 228.027C172.174 226.949 172.721 225.426 172.721 223.457C172.721 219.527 170.685 217.562 166.615 217.562H164.283ZM188.588 226.738H180.408C180.439 227.848 180.779 228.703 181.428 229.305C182.084 229.906 182.982 230.207 184.123 230.207C185.404 230.207 186.58 229.824 187.65 229.059V231.25C186.557 231.938 185.111 232.281 183.314 232.281C181.549 232.281 180.162 231.738 179.154 230.652C178.154 229.559 177.654 228.023 177.654 226.047C177.654 224.18 178.205 222.66 179.307 221.488C180.416 220.309 181.791 219.719 183.432 219.719C185.072 219.719 186.342 220.246 187.24 221.301C188.139 222.355 188.588 223.82 188.588 225.695V226.738ZM185.963 224.816C185.955 223.84 185.725 223.082 185.271 222.543C184.818 221.996 184.193 221.723 183.396 221.723C182.615 221.723 181.951 222.008 181.404 222.578C180.865 223.148 180.533 223.895 180.408 224.816H185.963ZM190.428 231.625V229.105C191.443 229.879 192.564 230.266 193.791 230.266C195.432 230.266 196.252 229.781 196.252 228.812C196.252 228.539 196.182 228.309 196.041 228.121C195.9 227.926 195.709 227.754 195.467 227.605C195.232 227.457 194.951 227.324 194.623 227.207C194.303 227.09 193.943 226.957 193.545 226.809C193.053 226.613 192.607 226.406 192.209 226.188C191.818 225.969 191.49 225.723 191.225 225.449C190.967 225.168 190.771 224.852 190.639 224.5C190.506 224.148 190.439 223.738 190.439 223.27C190.439 222.691 190.576 222.184 190.85 221.746C191.123 221.301 191.49 220.93 191.951 220.633C192.412 220.328 192.935 220.102 193.521 219.953C194.107 219.797 194.713 219.719 195.338 219.719C196.447 219.719 197.439 219.887 198.314 220.223V222.602C197.471 222.023 196.502 221.734 195.408 221.734C195.064 221.734 194.752 221.77 194.471 221.84C194.197 221.91 193.963 222.008 193.768 222.133C193.572 222.258 193.42 222.41 193.31 222.59C193.201 222.762 193.146 222.953 193.146 223.164C193.146 223.422 193.201 223.641 193.31 223.82C193.42 224 193.58 224.16 193.791 224.301C194.01 224.434 194.268 224.559 194.564 224.676C194.869 224.785 195.217 224.906 195.607 225.039C196.123 225.25 196.584 225.465 196.99 225.684C197.404 225.902 197.756 226.152 198.045 226.434C198.334 226.707 198.557 227.027 198.713 227.395C198.869 227.754 198.947 228.184 198.947 228.684C198.947 229.293 198.807 229.824 198.525 230.277C198.244 230.73 197.869 231.105 197.4 231.402C196.932 231.699 196.389 231.918 195.771 232.059C195.162 232.207 194.518 232.281 193.838 232.281C192.525 232.281 191.389 232.062 190.428 231.625ZM202.908 217.48C202.463 217.48 202.08 217.336 201.76 217.047C201.447 216.758 201.291 216.391 201.291 215.945C201.291 215.5 201.447 215.129 201.76 214.832C202.08 214.535 202.463 214.387 202.908 214.387C203.369 214.387 203.76 214.535 204.08 214.832C204.4 215.129 204.56 215.5 204.56 215.945C204.56 216.367 204.4 216.73 204.08 217.035C203.76 217.332 203.369 217.48 202.908 217.48ZM204.256 232H201.537V220H204.256V232ZM218.74 231.039C218.74 235.445 216.525 237.648 212.096 237.648C210.533 237.648 209.17 237.387 208.006 236.863V234.379C209.318 235.129 210.564 235.504 211.744 235.504C214.596 235.504 216.021 234.102 216.021 231.297V229.984H215.975C215.076 231.516 213.725 232.281 211.92 232.281C210.459 232.281 209.279 231.75 208.381 230.688C207.49 229.617 207.045 228.184 207.045 226.387C207.045 224.348 207.525 222.727 208.486 221.523C209.447 220.32 210.768 219.719 212.447 219.719C214.033 219.719 215.209 220.367 215.975 221.664H216.021V220H218.74V231.039ZM216.045 226.504V224.945C216.045 224.102 215.764 223.383 215.201 222.789C214.646 222.188 213.951 221.887 213.115 221.887C212.084 221.887 211.275 222.27 210.689 223.035C210.111 223.793 209.822 224.855 209.822 226.223C209.822 227.402 210.1 228.348 210.654 229.059C211.217 229.762 211.959 230.113 212.881 230.113C213.818 230.113 214.58 229.777 215.166 229.105C215.752 228.426 216.045 227.559 216.045 226.504ZM232.967 232H230.248V225.238C230.248 222.996 229.455 221.875 227.869 221.875C227.041 221.875 226.357 222.188 225.818 222.812C225.279 223.43 225.01 224.211 225.01 225.156V232H222.279V220H225.01V221.992H225.057C225.955 220.477 227.252 219.719 228.947 219.719C230.252 219.719 231.248 220.145 231.935 220.996C232.623 221.84 232.967 223.062 232.967 224.664V232ZM162.396 253.562H157.568V268H154.779V253.562H149.963V251.195H162.396V253.562ZM175.217 268H172.498V261.438C172.498 259.062 171.705 257.875 170.119 257.875C169.322 257.875 168.65 258.219 168.103 258.906C167.557 259.594 167.283 260.473 167.283 261.543V268H164.553V250.234H167.283V257.992H167.33C168.236 256.477 169.533 255.719 171.221 255.719C173.885 255.719 175.217 257.348 175.217 260.605V268ZM179.893 253.48C179.447 253.48 179.064 253.336 178.744 253.047C178.432 252.758 178.275 252.391 178.275 251.945C178.275 251.5 178.432 251.129 178.744 250.832C179.064 250.535 179.447 250.387 179.893 250.387C180.353 250.387 180.744 250.535 181.064 250.832C181.385 251.129 181.545 251.5 181.545 251.945C181.545 252.367 181.385 252.73 181.064 253.035C180.744 253.332 180.353 253.48 179.893 253.48ZM181.24 268H178.521V256H181.24V268ZM195.49 268H192.771V261.238C192.771 258.996 191.978 257.875 190.393 257.875C189.564 257.875 188.881 258.188 188.342 258.812C187.803 259.43 187.533 260.211 187.533 261.156V268H184.803V256H187.533V257.992H187.58C188.478 256.477 189.775 255.719 191.471 255.719C192.775 255.719 193.771 256.145 194.459 256.996C195.146 257.84 195.49 259.062 195.49 260.664V268ZM209.705 268H206.26L201.596 262.234H201.549V268H198.818V250.234H201.549V261.496H201.596L206.002 256H209.271L204.314 261.789L209.705 268ZM212.799 253.48C212.353 253.48 211.971 253.336 211.65 253.047C211.338 252.758 211.182 252.391 211.182 251.945C211.182 251.5 211.338 251.129 211.65 250.832C211.971 250.535 212.353 250.387 212.799 250.387C213.26 250.387 213.65 250.535 213.971 250.832C214.291 251.129 214.451 251.5 214.451 251.945C214.451 252.367 214.291 252.73 213.971 253.035C213.65 253.332 213.26 253.48 212.799 253.48ZM214.146 268H211.428V256H214.146V268ZM228.396 268H225.678V261.238C225.678 258.996 224.885 257.875 223.299 257.875C222.471 257.875 221.787 258.188 221.248 258.812C220.709 259.43 220.439 260.211 220.439 261.156V268H217.709V256H220.439V257.992H220.486C221.385 256.477 222.682 255.719 224.377 255.719C225.682 255.719 226.678 256.145 227.365 256.996C228.053 257.84 228.396 259.062 228.396 260.664V268ZM242.646 267.039C242.646 271.445 240.432 273.648 236.002 273.648C234.439 273.648 233.076 273.387 231.912 272.863V270.379C233.225 271.129 234.471 271.504 235.65 271.504C238.502 271.504 239.928 270.102 239.928 267.297V265.984H239.881C238.982 267.516 237.631 268.281 235.826 268.281C234.365 268.281 233.185 267.75 232.287 266.688C231.396 265.617 230.951 264.184 230.951 262.387C230.951 260.348 231.432 258.727 232.393 257.523C233.353 256.32 234.674 255.719 236.353 255.719C237.939 255.719 239.115 256.367 239.881 257.664H239.928V256H242.646V267.039ZM239.951 262.504V260.945C239.951 260.102 239.67 259.383 239.107 258.789C238.553 258.188 237.857 257.887 237.021 257.887C235.99 257.887 235.182 258.27 234.596 259.035C234.018 259.793 233.728 260.855 233.728 262.223C233.728 263.402 234.006 264.348 234.56 265.059C235.123 265.762 235.865 266.113 236.787 266.113C237.725 266.113 238.486 265.777 239.072 265.105C239.658 264.426 239.951 263.559 239.951 262.504Z" fill="black"/>
<circle cx="99.3265" cy="100.326" r="98.3265" fill="#F9A826" stroke="white" stroke-width="2"/>
<path d="M87.3907 109H84.3321L82.8204 104.723H76.211L74.7579 109H71.711L78.004 92.1953H81.1446L87.3907 109ZM82.0821 102.449L79.75 95.7461C79.6797 95.5273 79.6055 95.1758 79.5274 94.6914H79.4805C79.4102 95.1367 79.3321 95.4883 79.2461 95.7461L76.9375 102.449H82.0821ZM100.328 108.039C100.328 112.445 98.1133 114.648 93.6836 114.648C92.1211 114.648 90.7579 114.387 89.5938 113.863V111.379C90.9063 112.129 92.1524 112.504 93.3321 112.504C96.1836 112.504 97.6094 111.102 97.6094 108.297V106.984H97.5625C96.6641 108.516 95.3125 109.281 93.5079 109.281C92.0469 109.281 90.8672 108.75 89.9688 107.688C89.0782 106.617 88.6329 105.184 88.6329 103.387C88.6329 101.348 89.1133 99.7266 90.0743 98.5234C91.0352 97.3203 92.3555 96.7188 94.0352 96.7188C95.6211 96.7188 96.7969 97.3672 97.5625 98.6641H97.6094V97H100.328V108.039ZM97.6329 103.504V101.945C97.6329 101.102 97.3516 100.383 96.7891 99.7891C96.2344 99.1875 95.5391 98.8867 94.7032 98.8867C93.6719 98.8867 92.8633 99.2695 92.2774 100.035C91.6993 100.793 91.4102 101.855 91.4102 103.223C91.4102 104.402 91.6875 105.348 92.2422 106.059C92.8047 106.762 93.5469 107.113 94.4688 107.113C95.4063 107.113 96.168 106.777 96.754 106.105C97.3399 105.426 97.6329 104.559 97.6329 103.504ZM105.238 94.4805C104.793 94.4805 104.41 94.3359 104.09 94.0469C103.777 93.7578 103.621 93.3906 103.621 92.9453C103.621 92.5 103.777 92.1289 104.09 91.832C104.41 91.5352 104.793 91.3867 105.238 91.3867C105.699 91.3867 106.09 91.5352 106.41 91.832C106.731 92.1289 106.891 92.5 106.891 92.9453C106.891 93.3672 106.731 93.7305 106.41 94.0352C106.09 94.332 105.699 94.4805 105.238 94.4805ZM106.586 109H103.867V97H106.586V109ZM112.879 109H110.148V91.2344H112.879V109ZM126.59 103.738H118.41C118.441 104.848 118.781 105.703 119.43 106.305C120.086 106.906 120.984 107.207 122.125 107.207C123.406 107.207 124.582 106.824 125.652 106.059V108.25C124.559 108.938 123.113 109.281 121.316 109.281C119.551 109.281 118.164 108.738 117.156 107.652C116.156 106.559 115.656 105.023 115.656 103.047C115.656 101.18 116.207 99.6602 117.309 98.4883C118.418 97.3086 119.793 96.7188 121.434 96.7188C123.074 96.7188 124.344 97.2461 125.242 98.3008C126.141 99.3555 126.59 100.82 126.59 102.695V103.738ZM123.965 101.816C123.957 100.84 123.727 100.082 123.273 99.543C122.82 98.9961 122.195 98.7227 121.398 98.7227C120.617 98.7227 119.953 99.0078 119.406 99.5781C118.867 100.148 118.535 100.895 118.41 101.816H123.965Z" fill="black"/>
</svg>
