<svg width="619" height="535" viewBox="0 0 623 540" fill="none" xmlns="http://www.w3.org/2000/svg">
<path d="M466.409 312.519C552.339 312.519 622 242.895 622 157.009C622 71.1234 552.339 1.5 466.409 1.5C380.48 1.5 310.819 71.1234 310.819 157.009C310.819 242.895 380.48 312.519 466.409 312.519Z" fill="#F0FF47" stroke="white" stroke-width="2"/>
<path d="M438.926 164.768H426.52V142.362H430.238V161.627H438.926V164.768ZM455.316 157.752H444.41C444.452 159.232 444.905 160.372 445.77 161.174C446.645 161.976 447.842 162.377 449.363 162.377C451.072 162.377 452.639 161.867 454.066 160.846V163.768C452.608 164.685 450.681 165.143 448.285 165.143C445.931 165.143 444.082 164.419 442.738 162.971C441.405 161.513 440.738 159.466 440.738 156.831C440.738 154.341 441.473 152.315 442.941 150.752C444.421 149.18 446.254 148.393 448.441 148.393C450.629 148.393 452.322 149.096 453.52 150.502C454.717 151.909 455.316 153.862 455.316 156.362V157.752ZM451.816 155.19C451.806 153.888 451.499 152.877 450.895 152.159C450.29 151.43 449.457 151.065 448.395 151.065C447.353 151.065 446.467 151.445 445.738 152.206C445.02 152.966 444.577 153.961 444.41 155.19H451.816ZM471.051 164.768H467.535V162.268H467.473C466.368 164.185 464.749 165.143 462.613 165.143C461.04 165.143 459.806 164.716 458.91 163.862C458.025 163.008 457.582 161.877 457.582 160.471C457.582 157.45 459.322 155.69 462.801 155.19L467.551 154.518C467.551 152.237 466.467 151.096 464.301 151.096C462.395 151.096 460.676 151.752 459.145 153.065V149.893C460.832 148.893 462.78 148.393 464.988 148.393C469.03 148.393 471.051 150.383 471.051 154.362V164.768ZM467.551 156.909L464.191 157.377C463.15 157.513 462.363 157.768 461.832 158.143C461.311 158.508 461.051 159.153 461.051 160.081C461.051 160.758 461.29 161.315 461.77 161.752C462.259 162.18 462.91 162.393 463.723 162.393C464.827 162.393 465.738 162.008 466.457 161.237C467.186 160.456 467.551 159.476 467.551 158.299V156.909ZM489.738 164.768H486.113V155.752C486.113 152.763 485.056 151.268 482.941 151.268C481.837 151.268 480.926 151.685 480.207 152.518C479.488 153.341 479.129 154.383 479.129 155.643V164.768H475.488V148.768H479.129V151.424H479.191C480.389 149.403 482.118 148.393 484.379 148.393C486.118 148.393 487.447 148.961 488.363 150.096C489.28 151.221 489.738 152.851 489.738 154.987V164.768Z" fill="black"/>
<path d="M311.5 538.5C397.43 538.5 467.09 468.877 467.09 382.991C467.09 297.105 397.43 227.481 311.5 227.481C225.57 227.481 155.91 297.105 155.91 382.991C155.91 468.877 225.57 538.5 311.5 538.5Z" fill="#42E9C1" stroke="white" stroke-width="2"/>
<path d="M263.953 360.376V337.97H270.422C278.682 337.97 282.812 341.61 282.812 348.892C282.812 352.35 281.667 355.131 279.375 357.235C277.083 359.329 274.01 360.376 270.156 360.376H263.953ZM267.656 341.126V357.235H270.625C273.24 357.235 275.271 356.517 276.719 355.079C278.177 353.642 278.906 351.61 278.906 348.985C278.906 343.746 276.193 341.126 270.766 341.126H267.656ZM300.062 353.36H289.156C289.198 354.84 289.651 355.98 290.516 356.782C291.391 357.584 292.589 357.985 294.109 357.985C295.818 357.985 297.385 357.475 298.812 356.454V359.376C297.354 360.293 295.427 360.751 293.031 360.751C290.677 360.751 288.828 360.027 287.484 358.579C286.151 357.121 285.484 355.074 285.484 352.438C285.484 349.949 286.219 347.923 287.687 346.36C289.167 344.787 291 344.001 293.187 344.001C295.375 344.001 297.068 344.704 298.266 346.11C299.464 347.517 300.062 349.47 300.062 351.97V353.36ZM296.562 350.798C296.552 349.496 296.245 348.485 295.641 347.767C295.036 347.037 294.203 346.673 293.141 346.673C292.099 346.673 291.214 347.053 290.484 347.813C289.766 348.574 289.323 349.569 289.156 350.798H296.562ZM302.516 359.876V356.517C303.87 357.548 305.365 358.063 307 358.063C309.187 358.063 310.281 357.418 310.281 356.126C310.281 355.761 310.187 355.454 310 355.204C309.812 354.944 309.557 354.715 309.234 354.517C308.922 354.319 308.547 354.142 308.109 353.985C307.682 353.829 307.203 353.652 306.672 353.454C306.016 353.194 305.422 352.918 304.891 352.626C304.37 352.334 303.932 352.006 303.578 351.642C303.234 351.267 302.974 350.845 302.797 350.376C302.62 349.907 302.531 349.36 302.531 348.735C302.531 347.965 302.714 347.287 303.078 346.704C303.443 346.11 303.932 345.616 304.547 345.22C305.161 344.813 305.859 344.511 306.641 344.313C307.422 344.105 308.229 344.001 309.062 344.001C310.542 344.001 311.865 344.225 313.031 344.673V347.845C311.906 347.074 310.615 346.688 309.156 346.688C308.698 346.688 308.281 346.735 307.906 346.829C307.542 346.923 307.229 347.053 306.969 347.22C306.708 347.386 306.505 347.59 306.359 347.829C306.214 348.058 306.141 348.313 306.141 348.595C306.141 348.938 306.214 349.23 306.359 349.47C306.505 349.709 306.719 349.923 307 350.11C307.292 350.287 307.635 350.454 308.031 350.61C308.437 350.756 308.901 350.918 309.422 351.095C310.109 351.376 310.724 351.662 311.266 351.954C311.818 352.246 312.286 352.579 312.672 352.954C313.057 353.319 313.354 353.746 313.562 354.235C313.771 354.715 313.875 355.287 313.875 355.954C313.875 356.767 313.687 357.475 313.312 358.079C312.937 358.683 312.437 359.183 311.812 359.579C311.187 359.975 310.464 360.267 309.641 360.454C308.828 360.652 307.969 360.751 307.062 360.751C305.312 360.751 303.797 360.459 302.516 359.876ZM319.156 341.017C318.562 341.017 318.052 340.824 317.625 340.438C317.208 340.053 317 339.563 317 338.97C317 338.376 317.208 337.881 317.625 337.485C318.052 337.09 318.562 336.892 319.156 336.892C319.771 336.892 320.292 337.09 320.719 337.485C321.146 337.881 321.359 338.376 321.359 338.97C321.359 339.532 321.146 340.017 320.719 340.423C320.292 340.819 319.771 341.017 319.156 341.017ZM320.953 360.376H317.328V344.376H320.953V360.376ZM340.266 359.095C340.266 364.97 337.312 367.907 331.406 367.907C329.323 367.907 327.505 367.558 325.953 366.86V363.548C327.703 364.548 329.365 365.048 330.937 365.048C334.74 365.048 336.641 363.178 336.641 359.438V357.688H336.578C335.38 359.73 333.578 360.751 331.172 360.751C329.224 360.751 327.651 360.043 326.453 358.626C325.266 357.199 324.672 355.287 324.672 352.892C324.672 350.173 325.312 348.011 326.594 346.407C327.875 344.803 329.635 344.001 331.875 344.001C333.99 344.001 335.557 344.866 336.578 346.595H336.641V344.376H340.266V359.095ZM336.672 353.048V350.97C336.672 349.845 336.297 348.886 335.547 348.095C334.807 347.293 333.88 346.892 332.766 346.892C331.391 346.892 330.312 347.402 329.531 348.423C328.76 349.433 328.375 350.85 328.375 352.673C328.375 354.246 328.745 355.506 329.484 356.454C330.234 357.392 331.224 357.86 332.453 357.86C333.703 357.86 334.719 357.412 335.5 356.517C336.281 355.61 336.672 354.454 336.672 353.048ZM359.234 360.376H355.609V351.36C355.609 348.371 354.552 346.876 352.437 346.876C351.333 346.876 350.422 347.293 349.703 348.126C348.984 348.949 348.625 349.991 348.625 351.251V360.376H344.984V344.376H348.625V347.032H348.687C349.885 345.011 351.615 344.001 353.875 344.001C355.615 344.001 356.943 344.569 357.859 345.704C358.776 346.829 359.234 348.459 359.234 350.595V360.376ZM265.141 389.126H258.703V408.376H254.984V389.126H248.562V385.97H265.141V389.126ZM282.234 408.376H278.609V399.626C278.609 396.459 277.552 394.876 275.437 394.876C274.375 394.876 273.479 395.334 272.75 396.251C272.021 397.168 271.656 398.34 271.656 399.767V408.376H268.016V384.688H271.656V395.032H271.719C272.927 393.011 274.656 392.001 276.906 392.001C280.458 392.001 282.234 394.173 282.234 398.517V408.376ZM288.469 389.017C287.875 389.017 287.365 388.824 286.937 388.438C286.521 388.053 286.312 387.563 286.312 386.97C286.312 386.376 286.521 385.881 286.937 385.485C287.365 385.09 287.875 384.892 288.469 384.892C289.083 384.892 289.604 385.09 290.031 385.485C290.458 385.881 290.672 386.376 290.672 386.97C290.672 387.532 290.458 388.017 290.031 388.423C289.604 388.819 289.083 389.017 288.469 389.017ZM290.266 408.376H286.641V392.376H290.266V408.376ZM309.266 408.376H305.641V399.36C305.641 396.371 304.583 394.876 302.469 394.876C301.365 394.876 300.453 395.293 299.734 396.126C299.016 396.949 298.656 397.991 298.656 399.251V408.376H295.016V392.376H298.656V395.032H298.719C299.917 393.011 301.646 392.001 303.906 392.001C305.646 392.001 306.974 392.569 307.891 393.704C308.807 394.829 309.266 396.459 309.266 398.595V408.376ZM328.219 408.376H323.625L317.406 400.688H317.344V408.376H313.703V384.688H317.344V399.704H317.406L323.281 392.376H327.641L321.031 400.095L328.219 408.376ZM332.344 389.017C331.75 389.017 331.24 388.824 330.812 388.438C330.396 388.053 330.187 387.563 330.187 386.97C330.187 386.376 330.396 385.881 330.812 385.485C331.24 385.09 331.75 384.892 332.344 384.892C332.958 384.892 333.479 385.09 333.906 385.485C334.333 385.881 334.547 386.376 334.547 386.97C334.547 387.532 334.333 388.017 333.906 388.423C333.479 388.819 332.958 389.017 332.344 389.017ZM334.141 408.376H330.516V392.376H334.141V408.376ZM353.141 408.376H349.516V399.36C349.516 396.371 348.458 394.876 346.344 394.876C345.24 394.876 344.328 395.293 343.609 396.126C342.891 396.949 342.531 397.991 342.531 399.251V408.376H338.891V392.376H342.531V395.032H342.594C343.792 393.011 345.521 392.001 347.781 392.001C349.521 392.001 350.849 392.569 351.766 393.704C352.682 394.829 353.141 396.459 353.141 398.595V408.376ZM372.141 407.095C372.141 412.97 369.187 415.907 363.281 415.907C361.198 415.907 359.38 415.558 357.828 414.86V411.548C359.578 412.548 361.24 413.048 362.812 413.048C366.615 413.048 368.516 411.178 368.516 407.438V405.688H368.453C367.255 407.73 365.453 408.751 363.047 408.751C361.099 408.751 359.526 408.043 358.328 406.626C357.141 405.199 356.547 403.287 356.547 400.892C356.547 398.173 357.187 396.011 358.469 394.407C359.75 392.803 361.51 392.001 363.75 392.001C365.865 392.001 367.432 392.866 368.453 394.595H368.516V392.376H372.141V407.095ZM368.547 401.048V398.97C368.547 397.845 368.172 396.886 367.422 396.095C366.682 395.293 365.755 394.892 364.641 394.892C363.266 394.892 362.187 395.402 361.406 396.423C360.635 397.433 360.25 398.85 360.25 400.673C360.25 402.246 360.62 403.506 361.359 404.454C362.109 405.392 363.099 405.86 364.328 405.86C365.578 405.86 366.594 405.412 367.375 404.517C368.156 403.61 368.547 402.454 368.547 401.048Z" fill="black"/>
<path d="M156.59 313.749C242.52 313.749 312.181 244.126 312.181 158.24C312.181 72.3536 242.52 2.73022 156.59 2.73022C70.6607 2.73022 1 72.3536 1 158.24C1 244.126 70.6607 313.749 156.59 313.749Z" fill="#F9A826" stroke="white" stroke-width="2"/>
<path d="M140.638 164.593H136.56L134.544 158.89H125.732L123.794 164.593H119.732L128.123 142.187H132.31L140.638 164.593ZM133.56 155.859L130.451 146.921C130.357 146.629 130.258 146.161 130.154 145.515H130.091C129.998 146.109 129.893 146.577 129.779 146.921L126.701 155.859H133.56ZM157.888 163.312C157.888 169.187 154.935 172.124 149.029 172.124C146.945 172.124 145.128 171.775 143.576 171.077V167.765C145.326 168.765 146.987 169.265 148.56 169.265C152.362 169.265 154.263 167.395 154.263 163.656V161.906H154.201C153.003 163.947 151.201 164.968 148.794 164.968C146.847 164.968 145.274 164.26 144.076 162.843C142.888 161.416 142.294 159.504 142.294 157.109C142.294 154.39 142.935 152.228 144.216 150.624C145.498 149.02 147.258 148.218 149.498 148.218C151.612 148.218 153.18 149.083 154.201 150.812H154.263V148.593H157.888V163.312ZM154.294 157.265V155.187C154.294 154.062 153.919 153.103 153.169 152.312C152.43 151.51 151.503 151.109 150.388 151.109C149.013 151.109 147.935 151.619 147.154 152.64C146.383 153.65 145.998 155.067 145.998 156.89C145.998 158.463 146.367 159.723 147.107 160.671C147.857 161.609 148.847 162.077 150.076 162.077C151.326 162.077 152.341 161.629 153.123 160.734C153.904 159.827 154.294 158.671 154.294 157.265ZM164.435 145.234C163.841 145.234 163.331 145.041 162.904 144.656C162.487 144.27 162.279 143.781 162.279 143.187C162.279 142.593 162.487 142.098 162.904 141.702C163.331 141.307 163.841 141.109 164.435 141.109C165.05 141.109 165.57 141.307 165.998 141.702C166.425 142.098 166.638 142.593 166.638 143.187C166.638 143.749 166.425 144.234 165.998 144.64C165.57 145.036 165.05 145.234 164.435 145.234ZM166.232 164.593H162.607V148.593H166.232V164.593ZM174.623 164.593H170.982V140.906H174.623V164.593ZM192.904 157.577H181.998C182.039 159.057 182.492 160.197 183.357 160.999C184.232 161.801 185.43 162.202 186.951 162.202C188.659 162.202 190.227 161.692 191.654 160.671V163.593C190.195 164.51 188.268 164.968 185.873 164.968C183.518 164.968 181.669 164.244 180.326 162.796C178.992 161.338 178.326 159.291 178.326 156.656C178.326 154.166 179.06 152.14 180.529 150.577C182.008 149.004 183.841 148.218 186.029 148.218C188.216 148.218 189.909 148.921 191.107 150.327C192.305 151.734 192.904 153.687 192.904 156.187V157.577ZM189.404 155.015C189.393 153.713 189.086 152.702 188.482 151.984C187.878 151.254 187.044 150.89 185.982 150.89C184.94 150.89 184.055 151.27 183.326 152.031C182.607 152.791 182.164 153.786 181.998 155.015H189.404Z" fill="black"/>
</svg>
