<svg width="564" height="369" viewBox="0 0 564 369" fill="none" xmlns="http://www.w3.org/2000/svg">
<g clip-path="url(#clip0_423_875)">
<path d="M279.1 62.7304C288.55 62.7304 296.21 55.0758 296.21 45.6333C296.21 36.1908 288.55 28.5362 279.1 28.5362C269.651 28.5362 261.991 36.1908 261.991 45.6333C261.991 55.0758 269.651 62.7304 279.1 62.7304Z" fill="#FD6584"/>
<path d="M317.393 37.5375C316.91 35.9565 315.976 34.551 314.704 33.4941C313.432 32.4372 311.879 31.775 310.235 31.5889C310.197 31.5857 310.158 31.5857 310.12 31.5889C310.074 31.5746 310.027 31.5638 309.979 31.5569C304.25 30.8142 297.881 32.6199 293.594 36.5514C292.002 37.9879 290.73 39.7417 289.858 41.6996C289.063 40.615 288.016 39.7402 286.807 39.1511C285.598 38.562 284.263 38.2763 282.918 38.3187C281.184 38.4333 279.528 39.0795 278.174 40.1692C276.821 41.259 275.837 42.7393 275.357 44.4082C275.304 44.6121 275.319 44.8276 275.398 45.0226C275.478 45.2176 275.618 45.3816 275.799 45.4903C276.314 45.9308 276.927 46.2425 277.587 46.3996C279.003 46.7006 280.432 46.9759 281.861 47.2256C284.655 47.7123 287.464 48.1071 290.287 48.4102C292.152 48.6087 294.021 48.7667 295.894 48.8841C299.765 49.1274 303.654 49.185 307.531 49.0633C309.453 48.9993 311.299 48.9353 313.055 48.09C314.334 47.4613 315.427 46.5101 316.227 45.3303C316.979 44.1954 317.473 42.9095 317.675 41.5632C317.876 40.2168 317.78 38.8427 317.393 37.5375Z" fill="#E6E6E6"/>
<path d="M282.194 62.4461C282.162 61.7297 282.041 61.02 281.835 60.333C281.35 58.7522 280.414 57.3471 279.142 56.2904C277.869 55.2337 276.315 54.5713 274.671 54.3844C274.635 54.3812 274.599 54.3812 274.562 54.3844C274.514 54.3707 274.465 54.36 274.415 54.3524C271.244 53.9643 268.027 54.2948 265.002 55.3193C260.349 56.8753 256.268 60.0128 254.3 64.4951C253.505 63.4098 252.457 62.5346 251.246 61.9455C250.036 61.3564 248.7 61.071 247.354 61.1142C245.62 61.2288 243.964 61.875 242.61 62.9647C241.257 64.0545 240.273 65.5348 239.793 67.2037C239.743 67.4076 239.759 67.6221 239.838 67.8164C239.918 68.0108 240.057 68.175 240.235 68.2858C240.751 68.7251 241.364 69.0366 242.023 69.1951C243.445 69.496 244.868 69.7714 246.303 70.0211C249.097 70.5078 251.904 70.9026 254.723 71.2057C260.451 71.8202 266.215 72.0384 271.973 71.8588C273.889 71.7948 275.741 71.7307 277.497 70.8856C278.775 70.2566 279.866 69.3053 280.663 68.1257C281.786 66.4531 282.324 64.4563 282.194 62.4461Z" fill="#E6E6E6"/>
<path d="M505.029 269.903C505.275 281.561 503.665 293.183 500.26 304.335C500.141 304.74 499.998 305.145 499.855 305.55H429.653C430.656 300.612 432.249 295.812 434.398 291.253C440.24 278.863 449.778 268.259 459.198 257.727C472.17 243.216 484.832 228.823 486.835 209.951C491.977 217.784 496.081 226.25 499.044 235.138C495.416 236.481 492.087 238.521 489.243 241.142C488.456 241.881 487.622 242.953 488.027 243.978C488.409 244.836 489.458 245.122 490.388 245.312C492.629 245.741 494.871 246.17 497.112 246.575C498.877 246.933 500.665 247.266 502.454 247.6C504.026 254.935 504.888 262.404 505.029 269.903Z" fill="#F2F2F2"/>
<path d="M564 262.183C552.745 269.022 545.591 279.601 539.749 291.444C534.665 292.602 529.972 295.066 526.133 298.593C525.322 299.331 524.488 300.403 524.917 301.428C525.275 302.286 526.348 302.572 527.277 302.762C529.495 303.191 531.761 303.62 533.978 304.025C533.764 304.526 533.549 305.05 533.334 305.55H458.936C462.313 300.999 466.053 296.728 470.119 292.779C471.002 291.897 471.908 291.063 472.838 290.205C482.322 281.64 493.212 274.773 505.03 269.903C523.647 262.126 544.006 259.461 564 262.183Z" fill="#F2F2F2"/>
<path d="M471.335 305.55H405.092C404.73 300.25 404.762 294.929 405.187 289.633C407.834 256.917 425.647 225.75 452.521 206.877C449.087 219.101 450.852 231.254 454.429 243.454C453.928 243.621 453.427 243.764 452.974 243.954C449.346 245.297 446.017 247.337 443.173 249.959C442.387 250.698 441.552 251.77 441.957 252.795C442.315 253.652 443.388 253.938 444.318 254.129C446.559 254.558 448.801 254.987 451.019 255.392C452.807 255.749 454.596 256.083 456.384 256.44C457.218 256.583 458.053 256.75 458.888 256.917C459.007 257.203 459.079 257.465 459.198 257.727C463.395 269.284 467.973 280.936 470.119 292.779C470.65 295.75 471.017 298.749 471.216 301.762C471.288 303.025 471.335 304.288 471.335 305.55Z" fill="#F2F2F2"/>
<path d="M110.301 269.903C110.547 281.561 108.937 293.183 105.532 304.335C105.413 304.74 105.27 305.145 105.127 305.55H34.9246C35.9281 300.612 37.5213 295.812 39.67 291.253C45.5121 278.863 55.0504 268.259 64.4696 257.727C77.4417 243.216 90.1038 228.823 92.1069 209.951C97.2488 217.784 101.353 226.25 104.316 235.138C100.688 236.481 97.3585 238.521 94.5153 241.142C93.7284 241.881 92.8937 242.953 93.2992 243.978C93.6807 244.836 94.7299 245.122 95.6599 245.312C97.9014 245.741 100.143 246.17 102.384 246.575C104.149 246.933 105.937 247.266 107.726 247.6C109.298 254.935 110.16 262.404 110.301 269.903Z" fill="#F2F2F2"/>
<path d="M169.272 262.183C158.017 269.022 150.863 279.601 145.021 291.444C139.937 292.602 135.243 295.066 131.405 298.593C130.594 299.331 129.759 300.403 130.189 301.428C130.546 302.286 131.619 302.572 132.549 302.762C134.767 303.191 137.032 303.62 139.25 304.025C139.035 304.526 138.821 305.05 138.606 305.55H64.2073C67.5846 300.999 71.3247 296.728 75.391 292.779C76.2733 291.897 77.1794 291.063 78.1094 290.205C87.5934 281.64 98.4833 274.773 110.301 269.903C128.919 262.126 149.278 259.461 169.272 262.183Z" fill="#F2F2F2"/>
<path d="M76.6071 305.55H10.3634C10.0016 300.25 10.0335 294.929 10.4588 289.633C13.1057 256.917 30.9184 225.75 57.7927 206.877C54.3589 219.101 56.1234 231.254 59.7003 243.454C59.1997 243.621 58.6989 243.764 58.2458 243.954C54.6179 245.297 51.2884 247.337 48.4452 249.959C47.6582 250.698 46.8237 251.77 47.229 252.795C47.5866 253.652 48.6597 253.938 49.5897 254.129C51.8312 254.558 54.0727 254.987 56.2904 255.392C58.0788 255.749 59.8673 256.083 61.6557 256.44C62.4902 256.583 63.3249 256.75 64.1595 256.917C64.2786 257.203 64.3503 257.465 64.4695 257.727C68.6664 269.284 73.2447 280.936 75.3909 292.779C75.9221 295.75 76.2883 298.749 76.4878 301.762C76.5594 303.025 76.6071 304.288 76.6071 305.55Z" fill="#F2F2F2"/>
<path d="M323.222 277.759L382.412 283.01L383.047 283.067V30.6907C382.835 30.5434 382.624 30.3961 382.412 30.2489C370.076 21.6267 356.732 14.5435 342.677 9.15663L339.652 50.8416L339.377 54.6579L336.384 95.9971L335.461 108.714L323.331 276.286L323.222 277.759Z" fill="#E6E6E6"/>
<path d="M176.846 25.9907C176.423 26.2596 176 26.5286 175.577 26.8103V283.067L176.846 282.952L235.395 277.759L235.286 276.286L223.156 108.714L222.233 95.9971L219.241 54.6579L218.965 50.8416L215.793 7.12682C202.115 11.8648 189.042 18.1964 176.846 25.9907Z" fill="#E6E6E6"/>
<path d="M175.577 26.8103C174.725 27.361 173.873 27.9245 173.033 28.4944V286.563C173.033 293.012 176.859 298.416 181.972 299.793C182.808 300.019 183.67 300.133 184.535 300.132H374.723C375.586 300.133 376.446 300.019 377.279 299.793C379.18 299.266 380.903 298.234 382.265 296.809C384.862 294.034 386.282 290.362 386.225 286.563V32.983C385.174 32.2082 384.117 31.4398 383.047 30.6907C382.835 30.5434 382.624 30.3961 382.412 30.2488V286.563C382.414 287.394 382.315 288.222 382.117 289.029C381.214 292.839 378.234 295.63 374.723 295.63H184.535C180.293 295.63 176.846 291.564 176.846 286.563V25.9907C176.423 26.2596 176 26.5286 175.577 26.8103Z" fill="#E6E6E6"/>
<path d="M384.318 50.8442H174.938V54.6599H384.318V50.8442Z" fill="#E6E6E6"/>
<path d="M320.191 2.1707C318.922 1.85695 317.654 1.56239 316.372 1.28706V104.898H320.191V2.1707Z" fill="#E6E6E6"/>
<path d="M242.886 0C241.611 0.236919 240.336 0.480244 239.067 0.742776V104.898H242.886V0Z" fill="#E6E6E6"/>
<path d="M133.887 293.453C133.886 295.643 134.306 297.812 135.124 299.844C135.438 300.631 135.813 301.394 136.245 302.123C136.804 303.075 137.452 303.971 138.181 304.8C139.79 306.633 141.773 308.102 143.997 309.108C146.22 310.114 148.633 310.634 151.073 310.633H401.822C406.38 310.633 410.751 308.824 413.974 305.603C417.197 302.383 419.008 298.014 419.008 293.46C419.008 288.905 417.197 284.537 413.974 281.316C410.751 278.096 406.38 276.286 401.822 276.286H151.073C146.518 276.291 142.15 278.101 138.928 281.319C135.706 284.537 133.893 288.901 133.887 293.453Z" fill="#E6E6E6"/>
<path d="M174.938 108.715L383.046 108.715V95.9964L174.938 95.9964V108.715Z" fill="#E6E6E6"/>
<path d="M287.902 99.1762H270.082C270.082 97.3209 270.82 95.5416 272.132 94.2297C273.445 92.9178 275.226 92.1808 277.083 92.1808H280.901C281.82 92.1808 282.731 92.3617 283.58 92.7133C284.429 93.0648 285.201 93.5801 285.851 94.2297C286.501 94.8793 287.017 95.6504 287.369 96.4991C287.72 97.3479 287.902 98.2575 287.902 99.1762Z" fill="#E6E6E6"/>
<path d="M0 303.263C5.56673 309.854 11.5878 316.048 18.0191 321.8H534.869C541.301 316.048 547.322 309.854 552.889 303.263H0Z" fill="#3F3D56"/>
<path d="M254.196 241.273V306.945H300.237V241.273C300.238 240.801 300.087 240.341 299.807 239.961C299.526 239.58 299.131 239.3 298.68 239.16C298.467 239.09 298.244 239.055 298.02 239.058H256.42C256.128 239.057 255.839 239.114 255.569 239.225C255.3 239.336 255.055 239.499 254.848 239.705C254.642 239.911 254.478 240.155 254.366 240.424C254.254 240.694 254.196 240.982 254.196 241.273ZM272.164 263.838C272.176 262.544 272.699 261.306 273.62 260.395C274.54 259.484 275.783 258.973 277.079 258.973C278.374 258.973 279.617 259.484 280.538 260.395C281.458 261.306 281.981 262.544 281.994 263.838V271.458C281.987 272.756 281.466 273.999 280.545 274.915C279.624 275.831 278.378 276.345 277.079 276.345C275.78 276.345 274.533 275.831 273.612 274.915C272.691 273.999 272.17 272.756 272.164 271.458V263.838Z" fill="#2F2E41"/>
<path d="M254.055 304.845V311.177C254.056 311.506 254.187 311.82 254.418 312.052C254.65 312.285 254.964 312.417 255.292 312.42H299.141C299.47 312.418 299.785 312.286 300.016 312.054C300.248 311.821 300.378 311.506 300.378 311.177V304.845H254.055Z" fill="#3F3D56"/>
<path d="M181.767 142.331V262.238C181.768 263.766 182.376 265.231 183.458 266.311C184.539 267.392 186.005 267.999 187.534 268.001H365.354C366.883 267.999 368.35 267.392 369.431 266.311C370.512 265.231 371.12 263.766 371.121 262.238V142.331C371.118 140.804 370.509 139.341 369.428 138.262C368.347 137.183 366.882 136.576 365.354 136.574H187.534C186.006 136.576 184.542 137.183 183.461 138.262C182.38 139.341 181.771 140.804 181.767 142.331Z" fill="#3F3D56"/>
<path d="M185.939 143.823V260.758C185.94 261.575 186.265 262.357 186.843 262.935C187.421 263.512 188.204 263.837 189.021 263.838H363.874C364.691 263.837 365.474 263.512 366.052 262.935C366.63 262.357 366.955 261.575 366.956 260.758V143.823C366.956 143.005 366.632 142.221 366.054 141.643C365.476 141.064 364.692 140.738 363.874 140.736H189.021C188.203 140.738 187.419 141.064 186.841 141.643C186.263 142.221 185.939 143.005 185.939 143.823Z" fill="#5E17EB"/>
<path d="M221.592 313.912C221.77 314.135 221.997 314.314 222.254 314.438C222.512 314.561 222.794 314.624 223.079 314.622H327.105C327.39 314.622 327.671 314.558 327.927 314.436C328.184 314.313 328.41 314.135 328.59 313.915C328.769 313.694 328.897 313.436 328.964 313.16C329.03 312.883 329.035 312.595 328.977 312.317L327.362 304.653C327.295 304.34 327.151 304.049 326.943 303.806C326.734 303.564 326.469 303.377 326.17 303.263C325.953 303.178 325.723 303.135 325.491 303.135H224.688C224.455 303.135 224.225 303.178 224.008 303.263C223.709 303.377 223.444 303.564 223.236 303.806C223.027 304.049 222.883 304.34 222.816 304.653L221.202 312.317C221.144 312.595 221.149 312.883 221.217 313.158C221.285 313.434 221.413 313.692 221.592 313.912Z" fill="#2F2E41"/>
<path d="M321.861 306.436H324.439C324.612 306.436 324.752 306.296 324.752 306.124V304.828C324.752 304.655 324.612 304.515 324.439 304.515H321.861C321.688 304.515 321.548 304.655 321.548 304.828V306.124C321.548 306.296 321.688 306.436 321.861 306.436Z" fill="#3F3D56"/>
<path d="M315.453 306.436H318.031C318.204 306.436 318.344 306.296 318.344 306.124V304.828C318.344 304.655 318.204 304.515 318.031 304.515H315.453C315.28 304.515 315.14 304.655 315.14 304.828V306.124C315.14 306.296 315.28 306.436 315.453 306.436Z" fill="#3F3D56"/>
<path d="M309.045 306.436H311.623C311.796 306.436 311.936 306.296 311.936 306.124V304.828C311.936 304.655 311.796 304.515 311.623 304.515H309.045C308.872 304.515 308.732 304.655 308.732 304.828V306.124C308.732 306.296 308.872 306.436 309.045 306.436Z" fill="#3F3D56"/>
<path d="M302.637 306.436H305.215C305.388 306.436 305.528 306.296 305.528 306.124V304.828C305.528 304.655 305.388 304.515 305.215 304.515H302.637C302.464 304.515 302.324 304.655 302.324 304.828V306.124C302.324 306.296 302.464 306.436 302.637 306.436Z" fill="#3F3D56"/>
<path d="M296.229 306.436H298.807C298.98 306.436 299.12 306.296 299.12 306.124V304.828C299.12 304.655 298.98 304.515 298.807 304.515H296.229C296.056 304.515 295.916 304.655 295.916 304.828V306.124C295.916 306.296 296.056 306.436 296.229 306.436Z" fill="#3F3D56"/>
<path d="M289.821 306.436H292.399C292.572 306.436 292.712 306.296 292.712 306.124V304.828C292.712 304.655 292.572 304.515 292.399 304.515H289.821C289.648 304.515 289.508 304.655 289.508 304.828V306.124C289.508 306.296 289.648 306.436 289.821 306.436Z" fill="#3F3D56"/>
<path d="M283.413 306.436H285.991C286.164 306.436 286.304 306.296 286.304 306.124V304.828C286.304 304.655 286.164 304.515 285.991 304.515H283.413C283.24 304.515 283.1 304.655 283.1 304.828V306.124C283.1 306.296 283.24 306.436 283.413 306.436Z" fill="#3F3D56"/>
<path d="M277.005 306.436H279.583C279.756 306.436 279.896 306.296 279.896 306.124V304.828C279.896 304.655 279.756 304.515 279.583 304.515H277.005C276.832 304.515 276.692 304.655 276.692 304.828V306.124C276.692 306.296 276.832 306.436 277.005 306.436Z" fill="#3F3D56"/>
<path d="M270.597 306.436H273.175C273.348 306.436 273.488 306.296 273.488 306.124V304.828C273.488 304.655 273.348 304.515 273.175 304.515H270.597C270.424 304.515 270.284 304.655 270.284 304.828V306.124C270.284 306.296 270.424 306.436 270.597 306.436Z" fill="#3F3D56"/>
<path d="M264.189 306.436H266.767C266.94 306.436 267.08 306.296 267.08 306.124V304.828C267.08 304.655 266.94 304.515 266.767 304.515H264.189C264.016 304.515 263.876 304.655 263.876 304.828V306.124C263.876 306.296 264.016 306.436 264.189 306.436Z" fill="#3F3D56"/>
<path d="M257.781 306.436H260.36C260.532 306.436 260.672 306.296 260.672 306.124V304.828C260.672 304.655 260.532 304.515 260.36 304.515H257.781C257.608 304.515 257.468 304.655 257.468 304.828V306.124C257.468 306.296 257.608 306.436 257.781 306.436Z" fill="#3F3D56"/>
<path d="M251.373 306.436H253.952C254.125 306.436 254.265 306.296 254.265 306.124V304.828C254.265 304.655 254.125 304.515 253.952 304.515H251.373C251.201 304.515 251.061 304.655 251.061 304.828V306.124C251.061 306.296 251.201 306.436 251.373 306.436Z" fill="#3F3D56"/>
<path d="M244.966 306.436H247.544C247.717 306.436 247.857 306.296 247.857 306.124V304.828C247.857 304.655 247.717 304.515 247.544 304.515H244.966C244.793 304.515 244.653 304.655 244.653 304.828V306.124C244.653 306.296 244.793 306.436 244.966 306.436Z" fill="#3F3D56"/>
<path d="M238.558 306.436H241.136C241.309 306.436 241.449 306.296 241.449 306.124V304.828C241.449 304.655 241.309 304.515 241.136 304.515H238.558C238.385 304.515 238.245 304.655 238.245 304.828V306.124C238.245 306.296 238.385 306.436 238.558 306.436Z" fill="#3F3D56"/>
<path d="M232.15 306.436H234.728C234.901 306.436 235.041 306.296 235.041 306.124V304.828C235.041 304.655 234.901 304.515 234.728 304.515H232.15C231.977 304.515 231.837 304.655 231.837 304.828V306.124C231.837 306.296 231.977 306.436 232.15 306.436Z" fill="#3F3D56"/>
<path d="M225.742 306.436H228.32C228.493 306.436 228.633 306.296 228.633 306.124V304.828C228.633 304.655 228.493 304.515 228.32 304.515H225.742C225.569 304.515 225.429 304.655 225.429 304.828V306.124C225.429 306.296 225.569 306.436 225.742 306.436Z" fill="#3F3D56"/>
<path d="M321.936 309.638H324.515C324.687 309.638 324.827 309.498 324.827 309.325V308.03C324.827 307.857 324.687 307.717 324.515 307.717H321.936C321.763 307.717 321.623 307.857 321.623 308.03V309.325C321.623 309.498 321.763 309.638 321.936 309.638Z" fill="#3F3D56"/>
<path d="M315.528 309.638H318.107C318.279 309.638 318.419 309.498 318.419 309.325V308.03C318.419 307.857 318.279 307.717 318.107 307.717H315.528C315.356 307.717 315.215 307.857 315.215 308.03V309.325C315.215 309.498 315.356 309.638 315.528 309.638Z" fill="#3F3D56"/>
<path d="M309.12 309.638H311.699C311.871 309.638 312.011 309.498 312.011 309.325V308.03C312.011 307.857 311.871 307.717 311.699 307.717H309.12C308.948 307.717 308.808 307.857 308.808 308.03V309.325C308.808 309.498 308.948 309.638 309.12 309.638Z" fill="#3F3D56"/>
<path d="M302.713 309.638H305.291C305.464 309.638 305.604 309.498 305.604 309.325V308.03C305.604 307.857 305.464 307.717 305.291 307.717H302.713C302.54 307.717 302.4 307.857 302.4 308.03V309.325C302.4 309.498 302.54 309.638 302.713 309.638Z" fill="#3F3D56"/>
<path d="M296.305 309.638H298.883C299.056 309.638 299.196 309.498 299.196 309.325V308.03C299.196 307.857 299.056 307.717 298.883 307.717H296.305C296.132 307.717 295.992 307.857 295.992 308.03V309.325C295.992 309.498 296.132 309.638 296.305 309.638Z" fill="#3F3D56"/>
<path d="M289.897 309.638H292.475C292.648 309.638 292.788 309.498 292.788 309.325V308.03C292.788 307.857 292.648 307.717 292.475 307.717H289.897C289.724 307.717 289.584 307.857 289.584 308.03V309.325C289.584 309.498 289.724 309.638 289.897 309.638Z" fill="#3F3D56"/>
<path d="M283.489 309.638H286.067C286.24 309.638 286.38 309.498 286.38 309.325V308.03C286.38 307.857 286.24 307.717 286.067 307.717H283.489C283.316 307.717 283.176 307.857 283.176 308.03V309.325C283.176 309.498 283.316 309.638 283.489 309.638Z" fill="#3F3D56"/>
<path d="M277.081 309.638H279.659C279.832 309.638 279.972 309.498 279.972 309.325V308.03C279.972 307.857 279.832 307.717 279.659 307.717H277.081C276.908 307.717 276.768 307.857 276.768 308.03V309.325C276.768 309.498 276.908 309.638 277.081 309.638Z" fill="#3F3D56"/>
<path d="M270.673 309.638H273.251C273.424 309.638 273.564 309.498 273.564 309.325V308.03C273.564 307.857 273.424 307.717 273.251 307.717H270.673C270.5 307.717 270.36 307.857 270.36 308.03V309.325C270.36 309.498 270.5 309.638 270.673 309.638Z" fill="#3F3D56"/>
<path d="M264.265 309.638H266.843C267.016 309.638 267.156 309.498 267.156 309.325V308.03C267.156 307.857 267.016 307.717 266.843 307.717H264.265C264.092 307.717 263.952 307.857 263.952 308.03V309.325C263.952 309.498 264.092 309.638 264.265 309.638Z" fill="#3F3D56"/>
<path d="M257.857 309.638H260.435C260.608 309.638 260.748 309.498 260.748 309.325V308.03C260.748 307.857 260.608 307.717 260.435 307.717H257.857C257.684 307.717 257.544 307.857 257.544 308.03V309.325C257.544 309.498 257.684 309.638 257.857 309.638Z" fill="#3F3D56"/>
<path d="M251.449 309.638H254.027C254.2 309.638 254.34 309.498 254.34 309.325V308.03C254.34 307.857 254.2 307.717 254.027 307.717H251.449C251.276 307.717 251.136 307.857 251.136 308.03V309.325C251.136 309.498 251.276 309.638 251.449 309.638Z" fill="#3F3D56"/>
<path d="M245.041 309.638H247.62C247.792 309.638 247.932 309.498 247.932 309.325V308.03C247.932 307.857 247.792 307.717 247.62 307.717H245.041C244.868 307.717 244.728 307.857 244.728 308.03V309.325C244.728 309.498 244.868 309.638 245.041 309.638Z" fill="#3F3D56"/>
<path d="M238.633 309.638H241.212C241.384 309.638 241.524 309.498 241.524 309.325V308.03C241.524 307.857 241.384 307.717 241.212 307.717H238.633C238.46 307.717 238.32 307.857 238.32 308.03V309.325C238.32 309.498 238.46 309.638 238.633 309.638Z" fill="#3F3D56"/>
<path d="M232.225 309.638H234.804C234.976 309.638 235.116 309.498 235.116 309.325V308.03C235.116 307.857 234.976 307.717 234.804 307.717H232.225C232.053 307.717 231.912 307.857 231.912 308.03V309.325C231.912 309.498 232.053 309.638 232.225 309.638Z" fill="#3F3D56"/>
<path d="M225.817 309.638H228.396C228.568 309.638 228.708 309.498 228.708 309.325V308.03C228.708 307.857 228.568 307.717 228.396 307.717H225.817C225.645 307.717 225.505 307.857 225.505 308.03V309.325C225.505 309.498 225.645 309.638 225.817 309.638Z" fill="#3F3D56"/>
<path d="M268.75 313.48H293.756C293.929 313.48 294.069 313.34 294.069 313.167V311.872C294.069 311.699 293.929 311.559 293.756 311.559H268.75C268.578 311.559 268.438 311.699 268.438 311.872V313.167C268.438 313.34 268.578 313.48 268.75 313.48Z" fill="#3F3D56"/>
<path d="M197.807 156.845H361.417C361.587 156.841 361.749 156.771 361.868 156.649C361.987 156.528 362.053 156.365 362.053 156.195C362.053 156.025 361.987 155.861 361.868 155.74C361.749 155.618 361.587 155.548 361.417 155.545H197.807C197.637 155.548 197.475 155.618 197.356 155.74C197.238 155.861 197.171 156.025 197.171 156.195C197.171 156.365 197.238 156.528 197.356 156.649C197.475 156.771 197.637 156.841 197.807 156.845Z" fill="#3F3D56"/>
<path d="M350.28 152.225C352.385 152.225 354.093 150.481 354.093 148.33C354.093 146.179 352.385 144.435 350.28 144.435C348.174 144.435 346.467 146.179 346.467 148.33C346.467 150.481 348.174 152.225 350.28 152.225Z" fill="#3F3D56"/>
<path d="M337.107 152.225C339.213 152.225 340.92 150.481 340.92 148.33C340.92 146.179 339.213 144.435 337.107 144.435C335.002 144.435 333.294 146.179 333.294 148.33C333.294 150.481 335.002 152.225 337.107 152.225Z" fill="#3F3D56"/>
<path d="M323.935 152.225C326.041 152.225 327.748 150.481 327.748 148.33C327.748 146.179 326.041 144.435 323.935 144.435C321.829 144.435 320.122 146.179 320.122 148.33C320.122 150.481 321.829 152.225 323.935 152.225Z" fill="#3F3D56"/>
<path d="M205.041 146.109C205.04 146.201 205.058 146.292 205.093 146.377C205.128 146.463 205.179 146.54 205.244 146.606C205.309 146.671 205.386 146.723 205.471 146.759C205.556 146.794 205.647 146.813 205.739 146.813H215.095C215.28 146.809 215.456 146.732 215.585 146.6C215.714 146.468 215.787 146.29 215.787 146.106C215.787 145.921 215.714 145.743 215.585 145.611C215.456 145.479 215.28 145.402 215.095 145.398H205.739C205.552 145.4 205.374 145.476 205.243 145.609C205.112 145.743 205.04 145.922 205.041 146.109Z" fill="#3F3D56"/>
<path d="M205.041 148.766C205.04 148.858 205.058 148.949 205.093 149.035C205.128 149.12 205.179 149.197 205.244 149.263C205.309 149.328 205.386 149.38 205.471 149.416C205.556 149.452 205.647 149.47 205.739 149.47H215.095C215.28 149.466 215.456 149.39 215.585 149.258C215.715 149.126 215.787 148.948 215.787 148.763C215.787 148.578 215.715 148.4 215.585 148.268C215.456 148.136 215.28 148.059 215.095 148.055H205.739C205.552 148.058 205.374 148.134 205.243 148.267C205.112 148.4 205.04 148.579 205.041 148.766Z" fill="#3F3D56"/>
<path d="M205.041 151.417C205.04 151.604 205.112 151.783 205.243 151.916C205.374 152.05 205.552 152.126 205.739 152.128H215.095C215.28 152.124 215.456 152.047 215.585 151.915C215.714 151.783 215.787 151.605 215.787 151.42C215.787 151.235 215.714 151.058 215.585 150.926C215.456 150.793 215.28 150.717 215.095 150.713H205.739C205.647 150.713 205.556 150.732 205.471 150.767C205.386 150.803 205.309 150.855 205.244 150.92C205.179 150.986 205.128 151.063 205.093 151.148C205.058 151.234 205.04 151.325 205.041 151.417Z" fill="#3F3D56"/>
<path d="M207.932 171.954H204.57C203.551 171.954 202.725 172.78 202.725 173.798C202.725 174.817 203.551 175.642 204.57 175.642H207.932C208.951 175.642 209.777 174.817 209.777 173.798C209.777 172.78 208.951 171.954 207.932 171.954Z" fill="#E6E6E6"/>
<path d="M246.38 171.954H243.018C241.999 171.954 241.173 172.78 241.173 173.798C241.173 174.817 241.999 175.642 243.018 175.642H246.38C247.399 175.642 248.225 174.817 248.225 173.798C248.225 172.78 247.399 171.954 246.38 171.954Z" fill="#E6E6E6"/>
<path d="M257.273 171.954H253.911C252.892 171.954 252.066 172.78 252.066 173.798C252.066 174.817 252.892 175.642 253.911 175.642H257.273C258.292 175.642 259.119 174.817 259.119 173.798C259.119 172.78 258.292 171.954 257.273 171.954Z" fill="#E6E6E6"/>
<path d="M235.922 171.647H215.028C214.009 171.647 213.183 172.472 213.183 173.491C213.183 174.509 214.009 175.335 215.028 175.335H235.922C236.941 175.335 237.767 174.509 237.767 173.491C237.767 172.472 236.941 171.647 235.922 171.647Z" fill="#E6E6E6"/>
<path d="M287.185 171.647H266.292C265.273 171.647 264.446 172.472 264.446 173.491C264.446 174.509 265.273 175.335 266.292 175.335H287.185C288.204 175.335 289.031 174.509 289.031 173.491C289.031 172.472 288.204 171.647 287.185 171.647Z" fill="#E6E6E6"/>
<path d="M218.185 180.278H214.823C213.804 180.278 212.978 181.104 212.978 182.123C212.978 183.141 213.804 183.967 214.823 183.967H218.185C219.204 183.967 220.03 183.141 220.03 182.123C220.03 181.104 219.204 180.278 218.185 180.278Z" fill="#E6E6E6"/>
<path d="M256.632 180.278H253.271C252.252 180.278 251.425 181.104 251.425 182.123C251.425 183.141 252.252 183.967 253.271 183.967H256.632C257.652 183.967 258.478 183.141 258.478 182.123C258.478 181.104 257.652 180.278 256.632 180.278Z" fill="#E6E6E6"/>
<path d="M267.526 180.278H264.164C263.145 180.278 262.319 181.104 262.319 182.123C262.319 183.141 263.145 183.967 264.164 183.967H267.526C268.545 183.967 269.371 183.141 269.371 182.123C269.371 181.104 268.545 180.278 267.526 180.278Z" fill="#E6E6E6"/>
<path d="M246.175 179.971H225.281C224.262 179.971 223.436 180.797 223.436 181.815C223.436 182.834 224.262 183.659 225.281 183.659H246.175C247.194 183.659 248.02 182.834 248.02 181.815C248.02 180.797 247.194 179.971 246.175 179.971Z" fill="#E6E6E6"/>
<path d="M297.438 179.971H276.544C275.525 179.971 274.699 180.797 274.699 181.815C274.699 182.834 275.525 183.659 276.544 183.659H297.438C298.457 183.659 299.283 182.834 299.283 181.815C299.283 180.797 298.457 179.971 297.438 179.971Z" fill="#E6E6E6"/>
<path d="M228.437 188.603H225.076C224.056 188.603 223.23 189.428 223.23 190.447C223.23 191.465 224.056 192.291 225.076 192.291H228.437C229.457 192.291 230.283 191.465 230.283 190.447C230.283 189.428 229.457 188.603 228.437 188.603Z" fill="#E6E6E6"/>
<path d="M266.885 188.603H263.523C262.504 188.603 261.678 189.428 261.678 190.447C261.678 191.465 262.504 192.291 263.523 192.291H266.885C267.904 192.291 268.73 191.465 268.73 190.447C268.73 189.428 267.904 188.603 266.885 188.603Z" fill="#E6E6E6"/>
<path d="M277.778 188.603H274.417C273.398 188.603 272.571 189.428 272.571 190.447C272.571 191.465 273.398 192.291 274.417 192.291H277.778C278.798 192.291 279.624 191.465 279.624 190.447C279.624 189.428 278.798 188.603 277.778 188.603Z" fill="#E6E6E6"/>
<path d="M256.427 188.295H235.534C234.514 188.295 233.688 189.121 233.688 190.139C233.688 191.158 234.514 191.983 235.534 191.983H256.427C257.446 191.983 258.273 191.158 258.273 190.139C258.273 189.121 257.446 188.295 256.427 188.295Z" fill="#E6E6E6"/>
<path d="M307.691 188.295H286.797C285.778 188.295 284.952 189.121 284.952 190.139C284.952 191.158 285.778 191.983 286.797 191.983H307.691C308.71 191.983 309.536 191.158 309.536 190.139C309.536 189.121 308.71 188.295 307.691 188.295Z" fill="#E6E6E6"/>
<path d="M238.69 196.927H235.328C234.309 196.927 233.483 197.753 233.483 198.771C233.483 199.789 234.309 200.615 235.328 200.615H238.69C239.709 200.615 240.536 199.789 240.536 198.771C240.536 197.753 239.709 196.927 238.69 196.927Z" fill="#E6E6E6"/>
<path d="M277.138 196.927H273.776C272.757 196.927 271.931 197.753 271.931 198.771C271.931 199.789 272.757 200.615 273.776 200.615H277.138C278.157 200.615 278.983 199.789 278.983 198.771C278.983 197.753 278.157 196.927 277.138 196.927Z" fill="#E6E6E6"/>
<path d="M288.031 196.927H284.669C283.65 196.927 282.824 197.753 282.824 198.771C282.824 199.789 283.65 200.615 284.669 200.615H288.031C289.05 200.615 289.877 199.789 289.877 198.771C289.877 197.753 289.05 196.927 288.031 196.927Z" fill="#E6E6E6"/>
<path d="M266.68 196.619H245.786C244.767 196.619 243.941 197.445 243.941 198.463C243.941 199.482 244.767 200.308 245.786 200.308H266.68C267.699 200.308 268.525 199.482 268.525 198.463C268.525 197.445 267.699 196.619 266.68 196.619Z" fill="#E6E6E6"/>
<path d="M246.38 230.027H243.018C241.999 230.027 241.173 230.853 241.173 231.872C241.173 232.89 241.999 233.716 243.018 233.716H246.38C247.399 233.716 248.225 232.89 248.225 231.872C248.225 230.853 247.399 230.027 246.38 230.027Z" fill="#E6E6E6"/>
<path d="M257.273 230.027H253.911C252.892 230.027 252.066 230.853 252.066 231.872C252.066 232.89 252.892 233.716 253.911 233.716H257.273C258.292 233.716 259.119 232.89 259.119 231.872C259.119 230.853 258.292 230.027 257.273 230.027Z" fill="#E6E6E6"/>
<path d="M287.185 230.335H266.292C265.273 230.335 264.446 231.16 264.446 232.179C264.446 233.197 265.273 234.023 266.292 234.023H287.185C288.204 234.023 289.031 233.197 289.031 232.179C289.031 231.16 288.204 230.335 287.185 230.335Z" fill="#E6E6E6"/>
<path d="M207.932 230.027H204.57C203.551 230.027 202.725 230.853 202.725 231.872C202.725 232.89 203.551 233.716 204.57 233.716H207.932C208.951 233.716 209.777 232.89 209.777 231.872C209.777 230.853 208.951 230.027 207.932 230.027Z" fill="#E6E6E6"/>
<path d="M235.922 230.335H215.028C214.009 230.335 213.183 231.16 213.183 232.179C213.183 233.197 214.009 234.023 215.028 234.023H235.922C236.941 234.023 237.767 233.197 237.767 232.179C237.767 231.16 236.941 230.335 235.922 230.335Z" fill="#E6E6E6"/>
<path d="M218.185 221.703H214.823C213.804 221.703 212.978 222.529 212.978 223.547C212.978 224.566 213.804 225.391 214.823 225.391H218.185C219.204 225.391 220.03 224.566 220.03 223.547C220.03 222.529 219.204 221.703 218.185 221.703Z" fill="#E6E6E6"/>
<path d="M256.632 221.703H253.271C252.252 221.703 251.425 222.529 251.425 223.547C251.425 224.566 252.252 225.391 253.271 225.391H256.632C257.652 225.391 258.478 224.566 258.478 223.547C258.478 222.529 257.652 221.703 256.632 221.703Z" fill="#E6E6E6"/>
<path d="M267.526 221.703H264.164C263.145 221.703 262.319 222.529 262.319 223.547C262.319 224.566 263.145 225.391 264.164 225.391H267.526C268.545 225.391 269.371 224.566 269.371 223.547C269.371 222.529 268.545 221.703 267.526 221.703Z" fill="#E6E6E6"/>
<path d="M246.175 222.011H225.281C224.262 222.011 223.436 222.836 223.436 223.855C223.436 224.873 224.262 225.699 225.281 225.699H246.175C247.194 225.699 248.02 224.873 248.02 223.855C248.02 222.836 247.194 222.011 246.175 222.011Z" fill="#E6E6E6"/>
<path d="M228.437 213.379H225.076C224.056 213.379 223.23 214.205 223.23 215.223C223.23 216.242 224.056 217.067 225.076 217.067H228.437C229.457 217.067 230.283 216.242 230.283 215.223C230.283 214.205 229.457 213.379 228.437 213.379Z" fill="#E6E6E6"/>
<path d="M266.885 213.379H263.523C262.504 213.379 261.678 214.205 261.678 215.223C261.678 216.242 262.504 217.067 263.523 217.067H266.885C267.904 217.067 268.73 216.242 268.73 215.223C268.73 214.205 267.904 213.379 266.885 213.379Z" fill="#E6E6E6"/>
<path d="M277.778 213.379H274.417C273.398 213.379 272.571 214.205 272.571 215.223C272.571 216.242 273.398 217.067 274.417 217.067H277.778C278.798 217.067 279.624 216.242 279.624 215.223C279.624 214.205 278.798 213.379 277.778 213.379Z" fill="#E6E6E6"/>
<path d="M256.427 213.686H235.534C234.514 213.686 233.688 214.512 233.688 215.531C233.688 216.549 234.514 217.375 235.534 217.375H256.427C257.446 217.375 258.273 216.549 258.273 215.531C258.273 214.512 257.446 213.686 256.427 213.686Z" fill="#E6E6E6"/>
<path d="M238.69 205.055H235.328C234.309 205.055 233.483 205.88 233.483 206.899C233.483 207.917 234.309 208.743 235.328 208.743H238.69C239.709 208.743 240.536 207.917 240.536 206.899C240.536 205.88 239.709 205.055 238.69 205.055Z" fill="#E6E6E6"/>
<path d="M277.138 205.055H273.776C272.757 205.055 271.931 205.88 271.931 206.899C271.931 207.917 272.757 208.743 273.776 208.743H277.138C278.157 208.743 278.983 207.917 278.983 206.899C278.983 205.88 278.157 205.055 277.138 205.055Z" fill="#E6E6E6"/>
<path d="M288.031 205.055H284.669C283.65 205.055 282.824 205.88 282.824 206.899C282.824 207.917 283.65 208.743 284.669 208.743H288.031C289.05 208.743 289.877 207.917 289.877 206.899C289.877 205.88 289.05 205.055 288.031 205.055Z" fill="#E6E6E6"/>
<path d="M266.68 205.362H245.786C244.767 205.362 243.941 206.188 243.941 207.206C243.941 208.225 244.767 209.05 245.786 209.05H266.68C267.699 209.05 268.525 208.225 268.525 207.206C268.525 206.188 267.699 205.362 266.68 205.362Z" fill="#E6E6E6"/>
<path d="M224.221 349.585C224.08 349.656 223.939 349.726 223.798 349.79C222.907 350.232 222.01 350.668 221.107 351.097C218.403 352.384 215.664 353.607 212.892 354.766C205.597 357.815 198.111 360.388 190.483 362.469C189.202 354.484 187.958 335.652 186.767 321.802C186.542 319.196 186.318 316.769 186.094 314.624C185.881 311.808 185.476 309.01 184.883 306.248C184.825 306.032 184.741 305.824 184.633 305.627C184.755 306.735 184.883 310.039 185.004 314.624C185.069 316.769 185.126 319.196 185.19 321.802C185.491 335.133 185.805 353.274 186.119 363.602C185.229 363.82 184.332 364.038 183.435 364.242C182.871 364.377 182.3 364.505 181.73 364.627C181.038 364.78 180.346 364.934 179.654 365.075C178.93 365.229 178.206 365.376 177.482 365.517C165.649 367.839 153.618 369.006 141.559 369C140.758 369 139.963 368.994 139.162 368.987C138.919 368.987 138.675 368.981 138.425 368.974C137.72 368.962 136.99 368.949 136.247 368.93C121.996 368.536 107.839 366.497 94.0568 362.853L94.6142 321.802L94.7104 314.624L94.7488 311.902C94.4314 312.778 94.2415 313.694 94.1849 314.624C93.9606 316.372 93.73 318.85 93.4993 321.802C92.6214 333.174 91.7179 351.519 90.7823 361.956C79.703 358.806 71.6034 355.931 61.4789 350.872C61.088 350.68 60.6907 350.482 60.2998 350.283C60.3703 349.79 60.4472 349.297 60.5177 348.791C61.6647 340.826 60.3126 330.459 61.5814 321.802C62.549 315.123 63.5486 308.707 64.5547 303.264C65.7722 296.714 67.0089 291.566 68.2328 289.062C69.6426 286.174 71.0523 283.331 72.4172 280.61C73.0068 279.438 73.5856 278.288 74.1537 277.159C74.4613 276.55 74.7689 275.948 75.0701 275.359C76.4414 272.676 77.7358 270.198 78.9212 268.002C79.7543 266.459 80.5232 265.063 81.2281 263.84C82.0547 262.399 82.7852 261.208 83.3876 260.305C87.8366 253.566 94.4564 248.548 102.15 246.084L102.342 246.032L102.528 246.109L102.739 246.205L114.953 241.742L120.406 228.622L148.415 226.9L152.939 230.338L155.252 232.099L157.719 233.975L162.256 237.427L163.544 237.824L165.46 238.413L178.564 242.434L178.699 242.376L178.891 242.427C185.892 244.667 192.021 249.031 196.423 254.914C196.859 255.477 197.263 256.06 197.654 256.649C198.717 258.224 200.153 260.715 201.844 263.84C202.543 265.127 203.28 266.523 204.055 268.002C204.523 268.892 208.56 281.481 212.488 294.338C216.16 306.376 219.735 318.651 220.203 321.802C220.286 322.384 220.376 322.974 220.459 323.556C220.991 327.2 221.517 330.869 222.023 334.448C222.773 339.756 223.503 344.879 224.202 349.457C224.208 349.502 224.215 349.541 224.221 349.585Z" fill="#3F3D56"/>
<path opacity="0.2" d="M194.538 303.235L189.093 282.237L184.285 300.356L194.538 303.235Z" fill="black"/>
<path d="M10.1432 302.991C10.4255 303.813 10.9611 304.524 11.6729 305.022C12.3848 305.52 13.2363 305.78 14.1053 305.765L31.0811 305.328C31.9564 305.311 32.8027 305.011 33.4935 304.474C34.1843 303.936 34.6825 303.19 34.9135 302.346L37.3158 276.677C38.1681 277.063 39.0959 277.254 40.0314 277.235C41.6728 277.194 43.2307 276.503 44.3622 275.314C45.4937 274.125 46.1062 272.536 46.065 270.895C46.0238 269.255 45.3323 267.698 44.1425 266.568C42.9527 265.437 41.3621 264.825 39.7207 264.866C39.3468 264.865 38.9738 264.904 38.6082 264.982C38.2105 264.552 37.7272 264.21 37.1892 263.978C36.6513 263.746 36.0708 263.629 35.4849 263.635L9.3723 264.309C9.15568 264.317 8.94017 264.344 8.72818 264.389C8.15553 264.496 7.6124 264.724 7.13533 265.058C6.65826 265.392 6.25833 265.824 5.96246 266.325C5.66658 266.827 5.48164 267.386 5.42007 267.964C5.35849 268.543 5.42172 269.129 5.60549 269.681L10.1432 302.991ZM37.8084 274.935L39.5178 268.818C39.7123 268.111 39.7168 267.366 39.5309 266.657C39.6138 266.657 39.687 266.617 39.7699 266.617C40.942 266.593 42.0759 267.034 42.9229 267.844C43.77 268.654 44.261 269.766 44.2885 270.938C44.3159 272.109 43.8775 273.243 43.0693 274.092C42.2612 274.94 41.1492 275.434 39.9773 275.465C39.2195 275.488 38.4697 275.305 37.8084 274.935Z" fill="#2F2E41"/>
<path d="M8.72827 264.389C9.28459 267.567 15.5393 269.802 23.0601 269.414C29.976 269.095 35.6309 266.669 36.6669 263.793C36.2835 263.679 35.8847 263.626 35.485 263.635L9.37239 264.309C9.15578 264.317 8.94026 264.344 8.72827 264.389Z" fill="#3F3D56"/>
<path d="M24.4386 288.886C24.4729 288.878 24.5056 288.863 24.5353 288.844L28.2218 286.432C28.2664 286.403 28.303 286.364 28.3284 286.317C28.3537 286.27 28.367 286.218 28.367 286.165C28.3671 286.112 28.3538 286.059 28.3285 286.013C28.3032 285.966 28.2666 285.926 28.222 285.897L24.3902 283.389C24.3551 283.366 24.3157 283.35 24.2743 283.342C24.2328 283.334 24.1903 283.334 24.149 283.343C24.1077 283.351 24.0685 283.368 24.0336 283.391C23.9987 283.415 23.9688 283.445 23.9457 283.481C23.9226 283.516 23.9067 283.555 23.8989 283.597C23.891 283.638 23.8915 283.681 23.9002 283.722C23.9088 283.763 23.9256 283.802 23.9494 283.837C23.9733 283.872 24.0038 283.901 24.0391 283.924L27.4616 286.164L24.1845 288.308C24.1211 288.349 24.0744 288.412 24.0528 288.485C24.0312 288.557 24.0361 288.635 24.0665 288.705C24.097 288.774 24.1511 288.83 24.2192 288.864C24.2873 288.897 24.3651 288.905 24.4386 288.886Z" fill="#5E17EB"/>
<path d="M18.6159 289.155C18.6778 289.139 18.7335 289.105 18.7761 289.058C18.8186 289.01 18.846 288.951 18.8547 288.888C18.8634 288.825 18.853 288.76 18.8248 288.703C18.7967 288.646 18.752 288.598 18.6967 288.567L15.2985 286.62L18.583 284.182C18.6167 284.157 18.6452 284.125 18.6668 284.089C18.6884 284.053 18.7026 284.013 18.7088 283.972C18.7149 283.93 18.7128 283.888 18.7025 283.847C18.6922 283.806 18.6741 283.768 18.649 283.734C18.6239 283.701 18.5924 283.672 18.5564 283.65C18.5203 283.629 18.4803 283.615 18.4387 283.609C18.3971 283.602 18.3547 283.605 18.3139 283.615C18.2732 283.625 18.2348 283.643 18.2011 283.668L14.5238 286.398C14.4811 286.429 14.4469 286.471 14.4244 286.519C14.4019 286.567 14.3917 286.62 14.3948 286.674C14.398 286.727 14.4143 286.778 14.4423 286.823C14.4703 286.868 14.5091 286.906 14.5553 286.932L18.3778 289.122C18.4499 289.163 18.5353 289.175 18.6159 289.155Z" fill="#5E17EB"/>
<path d="M24.0719 290.999C24.1029 290.992 24.1325 290.979 24.1597 290.962C24.1957 290.94 24.227 290.912 24.2519 290.878C24.2768 290.844 24.2947 290.805 24.3047 290.765C24.3146 290.724 24.3164 290.681 24.31 290.64C24.3035 290.598 24.2889 290.558 24.267 290.522L19.0411 281.937C18.9966 281.865 18.9254 281.813 18.843 281.793C18.7606 281.773 18.6737 281.787 18.6013 281.831C18.5289 281.875 18.4769 281.946 18.4567 282.028C18.4365 282.111 18.4498 282.197 18.4936 282.27L23.7195 290.856C23.7552 290.914 23.8087 290.96 23.8721 290.985C23.9355 291.011 24.0055 291.016 24.0719 290.999Z" fill="#5E17EB"/>
<path d="M503.118 350.282C502.727 350.48 502.329 350.679 501.939 350.871C491.814 355.93 483.714 358.805 472.635 361.955C471.7 351.518 470.796 333.173 469.918 321.8C469.688 318.849 469.457 316.37 469.233 314.622C469.176 313.693 468.986 312.776 468.669 311.901L468.707 314.622L468.803 321.8L469.361 362.851C455.579 366.495 441.422 368.534 427.171 368.928C426.428 368.947 425.697 368.96 424.992 368.973C424.742 368.979 424.499 368.986 424.255 368.986C423.454 368.992 422.66 368.999 421.859 368.999C406.841 369.01 391.878 367.197 377.298 363.601C377.612 353.272 377.926 335.132 378.227 321.8C378.291 319.194 378.349 316.767 378.413 314.622C378.535 310.038 378.663 306.734 378.785 305.626C378.677 305.822 378.593 306.031 378.535 306.247C377.941 309.008 377.537 311.806 377.324 314.622C377.099 316.767 376.875 319.194 376.651 321.8C375.459 335.651 374.216 354.482 372.934 362.467C365.306 360.386 357.821 357.813 350.526 354.764C346.681 353.163 342.905 351.437 339.197 349.584C339.901 344.974 340.638 339.806 341.394 334.447C341.984 330.291 342.593 326.02 343.214 321.8C344.175 315.282 376.83 244.891 384.526 242.426L384.718 242.375L384.853 242.432L397.957 238.411L399.873 237.822L401.161 237.425L405.698 233.974L408.165 232.098L410.478 230.337L415.002 226.898L443.011 228.621L448.464 241.741L460.678 246.204L460.889 246.108L461.075 246.031L461.267 246.082C468.961 248.547 475.581 253.565 480.03 260.304C480.632 261.207 481.363 262.398 482.189 263.838C482.894 265.061 483.663 266.457 484.496 268.001C485.682 270.197 486.976 272.675 488.347 275.358C488.649 275.947 488.956 276.549 489.264 277.157C489.834 278.284 490.413 279.434 491 280.608C492.365 283.33 493.775 286.173 495.185 289.061C496.409 291.564 497.645 296.713 498.863 303.263C499.869 308.706 500.868 315.122 501.836 321.8C503.105 330.458 501.753 340.824 502.9 348.79C502.97 349.296 503.047 349.789 503.118 350.282Z" fill="#3F3D56"/>
<path d="M420.971 222.188C438.962 222.188 453.547 207.615 453.547 189.637C453.547 171.659 438.962 157.085 420.971 157.085C402.98 157.085 388.396 171.659 388.396 189.637C388.396 207.615 402.98 222.188 420.971 222.188Z" fill="#FFB6B6"/>
<path opacity="0.2" d="M368.878 303.235L374.323 282.237L379.131 300.356L368.878 303.235Z" fill="black"/>
<path d="M513.768 289.554C511.82 316.37 513.838 328.178 503.086 350.288C493.302 355.073 483.112 358.978 472.635 361.955C471.546 362.262 470.454 362.561 469.361 362.851C455.579 366.495 441.422 368.534 427.171 368.928C426.428 368.947 425.697 368.96 424.992 368.973C424.742 368.979 424.499 368.986 424.255 368.986C423.454 368.992 422.66 368.999 421.859 368.999C406.841 369.01 391.878 367.197 377.298 363.601C375.837 363.242 374.382 362.864 372.934 362.467C365.306 360.386 357.821 357.813 350.526 354.764C346.681 353.163 342.905 351.437 339.197 349.584C338.357 349.161 337.518 348.739 336.691 348.303C332.443 340.837 330.027 331.757 329.976 320.846C332.917 302.046 507.27 273.341 513.768 289.554Z" fill="#2F2E41"/>
<path opacity="0.2" d="M513.763 294.146C513.862 292.486 513.973 290.771 514.103 288.985C507.605 272.772 333.252 301.478 330.311 320.278C330.319 322.002 330.393 323.674 330.517 325.307C337.64 306.752 503.278 279.469 513.763 294.146Z" fill="black"/>
<path d="M325.64 290.819L339.951 283.668L328.025 251.491L324.882 235.264C324.473 233.156 323.519 231.192 322.112 229.568C320.706 227.944 318.899 226.718 316.869 226.011C314.84 225.304 312.661 225.141 310.55 225.539C308.438 225.938 306.468 226.883 304.836 228.28C302.419 230.351 300.9 233.28 300.602 236.448C300.305 239.616 301.25 242.776 303.239 245.261L314.906 259.834L325.64 290.819Z" fill="#FFB6B6"/>
<path d="M339.951 277.71L320.869 287.243L335.35 332.584C336.39 335.84 338.254 338.772 340.762 341.096C343.269 343.42 346.335 345.058 349.663 345.849C353.765 346.825 358.072 346.47 361.959 344.836C365.846 343.201 369.112 340.372 371.281 336.758L409.681 270.988C412.402 266.456 413.242 261.041 412.021 255.898C410.8 250.756 407.616 246.294 403.147 243.466C400.744 241.945 398.048 240.947 395.233 240.536C392.418 240.126 389.548 240.312 386.81 241.083C384.072 241.854 381.527 243.193 379.341 245.012C377.155 246.83 375.377 249.089 374.122 251.64L350.684 301.544L339.951 277.71Z" fill="#3F3D56"/>
<path d="M134.251 219.942C154.046 219.942 170.094 203.907 170.094 184.126C170.094 164.345 154.046 148.309 134.251 148.309C114.456 148.309 98.4082 164.345 98.4082 184.126C98.4082 203.907 114.456 219.942 134.251 219.942Z" fill="#A0616A"/>
<path d="M98.8387 159.444C101.753 155.519 105.942 152.728 109.146 149.036C110.904 147.01 112.363 144.714 114.34 142.9C118.012 139.53 123.147 138.149 128.13 137.977C133.591 137.837 139.008 138.984 143.943 141.324C148.878 143.664 153.192 147.133 156.537 151.449C159.141 149.923 161.746 148.397 164.35 146.871C165.379 149.577 166.408 152.283 167.437 154.99C168.282 154.256 169.359 153.845 170.478 153.83C171.596 153.814 172.685 154.195 173.549 154.904C174.414 155.613 175 156.606 175.202 157.706C175.404 158.805 175.211 159.941 174.655 160.911C175.275 158.998 178.115 158.591 179.68 159.856C181.246 161.12 181.665 163.37 181.41 165.365C181.089 167.554 180.121 169.598 178.629 171.232C177.137 172.867 175.19 174.018 173.038 174.539C169.639 175.295 165.683 174.5 162.963 176.672C160.782 178.414 160.124 181.585 157.898 183.269C155.156 185.343 151.279 184.384 147.87 184.842C141.905 185.645 137.183 191.741 137.899 197.712C137.36 195.828 136.793 193.889 135.568 192.358C134.343 190.828 132.28 189.793 130.402 190.355C127.296 191.286 126.788 195.515 127.541 198.666C129.537 207.022 137.101 220.529 137.101 220.529C127.279 224.4 115.578 220.74 107.999 213.393C100.421 206.047 96.4744 195.644 94.7551 185.234C93.2972 176.407 93.5038 166.629 98.8387 159.444Z" fill="#2F2E41"/>
<path d="M461.795 207.581C468.614 191.958 464.751 177.582 456.438 169.956V169.949C453.17 162.631 448.825 156.983 443.853 155.657C441.45 154.114 439.117 152.302 436.528 151.38C435.322 150.929 434.038 150.726 432.751 150.785C431.465 150.843 430.204 151.161 429.044 151.719L427.724 151.367C426.602 148.505 425.289 148.447 423.828 150.33C418.202 147.711 413.133 146.539 408.622 146.539C393.909 146.539 385.207 158.987 382.9 174.035L395.197 177.307L399.471 170.5L397.498 177.921L404.284 179.721C414.613 193.161 402.252 224.165 386.585 241.416C390.314 240.385 394.029 239.514 397.728 238.803L411.172 219.107L402.842 237.036C407.167 236.402 412.684 237.01 418.714 238.233C420.746 235.582 421.816 232.048 420.765 228.897C422.483 232.22 423.668 235.792 424.276 239.482C437.002 242.588 454.362 244.182 463.717 245.36C471.276 242.895 471.296 215.047 461.795 207.581Z" fill="#2F2E41"/>
<path d="M466.231 154.44C471.226 165.615 461.148 170.422 451.915 170.287C443.572 170.164 436.482 164.307 436.056 155.981C435.852 151.982 437.245 148.067 439.93 145.095C442.615 142.123 446.371 140.338 450.373 140.134C458.705 139.708 462.829 146.827 466.231 154.44Z" fill="#2F2E41"/>
<path d="M234.518 336.367L226.291 322.654L253.647 301.915L265.021 289.915C266.499 288.356 268.36 287.212 270.419 286.597C272.478 285.982 274.662 285.918 276.754 286.41C278.845 286.903 280.771 287.936 282.338 289.405C283.905 290.875 285.059 292.729 285.684 294.784C286.61 297.828 286.316 301.113 284.864 303.946C283.413 306.778 280.916 308.936 277.903 309.964L260.228 315.993L234.518 336.367Z" fill="#A0616A"/>
<path d="M240.465 335.915L227.656 346.582L224.202 349.457L223.798 349.79C222.907 350.232 222.01 350.668 221.107 351.097C218.403 352.384 215.664 353.607 212.892 354.766C205.597 357.815 198.112 360.388 190.483 362.469C189.035 362.866 187.58 363.243 186.119 363.602C185.229 363.82 184.332 364.037 183.435 364.242C182.871 364.377 182.3 364.505 181.73 364.627C181.038 364.78 180.346 364.934 179.654 365.075C178.93 365.229 178.206 365.376 177.482 365.517C175.533 363.664 173.982 361.435 172.922 358.965C171.863 356.495 171.316 353.835 171.317 351.148C171.317 350.975 171.317 350.796 171.324 350.616L173.38 297.899L174.29 274.533C174.431 269.249 176.633 264.23 180.428 260.547C184.222 256.864 189.307 254.81 194.597 254.824C195.212 254.824 195.821 254.856 196.423 254.914C196.859 255.477 197.263 256.06 197.654 256.649C198.717 258.224 200.153 260.715 201.845 263.84C202.543 265.127 203.28 266.523 204.055 268.002C204.523 268.892 208.56 281.481 212.488 294.338L210.758 307.766L207.631 331.97L220.46 323.556L229.495 317.627L230.565 319.413L233.352 324.062L238.735 333.027L240.465 335.915Z" fill="#3F3D56"/>
<path d="M233.442 320.848C233.436 321.936 233.41 323.006 233.352 324.062C233.219 326.977 232.88 329.878 232.34 332.745C231.455 337.559 229.878 342.22 227.656 346.582C227.361 347.165 227.047 347.741 226.727 348.305C225.9 348.74 225.06 349.163 224.221 349.585C224.08 349.656 223.939 349.726 223.798 349.79C220.229 351.564 216.593 353.223 212.892 354.766C205.597 357.815 198.112 360.388 190.483 362.469C189.035 362.866 187.581 363.244 186.119 363.602C183.268 364.306 180.389 364.945 177.482 365.517C165.649 367.839 153.618 369.006 141.559 369C140.758 369 139.963 368.994 139.162 368.987C138.919 368.987 138.675 368.981 138.425 368.974C137.72 368.962 136.99 368.949 136.247 368.93C121.996 368.536 107.839 366.497 94.0568 362.853C92.9611 362.565 91.8696 362.266 90.7824 361.956C80.3056 358.979 70.1152 355.075 60.3319 350.29C49.5794 328.179 51.5979 316.372 49.6499 289.555C53.6484 279.573 121.297 286.623 173.381 297.899C187.516 300.959 200.499 304.334 210.758 307.766C221.357 311.307 229.04 314.906 232.051 318.287C232.755 318.986 233.239 319.877 233.442 320.848Z" fill="#2F2E41"/>
<path opacity="0.2" d="M49.6537 294.146C49.5542 292.486 49.443 290.771 49.3132 288.985C55.8109 272.772 230.164 301.478 233.105 320.278C233.097 322.002 233.023 323.674 232.899 325.307C225.777 306.752 60.1388 279.469 49.6537 294.146Z" fill="black"/>
</g>
<defs>
<clipPath id="clip0_423_875">
<rect width="564" height="369" fill="white"/>
</clipPath>
</defs>
</svg>
